<?xml version="1.0" encoding="UTF-8"?>
<svg width="19px" height="16px" viewBox="0 0 19 16" version="1.1" xmlns="http://www.w3.org/2000/svg" xmlns:xlink="http://www.w3.org/1999/xlink">
    <title>cart</title>
    <g id="Page-1" stroke="none" stroke-width="1" fill="none" fill-rule="evenodd" opacity="0.699999988">
        <g id="Senshive" transform="translate(-1265.000000, -72.000000)" fill="#000000" fill-rule="nonzero">
            <g id="cart" transform="translate(1265.000000, 72.000000)">
                <path d="M18.7179294,5.36932606 C18.4670329,5.05476673 18.0906327,4.87430862 17.6851757,4.87430862 L14.0260438,4.87430862 L12.0418431,0.333817842 C11.9188256,0.0523017028 11.5907046,-0.0763479464 11.3089703,0.0466647046 C11.027236,0.169603185 10.8985778,0.497550388 11.0216324,0.779103612 L12.8112316,4.8743457 L6.18876839,4.8743457 L7.97836756,0.779103612 C8.10138511,0.497550388 7.97276405,0.16964027 7.69102974,0.0466647046 C7.40933255,-0.0763479464 7.08117442,0.0522275317 6.95815688,0.333817842 L4.97395619,4.8743457 L1.31482428,4.8743457 C0.909367348,4.8743457 0.53296705,5.05476673 0.282070628,5.36936315 C0.0357757663,5.67821131 -0.0551050707,6.07524883 0.0327327983,6.45878722 L1.98680068,14.9884555 C2.12325182,15.5840489 2.65046458,16 3.26889216,16 L15.7311078,16 C16.3495354,16 16.8767482,15.5840489 17.0131993,14.9884555 L18.9672672,6.45875013 C19.0551051,6.07521174 18.9642242,5.67817423 18.7179294,5.36932606 Z M15.7311078,14.8873975 L3.26889216,14.8873975 C3.1743746,14.8873975 3.09158361,14.8254647 3.07202697,14.7400938 L1.11795909,6.2104997 C1.10263293,6.14356034 1.12834972,6.09319822 1.15269346,6.06275101 C1.17525595,6.03441768 1.22635555,5.98691113 1.31482428,5.98691113 L4.48778639,5.98691113 L4.34198369,6.3205695 C4.21896614,6.60212273 4.34758721,6.93003285 4.62932151,7.05300841 C4.70183321,7.08467944 4.77738788,7.09966199 4.85179216,7.09966199 C5.06635851,7.09966199 5.27083112,6.97494341 5.36219438,6.76589236 L5.70259859,5.98691113 L13.2974756,5.98691113 L13.6378798,6.76589236 C13.7292431,6.97498049 13.9337157,7.09966199 14.1482821,7.09966199 C14.2226492,7.09966199 14.298241,7.08467944 14.3707527,7.05300841 C14.652487,6.93006993 14.7811452,6.60212273 14.6580905,6.3205695 L14.5122878,5.98691113 L17.6852499,5.98691113 C17.7737187,5.98691113 17.8248183,6.03441768 17.8473808,6.06275101 C17.8716874,6.0932353 17.8974413,6.14359743 17.8821151,6.21046261 L15.9280472,14.7401309 C15.9084535,14.8254647 15.8256254,14.8873975 15.7311078,14.8873975 Z" id="Shape"></path>
                <path d="M6.16015707,8.39743248 C5.85274308,8.39743248 5.60351658,8.64649879 5.60351658,8.95371519 L5.60351658,13.0331218 C5.60351658,13.3403382 5.85274308,13.5894045 6.16015707,13.5894045 C6.46757106,13.5894045 6.71679756,13.3403382 6.71679756,13.0331218 L6.71679756,8.95371519 C6.71679756,8.64649879 6.46760817,8.39743248 6.16015707,8.39743248 Z" id="Path"></path>
                <path d="M9.5,8.39743248 C9.19258601,8.39743248 8.94335951,8.64649879 8.94335951,8.95371519 L8.94335951,13.0331218 C8.94335951,13.3403382 9.19258601,13.5894045 9.5,13.5894045 C9.80741399,13.5894045 10.0566405,13.3403382 10.0566405,13.0331218 L10.0566405,8.95371519 C10.0566405,8.64649879 9.80741399,8.39743248 9.5,8.39743248 Z" id="Path"></path>
                <path d="M12.8398429,8.39743248 C12.5324289,8.39743248 12.2832024,8.64649879 12.2832024,8.95371519 L12.2832024,13.0331218 C12.2832024,13.3403382 12.5324289,13.5894045 12.8398429,13.5894045 C13.1472569,13.5894045 13.3964834,13.3403382 13.3964834,13.0331218 L13.3964834,8.95371519 C13.3964463,8.64649879 13.1472569,8.39743248 12.8398429,8.39743248 Z" id="Path"></path>
            </g>
        </g>
    </g>
</svg>