<?xml version="1.0" encoding="UTF-8"?>
<svg width="16px" height="17px" viewBox="0 0 16 17" version="1.1" xmlns="http://www.w3.org/2000/svg" xmlns:xlink="http://www.w3.org/1999/xlink">
    <title>search</title>
    <g id="Page-1" stroke="none" stroke-width="1" fill="none" fill-rule="evenodd" opacity="0.699999988">
        <g id="Senshive" transform="translate(-1188.000000, -71.000000)" fill="#000000" fill-rule="nonzero">
            <g id="search" transform="translate(1188.000000, 71.000000)">
                <path d="M15.8044826,15.790875 L11.2545326,10.9565 C12.1358667,9.79980273 12.6665171,8.33 12.6665171,6.72917773 C12.6665171,3.01892773 9.82520456,0 6.33324292,0 C2.84128128,0 0,3.01889453 0,6.72914453 C0,10.4393945 2.84131253,13.4583223 6.33327417,13.4583223 C7.83991387,13.4583223 9.22324242,12.8945 10.3118867,11.9580723 L14.8618367,16.7924473 C14.9918353,16.9305723 15.1624897,17 15.3331753,17 C15.5038609,17 15.6745153,16.9305723 15.8045139,16.7924473 C16.0651673,16.5155 16.0651673,16.0678223 15.8044826,15.790875 Z M6.33327417,12.0416445 C3.57596071,12.0416445 1.3333291,9.65882227 1.3333291,6.72914453 C1.3333291,3.7994668 3.57596071,1.41664453 6.33327417,1.41664453 C9.09058763,1.41664453 11.3332192,3.7994668 11.3332192,6.72914453 C11.3332192,9.65882227 9.09055638,12.0416445 6.33327417,12.0416445 Z" id="Shape"></path>
            </g>
        </g>
    </g>
</svg>