<?xml version="1.0" encoding="UTF-8"?>
<svg width="19px" height="19px" viewBox="0 0 19 19" version="1.1" xmlns="http://www.w3.org/2000/svg" xmlns:xlink="http://www.w3.org/1999/xlink">
    <title>setting</title>
    <g id="Page-1" stroke="none" stroke-width="1" fill="none" fill-rule="evenodd" opacity="0.699999988">
        <g id="Senshive" transform="translate(-1225.000000, -70.000000)" fill="#000000" fill-rule="nonzero">
            <g id="setting" transform="translate(1225.000000, 70.000000)">
                <path d="M10.0961992,19 L8.90376367,19 C7.93932812,19 7.15465039,18.2153594 7.15465039,17.2509238 L7.15465039,16.8475078 C6.74462891,16.7165117 6.34625977,16.5511523 5.96355078,16.3530996 L5.67766016,16.6389902 C4.98523633,17.3322676 3.87607422,17.3119316 3.20376367,16.6387305 L2.36097266,15.7959766 C1.68747461,15.1232207 1.66810352,14.0144297 2.36119531,13.3220801 L2.64686328,13.0364121 C2.44881055,12.6537031 2.28348828,12.2554082 2.15245508,11.8453125 L1.74907617,11.8453125 C0.784677734,11.8453125 0,11.0606719 0,10.0962363 L0,8.90376367 C0,7.93932813 0.784677734,7.1546875 1.74911328,7.1546875 L2.15249219,7.1546875 C2.28352539,6.74462891 2.44884766,6.34629688 2.64690039,5.96358789 L2.36100977,5.67773438 C1.66832617,4.98579297 1.6874375,3.87689063 2.36123242,3.20383789 L3.20409766,2.36100977 C3.8779668,1.68621289 4.98686914,1.66936523 5.67795703,2.36123242 L5.96358789,2.64686328 C6.34629687,2.44884766 6.74466602,2.28348828 7.1546875,2.15245508 L7.1546875,1.74907617 C7.1546875,0.784640625 7.93932813,0 8.90380078,0 L10.0962363,0 C11.0606719,0 11.8453125,0.784640625 11.8453125,1.74907617 L11.8453125,2.15249219 C12.255334,2.28348828 12.6537031,2.44884766 13.0364121,2.64690039 L13.3223027,2.36100977 C14.0147266,1.66773242 15.1238887,1.68806836 15.7961992,2.36126953 L16.6389902,3.20402344 C17.3124883,3.8767793 17.3318594,4.98557031 16.6387676,5.67791992 L16.3530996,5.96358789 C16.5511523,6.34629688 16.7164746,6.7445918 16.8475078,7.1546875 L17.2508867,7.1546875 C18.2153223,7.1546875 19,7.93932813 19,8.90376367 L19,10.0962363 C19,11.0606719 18.2153223,11.8453125 17.2508867,11.8453125 L16.8475078,11.8453125 C16.7164746,12.2553711 16.5511523,12.6537031 16.3530996,13.0364121 L16.6389902,13.3223027 C17.3316738,14.0142441 17.3125625,15.1231465 16.6387676,15.7961992 L15.7959023,16.6390273 C15.1220332,17.3138242 14.0131309,17.3306719 13.322043,16.6388047 L13.0364121,16.3531738 C12.6537031,16.5511895 12.255334,16.7165488 11.8453125,16.847582 L11.8453125,17.250998 C11.8453125,18.2153594 11.0606719,19 10.0961992,19 Z M6.1496543,15.184043 C6.68132031,15.4984707 7.25354688,15.7360078 7.85041406,15.8900488 C8.09622656,15.9534687 8.26796875,16.1751602 8.26796875,16.4290254 L8.26796875,17.2509238 C8.26796875,17.6014961 8.55322852,17.8867188 8.90380078,17.8867188 L10.0962363,17.8867188 C10.4468086,17.8867188 10.7320684,17.6014961 10.7320684,17.2509238 L10.7320684,16.4290254 C10.7320684,16.1751602 10.9038105,15.9534687 11.149623,15.8900488 C11.7464902,15.7360078 12.3187168,15.4984707 12.8503828,15.184043 C13.0691426,15.0546797 13.3476484,15.0898594 13.5273691,15.2695801 L14.109541,15.8517891 C14.3605488,16.1030937 14.7636309,16.0972676 15.0084785,15.8520488 L15.8518633,15.0087012 C16.0961172,14.7647441 16.1042813,14.3615879 15.8520859,14.1097266 L15.2696543,13.5272949 C15.0899707,13.3476113 15.054791,13.0690684 15.1841172,12.8503457 C15.4985449,12.3187168 15.7360449,11.7464902 15.8900859,11.1495859 C15.953543,10.9037734 16.1752344,10.7320684 16.4290625,10.7320684 L17.2509238,10.7320684 C17.6014961,10.7320684 17.8867559,10.4468457 17.8867559,10.0962734 L17.8867559,8.90380078 C17.8867559,8.55322852 17.6014961,8.26800586 17.2509238,8.26800586 L16.4290625,8.26800586 C16.1751973,8.26800586 15.953543,8.09626367 15.8900859,7.85048828 C15.7360449,7.25358398 15.4985078,6.68135742 15.1841172,6.14972852 C15.054791,5.93100586 15.0899707,5.65246289 15.2696543,5.4727793 L15.8518633,4.89057031 C16.1035391,4.63919141 16.0969707,4.23618359 15.8520859,3.9915957 L15.0087754,3.14828516 C14.7643359,2.90351172 14.3611797,2.89634961 14.1098008,3.1480625 L13.5274063,3.73049414 C13.3477227,3.91021484 13.0691055,3.94539453 12.8504199,3.81603125 C12.3187539,3.50160352 11.7465273,3.26406641 11.1496602,3.11002539 C10.9038477,3.04660547 10.7321055,2.82491406 10.7321055,2.57104883 L10.7321055,1.74907617 C10.7321055,1.39850391 10.4468457,1.11328125 10.0962734,1.11328125 L8.90383789,1.11328125 C8.55326562,1.11328125 8.26800586,1.39850391 8.26800586,1.74907617 L8.26800586,2.57097461 C8.26800586,2.82483984 8.09626367,3.04653125 7.85045117,3.10995117 C7.25358398,3.26399219 6.68135742,3.5015293 6.14969141,3.81595703 C5.93089453,3.9452832 5.65238867,3.91010352 5.47270508,3.73041992 L4.8905332,3.14821094 C4.63952539,2.89690625 4.23640625,2.90273242 3.9915957,3.14795117 L3.14821094,3.99129883 C2.90395703,4.23525586 2.89579297,4.638375 3.14798828,4.89027344 L3.73041992,5.47270508 C3.91010352,5.65238867 3.9452832,5.93093164 3.81595703,6.1496543 C3.5015293,6.6812832 3.2640293,7.25350977 3.10998828,7.85041406 C3.04653125,8.09622656 2.82483984,8.26793164 2.57101172,8.26793164 L1.74911328,8.26793164 C1.39854102,8.26796875 1.11328125,8.55319141 1.11328125,8.90376367 L1.11328125,10.0962363 C1.11328125,10.4468086 1.39854102,10.7320312 1.74911328,10.7320312 L2.57097461,10.7320312 C2.82483984,10.7320312 3.04649414,10.9037734 3.10995117,11.1495488 C3.26399219,11.7464531 3.5015293,12.3186797 3.81591992,12.8503086 C3.94524609,13.0690312 3.91006641,13.3475742 3.73038281,13.5272578 L3.14817383,14.1094668 C2.89649805,14.3608457 2.90306641,14.7638535 3.14795117,15.0084414 L3.99126172,15.851752 C4.23570117,16.0965254 4.63885742,16.1036875 4.89023633,15.8519746 L5.47263086,15.269543 C5.60503711,15.1371738 5.8805,15.0248438 6.1496543,15.184043 L6.1496543,15.184043 Z" id="Shape"></path>
                <path d="M9.5,13.6339844 C7.22048242,13.6339844 5.36601563,11.7794805 5.36601563,9.5 C5.36601563,7.22051953 7.22048242,5.36601563 9.5,5.36601563 C11.7795176,5.36601563 13.6339844,7.22051953 13.6339844,9.5 C13.6339844,11.7794805 11.7795176,13.6339844 9.5,13.6339844 Z M9.5,6.47929688 C7.8343457,6.47929688 6.47929688,7.83438281 6.47929688,9.5 C6.47929688,11.1656172 7.83438281,12.5207031 9.5,12.5207031 C11.1656172,12.5207031 12.5207031,11.1656172 12.5207031,9.5 C12.5207031,7.83438281 11.1656543,6.47929688 9.5,6.47929688 L9.5,6.47929688 Z" id="Shape"></path>
            </g>
        </g>
    </g>
</svg>