<?xml version="1.0" encoding="UTF-8"?>
<svg width="23px" height="27px" viewBox="0 0 23 27" version="1.1" xmlns="http://www.w3.org/2000/svg" xmlns:xlink="http://www.w3.org/1999/xlink">
    <title>apple</title>
    <g id="Page-1" stroke="none" stroke-width="1" fill="none" fill-rule="evenodd">
        <g id="Login" transform="translate(-479.000000, -245.000000)" fill="#000000" fill-rule="nonzero">
            <g id="apple" transform="translate(479.086746, 245.565733)">
                <path d="M7.47042794,26.2877155 C3.38192824,26.2651759 0,18.2786393 0,14.2112828 C0,7.56726805 5.20847639,6.11271535 7.21578536,6.11271535 C8.12039429,6.11271535 9.08632991,6.45265864 9.93830412,6.75347841 C10.5340798,6.96331805 11.150244,7.17993499 11.492933,7.17993499 C11.6980529,7.17993499 12.1814231,6.99566426 12.6081882,6.83398454 C13.5183235,6.48726395 14.6508552,6.05634052 15.9696742,6.05634052 C15.972035,6.05634052 15.9752005,6.05634052 15.9775077,6.05634052 C16.9622759,6.05634052 19.9481292,6.26315091 21.743236,8.84283837 L22.1637236,9.44750717 L21.5585585,9.88448909 C20.6940292,10.5087197 19.1165972,11.647409 19.1165972,13.9029669 C19.1165972,16.5744046 20.9030657,17.601782 21.7613175,18.0959089 C22.1401694,18.3140147 22.5323276,18.5388979 22.5323276,19.0307657 C22.5323276,19.3519174 19.8538052,26.2478732 15.9641478,26.2478732 C15.0123769,26.2478732 14.3396075,25.9741113 13.7461926,25.7326956 C13.1457491,25.4882506 12.6277719,25.2776922 11.771881,25.2776922 C11.3380335,25.2776922 10.7894199,25.4739772 10.2086137,25.6823279 C9.41490791,25.9657937 8.51652286,26.2877155 7.49714771,26.2877155 L7.47042794,26.2877155 Z" id="Path"></path>
                <path d="M16.381738,0 C16.4830371,3.4952393 13.8708849,5.92007568 11.261791,5.76799714 C10.8318603,2.97867542 13.8705629,0 16.381738,0 Z" id="Path"></path>
            </g>
        </g>
    </g>
</svg>