<?xml version="1.0" encoding="UTF-8"?>
<svg width="532px" height="397px" viewBox="0 0 532 397" version="1.1" xmlns="http://www.w3.org/2000/svg" xmlns:xlink="http://www.w3.org/1999/xlink">
    <!-- Generator: Sketch 64 (93537) - https://sketch.com -->
    <title>become partner</title>
    <desc>Created with Sketch.</desc>
    <g id="z" stroke="none" stroke-width="1" fill="none" fill-rule="evenodd">
        <g id="become-partner" fill-rule="nonzero">
            <g id="freepik--background-complete--inject-47">
                <rect id="Rectangle" fill="#EBEBEB" x="0" y="348.403333" width="532" height="1"></rect>
                <rect id="Rectangle" fill="#EBEBEB" x="349.92832" y="356.850611" width="35.23968" height="1"></rect>
                <rect id="Rectangle" fill="#EBEBEB" x="425.36592" y="356.988917" width="43.77296" height="1"></rect>
                <rect id="Rectangle" fill="#EBEBEB" x="379.59264" y="363.936111" width="20.41816" height="1"></rect>
                <rect id="Rectangle" fill="#EBEBEB" x="185.136" y="361.925361" width="54.97688" height="1"></rect>
                <rect id="Rectangle" fill="#EBEBEB" x="139.07544" y="361.925361" width="36.59096" height="1"></rect>
                <rect id="Rectangle" fill="#EBEBEB" x="67.34056" y="357.43575" width="49.83776" height="1"></rect>
                <path d="M252.168,300.953889 L46.72024,300.953889 C43.3690231,300.94802 40.65544,298.229955 40.65544,294.879083 L40.65544,6.10772222 C40.6845994,2.77763489 43.3896821,0.0918157256 46.72024,0.0861111111 L252.168,0.0861111111 C255.523373,0.0861111111 258.24344,2.8058942 258.24344,6.16091667 L258.24344,294.879083 C258.24344,298.234106 255.523373,300.953889 252.168,300.953889 Z M46.72024,0.298888889 C43.5159308,0.304756984 40.92144,2.90374231 40.92144,6.10772222 L40.92144,294.879083 C40.92144,298.083063 43.5159308,300.682049 46.72024,300.687917 L252.168,300.687917 C255.374036,300.682061 257.971584,298.084785 257.97744,294.879083 L257.97744,6.10772222 C257.971584,2.90202058 255.374036,0.304744066 252.168,0.298888889 L46.72024,0.298888889 Z" id="Shape" fill="#EBEBEB"></path>
                <path d="M482.32184,300.953889 L276.86344,300.953889 C273.510496,300.948033 270.793857,298.231677 270.788,294.879083 L270.788,6.10772222 C270.82295,2.77592049 273.531112,0.0917529959 276.86344,0.0861111111 L482.32184,0.0861111111 C485.648248,0.0976337851 488.346892,2.78176901 488.376,6.10772222 L488.376,294.879083 C488.376,298.225814 485.6689,300.942167 482.32184,300.953889 Z M276.86344,0.298888889 C273.657404,0.304744066 271.059856,2.90202058 271.054,6.10772222 L271.054,294.879083 C271.059856,298.084785 273.657404,300.682061 276.86344,300.687917 L482.32184,300.687917 C485.527876,300.682061 488.125424,298.084785 488.13128,294.879083 L488.13128,6.10772222 C488.125424,2.90202058 485.527876,0.304744066 482.32184,0.298888889 L276.86344,0.298888889 Z" id="Shape" fill="#EBEBEB"></path>
                <rect id="Rectangle" fill="#F5F5F5" x="37.00592" y="0.250111111" width="148.20456" height="271"></rect>
                <polygon id="Path" fill="#EBEBEB" points="108.528 271.26075 69.87288 271.26075 69.87288 98.52775 108.528 85.8993889"></polygon>
                <polygon id="Path" fill="#E6E6E6" points="140.79912 271.26075 102.144 271.26075 102.144 139.902389 140.79912 127.274028"></polygon>
                <polygon id="Path" fill="#E6E6E6" points="136.18136 136.231972 126.95648 136.231972 126.95648 104.889806 136.18136 101.879"></polygon>
                <rect id="Rectangle" fill="#F5F5F5" x="191.58384" y="0.250111111" width="148.20456" height="271"></rect>
                <rect id="Rectangle" fill="#E6E6E6" x="191.58384" y="168.574194" width="43.50696" height="102.686556"></rect>
                <rect id="Rectangle" fill="#F5F5F5" x="346.80016" y="0.250111111" width="148.20456" height="271"></rect>
                <polygon id="Path" fill="#EBEBEB" points="462.72296 271.26075 431.27112 271.26075 431.27112 63.4087778 462.72296 50.7697778"></polygon>
                <polygon id="Path" fill="#E6E6E6" points="494.99408 271.26075 456.33896 271.26075 456.33896 139.902389 494.99408 127.274028"></polygon>
                <polygon id="Path" fill="#E6E6E6" points="356.44 271.250111 433.75024 271.250111 433.75024 169.127417 356.44 159.307722"></polygon>
                <polygon id="Path" fill="#E6E6E6" points="490.38696 136.231972 485.7692 136.231972 485.7692 104.889806 490.38696 101.879"></polygon>
                <polygon id="Path" fill="#E6E6E6" points="475.29944 143.774944 470.69232 143.774944 470.69232 112.432778 475.29944 109.411333"></polygon>
                <path d="M60.17984,185.436833 L77.78904,185.436833 L77.78904,271.26075 L48.70992,271.26075 L48.70992,196.905556 C48.70992,190.571555 53.8451781,185.436833 60.17984,185.436833 Z" id="Path" fill="#EBEBEB"></path>
                <rect id="Rectangle" fill="#EBEBEB" x="146.57664" y="188.447639" width="38.63384" height="82.8131111"></rect>
                <polygon id="Path" fill="#EBEBEB" points="273.72464 201.278139 235.0908 188.447639 235.0908 271.26075 273.72464 271.26075"></polygon>
                <polygon id="Path" fill="#E6E6E6" points="288.35464 201.278139 249.7208 188.447639 249.7208 271.26075 288.35464 271.26075"></polygon>
                <polygon id="Path" fill="#F0F0F0" points="288.35464 188.128472 326.98848 175.297972 326.98848 271.26075 288.35464 271.26075"></polygon>
                <polygon id="Path" fill="#FFFFFF" opacity="0.5" points="117.9444 271.250111 78.11888 271.250111 160.20648 0.250111111 200.032 0.250111111"></polygon>
                <polygon id="Path" fill="#FFFFFF" opacity="0.5" points="237.3252 271.250111 197.49968 271.250111 279.57664 0.250111111 319.4128 0.250111111"></polygon>
                <polygon id="Path" fill="#FFFFFF" opacity="0.5" points="287.1736 271.250111 247.34808 271.250111 329.43568 0.250111111 369.2612 0.250111111"></polygon>
                <polygon id="Path" fill="#FFFFFF" opacity="0.5" points="383.04 271.250111 363.13256 271.250111 445.22016 0.250111111 465.1276 0.250111111"></polygon>
                <path d="M117.93376,295.847222 C129.42496,234.226778 159.7064,205.310278 185.47648,190.586056 C160.79168,213.927778 144.00176,294.687583 117.93376,295.847222 Z" id="Path" fill="#FAFAFA"></path>
                <path d="M92.74888,290.995889 C84.23688,244.5465 63.77616,226.375278 46.45424,218.651444 C63.16968,233.269278 75.40568,293.921583 92.74888,290.995889 Z" id="Path" fill="#FAFAFA"></path>
                <path d="M107.6236,303.294444 C104.34648,236.482222 78.8956,207.150806 56.00896,193.064917 C76.77824,216.747083 82.71536,304.19875 107.6236,303.294444 Z" id="Path" fill="#FAFAFA"></path>
                <path d="M107.6236,297.560083 C112.9436,230.428694 141.33112,199.012056 166.5692,183.064361 C143.39528,208.427472 134.6492,296.432361 107.6236,297.560083 Z" id="Path" fill="#FAFAFA"></path>
                <path d="M111.81576,308.060667 C120.32776,239.099389 101.5056,197.543889 82.41744,172.563778 C97.888,206.203944 88.22688,297.251556 111.81576,308.060667 Z" id="Path" fill="#FAFAFA"></path>
                <path d="M138.32,287.080778 C159.80216,246.908333 186.75328,237.333333 207.48,236.354556 C185.55096,243.972 156.17392,296.038722 138.32,287.080778 Z" id="Path" fill="#FAFAFA"></path>
                <path d="M133.86184,288.602139 C147.40656,243.078333 173.04896,223.704917 194.11616,214.746972 C173.22984,230.343583 154.15232,289.878806 133.86184,288.602139 Z" id="Path" fill="#FAFAFA"></path>
                <path d="M110.09208,308.284083 C133.24472,236.8865 122.7856,192.862778 108.59184,166.052778 C117.24216,201.724972 88.312,296.06 110.09208,308.284083 Z" id="Path" fill="#FAFAFA"></path>
                <path d="M70.8092,282.612444 L70.8092,327.529833 C70.8092,339.009194 91.52528,348.403333 116.85912,348.403333 L116.85912,348.403333 C142.18232,348.403333 162.90904,339.009194 162.90904,327.529833 L162.90904,282.612444 L70.8092,282.612444 Z" id="Path" fill="#F5F5F5"></path>
                <path d="M425.6,312.294944 C423.05704,269.92025 404.80944,250.036167 388.43448,239.9505 C403.37304,255.962028 407.8844,311.518306 425.6,312.294944 Z" id="Path" fill="#E0E0E0"></path>
                <path d="M443.30496,308.98625 C453.11504,277.069583 468.73456,264.536972 481.26848,259.217528 C468.55368,269.25 454.93448,310.986361 443.30496,308.98625 Z" id="Path" fill="#E0E0E0"></path>
                <path d="M432.05848,317.444167 C440.0704,271.505444 460.03104,251.334111 476.92736,241.652722 C460.712,257.919583 449.008,318.050583 432.05848,317.444167 Z" id="Path" fill="#E0E0E0"></path>
                <path d="M432.55856,313.497139 C434.68656,267.324361 417.98176,245.727417 402.07496,234.769361 C415.758,252.227778 414.14072,312.7205 432.55856,313.497139 Z" id="Path" fill="#E0E0E0"></path>
                <path d="M428.792,320.710306 C428.90904,273.292778 445.40104,244.716722 460.63752,227.534917 C447.146,250.6745 445.8692,313.273722 428.792,320.710306 Z" id="Path" fill="#E0E0E0"></path>
                <path d="M412.4596,306.283972 C401.19184,278.622861 383.56136,272.069306 369.45272,271.399056 C383.80608,276.633389 399.43624,312.443889 412.4596,306.283972 Z" id="Path" fill="#E0E0E0"></path>
                <path d="M415.35368,307.337222 C410.03368,276.026972 394.12688,262.739 380.47576,256.547167 C393.42464,267.271167 401.35144,308.209611 415.35368,307.337222 Z" id="Path" fill="#E0E0E0"></path>
                <path d="M429.94112,320.869889 C420.24808,271.771417 431.21792,241.503778 443.25176,223.077222 C434.25032,247.589222 445.87984,312.454528 429.94112,320.869889 Z" id="Path" fill="#E0E0E0"></path>
                <path d="M456.73264,303.294444 L456.73264,334.147222 C456.73264,342.030639 442.50696,348.477806 425.1212,348.477806 L425.1212,348.477806 C407.73544,348.477806 393.5204,342.030639 393.5204,334.147222 L393.5204,303.294444 L456.73264,303.294444 Z" id="Path" fill="#F5F5F5"></path>
            </g>
            <g id="freepik--Shadow--inject-47" transform="translate(60.000000, 372.000000)" fill="#F5F5F5">
                <ellipse id="freepik--path--inject-47" cx="206.5" cy="12.26" rx="206.382912" ry="12.2633333"></ellipse>
            </g>
            <g id="freepik--Contract--inject-47" transform="translate(242.000000, 37.000000)">
                <path d="M42.4489796,41.5415909 L42.4489796,55.5454545 C42.4431506,57.6019118 40.7883692,59.2675418 38.7453061,59.2734091 L4.60571429,59.2734091 C2.56265125,59.2675418 0.907869848,57.6019118 0.902040816,55.5454545 L0.902040816,4.77477273 C0.919474245,2.72666331 2.57087812,1.0739586 4.60571429,1.06793578 L38.6922449,1.06793578 C39.6791743,1.05679199 40.6300243,1.44125569 41.3348687,2.13669202 C42.0397131,2.83212834 42.4405845,3.78134367 42.4489796,4.77477273 L42.4489796,26.9288636" id="Path" fill="#FFFFFF"></path>
                <path d="M38.6922449,59.8827615 L4.60571429,59.8827615 C2.26132188,59.8827615 0.360816327,57.9693076 0.360816327,55.6095455 L0.360816327,4.77477273 C0.360816327,2.41501061 2.26132188,0.502045455 4.60571429,0.502045455 L38.6922449,0.502045455 C41.0366373,0.502045455 42.9371429,2.41501061 42.9371429,4.77477273 L42.9371429,26.9288636 L41.8122449,26.9288636 L41.8122449,4.77477273 C41.8122449,3.00495114 40.3868657,1.57022727 38.6285714,1.57022727 L4.60571429,1.57022727 C2.84741998,1.57022727 1.42204082,3.00495114 1.42204082,4.77477273 L1.42204082,55.5454545 C1.42204082,57.3152761 2.84741998,58.75 4.60571429,58.75 L38.6922449,58.75 C40.4505392,58.75 41.8759184,57.3152761 41.8759184,55.5454545 L41.8759184,41.5415909 L43.0008163,41.5415909 L43.0008163,55.5454545 C43.0181685,56.7009161 42.5698053,57.8141799 41.7579994,58.6313079 C40.9461935,59.448436 39.8401807,59.8997386 38.6922449,59.8827615 Z" id="Path" fill="#E53E37"></path>
                <path d="M19.1020408,52.3409091 C19.801683,51.8999658 20.5283,51.50395 21.277551,51.1552273 C21.6236281,50.9973409 21.9778798,50.858277 22.3387755,50.7386364 C22.7379191,50.5748747 23.1608428,50.4774696 23.5910204,50.4502273 L23.1559184,50.2045455 C23.0816327,50.0870455 23.0391837,50.3861364 23.0179592,50.4609091 L22.8693878,50.8347727 C22.7446125,51.0994193 22.6553935,51.3796076 22.6040816,51.6679545 C22.5479746,51.8763781 22.5963418,52.0992469 22.7336824,52.265136 C22.8710229,52.4310252 23.0800884,52.5191008 23.2938776,52.5011364 C24.4068636,52.3005341 25.4702695,51.8832683 26.4244898,51.2727273 L26.0318367,51.2727273 C26.1485714,51.2727273 26.2865306,51.4329545 26.4032653,51.4756818 C26.5772128,51.5388361 26.7597284,51.5748581 26.9444898,51.5825 C27.3583673,51.5825 27.7722449,51.5184091 28.1861224,51.5825 C28.8334694,51.6465909 28.8228571,50.6318182 28.1861224,50.5784091 C27.7510204,50.5784091 27.2946939,50.6745455 26.8702041,50.5784091 C26.4457143,50.4822727 26.3183673,50.1831818 25.8726531,50.3861364 C25.4269388,50.5890909 25.0661224,50.8561364 24.6310204,51.0377273 C24.4300157,51.1236084 24.2245458,51.1984903 24.0155102,51.2620455 L23.6122449,51.3795455 C23.4955102,51.3795455 23.2832653,51.3795455 23.4530612,51.5504545 L23.6016327,51.9029545 C23.6016327,51.2193182 24.3232653,50.5784091 24.1322449,49.8734091 C23.9412245,49.1684091 23.0710204,49.4781818 22.5510204,49.6063636 C21.1416275,50.0176097 19.8005387,50.636755 18.5714286,51.4436364 C18.3311284,51.5822724 18.2479813,51.890738 18.3857143,52.1326136 C18.5234474,52.3744892 18.8299039,52.4581815 19.0702041,52.3195455 L19.1020408,52.3409091 Z" id="Path" fill="#E0E0E0"></path>
                <rect id="Rectangle" fill="#E0E0E0" x="4.84979592" y="8.64159091" width="33.5877551" height="1.12159091"></rect>
                <rect id="Rectangle" fill="#E0E0E0" x="4.84979592" y="16.5995455" width="29.7885714" height="1.12159091"></rect>
                <rect id="Rectangle" fill="#E0E0E0" x="4.84979592" y="24.5681818" width="33.5877551" height="1.12159091"></rect>
                <rect id="Rectangle" fill="#E0E0E0" x="4.84979592" y="32.5368182" width="9.23265306" height="1.12159091"></rect>
                <rect id="Rectangle" fill="#E0E0E0" x="17.9559184" y="32.5368182" width="12.2783673" height="1.12159091"></rect>
                <rect id="Rectangle" fill="#E0E0E0" x="4.84979592" y="40.4947727" width="33.5877551" height="1.12159091"></rect>
                <path d="M9.46612245,54.7229545 C6.60596371,54.7229545 4.28734694,52.3891371 4.28734694,49.5102273 C4.28734694,46.6313175 6.60596371,44.2975 9.46612245,44.2975 C12.3262812,44.2975 14.644898,46.6313175 14.644898,49.5102273 C14.644898,52.3891371 12.3262812,54.7229545 9.46612245,54.7229545 Z M9.46612245,45.4297727 C7.82122526,45.4297727 6.33849783,46.4277115 5.71001892,47.9577762 C5.08154,49.4878409 5.43122998,51.2483465 6.59586736,52.4175584 C7.76050473,53.5867703 9.51045202,53.934149 11.0289028,53.2975518 C12.5473535,52.6609546 13.534907,51.1659027 13.5306262,49.5102273 C13.5247621,47.2549277 11.7067404,45.4297727 9.46612245,45.4297727 L9.46612245,45.4297727 Z" id="Shape" fill="#E53E37"></path>
                <path d="M12.5224675,49.5102273 C12.5267446,50.7554631 11.7848242,51.8804911 10.6431,52.3600212 C9.50137582,52.8395514 8.18505848,52.5789939 7.30875344,51.7000065 C6.4324484,50.8210192 6.16901112,49.4969864 6.64144385,48.3461162 C7.11387658,47.1952459 8.22898964,46.4445455 9.46612245,46.4445455 C11.1499493,46.4445455 12.5166024,47.8153716 12.5224675,49.5102273 L12.5224675,49.5102273 Z" id="Path" fill="#E53E37"></path>
                <path d="M29.7991837,48.5915909 C29.97883,47.1285386 30.4947924,45.7277702 31.3061224,44.5004545 C32.0702041,43.3361364 32.9934694,42.3640909 33.842449,41.2211364 C35.5510204,39.0847727 37.3232653,36.9484091 39.1485714,34.8120455 C42.7355102,30.6140909 46.3755102,26.4588636 50.3444898,22.56 C50.5530477,22.3801774 50.8590249,22.374553 51.0739666,22.5465911 C51.2889083,22.7186291 51.3523873,23.0199638 51.2253061,23.265 C48.36,28.0397727 45.1657143,32.5581818 41.9183673,37.0338636 C40.2840816,39.2556818 38.6285714,41.4668182 36.9306122,43.6459091 C36.0710204,44.7140909 35.2857143,45.8677273 34.3306122,46.8504545 C33.3309919,47.9269001 32.0954731,48.7535408 30.722449,49.2645455 C30.3771209,49.3800051 30.0027432,49.2010099 29.8734694,48.8586364 C29.8316467,48.7753477 29.8064112,48.6846298 29.7991837,48.5915909 L29.7991837,48.5915909 Z" id="Path" fill="#E53E37"></path>
                <polygon id="Rectangle" fill="#E53E37" transform="translate(29.423959, 89.897895) rotate(-41.090000) translate(-29.423959, -89.897895) " points="24.7857257 89.3537028 34.0658099 89.323651 34.0621913 90.4420863 24.7821071 90.4721381"></polygon>
                <polygon id="Rectangle" fill="#E53E37" transform="translate(23.307494, 83.682822) rotate(-77.370000) translate(-23.307494, -83.682822) " points="16.5220914 83.134938 30.0944546 83.1160708 30.0928959 84.2307058 16.5205327 84.249573"></polygon>
                <polygon id="Rectangle" fill="#E53E37" transform="translate(15.384879, 89.556631) rotate(-43.120000) translate(-15.384879, -89.556631) " points="14.8353151 86.7097625 15.9530139 86.7061177 15.9344431 92.4035001 14.8167443 92.4071448"></polygon>
            </g>
            <g id="freepik--character-2--inject-47" transform="translate(255.000000, 26.000000)">
                <polygon id="Path" fill="#7F3E3B" points="81.9682803 349.721395 72.916242 349.721395 71.81 328.735341 80.8514013 328.735341"></polygon>
                <polygon id="Path" fill="#7F3E3B" points="127.600764 349.721395 118.548726 349.721395 115.006624 328.735341 124.048025 328.735341"></polygon>
                <path d="M117.963694,348.666683 L128.121975,348.666683 C128.488105,348.661344 128.803828,348.923334 128.866561,349.284629 L130.270637,357.33816 C130.329374,357.745699 130.208175,358.158668 129.93859,358.469562 C129.669005,358.780456 129.277708,358.958516 128.866561,358.957389 C125.324459,358.893472 123.611911,358.680415 119.133758,358.680415 C116.389427,358.680415 108.975478,358.968042 105.178089,358.968042 C101.380701,358.968042 101.061592,355.207596 102.625223,354.866706 C109.677516,353.343353 114.134395,351.234095 116.453248,349.231365 C116.872603,348.867462 117.408817,348.667027 117.963694,348.666683 L117.963694,348.666683 Z" id="Path" fill="#263238"></path>
                <path d="M72.6928662,348.666683 L82.563949,348.666683 C82.9300797,348.661344 83.2458029,348.923334 83.308535,349.284629 L84.7126115,357.33816 C84.7783246,357.743351 84.6625715,358.156966 84.3961569,358.468931 C84.1297424,358.780896 83.7396922,358.959565 83.3298089,358.957389 C79.7770701,358.893472 74.6287898,358.680415 70.1506369,358.680415 C64.9172611,358.680415 63.5876433,358.968042 57.4394904,358.968042 C53.7271975,358.968042 52.876242,355.207596 54.4505096,354.866706 C61.598535,353.322047 64.1833121,353.151602 70.4697452,349.380504 C71.1322509,348.944682 71.9008305,348.697928 72.6928662,348.666683 Z" id="Path" fill="#263238"></path>
                <path d="M72.4056688,67.5495252 L60.0455414,63.9169139 C60.0455414,63.9169139 47.4514013,93.8832938 43.1859873,95.8753709 C37.3888535,98.5385757 21.9121019,106.709288 15.3597452,110.565608 C14.9129936,112.04635 14.9023567,116.105074 15.6150318,117.276884 C26.347707,116.424659 48.3661783,109.127478 52.5996815,105.058101 C62.2580255,95.7688427 72.4056688,67.5495252 72.4056688,67.5495252 Z" id="Path" fill="#7F3E3B"></path>
                <path d="M76.1498726,61.8928783 C79.6600637,69.7333531 55.5567516,104.120653 55.5567516,104.120653 L43.8561146,91.9551335 C43.8561146,91.9551335 54.2058599,65.9302967 59.8115287,55.9486053 C65.5342038,45.6899407 72.3312102,53.264095 76.1498726,61.8928783 Z" id="Path" fill="#E53E37"></path>
                <path d="M76.1498726,61.8928783 C79.6600637,69.7333531 55.5567516,104.120653 55.5567516,104.120653 L43.8561146,91.9551335 C43.8561146,91.9551335 54.2058599,65.9302967 59.8115287,55.9486053 C65.5342038,45.6899407 72.3312102,53.264095 76.1498726,61.8928783 Z" id="Path" fill="#FFFFFF" opacity="0.4"></path>
                <path d="M43.0051592,90.8791988 C42.2712102,91.3159644 40.6969427,94.1815727 40.3459236,95.6090504 C39.9949045,97.0365282 48.2278981,108.051543 51.4296178,107.604125 C54.6313376,107.156706 58.2904459,104.03543 58.9499363,102.352285 C59.6094268,100.669139 44.5475159,89.9737092 43.0051592,90.8791988 Z" id="Path" fill="#E53E37"></path>
                <path d="M16.7319108,109.883828 L9.28605096,108.520267 L9.73280255,119.173086 C9.73280255,119.173086 12.3494904,120.238368 17.9870701,116.744243 L16.7319108,109.883828 Z" id="Path" fill="#7F3E3B"></path>
                <polygon id="Path" fill="#7F3E3B" points="0.287197452 112.067656 1.64872611 118.619139 9.67961783 119.215697 9.23286624 108.53092"></polygon>
                <polygon id="Path" fill="#000000" opacity="0.2" points="71.81 328.745994 72.3843949 339.558605 81.4257962 339.558605 80.8620382 328.745994"></polygon>
                <polygon id="Path" fill="#000000" opacity="0.2" points="124.058662 328.745994 115.006624 328.745994 116.836178 339.558605 125.888217 339.558605"></polygon>
                <path d="M64.6513376,51.1974481 C64.6513376,51.1974481 52.5784076,82.3249852 60.300828,133.277418 L108.68828,133.277418 C109.369045,125.820445 106.560892,85.7764985 115.357643,50.728724 C110.040397,49.6902271 104.660655,49.0034107 99.2533121,48.67273 C92.4016844,48.2783103 85.5330926,48.2783103 78.681465,48.67273 C73.9473497,49.1550251 69.2569753,49.9990569 64.6513376,51.1974481 L64.6513376,51.1974481 Z" id="Path" fill="#E53E37"></path>
                <path d="M64.6513376,51.1974481 C64.6513376,51.1974481 52.5784076,82.3249852 60.300828,133.277418 L108.68828,133.277418 C109.369045,125.820445 106.560892,85.7764985 115.357643,50.728724 C110.040397,49.6902271 104.660655,49.0034107 99.2533121,48.67273 C92.4016844,48.2783103 85.5330926,48.2783103 78.681465,48.67273 C73.9473497,49.1550251 69.2569753,49.9990569 64.6513376,51.1974481 L64.6513376,51.1974481 Z" id="Path" fill="#000000" opacity="0.2"></path>
                <path d="M104.433503,59.3788131 C103.369809,65.1526409 104.507962,78.9480415 109.241401,94.8953116 C109.817419,81.2041317 111.597127,67.5904286 114.559873,54.2121958 L114.559873,54.1482789 C111.347516,53.8180415 105.465287,53.967181 104.433503,59.3788131 Z" id="Path" fill="#000000" opacity="0.2"></path>
                <path d="M97.4875796,29.4124332 C95.8707643,36.0384866 94.8389809,44.2518101 99.2533121,48.67273 C99.2533121,48.67273 96.2749682,55.4053116 83.9786624,55.4053116 C72.735414,55.4053116 78.6601911,48.67273 78.6601911,48.67273 C86.106051,46.9150148 86.1805096,37.7748961 85.1380892,32.6189318 L97.4875796,29.4124332 Z" id="Path" fill="#7F3E3B"></path>
                <path d="M84.0318471,55.3946588 C91.2756051,57.6637092 92.7115924,59.9860237 92.7115924,59.9860237 C92.7115924,59.9860237 101.742357,56.3108012 101.401975,48.3424926 C100.305077,47.5303226 99.1204824,46.8442332 97.8705096,46.2971513 C97.8705096,46.2971513 97.1046497,52.1988131 84.0318471,55.3946588 Z" id="Path" fill="#E53E37"></path>
                <path d="M84.0318471,55.3946588 C79.968535,55.7781602 76.5859873,59.261632 76.5859873,59.261632 C76.5859873,59.261632 74.0012102,56.5451632 76.4796178,48.6620772 C76.4796178,48.6620772 78.8942038,47.8418101 80.893949,47.4156973 C80.8407643,47.4263501 79.2133121,53.6902077 84.0318471,55.3946588 Z" id="Path" fill="#E53E37"></path>
                <path d="M85.1593631,32.6295846 C85.7763057,35.6443323 86.0103185,40.0865579 84.5849682,43.5061128 C85.7474451,43.3153116 86.8760989,42.956474 87.9356051,42.4408309 C92.1903822,40.4807122 94.3815924,37.3807418 96.7429936,32.8532938 C96.9557325,31.6708309 97.2110191,30.5203264 97.4875796,29.4124332 L85.1593631,32.6295846 Z" id="Path" fill="#000000" opacity="0.2"></path>
                <path d="M83.7233758,8.23462908 C80.8301274,9.18272997 74.3628662,14.7435015 80.532293,17.5451929 C86.7017197,20.3468843 88.7652866,6.59409496 83.7233758,8.23462908 Z" id="Path" fill="#263238"></path>
                <path d="M103.242166,21.305638 C100.423376,29.9983383 99.2107643,35.1543027 93.6689172,38.7762611 C85.3401911,44.1026706 75.713758,37.7109792 75.9371338,28.5282493 C76.1285987,20.2083976 80.7024841,7.39305638 90.0736306,5.74186944 C99.4447771,4.09068249 106.060955,12.6448961 103.242166,21.305638 Z" id="Path" fill="#7F3E3B"></path>
                <path d="M89.6481529,11.7926706 C84.8615287,12.6022849 80.8726752,12.3466172 79.426051,8.36246291 C77.9794268,4.37830861 84.5636943,0.202403561 89.1056688,2.0772997 C92.4563057,-1.41682493 101.604076,1.26768546 102.784777,4.62332344 C108.103248,4.28243323 113.134522,10.418457 109.528599,13.5610386 C111.181138,14.5893359 112.268506,16.3227483 112.476284,18.26005 C112.684062,20.1973518 111.989079,22.1224947 110.592293,23.4788131 C112.145287,28.1021365 106.550255,32.7148071 102.135924,30.839911 C97.785414,29.5402671 95.4133758,30.605549 94.8070701,27.7932047 C94.2007643,24.9808605 95.7324841,22.2643917 99.4341401,21.7210979 C97.5620382,19.4840059 97.1046497,15.94727 98.3704459,14.4239169 C93.892293,16.4586053 90.2225485,13.9019288 89.6481529,11.7926706 Z" id="Path" fill="#263238"></path>
                <path d="M83.9042038,30.5309792 C85.6133218,30.6746612 87.3091463,30.1302673 88.6163694,29.0182789 C88.6987638,28.9318323 88.6987638,28.7957938 88.6163694,28.7093472 C88.578092,28.6675664 88.5240702,28.6437816 88.4674522,28.6437816 C88.4108342,28.6437816 88.3568125,28.6675664 88.318535,28.7093472 C86.8807014,29.9037425 84.9766733,30.3745746 83.1489809,29.9876855 C83.0322213,29.967729 82.9202079,30.0425161 82.8936943,30.1581306 C82.8776269,30.2121214 82.8860805,30.270457 82.9168102,30.3176461 C82.9475398,30.3648352 82.9974359,30.3961027 83.0532484,30.4031454 C83.3345661,30.4601013 83.618581,30.5027671 83.9042038,30.5309792 Z" id="Path" fill="#263238"></path>
                <path d="M103.742102,33.311365 C101.931743,34.7271857 99.6450534,35.3874985 97.3599363,35.1543027 C94.3922293,34.8240653 94.1688535,31.8945401 96.0303185,29.6787537 C97.7109554,27.6760237 101.284968,25.4176261 103.763376,26.8877151 C106.241783,28.3578042 105.965223,31.542997 103.742102,33.311365 Z" id="Path" fill="#7F3E3B"></path>
                <path d="M92.1052866,133.277418 C92.1052866,133.277418 90.8714013,144.675935 89.2971338,160.111869 C87.4888535,177.614451 85.2444586,200.336914 83.8191083,217.637092 C83.8191083,217.722315 83.8191083,217.796884 83.8191083,217.871454 C83.5425478,221.163175 83.2978981,224.263145 83.0957962,227.054184 C81.0747771,255.294807 84.6913376,337.449347 84.6913376,337.449347 L69.3528662,337.449347 C69.3528662,337.449347 55.2270064,253.611662 55.5780255,224.870356 C55.9077707,197.247596 60.2901911,133.256113 60.2901911,133.256113 L92.1052866,133.277418 Z" id="Path" fill="#E53E37"></path>
                <path d="M85.9464968,331.45181 C86.0209554,331.45181 85.6805732,337.779585 85.6805732,337.779585 L68.0126115,337.779585 L67.5658599,330.833947 L85.9464968,331.45181 Z" id="Path" fill="#263238"></path>
                <path d="M89.3503185,160.111869 C87.5420382,177.614451 85.2976433,200.336914 83.872293,217.637092 C83.872293,217.722315 83.872293,217.796884 83.872293,217.871454 C80.5003822,201.45546 79.4473248,181.044659 80.7556688,147.435015 L89.3503185,160.111869 Z" id="Path" fill="#000000" opacity="0.2"></path>
                <path d="M77.4582166,133.277418 C77.4582166,133.277418 84.5211465,198.749644 88.9142038,224.689258 C93.7327389,253.100326 112.751592,337.46 112.751592,337.46 L129.323949,337.46 C129.323949,337.46 118.155159,255.433294 115.963949,227.26724 C113.602548,196.736261 108.720191,133.277418 108.720191,133.277418 L77.4582166,133.277418 Z" id="Path" fill="#E53E37"></path>
                <path d="M129.526051,331.835312 C129.60051,331.835312 130.100446,337.779585 130.100446,337.779585 L111.89,337.779585 L110.560382,331.142878 L129.526051,331.835312 Z" id="Path" fill="#263238"></path>
                <path d="M88.2121656,20.9221365 C88.0207006,21.6358754 87.4994904,22.1365579 87.0421019,21.9874184 C86.5847134,21.8382789 86.3613376,21.2204154 86.5421656,20.5066766 C86.7229936,19.7929377 87.2548408,19.2922552 87.7122293,19.4413947 C88.1696178,19.5905341 88.3929936,20.2403561 88.2121656,20.9221365 Z" id="Path" fill="#263238"></path>
                <path d="M80.2557325,19.1750742 C80.0642675,19.8888131 79.5430573,20.3894955 79.0856688,20.2403561 C78.6282803,20.0912166 78.4049045,19.4840059 78.5857325,18.7596142 C78.7665605,18.0352226 79.2984076,17.5451929 79.7557962,17.6943323 C80.2131847,17.8434718 80.4365605,18.4613353 80.2557325,19.1750742 Z" id="Path" fill="#263238"></path>
                <path d="M83.9680255,20.0912166 C82.5599718,22.0986013 80.8973125,23.9141421 79.0218471,25.4921958 C79.9578981,26.9409792 82.2129299,26.8664095 82.2129299,26.8664095 L83.9680255,20.0912166 Z" id="Path" fill="#630F0F"></path>
                <path d="M92.5414013,18.834184 C92.4135232,18.8003534 92.3078847,18.7102308 92.2542038,18.5891691 C91.8746206,17.5886124 91.0201031,16.8447924 89.9778981,16.6077448 C89.865579,16.5925908 89.764772,16.5309079 89.7000511,16.4377328 C89.6353302,16.3445577 89.6126415,16.2284505 89.6375159,16.1177151 C89.6807792,15.8826094 89.9009487,15.7231001 90.1374522,15.7555193 C91.4660894,16.0279517 92.5646157,16.9594791 93.0519745,18.2269733 C93.1355227,18.450498 93.0336948,18.7008122 92.8179618,18.8022255 C92.7319616,18.843636 92.6345582,18.8548917 92.5414013,18.834184 Z" id="Path" fill="#263238"></path>
                <path d="M78.7133758,15.5318101 C78.6557999,15.5078294 78.602044,15.4755278 78.5538217,15.4359347 C78.4726159,15.3558437 78.4268898,15.2464725 78.4268898,15.1323294 C78.4268898,15.0181863 78.4726159,14.9088151 78.5538217,14.828724 C79.4660683,13.7690116 80.8319291,13.213922 82.2235669,13.3373294 C82.335886,13.3524834 82.436693,13.4141662 82.5014139,13.5073414 C82.5661347,13.6005165 82.5888234,13.7166237 82.563949,13.8273591 C82.5159554,14.0594357 82.2991239,14.2165267 82.0640127,14.1895549 L82.0640127,14.1895549 C80.958093,14.1076191 79.8794436,14.5587164 79.1601274,15.4039763 C79.0443344,15.5228341 78.8743899,15.5714622 78.7133758,15.5318101 L78.7133758,15.5318101 Z" id="Path" fill="#263238"></path>
                <path d="M120.718662,63.0966469 L109.294586,70.0209792 C109.294586,70.0209792 122.058917,97.7183086 121.984459,102.373591 C121.77172,111.066291 125.505287,129.911128 124.494777,139.839555 C125.898854,140.340237 129.813248,140.457418 131.047134,139.764985 C133.312803,130.784659 136.450701,107.188665 135.546561,101.27635 C133.568089,88.4183976 120.718662,63.0966469 120.718662,63.0966469 Z" id="Path" fill="#7F3E3B"></path>
                <path d="M115.357643,50.728724 C123.867197,51.9751039 135.993312,95.225549 135.993312,95.225549 L120.250637,101.20178 C120.250637,101.20178 106.539618,77.7655786 103.178344,67.2299407 C99.5617834,56.2362315 106.241783,49.3864688 115.357643,50.728724 Z" id="Path" fill="#E53E37"></path>
                <path d="M115.357643,50.728724 C123.867197,51.9751039 135.993312,95.225549 135.993312,95.225549 L120.250637,101.20178 C120.250637,101.20178 106.539618,77.7655786 103.178344,67.2299407 C99.5617834,56.2362315 106.241783,49.3864688 115.357643,50.728724 Z" id="Path" fill="#FFFFFF" opacity="0.4"></path>
                <path d="M114.878981,350.254036 C114.270607,350.307066 113.663314,350.14085 113.166433,349.785312 C112.844608,349.505422 112.69486,349.075774 112.772866,348.656113 C112.786425,348.397863 112.936424,348.166439 113.166433,348.048902 C114.230127,347.537567 117.027643,349.32724 117.346752,349.540297 C117.4191,349.584605 117.453725,349.671298 117.431847,349.753353 C117.410874,349.837271 117.345449,349.902794 117.261656,349.923798 C116.48289,350.125963 115.6833,350.236786 114.878981,350.254036 Z M113.634459,348.347181 C113.539257,348.341218 113.444101,348.359544 113.357898,348.400445 C113.266609,348.44801 113.209239,348.542402 113.208981,348.64546 C113.154264,348.934636 113.250498,349.231799 113.464268,349.433769 C113.932293,349.849228 115.112994,349.902493 116.65535,349.593561 C115.74274,348.978097 114.71512,348.554115 113.634459,348.347181 L113.634459,348.347181 Z" id="Shape" fill="#E53E37"></path>
                <path d="M117.219108,349.934451 C117.187855,349.943625 117.154629,349.943625 117.123376,349.934451 C116.208599,349.433769 114.496051,347.441691 114.740701,346.429674 C114.822536,346.107166 115.110503,345.879944 115.442739,345.875727 C115.768176,345.832293 116.096743,345.929074 116.346879,346.142047 C117.357389,347.004926 117.410573,349.625519 117.410573,349.732047 C117.410666,349.812967 117.370858,349.888714 117.304204,349.934451 C117.275996,349.938683 117.247316,349.938683 117.219108,349.934451 Z M115.570382,346.216617 L115.47465,346.216617 C115.198089,346.216617 115.166178,346.376409 115.155541,346.429674 C115.006624,347.026231 116.091592,348.560237 116.985096,349.231365 C116.981548,348.212903 116.657754,347.221437 116.059682,346.397715 C115.924227,346.27938 115.750122,346.214941 115.570382,346.216617 L115.570382,346.216617 Z" id="Shape" fill="#E53E37"></path>
                <path d="M68.8529299,350.254036 C68.0840486,350.326579 67.3137495,350.130894 66.6723567,349.700089 C66.3871956,349.424633 66.2558878,349.026137 66.3213376,348.634807 C66.3471502,348.3918 66.4902158,348.176882 66.7042675,348.059555 C67.8317834,347.441691 71.3845223,349.295282 71.7887261,349.508338 C71.8668408,349.553218 71.9058798,349.644445 71.8844586,349.732047 C71.8680618,349.824415 71.7958602,349.896724 71.7036306,349.913145 C70.7656417,350.112854 69.8114999,350.226951 68.8529299,350.254036 L68.8529299,350.254036 Z M67.2999363,348.347181 C67.1612203,348.339845 67.0227333,348.365394 66.8957325,348.421751 C66.8118443,348.471854 66.7566064,348.558786 66.7468153,348.656113 C66.7029126,348.911702 66.7909498,349.1722 66.980828,349.348546 C67.5126752,349.838576 68.9912102,349.923798 71.0122293,349.593561 C69.8564104,348.965464 68.6002209,348.543707 67.2999363,348.347181 Z" id="Shape" fill="#E53E37"></path>
                <path d="M71.6717197,349.934451 L71.5759873,349.934451 C70.512293,349.444421 68.3849045,347.484303 68.650828,346.461632 C68.650828,346.216617 68.8954777,345.918338 69.4805096,345.865074 C69.904471,345.810757 70.3311597,345.942839 70.6505732,346.22727 C71.7142675,347.175371 71.8844586,349.614866 71.8950955,349.721395 C71.8935383,349.79901 71.8537051,349.870817 71.7887261,349.913145 C71.7539228,349.935083 71.7120061,349.942715 71.6717197,349.934451 L71.6717197,349.934451 Z M69.6294268,346.216617 L69.5017834,346.216617 C69.1188535,346.216617 69.0869427,346.408368 69.0763057,346.450979 C68.9486624,347.068843 70.3421019,348.581543 71.4270701,349.273976 C71.3726265,348.255129 71.0006176,347.279011 70.3633758,346.482938 C70.1612698,346.304216 69.898937,346.209026 69.6294268,346.216617 L69.6294268,346.216617 Z" id="Shape" fill="#E53E37"></path>
                <path d="M99.7524304,151.963853 L155.108475,151.953259 C157.367319,151.951263 159.198825,153.782067 159.199257,156.040912 C159.199257,156.041434 159.199257,156.041955 159.197693,156.042476 L159.190739,192.43276 C159.188742,194.690994 157.358191,196.521546 155.099957,196.523543 L99.7439126,196.534137 C97.4850683,196.536134 95.6535625,194.705329 95.6531302,192.446484 C95.6531301,192.445963 95.6531301,192.445441 95.6546943,192.44492 L95.6616489,156.054636 C95.6636451,153.796403 97.4941971,151.96585 99.7524304,151.963853 Z" id="Rectangle" fill="#263238" transform="translate(127.426194, 174.243698) rotate(-7.430000) translate(-127.426194, -174.243698) "></path>
                <path d="M99.7524304,151.963853 L155.108475,151.953259 C157.367319,151.951263 159.198825,153.782067 159.199257,156.040912 C159.199257,156.041434 159.199257,156.041955 159.197693,156.042476 L159.190739,192.43276 C159.188742,194.690994 157.358191,196.521546 155.099957,196.523543 L99.7439126,196.534137 C97.4850683,196.536134 95.6535625,194.705329 95.6531302,192.446484 C95.6531301,192.445963 95.6531301,192.445441 95.6546943,192.44492 L95.6616489,156.054636 C95.6636451,153.796403 97.4941971,151.96585 99.7524304,151.963853 Z" id="Rectangle" fill="#000000" opacity="0.3" transform="translate(127.426194, 174.243698) rotate(-7.430000) translate(-127.426194, -174.243698) "></path>
                <path d="M121.995096,160.346231 C121.085879,160.345665 120.202704,160.042089 119.484777,159.483353 C118.615884,158.811815 118.046405,157.824264 117.899873,156.734926 L116.942548,149.341869 C116.800814,148.254012 117.096737,147.154351 117.765123,146.285152 C118.433509,145.415953 119.419518,144.84853 120.505924,144.707893 L132.791592,143.099318 C135.055919,142.803474 137.131495,144.400621 137.429299,146.668012 L138.397261,154.061068 C138.680523,156.325488 137.091599,158.396547 134.833885,158.705697 L134.833885,158.705697 L122.53758,160.30362 C122.357735,160.328397 122.176598,160.342625 121.995096,160.346231 Z M133.334076,145.432285 L133.110701,145.432285 L120.814395,147.040861 C120.359753,147.099209 119.947057,147.336558 119.667591,147.700407 C119.388124,148.064256 119.264917,148.52462 119.325223,148.979674 L120.282548,156.37273 C120.345462,156.829808 120.586365,157.243402 120.952675,157.523234 C121.315508,157.803255 121.775231,157.92603 122.229108,157.864125 L134.514777,156.266202 C135.461326,156.133745 136.128044,155.267138 136.014586,154.316736 L135.089172,147.008902 C135.031182,146.552719 134.793791,146.138583 134.429682,145.858398 C134.119891,145.606007 133.733418,145.46697 133.334076,145.464243 L133.334076,145.432285 Z" id="Shape" fill="#263238"></path>
                <path d="M104.930202,151.289338 L160.286246,151.278744 C162.545091,151.276747 164.376596,153.107552 164.377029,155.366397 C164.377029,155.366918 164.377029,155.36744 164.375465,155.367961 L164.36851,191.758245 C164.366514,194.016478 162.535962,195.84703 160.277728,195.849027 L104.921684,195.859622 C102.66284,195.861618 100.831334,194.030813 100.830902,191.771969 C100.830901,191.771447 100.830901,191.770926 100.832466,191.770405 L100.83942,155.380121 C100.841416,153.121887 102.671968,151.291335 104.930202,151.289338 Z" id="Rectangle" fill="#263238" transform="translate(132.603965, 173.569183) rotate(-7.430000) translate(-132.603965, -173.569183) "></path>
                <path d="M125.00535,138.34816 L121.537707,145.1127 L131.706624,145.581424 C133.208903,142.556672 132.683574,138.916313 130.387643,136.441306 L125.00535,138.34816 Z" id="Path" fill="#7F3E3B"></path>
                <path d="M125.420191,150.353887 L131.483248,149.522967 L131.706624,145.581424 L121.537707,145.1127 L121.697261,147.317834 C121.759597,148.226922 122.195425,149.06946 122.900972,149.644834 C123.606519,150.220209 124.518653,150.476936 125.420191,150.353887 L125.420191,150.353887 Z" id="Path" fill="#7F3E3B"></path>
                <path d="M117.878599,98.7409792 C117.719045,99.5718991 118.846561,102.650564 119.676242,103.84368 C120.505924,105.036795 134.22758,106.091424 135.993312,103.385608 C137.759045,100.679792 137.833503,95.8647181 136.993185,94.2561424 C136.152866,92.6475668 118.208344,96.9406528 117.878599,98.7409792 Z" id="Path" fill="#E53E37"></path>
            </g>
            <g id="freepik--character-1--inject-47" transform="translate(119.000000, 29.000000)">
                <path d="M53.5507692,63.208597 C51.8394406,65.4508657 49.9793007,67.9056716 48.2360839,70.3179701 C46.4928671,72.7302687 44.8134266,75.1850746 43.2083916,77.6717612 C39.989394,82.4435556 37.2107887,87.4979316 34.9068531,92.7725373 C34.6411189,93.3995224 34.3966434,94.0265075 34.1840559,94.6534925 C34.070676,94.9652139 33.9643823,95.273393 33.8651748,95.5780299 L33.7163636,96.0456119 L33.6525874,96.2687761 L33.6525874,96.3325373 C33.4579543,97.1467643 33.41829,97.9903334 33.5356643,98.8192239 C33.9024328,101.492559 34.5326298,104.1231 35.4170629,106.672478 C37.2346853,112.166567 39.6688112,117.830687 42.0604196,123.324776 L36.6288112,126.767881 C32.5537818,121.740797 29.0261736,116.293886 26.1057343,110.519403 C24.4969324,107.40241 23.2726804,104.101634 22.4598601,100.689552 C21.9320366,98.4824272 21.8453435,96.1928227 22.2047552,93.9521194 L22.2897902,93.4420299 L22.3748252,93.1019701 L22.5342657,92.4431045 C22.6299301,92.007403 22.7362238,91.5717015 22.8637762,91.1466269 C23.0976224,90.2858507 23.3527273,89.4569552 23.6290909,88.6280597 C25.8522144,82.3755232 28.7536154,76.3852213 32.2813986,70.7642985 C33.9820979,68.0119403 35.7253147,65.3127164 37.5960839,62.7091343 C39.4668531,60.1055522 41.3163636,57.5763582 43.4741259,54.983403 L53.5507692,63.208597 Z" id="Path" fill="#263238"></path>
                <path d="M40.6254545,121.358806 L46.2165035,124.323701 L39.8388811,131.858149 C39.8388811,131.858149 35.820979,129.137672 35.5871329,124.993194 L40.6254545,121.358806 Z" id="Path" fill="#FFC3BD"></path>
                <polygon id="Path" fill="#FFC3BD" points="53.7420979 128.967642 46.8542657 134.440478 39.7857343 131.858149 46.2165035 124.323701"></polygon>
                <path d="M137.31021,105.20597 L143.921678,108.617194 L143.337063,110.997612 L138.022378,116.311045 C138.022378,116.311045 134.195804,113.335522 134.280839,109.191045 L137.31021,105.20597 Z" id="Path" fill="#FFC3BD"></path>
                <polygon id="Path" fill="#FFC3BD" points="138.266853 106.141134 144.325594 105.00406 148.215944 106.661851 145.622378 107.097552 143.921678 108.638448"></polygon>
                <path d="M150.543776,117.097433 L143.974825,118.510806 C143.286208,118.656769 142.568635,118.57083 141.933986,118.266388 L137.99049,116.353552 L143.305175,111.040119 L146.823497,109.977433 L151.224056,115.025194 C151.502244,115.36756 151.587235,115.827845 151.449651,116.246947 C151.312067,116.666049 150.970787,116.986462 150.543776,117.097433 Z" id="Path" fill="#FFC3BD"></path>
                <path d="M77.7751049,20.1272836 C77.9239161,20.8392836 78.4128671,21.3387463 78.838042,21.1899701 C79.2632168,21.041194 79.5608392,20.4354627 79.4226573,19.7234627 C79.2844755,19.0114627 78.7742657,18.512 78.3597203,18.6607761 C77.9451748,18.8095522 77.5944056,19.4152836 77.7751049,20.1272836 Z" id="Path" fill="#263238"></path>
                <path d="M78.3490909,21.3493731 C79.6424659,23.3564825 81.2054116,25.1765098 82.9941259,26.7584478 C81.9311888,28.1930746 79.7202797,28.086806 79.7202797,28.086806 L78.3490909,21.3493731 Z" id="Path" fill="#FF5652"></path>
                <path d="M74.4055944,16.694806 C74.2992332,16.6904424 74.197731,16.6490994 74.1186014,16.5779104 C73.9552572,16.4090205 73.9552572,16.141069 74.1186014,15.9721791 C75.0299716,14.9403826 76.384675,14.4136776 77.7538462,14.558806 C77.9584983,14.6251388 78.0841137,14.8308518 78.0496064,15.0431549 C78.015099,15.2554581 77.8307949,15.410821 77.6156643,15.4089552 L77.6156643,15.4089552 C76.5300967,15.30799 75.4621874,15.7350531 74.7457343,16.5566567 C74.6600433,16.6531273 74.5343021,16.7041976 74.4055944,16.694806 L74.4055944,16.694806 Z" id="Path" fill="#263238"></path>
                <path d="M58.4615385,32.7201194 C59.6945455,38.9899701 60.427972,47.6721194 56.0486713,51.8484776 C56.0486713,51.8484776 57.76,58.224597 69.4097902,58.224597 C82.2288112,58.224597 75.5748252,52.6348657 75.5748252,52.6348657 C70.2601399,50.9877015 70.2601399,44.9197612 71.5144056,40.0526567 L58.4615385,32.7201194 Z" id="Path" fill="#FFC3BD"></path>
                <path d="M54.2097902,56.1417313 C53.1468531,54.4626866 53.4976224,49.3724179 54.7731469,48.5435224 C56.813986,47.2045373 65.2324476,47.3533134 76.4039161,50.6157612 C74.8945455,55.4828657 77.3499301,58.224597 77.3499301,58.224597 L54.2097902,56.1417313 Z" id="Path" fill="#E53E37"></path>
                <path d="M44.8559441,65.1639403 C40.8699301,69.0958806 39.7113287,77.1510448 40.1471329,82.6451343 C41.125035,80.9767164 42.1667133,79.3082985 43.2402797,77.6823881 C44.8453147,75.1850746 46.5566434,72.7515224 48.2786014,70.3073433 C48.7569231,69.6378507 49.2458741,68.9577313 49.7454545,68.2776119 C49.8411189,67.8419104 49.9261538,67.406209 50.0111888,66.9811343 L44.8559441,65.1639403 Z" id="Path" fill="#000000" opacity="0.2"></path>
                <path d="M16.6243357,345.373134 C17.3206427,345.616038 18.0847479,345.574022 18.7502098,345.256239 C19.0135743,345.016976 19.0948457,344.636373 18.9521678,344.310448 C18.8725468,344.046254 18.6826774,343.829311 18.4313287,343.715343 C17.2727273,343.162746 14.6047552,344.246687 14.4984615,344.289194 C14.4238081,344.318715 14.3737323,344.389638 14.3709091,344.469851 C14.3676479,344.551373 14.4137815,344.626847 14.4878322,344.661134 C15.1727715,344.973437 15.8889581,345.21211 16.6243357,345.373134 L16.6243357,345.373134 Z M18.0274126,344.002269 L18.2612587,344.076657 C18.4107802,344.142289 18.5236205,344.270663 18.5695105,344.427343 C18.6758042,344.788657 18.5695105,344.905552 18.4951049,344.94806 C18.038042,345.341254 16.3692308,344.94806 15.1255944,344.491104 C16.0543887,344.095021 17.0615888,343.916894 18.0699301,343.970388 L18.0274126,344.002269 Z" id="Shape" fill="#E53E37"></path>
                <path d="M14.540979,344.650507 L14.6366434,344.650507 C15.6145455,344.374209 17.6872727,342.897075 17.7085315,341.93003 C17.7155453,341.613912 17.4969487,341.337386 17.1876923,341.271164 C16.8905191,341.159881 16.5591555,341.187164 16.2841958,341.345552 C15.1468531,341.93003 14.4240559,344.299821 14.3921678,344.395463 C14.3599725,344.458918 14.3599725,344.533918 14.3921678,344.597373 C14.433632,344.632633 14.4865543,344.651529 14.540979,344.650507 L14.540979,344.650507 Z M16.9644755,341.611224 L17.0601399,341.611224 C17.3046154,341.696239 17.3046154,341.823761 17.3046154,341.876896 C17.3046154,342.450746 15.9227972,343.598448 14.913007,344.06603 C15.1840187,343.128236 15.7279209,342.29223 16.4755245,341.664358 C16.6380268,341.574949 16.8299997,341.555757 17.006993,341.611224 L16.9644755,341.611224 Z" id="Shape" fill="#E53E37"></path>
                <path d="M79.9222378,346.775881 C80.9851748,346.775881 82.0481119,346.627104 82.4413986,346.127642 C82.6279563,345.863212 82.6279563,345.510042 82.4413986,345.245612 C82.2964145,345.007316 82.0635341,344.835559 81.793007,344.767403 C80.3686713,344.384836 77.3711888,346.085134 77.2436364,346.159522 C77.1672753,346.200525 77.1280245,346.287728 77.147972,346.37206 C77.1597334,346.456777 77.223609,346.524895 77.3074126,346.54209 C78.1707568,346.694433 79.0455553,346.772648 79.9222378,346.775881 L79.9222378,346.775881 Z M81.2827972,345.11809 C81.4133549,345.101299 81.5455262,345.101299 81.6760839,345.11809 C81.8420974,345.153307 81.9851814,345.257695 82.0693706,345.405015 C82.2181818,345.66006 82.165035,345.776955 82.0693706,345.851343 C81.6760839,346.40394 79.5076923,346.414567 77.9132867,346.191403 C78.9570424,345.620502 80.1010795,345.256084 81.2827972,345.11809 L81.2827972,345.11809 Z" id="Shape" fill="#E53E37"></path>
                <path d="M77.3286713,346.54209 L77.4137063,346.54209 C78.4766434,346.085134 80.4962238,344.225433 80.3474126,343.258388 C80.3474126,343.024597 80.1454545,342.748299 79.5927273,342.684537 C79.1854947,342.64737 78.7801807,342.773523 78.466014,343.035224 C77.4030769,343.938507 77.1373427,346.223284 77.1267133,346.340179 C77.1250304,346.410424 77.1565367,346.477359 77.2117483,346.520836 C77.2477084,346.539484 77.2884469,346.546889 77.3286713,346.54209 L77.3286713,346.54209 Z M79.4545455,343.067104 L79.5820979,343.067104 C79.9434965,343.067104 79.9647552,343.247761 79.9753846,343.290269 C80.071049,343.874746 78.6786014,345.330627 77.6262937,345.957612 C77.7208175,344.983925 78.1143887,344.063334 78.753007,343.322149 C78.9399671,343.162205 79.1766414,343.072064 79.4226573,343.067104 L79.4545455,343.067104 Z" id="Shape" fill="#E53E37"></path>
                <polygon id="Path" fill="#FFC3BD" points="67.911049 346.340179 76.4783217 346.340179 77.3286713 326.489194 68.7613986 326.489194"></polygon>
                <polygon id="Path" fill="#FFC3BD" points="5.13398601 342.67391 13.4036364 344.427343 20.907972 325.437134 12.6383217 323.683701"></polygon>
                <path d="M14.168951,343.343403 L4.75132867,341.303045 C4.41213422,341.231189 4.06825664,341.403088 3.92223776,341.717493 L0.648391608,348.805612 C0.488380499,349.15702 0.4977131,349.562258 0.673731889,349.905932 C0.849750677,350.249605 1.17316786,350.494055 1.55188811,350.569672 C4.85762238,351.21791 6.49454545,351.377313 10.6293706,352.26997 C13.1804196,352.822567 18.9309091,354.225313 22.4492308,354.979821 C25.9675524,355.734328 27.1686713,352.365612 25.7974825,351.738627 C19.6537063,348.933134 17.0813986,346.425194 15.4125874,344.151045 C15.1125622,343.736962 14.6693302,343.449119 14.168951,343.343403 L14.168951,343.343403 Z" id="Path" fill="#263238"></path>
                <path d="M76.4251748,345.373134 L67.0606993,345.373134 C66.7114647,345.377818 66.4097069,345.618293 66.3272727,345.957612 L64.6372028,353.577075 C64.5528244,353.950471 64.6436673,354.341949 64.8838703,354.640062 C65.1240733,354.938175 65.4873233,355.110266 65.8702098,355.107343 C69.2503497,355.043582 74.1292308,354.852299 78.3703497,354.852299 C83.3342657,354.852299 85.0987413,355.11797 90.913007,355.11797 C94.4313287,355.11797 95.4092308,351.568597 93.9423776,351.239164 C87.2352448,349.772657 84.2802797,349.613254 78.4872727,346.042627 C77.8740169,345.635259 77.1608204,345.403708 76.4251748,345.373134 L76.4251748,345.373134 Z" id="Path" fill="#263238"></path>
                <polygon id="Path" fill="#000000" opacity="0.2" points="77.3286713 326.499821 76.8928671 336.722866 68.314965 336.722866 68.7507692 326.499821"></polygon>
                <polygon id="Path" fill="#000000" opacity="0.2" points="12.6383217 323.683701 20.907972 325.437134 17.0388811 335.224478 8.76923077 333.481672"></polygon>
                <path d="M74.0441958,128.319403 C74.0441958,128.319403 64.3076923,193.823403 58.9717483,218.360836 C53.1255944,245.236179 21.768951,334.193672 21.768951,334.193672 L6.37762238,330.814328 C6.37762238,330.814328 28.3166434,258.360358 33.2167832,220.794388 C36.9902098,191.942448 44.4201399,128.340657 44.4201399,128.340657 L74.0441958,128.319403 Z" id="Path" fill="#263238"></path>
                <path d="M74.0441958,128.319403 C74.0441958,128.319403 64.3076923,193.823403 58.9717483,218.360836 C53.1255944,245.236179 21.768951,334.193672 21.768951,334.193672 L6.37762238,330.814328 C6.37762238,330.814328 28.3166434,258.360358 33.2167832,220.794388 C36.9902098,191.942448 44.4201399,128.340657 44.4201399,128.340657 L74.0441958,128.319403 Z" id="Path" fill="#FFFFFF" opacity="0.1"></path>
                <path d="M25.4360839,329.018388 C25.4998601,329.018388 22.5767832,334.565612 22.5767832,334.565612 L5.31468531,330.824955 L6.77090909,325.639045 L25.4360839,329.018388 Z" id="Path" fill="#263238"></path>
                <path d="M67.8897902,151.656 C56.6439161,153.866388 57.8344056,195.810627 59.1843357,217.383164 C62.3731469,202.133612 67.1776224,172.750328 70.4302098,151.964179 C69.6416803,151.580391 68.7472444,151.471887 67.8897902,151.656 L67.8897902,151.656 Z" id="Path" fill="#000000" opacity="0.3"></path>
                <path d="M90.3496503,128.319403 C90.3496503,128.319403 91.5295105,192.399403 90.5941259,218.541493 C89.6268531,245.725015 80.1348252,334.746269 80.1348252,334.746269 L65.561958,334.746269 C65.561958,334.746269 65.0304895,247.319045 64.3820979,220.613731 C63.6805594,191.506746 60.1303497,128.319403 60.1303497,128.319403 L90.3496503,128.319403 Z" id="Path" fill="#263238"></path>
                <path d="M90.3496503,128.319403 C90.3496503,128.319403 91.5295105,192.399403 90.5941259,218.541493 C89.6268531,245.725015 80.1348252,334.746269 80.1348252,334.746269 L65.561958,334.746269 C65.561958,334.746269 65.0304895,247.319045 64.3820979,220.613731 C63.6805594,191.506746 60.1303497,128.319403 60.1303497,128.319403 L90.3496503,128.319403 Z" id="Path" fill="#FFFFFF" opacity="0.1"></path>
                <path d="M82.9090909,328.965254 C82.9728671,328.965254 82.08,334.990687 82.08,334.990687 L64.3927273,334.990687 L63.9144056,329.613493 L82.9090909,328.965254 Z" id="Path" fill="#263238"></path>
                <path d="M91.4763636,62.3903284 C93.2302098,71.6569552 96.4827972,97.544 91.401958,135.205612 L41.7840559,134.440478 C41.4970629,127.862448 46.7267133,92.1561791 41.8903497,60.4562388 C41.6179645,58.6398904 42.0872565,56.7903111 43.1927016,55.3233934 C44.2981466,53.8564757 45.9469595,52.8953451 47.7683916,52.6561194 C50.2769231,52.3160597 53.1893706,51.9972537 56.0593007,51.8591045 C62.54851,51.4868709 69.0537277,51.4868709 75.5429371,51.8591045 C77.6688112,52.0610149 79.7946853,52.369194 81.6867133,52.6986269 C86.6452065,53.5855398 90.5405934,57.4419519 91.4763636,62.3903284 Z" id="Path" fill="#263238"></path>
                <path d="M92.8369231,71.593194 L84.4822378,73.6654328 C83.8444755,81.4655522 88.9890909,90.2964776 94.1337063,97.0445373 C94.185834,88.5430063 93.7528697,80.0454235 92.8369231,71.593194 L92.8369231,71.593194 Z" id="Path" fill="#000000" opacity="0.2"></path>
                <path d="M89.4036364,58.224597 C90.8173427,60.7644179 92.347972,63.5380299 93.9211189,66.1203582 C95.4942657,68.7026866 97.1099301,71.3487761 98.7362238,73.8992239 C101.870166,78.9112422 105.42619,83.64675 109.365594,88.054209 C109.854545,88.5536716 110.332867,89.0637612 110.821818,89.5313433 L111.183217,89.8820299 L111.47021,90.1370746 C111.62965,90.3071045 111.906014,90.4983881 112.107972,90.6790448 C113.085874,91.4441791 114.233846,92.2518209 115.498741,93.0275821 C117.996643,94.5684776 120.675245,96.0774925 123.396364,97.5333731 C128.838601,100.455761 134.472168,103.325015 140.031329,106.226149 L137.831049,112.272836 C131.540286,110.766999 125.346255,108.882612 119.282797,106.62997 C116.242797,105.492896 113.192168,104.260179 110.141538,102.761791 C108.519034,101.989235 106.946369,101.116133 105.432727,100.147582 C105.018182,99.8500299 104.624895,99.6162388 104.178462,99.2655522 L103.540699,98.7767164 L103.01986,98.3410149 C102.307692,97.7671642 101.659301,97.1720597 101.00028,96.5769552 C98.4891799,94.2356466 96.1449955,91.7215687 93.9848951,89.0531343 C91.859021,86.470806 89.8713287,83.7397015 87.9899301,81.0936119 C86.1085315,78.4475224 84.3227972,75.6420299 82.6752448,72.8259104 C81.0276923,70.009791 79.3907692,67.246806 77.8601399,64.1862687 L89.4036364,58.224597 Z" id="Path" fill="#263238"></path>
                <path d="M53.6676923,23.4428657 C55.9848951,32.0931343 56.8565035,37.257791 62.2455944,40.8709254 C70.2813986,46.2906269 80.3155245,40.0739104 80.5918881,30.9029254 C80.8682517,22.6564776 77.031049,9.89361194 67.7516084,8.15080597 C63.5917044,7.34368343 59.3106189,8.7500291 56.4402661,11.8666058 C53.5699134,14.9831826 52.5205573,19.3645334 53.6676923,23.4428657 L53.6676923,23.4428657 Z" id="Path" fill="#FFC3BD"></path>
                <path d="M71.641958,23.5491343 C73.7040559,20.5204776 74.4906294,15.8659104 73.045035,13.6236418 C74.394965,14.1868657 84.1314685,14.8563582 80.3155245,7.92764179 C76.4995804,0.998925373 68.8464336,-0.913910448 62.1818182,0.998925373 L65.4237762,1.93408955 C65.4237762,1.93408955 56.3144056,1.27522388 51.881958,4.96274627 C53.2318881,5.03713433 54.4011189,4.96274627 54.4011189,4.96274627 C54.4011189,4.96274627 44.6433566,9.5641791 48.8951049,13.0604179 C42.0391608,18.278209 46.6841958,25.5044776 57.9725874,36.2801194 C59.939021,38.054806 65.5088112,37.4065672 66.7418182,36.3438806 C65.9552448,31.646806 70.4833566,25.2706866 71.641958,23.5491343 Z" id="Path" fill="#263238"></path>
                <path d="M72.7899301,17.6512239 C74.8095105,19.1283582 77.3074126,23.4747463 78.466014,25.6426269 C79.6246154,27.8105075 80.846993,27.534209 81.4316084,28.3949851 C82.0162238,29.2557612 84.4078322,43.8145672 81.8461538,46.1418507 C79.2844755,48.4691343 71.5781818,44.7922388 70.5683916,42.1142687 C69.5586014,39.4362985 71.4081119,32.8688955 71.9076923,31.3705075 C72.4332024,28.7825103 72.2793986,26.1025624 71.4612587,23.5916418 C70.5683916,21.0518209 72.7899301,17.6512239 72.7899301,17.6512239 Z" id="Path" fill="#263238"></path>
                <path d="M68.2405594,23.9529552 C68.7967209,26.0940718 70.196293,27.9188371 72.1202797,29.0113433 C74.4693706,30.0740299 74.7563636,27.3429254 74.2993007,24.760597 C73.8847552,22.4120597 73.2363636,20.5098507 71.3337063,19.5959403 C69.0909091,18.4376119 67.4646154,21.3812537 68.2405594,23.9529552 Z" id="Path" fill="#FFC3BD"></path>
            </g>
        </g>
    </g>
</svg>