<?xml version="1.0" encoding="UTF-8"?>
<svg width="516px" height="385px" viewBox="0 0 516 385" version="1.1" xmlns="http://www.w3.org/2000/svg" xmlns:xlink="http://www.w3.org/1999/xlink">
    <!-- Generator: Sketch 64 (93537) - https://sketch.com -->
    <title>try app</title>
    <desc>Created with Sketch.</desc>
    <g id="z" stroke="none" stroke-width="1" fill="none" fill-rule="evenodd">
        <g id="try-app" fill-rule="nonzero">
            <g id="freepik--background-complete--inject-18">
                <rect id="Rectangle" fill="#EBEBEB" x="0" y="337.778674" width="516" height="1"></rect>
                <rect id="Rectangle" fill="#EBEBEB" x="430.11696" y="354.378732" width="34.17984" height="1"></rect>
                <rect id="Rectangle" fill="#EBEBEB" x="332.85096" y="357.184957" width="8.96808" height="1"></rect>
                <rect id="Rectangle" fill="#EBEBEB" x="409.28088" y="344.804553" width="19.80408" height="1"></rect>
                <rect id="Rectangle" fill="#EBEBEB" x="54.13872" y="346.53781" width="44.57208" height="1"></rect>
                <rect id="Rectangle" fill="#EBEBEB" x="107.90592" y="346.53781" width="6.53256" height="1"></rect>
                <rect id="Rectangle" fill="#EBEBEB" x="135.67704" y="350.891585" width="96.67776" height="1"></rect>
                <path d="M244.584,291.764841 L45.31512,291.764841 C42.0646915,291.759151 39.43272,289.123322 39.43272,285.873833 L39.43272,5.83942363 C39.4610024,2.6100901 42.0847293,0.00553201793 45.31512,1.46613429e-14 L244.584,1.46613429e-14 C247.838459,1.46613429e-14 250.47672,2.63749441 250.47672,5.89100865 L250.47672,285.873833 C250.47672,289.127347 247.838459,291.764841 244.584,291.764841 Z M45.31512,0.206340058 C42.207181,0.21203061 39.69072,2.73238207 39.69072,5.83942363 L39.69072,285.873833 C39.69072,288.980874 42.207181,291.501226 45.31512,291.506916 L244.584,291.506916 C247.693614,291.501238 250.21304,288.982544 250.21872,285.873833 L250.21872,5.83942363 C250.21304,2.73071243 247.693614,0.212018083 244.584,0.206340058 L45.31512,0.206340058 Z" id="Shape" fill="#EBEBEB"></path>
                <path d="M467.81592,291.764841 L268.53672,291.764841 C265.284616,291.759163 262.649681,289.124992 262.644,285.873833 L262.644,5.83942363 C262.677899,2.60842757 265.304612,0.00547118615 268.53672,-7.33067145e-15 L467.81592,-7.33067145e-15 C471.042286,0.0111740486 473.659767,2.61409914 473.688,5.83942363 L473.688,285.873833 C473.688,289.119306 471.062316,291.753474 467.81592,291.764841 Z M268.53672,0.206340058 C265.427106,0.212018083 262.90768,2.73071243 262.902,5.83942363 L262.902,285.873833 C262.90768,288.982544 265.427106,291.501238 268.53672,291.506916 L467.81592,291.506916 C470.925534,291.501238 473.44496,288.982544 473.45064,285.873833 L473.45064,5.83942363 C473.44496,2.73071243 470.925534,0.212018083 467.81592,0.206340058 L268.53672,0.206340058 Z" id="Shape" fill="#EBEBEB"></path>
                <rect id="Rectangle" fill="#E6E6E6" x="235.4508" y="25.5655331" width="201.02328" height="176.523919"></rect>
                <rect id="Rectangle" fill="#F0F0F0" x="237.90696" y="25.5655331" width="203.82" height="176.523919"></rect>
                <rect id="Rectangle" fill="#E6E6E6" x="235.4508" y="202.079135" width="201.02328" height="4.86962536"></rect>
                <rect id="Rectangle" fill="#F0F0F0" x="246.63768" y="202.079135" width="203.82" height="4.86962536"></rect>
                <polygon id="Rectangle" fill="#FAFAFA" transform="translate(339.811800, 113.827493) rotate(90.000000) translate(-339.811800, -113.827493) " points="258.885229 19.2601728 420.738371 19.2601728 420.738371 208.394813 258.885229 208.394813"></polygon>
                <polygon id="Path" fill="#FFFFFF" points="270.55944 194.743746 291.41616 32.9009222 327.52584 32.9009222 306.6588 194.743746"></polygon>
                <polygon id="Path" fill="#FFFFFF" points="314.40912 194.743746 335.27616 32.9009222 349.35264 32.9009222 328.4856 194.743746"></polygon>
                <polygon id="Rectangle" fill="#E6E6E6" transform="translate(433.925040, 113.817176) rotate(90.000000) translate(-433.925040, -113.817176) " points="352.998469 113.512483 514.851611 113.512483 514.851611 114.121869 352.998469 114.121869"></polygon>
                <polygon id="Path" fill="#E0E0E0" opacity="0.5" points="443.4504 48.3248415 242.42712 48.3248415 241.75632 35.748415 442.7796 35.748415"></polygon>
                <polygon id="Path" fill="#E0E0E0" opacity="0.5" points="443.4504 68.9897983 242.42712 68.9897983 241.75632 56.4236888 442.7796 56.4236888"></polygon>
                <polygon id="Path" fill="#E0E0E0" opacity="0.5" points="443.4504 89.654755 242.42712 89.654755 241.75632 77.0886455 442.7796 77.0886455"></polygon>
                <polygon id="Path" fill="#E0E0E0" opacity="0.5" points="443.4504 110.330029 242.42712 110.330029 241.75632 97.7536023 442.7796 97.7536023"></polygon>
                <polygon id="Path" fill="#E0E0E0" opacity="0.5" points="443.4504 130.994986 242.42712 130.994986 241.75632 118.418559 442.7796 118.418559"></polygon>
                <polygon id="Path" fill="#E0E0E0" opacity="0.5" points="443.4504 151.659942 242.42712 151.659942 241.75632 139.083516 442.7796 139.083516"></polygon>
                <rect id="Rectangle" fill="#E0E0E0" x="60.5268" y="62.6448415" width="62.7972" height="124.123862"></rect>
                <rect id="Rectangle" fill="#F5F5F5" x="63.01392" y="62.6448415" width="64.0356" height="124.123862"></rect>
                <polygon id="Rectangle" fill="#FFFFFF" transform="translate(95.021400, 124.706772) rotate(-90.000000) translate(-95.021400, -124.706772) " points="40.1401032 98.0553723 149.902697 98.0553723 149.902697 151.358172 40.1401032 151.358172"></polygon>
                <rect id="Rectangle" fill="#E0E0E0" x="144.36648" y="43.7028242" width="62.7972" height="124.123862"></rect>
                <rect id="Rectangle" fill="#F5F5F5" x="146.8536" y="43.7028242" width="64.0356" height="124.123862"></rect>
                <polygon id="Rectangle" fill="#FFFFFF" transform="translate(178.876560, 105.764755) rotate(-90.000000) translate(-178.876560, -105.764755) " points="123.995263 79.108195 233.757857 79.108195 233.757857 132.421315 123.995263 132.421315"></polygon>
                <rect id="Rectangle" fill="#E6E6E6" x="169.57824" y="223.383746" width="26.42952" height="114.394928"></rect>
                <polygon id="Path" fill="#F0F0F0" points="190.99224 337.778674 196.00776 337.778674 196.00776 326.130778 185.72904 326.130778"></polygon>
                <rect id="Rectangle" fill="#E6E6E6" x="70.78488" y="223.383746" width="26.42952" height="114.394928"></rect>
                <rect id="Rectangle" fill="#F0F0F0" x="92.8284" y="223.383746" width="103.17936" height="107.245245"></rect>
                <polygon id="Rectangle" fill="#E6E6E6" transform="translate(169.103520, 273.287089) rotate(-90.000000) translate(-169.103520, -273.287089) " points="126.329226 250.283809 211.877814 250.283809 211.877814 296.290369 126.329226 296.290369"></polygon>
                <polygon id="Rectangle" fill="#E6E6E6" transform="translate(119.722320, 273.287089) rotate(-90.000000) translate(-119.722320, -273.287089) " points="76.9480261 250.283809 162.496614 250.283809 162.496614 296.290369 76.9480261 296.290369"></polygon>
                <path d="M124.28376,233.783285 L115.18152,233.783285 C111.366976,233.820864 107.662709,232.504824 104.72736,230.069164 L134.73792,230.069164 C131.802571,232.504824 128.098304,233.820864 124.28376,233.783285 Z" id="Path" fill="#F0F0F0"></path>
                <path d="M174.12936,233.783285 L165.02712,233.783285 C161.212275,233.822659 157.507409,232.506406 154.57296,230.069164 L184.58352,230.069164 C181.648171,232.504824 177.943904,233.820864 174.12936,233.783285 Z" id="Path" fill="#F0F0F0"></path>
                <polygon id="Path" fill="#F0F0F0" points="97.85424 337.778674 92.8284 337.778674 92.8284 326.130778 103.11744 326.130778"></polygon>
                <path d="M117.04944,212.468357 C117.04944,212.468357 117.83376,223.383746 147.91656,223.383746 C177.99936,223.383746 178.78368,212.468357 178.78368,212.468357 L117.04944,212.468357 Z" id="Path" fill="#E6E6E6"></path>
                <rect id="Rectangle" fill="#EBEBEB" transform="translate(348.537360, 251.951527) rotate(180.000000) translate(-348.537360, -251.951527) " x="235.62624" y="242.501153" width="225.82224" height="18.9007493"></rect>
                <rect id="Rectangle" fill="#E0E0E0" transform="translate(267.685320, 251.951527) rotate(180.000000) translate(-267.685320, -251.951527) " x="235.63656" y="242.501153" width="64.09752" height="18.9007493"></rect>
                <rect id="Rectangle" fill="#EBEBEB" transform="translate(454.699200, 299.590288) rotate(180.000000) translate(-454.699200, -299.590288) " x="447.9396" y="261.401902" width="13.5192" height="76.3767723"></rect>
                <polygon id="Path" fill="#E0E0E0" points="447.9396 266.694524 461.4588 264.053372 461.4588 261.401902 447.9396 261.401902"></polygon>
                <rect id="Rectangle" fill="#E0E0E0" transform="translate(242.385840, 299.590288) rotate(180.000000) translate(-242.385840, -299.590288) " x="235.62624" y="261.401902" width="13.5192" height="76.3767723"></rect>
                <rect id="Rectangle" fill="#EBEBEB" transform="translate(292.974480, 299.590288) rotate(180.000000) translate(-292.974480, -299.590288) " x="286.21488" y="261.401902" width="13.5192" height="76.3767723"></rect>
                <polygon id="Path" fill="#E0E0E0" points="286.21488 266.694524 299.73408 264.053372 299.73408 261.401902 286.21488 261.401902"></polygon>
                <rect id="Rectangle" fill="#E0E0E0" transform="translate(412.376880, 299.590288) rotate(180.000000) translate(-412.376880, -299.590288) " x="405.61728" y="261.401902" width="13.5192" height="76.3767723"></rect>
            </g>
            <g id="freepik--Shadow--inject-18" transform="translate(58.000000, 360.000000)" fill="#F5F5F5">
                <ellipse id="freepik--path--inject-18" cx="200" cy="12.75" rx="199.886598" ry="11.7916667"></ellipse>
            </g>
            <g id="freepik--Smartphone--inject-18" transform="translate(101.000000, 76.000000)">
                <path d="M138.513274,0.339671261 L15.6729762,0.339671261 C11.7402185,0.299752068 7.97111255,1.9151233 5.28464854,4.79267197 C2.59818454,7.67022064 1.24123101,11.5455188 1.54464286,15.4736842 L19.1535714,277.907368 C19.8418477,286.377883 26.8382853,292.940247 35.3208333,293.072487 L158.161131,293.072487 C162.099917,293.116444 165.87546,291.497564 168.562092,288.611847 C171.248724,285.726131 172.59802,281.840411 172.279167,277.907368 L154.670238,15.4736842 C153.967346,7.01924854 146.980964,0.475521522 138.513274,0.339671261 Z" id="Path" fill="#E53E37"></path>
                <path d="M138.513274,0.339671261 L15.6729762,0.339671261 C11.7402185,0.299752068 7.97111255,1.9151233 5.28464854,4.79267197 C2.59818454,7.67022064 1.24123101,11.5455188 1.54464286,15.4736842 L19.1535714,277.907368 C19.8418477,286.377883 26.8382853,292.940247 35.3208333,293.072487 L158.161131,293.072487 C162.099917,293.116444 165.87546,291.497564 168.562092,288.611847 C171.248724,285.726131 172.59802,281.840411 172.279167,277.907368 L154.670238,15.4736842 C153.967346,7.01924854 146.980964,0.475521522 138.513274,0.339671261 Z" id="Path" fill="#FFFFFF" opacity="0.3"></path>
                <polygon id="Rectangle" fill="#E53E37" transform="translate(2.010853, 68.981927) rotate(-3.840000) translate(-2.010853, -68.981927) " points="1.49742848 56.5773492 2.52719854 56.5772278 2.52427851 81.3865055 1.49450845 81.3866269"></polygon>
                <polygon id="Rectangle" fill="#E53E37" transform="translate(4.125010, 99.920995) rotate(-3.850000) translate(-4.125010, -99.920995) " points="3.610781 94.3608892 4.6405511 94.3607675 4.63923886 105.4811 3.60946876 105.481222"></polygon>
                <path d="M28.0713095,280.589474 C28.2447064,282.659028 26.8556434,284.535176 24.8283367,284.969618 C22.8010299,285.404059 20.7673273,284.261393 20.0803571,282.301895 C19.5682456,280.905354 19.2562167,279.443177 19.1535714,277.958947 L1.54464286,15.4736842 C1.4403906,13.9961237 1.55841522,12.5112579 1.8947619,11.0688421 C2.32304625,9.03506499 4.19454031,7.63788922 6.26244804,7.80811827 C8.33035577,7.97834732 9.94906188,9.6628345 10.0401786,11.7393684 L28.0713095,280.589474 Z" id="Path" fill="#E53E37"></path>
                <path d="M158.161131,288.151984 L44.032619,288.151984 C38.1674524,287.99198 33.3488086,283.461821 32.8185119,277.608211 L15.2095833,15.1848421 C14.981281,12.6221924 15.8504513,10.0830304 17.6005407,8.19998804 C19.35063,6.31694564 21.8168571,5.26732233 24.3847619,5.31122305 L138.513274,5.31122305 C144.37486,5.47102374 149.192179,9.99550718 149.727381,15.8450526 L167.33631,278.278737 C167.557974,280.839831 166.686545,283.375165 164.937906,285.256646 C163.189268,287.138128 160.727013,288.189735 158.161131,288.151984 L158.161131,288.151984 Z M24.3847619,6.41642105 C22.1229725,6.37515789 19.9503466,7.29924291 18.4097694,8.95867941 C16.8691921,10.6181159 16.1061938,12.8558151 16.3114286,15.1126316 L33.9203571,277.494737 C34.393995,282.776117 38.7411804,286.864892 44.032619,287.00724 L158.161131,287.00724 C160.42292,287.047488 162.595546,286.123073 164.136123,284.463636 C165.676701,282.8042 166.439699,280.566501 166.234464,278.309684 L148.625536,15.8863158 C148.151898,10.6049356 143.804712,6.51616024 138.513274,6.37515789 L24.3847619,6.41642105 Z" id="Shape" fill="#FFFFFF"></path>
                <g id="Group" opacity="0.5" transform="translate(22.684524, 19.600000)">
                    <ellipse id="Oval" fill="#E53E37" transform="translate(69.799032, 69.522647) rotate(-46.600000) translate(-69.799032, -69.522647) " cx="69.7990324" cy="69.5226469" rx="45.9083423" ry="51.3145717"></ellipse>
                    <ellipse id="Oval" fill="#FFFFFF" transform="translate(69.799032, 69.532963) rotate(-46.600000) translate(-69.799032, -69.532963) " cx="69.7990324" cy="69.5329627" rx="36.7246124" ry="41.0495961"></ellipse>
                    <ellipse id="Oval" fill="#E53E37" transform="translate(69.796951, 69.574060) rotate(-46.590000) translate(-69.796951, -69.574060) " cx="69.7969512" cy="69.5740604" rx="27.540874" ry="30.78463"></ellipse>
                    <ellipse id="Oval" fill="#FFFFFF" transform="translate(69.799032, 69.532963) rotate(-46.600000) translate(-69.799032, -69.532963) " cx="69.7990324" cy="69.5329627" rx="18.3674598" ry="20.5299511"></ellipse>
                    <ellipse id="Oval" fill="#E53E37" transform="translate(69.796951, 69.563745) rotate(-46.590000) translate(-69.796951, -69.563745) " cx="69.7969512" cy="69.5637446" rx="9.18372709" ry="10.2649787"></ellipse>
                </g>
                <path d="M101.833155,155.262947 C101.647798,155.262947 101.472738,155.262947 101.287381,155.262947 C98.4076644,149.692501 92.6997486,146.163368 86.4382143,146.081895 C84.8621672,146.080426 83.295442,146.324027 81.7939881,146.804 C78.7784794,141.267032 73.0141141,137.792054 66.7182738,137.715789 C62.7929479,137.657958 59.0061977,139.168298 56.1947563,141.913081 C53.3833149,144.657863 51.7786156,148.411142 51.7352381,152.343579 C48.6299411,152.527124 45.7303246,153.959469 43.6944366,156.315554 C41.6585487,158.67164 40.6590385,161.751662 40.9227381,164.856632 C41.4757058,171.878291 47.2791498,177.320793 54.3096429,177.410947 L103.346905,177.410947 C106.22524,177.44433 108.984047,176.259625 110.944624,174.148286 C112.905201,172.036947 113.885561,169.194954 113.644524,166.321474 C113.140862,160.136731 108.026922,155.348747 101.833155,155.262947 Z" id="Path" fill="#FFFFFF"></path>
                <path d="M133.065833,35.2387368 L132.643631,35.2387368 C130.397924,30.8987259 125.948546,28.1506296 121.069107,28.0898947 C119.839409,28.0872409 118.6167,28.2751465 117.444345,28.6469474 C115.090696,24.3357807 110.599531,21.6308067 105.694762,21.5703158 C99.344113,21.478446 94.118857,26.5559802 94.0172619,32.9176842 C91.5958247,33.0619839 89.3350536,34.1793311 87.7473365,36.0164869 C86.1596195,37.8536427 85.3794009,40.2550408 85.5835119,42.6764211 C86.0190138,48.1451577 90.5390396,52.3826162 96.015,52.4557895 L134.239762,52.4557895 C136.486434,52.4870743 138.641665,51.5657233 140.17357,49.9191142 C141.705475,48.2725052 142.471356,46.0540218 142.282202,43.8111579 C141.860012,39.0084125 137.87822,35.3048284 133.065833,35.2387368 L133.065833,35.2387368 Z" id="Path" fill="#FFFFFF"></path>
                <path d="M148.285714,195.855325 L77.6852381,195.855325 C76.6535879,195.843429 75.6645827,196.267327 74.9609695,197.023229 C74.2573563,197.779132 73.9042768,198.797057 73.9883929,199.827158 L76.851131,242.008421 C77.0217278,244.230774 78.8586096,245.954491 81.0834524,245.98 L90.5572619,245.98 L91.3501786,257.647158 L102.193571,245.98 L151.622143,245.98 C152.654797,245.995368 153.645758,245.57245 154.350084,244.81578 C155.054411,244.059111 155.406378,243.039301 155.318988,242.008421 L152.466548,199.827158 C152.28872,197.628552 150.486791,195.916812 148.285714,195.855325 Z" id="Path" fill="#FFFFFF" opacity="0.3"></path>
                <polygon id="Path" fill="#FFFFFF" points="147.73994 223.584421 81.9793452 223.584421 81.6189286 218.251158 147.389821 218.251158"></polygon>
                <polygon id="Path" fill="#FFFFFF" points="127.690476 234.663579 82.7310714 234.663579 82.3706548 229.330316 127.33006 229.330316"></polygon>
                <polygon id="Path" fill="#FFFFFF" points="146.998512 212.505263 81.227619 212.505263 80.8672024 207.172 146.638095 207.172"></polygon>
            </g>
            <g id="freepik--Character--inject-18" transform="translate(150.000000, 37.000000)">
                <path d="M155.204848,56.6871166 L157.914545,58.635092 C158.855556,59.3222086 159.803434,59.9715337 160.758182,60.5830675 C162.664242,61.8507975 164.580606,63.1185276 166.517576,64.2728834 C168.454545,65.4272393 170.412121,66.5197546 172.349091,67.488589 C174.164857,68.4043111 176.045001,69.1862647 177.974545,69.8282209 C177.546629,69.7221658 177.102066,69.7011552 176.666061,69.7663804 C176.405492,69.7983012 176.151633,69.8713557 175.913939,69.9828221 C175.615152,70.1374233 175.707879,70.1477301 175.862424,70.0549693 C176.458563,69.6417356 176.995802,69.1493781 177.459394,68.591411 C178.815288,66.9725501 180.041702,65.2494374 181.127273,63.4380368 C182.332727,61.5415951 183.486667,59.5317791 184.589091,57.4704294 C185.691515,55.4090798 186.793939,53.2961963 187.813939,51.2863804 L187.886061,51.1523926 C188.96767,49.0230492 191.488964,48.0636012 193.711823,48.9354688 C195.934683,49.8073363 197.13218,52.2253973 196.478788,54.5226994 C195.078173,59.4333112 193.304317,64.2296187 191.172727,68.8696933 C190.01737,71.3663388 188.656096,73.7623553 187.10303,76.0328834 C186.131719,77.439807 184.99352,78.7237713 183.713333,79.8566871 C182.776769,80.6726591 181.715931,81.3337472 180.570909,81.8149693 C179.765205,82.1454687 178.920256,82.3706389 178.05697,82.484908 C177.024192,82.6023716 175.978962,82.5431205 174.966061,82.3096933 C172.213795,81.6707027 169.51898,80.8054309 166.909091,79.7226994 C164.466946,78.7283898 162.08006,77.6033274 159.758788,76.3523926 C157.471515,75.1361963 155.242626,73.8547239 153.072121,72.5079755 C151.990303,71.8277301 150.918788,71.1371779 149.857576,70.4466258 C148.796364,69.7560736 147.79697,69.0346012 146.632727,68.1894479 C143.93993,65.7058787 143.535588,61.5976031 145.692502,58.6363747 C147.849416,55.6751463 151.882577,54.8014135 155.070909,56.6046626 L155.204848,56.6871166 Z" id="Path" fill="#E53E37"></path>
                <path d="M155.204848,56.6871166 L157.914545,58.635092 C158.855556,59.3222086 159.803434,59.9715337 160.758182,60.5830675 C162.664242,61.8507975 164.580606,63.1185276 166.517576,64.2728834 C168.454545,65.4272393 170.412121,66.5197546 172.349091,67.488589 C174.164857,68.4043111 176.045001,69.1862647 177.974545,69.8282209 C177.546629,69.7221658 177.102066,69.7011552 176.666061,69.7663804 C176.405492,69.7983012 176.151633,69.8713557 175.913939,69.9828221 C175.615152,70.1374233 175.707879,70.1477301 175.862424,70.0549693 C176.458563,69.6417356 176.995802,69.1493781 177.459394,68.591411 C178.815288,66.9725501 180.041702,65.2494374 181.127273,63.4380368 C182.332727,61.5415951 183.486667,59.5317791 184.589091,57.4704294 C185.691515,55.4090798 186.793939,53.2961963 187.813939,51.2863804 L187.886061,51.1523926 C188.96767,49.0230492 191.488964,48.0636012 193.711823,48.9354688 C195.934683,49.8073363 197.13218,52.2253973 196.478788,54.5226994 C195.078173,59.4333112 193.304317,64.2296187 191.172727,68.8696933 C190.01737,71.3663388 188.656096,73.7623553 187.10303,76.0328834 C186.131719,77.439807 184.99352,78.7237713 183.713333,79.8566871 C182.776769,80.6726591 181.715931,81.3337472 180.570909,81.8149693 C179.765205,82.1454687 178.920256,82.3706389 178.05697,82.484908 C177.024192,82.6023716 175.978962,82.5431205 174.966061,82.3096933 C172.213795,81.6707027 169.51898,80.8054309 166.909091,79.7226994 C164.466946,78.7283898 162.08006,77.6033274 159.758788,76.3523926 C157.471515,75.1361963 155.242626,73.8547239 153.072121,72.5079755 C151.990303,71.8277301 150.918788,71.1371779 149.857576,70.4466258 C148.796364,69.7560736 147.79697,69.0346012 146.632727,68.1894479 C143.93993,65.7058787 143.535588,61.5976031 145.692502,58.6363747 C147.849416,55.6751463 151.882577,54.8014135 155.070909,56.6046626 L155.204848,56.6871166 Z" id="Path" fill="#000000" opacity="0.2"></path>
                <path d="M190.410303,49.3590184 L193.202424,44.6385276 L198.56,50.4206135 C197.785865,52.099765 196.389232,53.4118912 194.665455,54.0795092 C193.880332,54.3471087 193.015342,54.2327516 192.326667,53.7703067 L191.296364,53.1106748 C190.047422,52.2971163 189.657396,50.645712 190.410303,49.3590184 Z" id="Path" fill="#FFB573"></path>
                <path d="M200.795758,41.8247853 L201.980606,42.5565644 C202.734083,43.0233053 203.222461,43.8190745 203.297571,44.7024424 C203.372681,45.5858103 203.02567,46.4526612 202.361818,47.04 L198.56,50.4206135 L193.202424,44.6385276 L197.869697,41.8144785 C198.768894,41.2654421 199.900448,41.2694279 200.795758,41.8247853 Z" id="Path" fill="#FFB573"></path>
                <polygon id="Path" fill="#FFB573" points="89.6569697 326.847607 97.8169697 327.084663 100.887273 308.182086 92.7375758 307.945031"></polygon>
                <path d="M99.1048485,324.786258 L89.9866667,323.631902 C89.6684144,323.582343 89.369643,323.798455 89.3169697,324.116319 L87.9672727,331.269202 C87.8636046,332.057154 88.4163744,332.780622 89.2036364,332.887362 C92.3872727,333.237791 93.9224242,333.237791 97.930303,333.742822 C100.392727,334.062331 106.811515,335.608344 110.221818,335.185767 C113.632121,334.76319 113.11697,331.413497 111.633333,331.289816 C104.987879,330.712638 102.494545,327.548466 100.433939,325.456196 C100.076556,325.092822 99.6094429,324.857369 99.1048485,324.786258 L99.1048485,324.786258 Z" id="Path" fill="#263238"></path>
                <polygon id="Path" fill="#000000" opacity="0.2" points="92.7272727 307.955337 100.887273 308.192393 99.3006061 317.93227 91.1406061 317.695215"></polygon>
                <path d="M137.329091,126.773006 C137.329091,126.773006 130.209697,194.374969 125.470303,217.338405 C120.318788,242.486871 103.658788,316.056442 103.658788,316.056442 L88.729697,314.95362 C88.729697,314.95362 96.910303,238.848589 103.607273,214.21546 C103.607273,188.63411 109.789091,116.940368 109.789091,116.940368 L137.329091,126.773006 Z" id="Path" fill="#263238"></path>
                <path d="M113.539394,149.623067 C113.405455,144.335706 110.541212,142.635092 107.718182,142.696933 C106.687879,155.41546 105.585455,171.009571 104.750909,185.078282 C109.758182,176.956564 113.910303,164.310184 113.539394,149.623067 Z" id="Path" fill="#000000" opacity="0.3"></path>
                <polygon id="Path" fill="#FFFFFF" points="88.2866667 315.056687 104.27697 316.241963 106.110909 310.212515 87.6993939 310.026994"></polygon>
                <polygon id="Path" fill="#FFB573" points="6.91333333 263.492025 12.0545455 269.851288 27.4369697 258.75092 22.2854545 252.401963"></polygon>
                <path d="M13.1672727,269.861595 L8.59272727,261.894479 C8.44229093,261.612849 8.09453341,261.502992 7.80969697,261.647117 L1.28787879,264.883436 C0.599027343,265.275318 0.355201189,266.149728 0.741818182,266.841718 C2.38,269.59362 3.30727273,270.820123 5.31636364,274.324417 C6.55272727,276.478528 9.80848485,282.672883 11.4981818,285.66184 C13.1878788,288.650798 16.1036364,286.86773 15.6193939,285.455706 C13.5587879,279.106748 12.9715152,274.25227 13.3939394,271.356074 C13.4881642,270.846584 13.4083274,270.320197 13.1672727,269.861595 L13.1672727,269.861595 Z" id="Path" fill="#263238"></path>
                <polygon id="Path" fill="#000000" opacity="0.2" points="22.2854545 252.401963 27.4369697 258.761227 19.5036364 264.471166 14.3521212 258.122209"></polygon>
                <path d="M122.441212,120.96 C122.441212,120.96 102.360606,178.451043 93.2321212,200.053988 C83.2484848,223.707975 23.5424242,265.718282 23.5424242,265.718282 L14.1151515,254.081963 C14.1151515,254.081963 54.6884848,213.401227 69.7515152,194.106994 C78.0969697,167.835092 95.9109091,111.467485 95.9109091,111.467485 L122.441212,120.96 Z" id="Path" fill="#263238"></path>
                <polygon id="Path" fill="#FFFFFF" points="13.7339394 253.607853 23.9236364 266.182086 28.9 263.306503 16.9690909 249.990184"></polygon>
                <path d="M137.246667,127.164663 L95.869697,111.467485 C96.9,107.684908 102.309091,96.5742331 107.120606,81.1038037 C110.759425,69.6718546 113.406792,57.9475099 115.033333,46.0608589 L115.033333,46.0608589 C115.118615,45.3605858 115.488291,44.7263084 116.055474,44.3071044 C116.622657,43.8879005 117.337329,43.7207387 118.031515,43.844908 C118.804242,43.9788957 119.721212,44.1541104 120.730909,44.3499387 C123.337576,44.8755828 126.593333,45.6176687 129.694545,46.5658896 C135.647366,48.3115598 141.49533,50.3969393 147.209697,52.8117791 C149.123389,53.6735717 150.984601,54.647533 152.783636,55.728589 C153.85427,56.3382732 154.847154,57.0754187 155.740606,57.9239264 C156.393395,58.4476207 156.806039,59.213704 156.884242,60.0471166 C156.884242,65.9631902 150.96,88.8853988 137.246667,127.164663 Z" id="Path" fill="#F0F0F0"></path>
                <path d="M146.385455,52.4304294 C141.728485,49.4002454 141.955152,45.9371779 143.531515,42.5977914 C143.927266,41.7720129 144.371057,40.9701473 144.860606,40.196319 L140.378788,32.6208589 L137.081818,27.0655215 C136.360606,33.1671166 134.155758,43.968589 129.004242,46.3597546 C131.819562,50.3363711 135.840586,53.2999198 140.471515,54.8112883 C148.075152,57.1818405 146.385455,52.4304294 146.385455,52.4304294 Z" id="Path" fill="#FFB573"></path>
                <polygon id="Path" fill="#E0E0E0" points="140.18303 54.6876074 140.110909 52.7499387 134.959394 53.76"></polygon>
                <polygon id="Path" fill="#E0E0E0" points="140.18303 54.6876074 141.141212 53.1106748 144.469091 57.161227"></polygon>
                <path d="M129.704848,45.4321472 C132.838452,48.3164687 136.337034,50.7767554 140.110909,52.7499387 C138.050303,54.0176687 136.092727,57.3570552 135.350909,60.1192638 C133.681818,58.9546012 127.005455,47.9676074 126.078182,44.9477301 L129.704848,45.4321472 Z" id="Path" fill="#FFFFFF"></path>
                <path d="M145.41697,51.2554601 C144.19695,52.2742863 142.70851,52.9185554 141.130909,53.1106748 C142.233333,54.7288344 143.191515,58.923681 143.191515,61.3560736 C145.118182,60.0986503 148.095758,55.7079755 148.569697,53.718773 L145.41697,51.2554601 Z" id="Path" fill="#FFFFFF"></path>
                <path d="M145.581818,51.1111656 C145.581818,51.1111656 150.084242,53.2755828 154.061212,55.728589 C157.408627,57.7927964 158.98807,61.8226696 157.935152,65.6127607 C153.020606,82.9899387 146.385455,99.8620859 143.634545,109.251534 C140.718788,119.259387 136.659394,131.813006 136.659394,131.813006 L129.64303,133.472393 C129.64303,133.472393 147.230303,66.1796319 145.581818,51.1111656 Z" id="Path" fill="#000000" opacity="0.3"></path>
                <path d="M129.601818,44.6488344 C129.601818,44.6488344 123.553939,43.8552147 118.268485,43.6181595 C114.447896,43.4461108 111.031577,45.9812974 110.087879,49.6888344 C107.409091,60.2841718 105.430909,80.5472393 102.721212,88.4319018 C99.3521212,98.2851534 94.7878788,117.496933 94.7878788,117.496933 L118.752727,131.349202 C118.752727,131.349202 142.964848,56.9447853 129.601818,44.6488344 Z" id="Path" fill="#000000" opacity="0.3"></path>
                <path d="M129.601818,44.6488344 C129.601818,44.6488344 123.553939,43.8552147 118.268485,43.6181595 C114.447896,43.4461108 111.031577,45.9812974 110.087879,49.6888344 C107.409091,60.2841718 103.761818,80.0731288 101.041818,87.9680982 C97.6521212,97.8213497 90.4606061,114.569816 90.4606061,114.569816 L120.689697,128.751902 C120.689697,128.751902 142.964848,56.9447853 129.601818,44.6488344 Z" id="Path" fill="#E53E37"></path>
                <path d="M129.601818,44.6488344 C129.601818,44.6488344 123.553939,43.8552147 118.268485,43.6181595 C114.447896,43.4461108 111.031577,45.9812974 110.087879,49.6888344 C107.409091,60.2841718 103.761818,80.0731288 101.041818,87.9680982 C97.6521212,97.8213497 90.4606061,114.569816 90.4606061,114.569816 L120.689697,128.751902 C120.689697,128.751902 142.964848,56.9447853 129.601818,44.6488344 Z" id="Path" fill="#000000" opacity="0.2"></path>
                <path d="M145.581818,51.1111656 C145.581818,51.1111656 150.084242,53.2755828 154.061212,55.728589 C157.408627,57.7927964 158.98807,61.8226696 157.935152,65.6127607 C153.020606,82.9899387 149.136364,101.201963 147.178788,110.787239 C145.118182,120.99092 142.964848,130.277301 142.964848,130.277301 L131.631515,131.813006 C131.631515,131.813006 147.230303,66.1796319 145.581818,51.1111656 Z" id="Path" fill="#E53E37"></path>
                <path d="M145.581818,51.1111656 C145.581818,51.1111656 150.084242,53.2755828 154.061212,55.728589 C157.408627,57.7927964 158.98807,61.8226696 157.935152,65.6127607 C153.020606,82.9899387 149.136364,101.201963 147.178788,110.787239 C145.118182,120.99092 142.964848,130.277301 142.964848,130.277301 L131.631515,131.813006 C131.631515,131.813006 147.230303,66.1796319 145.581818,51.1111656 Z" id="Path" fill="#000000" opacity="0.2"></path>
                <path d="M144.860606,40.196319 C144.369991,40.9801745 143.926185,41.7923923 143.531515,42.6287117 C141.326667,41.2991411 139.06,37.6299387 139.595758,35.0841718 C139.764092,34.2364177 140.026737,33.4101716 140.378788,32.6208589 L144.860606,40.196319 Z" id="Path" fill="#000000" opacity="0.2"></path>
                <path d="M151.217576,8.94625767 C156.698788,9.65742331 158.707879,17.0576687 155.678788,21.9430675 C150.712727,14.7386503 151.217576,8.94625767 151.217576,8.94625767 Z" id="Path" fill="#263238"></path>
                <path d="M134.155758,22.5923926 C136.010303,30.5182822 136.68,35.238773 141.429697,38.7946012 C144.549316,41.1870551 148.738351,41.6502885 152.305011,39.9972191 C155.871671,38.3441497 158.226855,34.8478128 158.419394,30.9202454 C158.934545,23.5096933 155.82303,11.7909202 147.426061,9.66773006 C143.74963,8.63029304 139.799193,9.63323281 137.062232,12.298906 C134.325272,14.9645792 133.217395,18.888204 134.155758,22.5923926 Z" id="Path" fill="#FFB573"></path>
                <path d="M136.597576,29.6525153 C141.367879,29.7865031 140.626061,21.881227 138.544848,18.8922699 C145.159394,19.9229448 156.121818,14.0790184 157.224242,7.95680982 C158.821212,-0.917300613 145.293333,-0.917300613 140.914545,1.90674847 C142.8,2.0407362 143.758182,3.63828221 143.304848,4.46282209 C143.304848,4.46282209 136.772727,2.48392638 132.548485,4.78233129 C134.392727,5.46257669 136.350303,8.12171779 129.333939,8.96687117 C122.657576,9.77079755 124.67697,16.4907975 128.046061,16.3671166 C126.253333,19.1190184 124.1,25.3752147 128.138788,28.0343558 C132.177576,30.6934969 134.938788,34.1565644 134.06303,35.5788957 C135.474545,35.527362 138.472727,33.8267485 136.597576,29.6525153 Z" id="Path" fill="#263238"></path>
                <path d="M129.004242,15.7487117 C125.810303,16.0579141 123.976364,18.5521472 123.852727,21.9327607 C125.220843,19.6038558 126.961052,17.5148509 129.004242,15.7487117 L129.004242,15.7487117 Z" id="Path" fill="#263238"></path>
                <path d="M132.249697,29.7555828 C133.063825,31.3823173 134.462224,32.6413309 136.164848,33.2804908 C138.400606,34.0947239 139.575152,32.1158282 138.998182,29.910184 C138.472727,27.9106748 136.68,25.0969325 134.413333,25.241227 C132.146667,25.3855215 131.260606,27.7354601 132.249697,29.7555828 Z" id="Path" fill="#FFB573"></path>
                <path d="M146.715152,23.2004908 C146.818182,23.849816 147.261212,24.3239264 147.683636,24.2311656 C148.106061,24.1384049 148.363636,23.602454 148.260606,22.9531288 C148.157576,22.3038037 147.714545,21.8193865 147.281818,21.922454 C146.849091,22.0255215 146.601818,22.5511656 146.715152,23.2004908 Z" id="Path" fill="#263238"></path>
                <path d="M154.102424,22.2110429 C154.205455,22.8603681 154.638182,23.3344785 155.070909,23.2417178 C155.503636,23.1489571 155.750909,22.6130061 155.647879,21.9533742 C155.544848,21.2937423 155.101818,20.8299387 154.669091,20.9226994 C154.236364,21.0154601 153.989091,21.551411 154.102424,22.2110429 Z" id="Path" fill="#263238"></path>
                <path d="M151.804848,22.8500613 C152.92534,24.7391022 154.290267,26.471869 155.864242,28.0034356 C154.895758,29.2299387 152.845455,29.0341104 152.845455,29.0341104 L151.804848,22.8500613 Z" id="Path" fill="#ED893E"></path>
                <path d="M150.475758,31.1057669 C148.935653,31.147104 147.445997,30.5547519 146.354545,29.4669939 C146.283886,29.3916524 146.283886,29.2743599 146.354545,29.1990184 C146.39131,29.1618821 146.441389,29.1409888 146.493636,29.1409888 C146.545883,29.1409888 146.595963,29.1618821 146.632727,29.1990184 C147.842625,30.3718434 149.531996,30.9097381 151.19697,30.6522699 C151.271676,30.6273802 151.354019,30.64969 151.405957,30.708893 C151.457896,30.7680959 151.469321,30.8526671 151.434953,30.9235373 C151.400585,30.9944076 151.327116,31.0377807 151.248485,31.0336196 C150.99319,31.0778386 150.734823,31.1019616 150.475758,31.1057669 Z" id="Path" fill="#263238"></path>
                <path d="M148.415152,33.2495706 C147.169939,32.3315171 146.357567,30.9410395 146.169091,29.4051534 C146.163021,29.300657 146.24017,29.2098603 146.344242,29.1990184 C146.395142,29.1932628 146.446154,29.2088231 146.485183,29.2420097 C146.524212,29.2751964 146.547781,29.3230535 146.550303,29.3742331 C146.794332,31.0409977 147.789314,32.5036178 149.249697,33.3423313 C149.294179,33.3661988 149.327014,33.407173 149.340624,33.4557976 C149.354234,33.5044222 149.347443,33.5564956 149.321818,33.6 C149.295936,33.6451857 149.253129,33.6781974 149.202859,33.6917363 C149.15259,33.7052752 149.099001,33.698226 149.053939,33.6721472 C148.834068,33.5420819 148.62087,33.4010451 148.415152,33.2495706 L148.415152,33.2495706 Z" id="Path" fill="#263238"></path>
                <path d="M144.026061,21.1288344 C143.965185,21.144106 143.901482,21.144106 143.840606,21.1288344 C143.74742,21.0826884 143.677121,21.000467 143.645996,20.9012206 C143.614871,20.8019741 143.625622,20.694316 143.675758,20.6031902 C144.227584,19.4816288 145.301579,18.7086912 146.54,18.5418405 C146.642854,18.533337 146.744759,18.5669144 146.822428,18.6348996 C146.900098,18.7028847 146.946893,18.7994675 146.952121,18.9025767 C146.960622,19.0054676 146.927056,19.1074097 146.859096,19.1851071 C146.791135,19.2628044 146.694587,19.3096168 146.591515,19.3148466 C145.631193,19.4526788 144.797548,20.0483541 144.355758,20.9123926 C144.298521,21.0435874 144.169154,21.1285151 144.026061,21.1288344 L144.026061,21.1288344 Z" id="Path" fill="#263238"></path>
                <path d="M156.84303,19.2530061 C156.715274,19.256758 156.594588,19.1944456 156.523636,19.0880982 C155.968538,18.2486325 155.054607,17.7153134 154.050909,17.6451534 C153.861638,17.6141314 153.722697,17.4505145 153.722697,17.2586503 C153.722697,17.0667861 153.861638,16.9031692 154.050909,16.8721472 L154.050909,16.8721472 C155.302987,16.9425151 156.448541,17.5995364 157.141818,18.644908 C157.201438,18.7279924 157.225199,18.8315517 157.207763,18.9323284 C157.190327,19.0331051 157.133157,19.1226521 157.049091,19.1808589 C156.9902,19.2269141 156.917778,19.2522709 156.84303,19.2530061 Z" id="Path" fill="#263238"></path>
                <path d="M120.483636,56.955092 C118.42303,58.635092 116.249091,60.5006135 114.178182,62.324908 C112.107273,64.1492025 109.995152,66.0250307 107.996364,67.9420859 C104.019458,71.6243508 100.295064,75.5704644 96.8484848,79.7536196 L95.6739394,81.2790184 L95.529697,81.4748466 C95.5606952,81.4288501 95.5882454,81.3806201 95.6121212,81.3305521 C95.6741037,81.2150693 95.7258179,81.0943593 95.7666667,80.969816 C95.8451503,80.762168 95.8869841,80.542461 95.890303,80.3204908 C95.890303,79.9700613 95.8284848,79.9700613 95.890303,80.1349693 C95.9353122,80.4519721 96.025523,80.7608819 96.1581818,81.0522699 C96.5734282,82.025486 97.0915256,82.9514875 97.7036364,83.8144785 C98.4132865,84.8567313 99.1767459,85.8612835 99.9909091,86.8240491 C101.649697,88.8853988 103.504242,90.8539877 105.451515,92.8019632 C107.398788,94.7499387 109.459394,96.7185276 111.427273,98.5222086 L111.561212,98.6355828 C113.361755,100.254044 113.610619,102.987413 112.131989,104.904648 C110.653359,106.821882 107.947253,107.274642 105.925455,105.943067 C100.757338,102.665809 95.92576,98.8854613 91.5012121,94.6571779 C90.3781818,93.5337423 89.2757576,92.358773 88.1939394,91.0601227 C87.0238242,89.6523936 85.9889449,88.1374738 85.1030303,86.5354601 C84.5661586,85.5503994 84.127869,84.5146961 83.7945455,83.4434356 C83.3464923,82.0011162 83.1854753,80.4849101 83.3206061,78.9806135 C83.4049492,78.03812 83.6199387,77.1119443 83.9593939,76.2287117 C84.1373861,75.7712936 84.3474019,75.3270014 84.5878788,74.8991411 L84.9587879,74.2910429 L85.1236364,74.043681 L86.4630303,72.0544785 C90.0332571,67.0683945 94.0063813,62.3837247 98.3424242,58.0476074 C100.40303,55.9038037 102.566667,53.8115337 104.761212,51.791411 C106.955758,49.7712883 109.129697,47.8233129 111.550909,45.8444172 C114.62618,44.02233 118.571602,44.7283083 120.824786,47.503848 C123.077969,50.2793877 122.959132,54.2871135 120.545455,56.9241718 L120.483636,56.955092 Z" id="Path" fill="#E53E37"></path>
                <path d="M120.483636,56.955092 C118.42303,58.635092 116.249091,60.5006135 114.178182,62.324908 C112.107273,64.1492025 109.995152,66.0250307 107.996364,67.9420859 C104.019458,71.6243508 100.295064,75.5704644 96.8484848,79.7536196 L95.6739394,81.2790184 L95.529697,81.4748466 C95.5606952,81.4288501 95.5882454,81.3806201 95.6121212,81.3305521 C95.6741037,81.2150693 95.7258179,81.0943593 95.7666667,80.969816 C95.8451503,80.762168 95.8869841,80.542461 95.890303,80.3204908 C95.890303,79.9700613 95.8284848,79.9700613 95.890303,80.1349693 C95.9353122,80.4519721 96.025523,80.7608819 96.1581818,81.0522699 C96.5734282,82.025486 97.0915256,82.9514875 97.7036364,83.8144785 C98.4132865,84.8567313 99.1767459,85.8612835 99.9909091,86.8240491 C101.649697,88.8853988 103.504242,90.8539877 105.451515,92.8019632 C107.398788,94.7499387 109.459394,96.7185276 111.427273,98.5222086 L111.561212,98.6355828 C113.361755,100.254044 113.610619,102.987413 112.131989,104.904648 C110.653359,106.821882 107.947253,107.274642 105.925455,105.943067 C100.757338,102.665809 95.92576,98.8854613 91.5012121,94.6571779 C90.3781818,93.5337423 89.2757576,92.358773 88.1939394,91.0601227 C87.0238242,89.6523936 85.9889449,88.1374738 85.1030303,86.5354601 C84.5661586,85.5503994 84.127869,84.5146961 83.7945455,83.4434356 C83.3464923,82.0011162 83.1854753,80.4849101 83.3206061,78.9806135 C83.4049492,78.03812 83.6199387,77.1119443 83.9593939,76.2287117 C84.1373861,75.7712936 84.3474019,75.3270014 84.5878788,74.8991411 L84.9587879,74.2910429 L85.1236364,74.043681 L86.4630303,72.0544785 C90.0332571,67.0683945 94.0063813,62.3837247 98.3424242,58.0476074 C100.40303,55.9038037 102.566667,53.8115337 104.761212,51.791411 C106.955758,49.7712883 109.129697,47.8233129 111.550909,45.8444172 C114.62618,44.02233 118.571602,44.7283083 120.824786,47.503848 C123.077969,50.2793877 122.959132,54.2871135 120.545455,56.9241718 L120.483636,56.955092 Z" id="Path" fill="#000000" opacity="0.2"></path>
                <path d="M112.993333,100.222822 L119.999394,104.510429 L111.046061,109.61227 C111.046061,109.61227 105.090909,105.159755 107.635758,102.284172 L110.623636,100.222822 C111.344111,99.7543014 112.272859,99.7543014 112.993333,100.222822 L112.993333,100.222822 Z" id="Path" fill="#FFB573"></path>
                <path d="M120.380606,112.343558 L116.527273,114.611043 C115.988552,114.932593 115.342559,115.022002 114.736802,114.858855 C114.131045,114.695708 113.617246,114.293934 113.312727,113.745276 L111.046061,109.622577 L119.999394,104.520736 L121.441818,109.67411 C121.736264,110.701814 121.300162,111.798817 120.380606,112.343558 Z" id="Path" fill="#FFB573"></path>
            </g>
            <g id="freepik--Megaphone--inject-18" transform="translate(318.000000, 21.000000)">
                <path d="M19.4538806,55.9337143 L28.938806,54.072 C26.3332836,58.6594286 30.1643284,63.0514286 33.6040299,65.808 C35.2414925,67.1245714 34.0880597,69.48 31.5443284,69.9222857 L25.3652239,71.136 C17.9091045,72.6377143 19.4538806,55.9337143 19.4538806,55.9337143 Z" id="Path" fill="#E53E37"></path>
                <path d="M15.6846269,56.664 L37.4350746,52.4571429 C44.505662,51.049477 49.1083102,44.2000504 47.7335821,37.1314286 L47.7335821,37.1314286 C46.3140441,30.0763727 39.4638018,25.4846058 32.388806,26.8457143 L10.6486567,31.104 C3.58338159,32.5266879 -1.01304076,39.3714402 0.350149254,46.44 L0.350149254,46.44 C1.79364247,53.4685435 8.63178369,58.0277569 15.6846269,56.664 Z" id="Path" fill="#E53E37"></path>
                <path d="M15.6846269,56.664 L37.4350746,52.4571429 C44.505662,51.049477 49.1083102,44.2000504 47.7335821,37.1314286 L47.7335821,37.1314286 C46.3140441,30.0763727 39.4638018,25.4846058 32.388806,26.8457143 L10.6486567,31.104 C3.58338159,32.5266879 -1.01304076,39.3714402 0.350149254,46.44 L0.350149254,46.44 C1.79364247,53.4685435 8.63178369,58.0277569 15.6846269,56.664 Z" id="Path" fill="#FFFFFF" opacity="0.3"></path>
                <path d="M74.8804478,61.0971429 L37.8058209,60.6034286 C34.5926866,61.2308571 26.4774627,19.6765714 29.649403,19.0491429 L63.7786567,4.64914286 L74.8804478,61.0971429 Z" id="Path" fill="#E53E37"></path>
                <path d="M66.3738806,33.4388571 C69.4634328,49.032 73.2429851,61.416 74.8804478,61.0971429 C76.5179104,60.7782857 75.3644776,47.8697143 72.2955224,32.2971429 C69.2265672,16.7245714 65.4264179,4.32 63.7889552,4.63885714 C62.1514925,4.95771429 63.3152239,17.8354286 66.3738806,33.4388571 Z" id="Path" fill="#E53E37"></path>
                <path d="M66.3738806,33.4388571 C69.4634328,49.032 73.2429851,61.416 74.8804478,61.0971429 C76.5179104,60.7782857 75.3644776,47.8697143 72.2955224,32.2971429 C69.2265672,16.7245714 65.4264179,4.32 63.7889552,4.63885714 C62.1514925,4.95771429 63.3152239,17.8354286 66.3738806,33.4388571 Z" id="Path" fill="#000000" opacity="0.3"></path>
                <path d="M80.3283582,31.5154286 C79.5765672,27.6994286 71.0597015,26.1462857 69.2574627,26.5062857 C67.4552239,26.8662857 66.5798507,30.24 67.3213433,34.056 C68.0628358,37.872 70.1534328,40.6697143 71.9659701,40.32 C73.7785075,39.9702857 81.0492537,35.3211429 80.3283582,31.5154286 Z" id="Path" fill="#E53E37"></path>
                <polygon id="Rectangle" fill="#E53E37" transform="translate(113.645110, 26.055742) rotate(-9.190000) translate(-113.645110, -26.055742) " points="89.2125677 25.5006535 138.077437 25.510224 138.077653 26.6108303 89.2127835 26.6012598"></polygon>
                <polygon id="Rectangle" fill="#E53E37" transform="translate(95.137503, 9.653712) rotate(-40.450000) translate(-95.137503, -9.653712) " points="82.1472444 9.09516735 108.127086 9.11110913 108.127762 10.2122567 82.1479202 10.196315"></polygon>
                <polygon id="Rectangle" fill="#E53E37" transform="translate(117.906662, 54.699211) rotate(-70.560000) translate(-117.906662, -54.699211) " points="117.3548 50.853033 118.455523 50.8534626 118.458523 58.5453892 117.3578 58.5449595"></polygon>
                <polygon id="Rectangle" fill="#E53E37" transform="translate(97.180690, 47.554512) rotate(-71.460000) translate(-97.180690, -47.554512) " points="96.6267101 37.8749247 97.72742 37.8753374 97.7346705 57.2340998 96.6339607 57.2336871"></polygon>
            </g>
        </g>
    </g>
</svg>