<?xml version="1.0" encoding="UTF-8"?>
<svg width="600px" height="447px" viewBox="0 0 600 447" version="1.1" xmlns="http://www.w3.org/2000/svg" xmlns:xlink="http://www.w3.org/1999/xlink">
    <!-- Generator: Sketch 64 (93537) - https://sketch.com -->
    <title>become driver</title>
    <desc>Created with Sketch.</desc>
    <g id="z" stroke="none" stroke-width="1" fill="none" fill-rule="evenodd">
        <g id="become-driver">
            <g id="freepik--background-complete--inject-40" fill-rule="nonzero">
                <rect id="Rectangle" fill="#EBEBEB" x="0" y="392.118605" width="600" height="1"></rect>
                <rect id="Rectangle" fill="#EBEBEB" x="125.448" y="400.274767" width="39.744" height="1"></rect>
                <rect id="Rectangle" fill="#EBEBEB" x="205.368" y="411.245465" width="48.9" height="1"></rect>
                <rect id="Rectangle" fill="#EBEBEB" x="62.952" y="407.496744" width="61.296" height="1"></rect>
                <rect id="Rectangle" fill="#EBEBEB" x="428.112" y="402.28686" width="111.768" height="1"></rect>
                <rect id="Rectangle" fill="#EBEBEB" x="409.836" y="402.28686" width="7.596" height="1"></rect>
                <rect id="Rectangle" fill="#EBEBEB" x="332.652" y="407.341047" width="50.676" height="1"></rect>
                <path d="M284.4,338.702326 L52.692,338.702326 C48.912432,338.695719 45.852,335.635854 45.852,331.863605 L45.852,6.77883721 C45.8848866,3.02998669 48.9357317,0.00642197781 52.692,1.70199772e-14 L284.4,1.70199772e-14 C288.184255,1.70199772e-14 291.252,3.06179965 291.252,6.83872093 L291.252,6.83872093 L291.252,331.863605 C291.252,335.640526 288.184255,338.702326 284.4,338.702326 Z M52.692,0.239534884 C49.0781175,0.2461409 46.152,3.1719523 46.152,6.77883721 L46.152,331.863605 C46.152,335.47049 49.0781175,338.396301 52.692,338.402907 L284.4,338.402907 C288.013104,338.38977 290.938837,335.469706 290.952,331.863605 L290.952,6.77883721 C290.938837,3.17273585 288.013104,0.252671996 284.4,0.239534884 L52.692,0.239534884 Z" id="Shape" fill="#EBEBEB"></path>
                <path d="M543.972,338.702326 L312.252,338.702326 C308.473212,338.689184 305.413167,335.635069 305.4,331.863605 L305.4,6.77883721 C305.439417,3.02805671 308.493735,0.00635135975 312.252,-8.50998858e-15 L543.972,-8.50998858e-15 C547.723588,0.0129716665 550.767171,3.03464068 550.800011,6.77883721 L550.800011,331.863605 C550.803185,333.674171 550.085598,335.411843 548.805099,336.694353 C547.5246,337.976862 545.786082,338.702326 543.972,338.702326 L543.972,338.702326 Z M312.252,0.239534884 C308.638896,0.252671996 305.713163,3.17273585 305.7,6.77883721 L305.7,331.863605 C305.713163,335.469706 308.638896,338.38977 312.252,338.402907 L543.972,338.402907 C547.585104,338.38977 550.510837,335.469706 550.524,331.863605 L550.524,6.77883721 C550.510837,3.17273585 547.585104,0.252671996 543.972,0.239534884 L312.252,0.239534884 Z" id="Shape" fill="#EBEBEB"></path>
                <path d="M84.804,139.05 L188.916,139.05 C188.916,139.05 183.312,126.043256 164.592,130.091395 C164.592,130.091395 160.656,115.300116 146.376,117.34814 C146.376,117.34814 134.556,104.556977 117.312,109.515349 C100.068,114.473721 101.556,130.091395 101.556,130.091395 C101.556,130.091395 88.8,126.76186 84.804,139.05 Z" id="Path" fill="#FAFAFA"></path>
                <path d="M363.468,59.8118605 L259.368,59.8118605 C259.368,59.8118605 264.96,46.7931395 283.68,50.8412791 C283.68,50.8412791 287.616,36.05 301.908,38.0980233 C301.908,38.0980233 313.728,25.3188372 330.96,30.2772093 C348.192,35.2355814 346.728,50.8412791 346.728,50.8412791 C346.728,50.8412791 359.532,47.5237209 363.468,59.8118605 Z" id="Path" fill="#FAFAFA"></path>
                <path d="M440.244,56.4224419 L519.888,56.4224419 C519.888,56.4224419 516.84,45.5116279 505.32,49.1046512 C505.32,49.1046512 507.72,34.4211628 499.224,32.7204651 C490.728,31.0197674 488.028,42.1940698 488.028,42.1940698 C484.062379,37.7083701 477.892836,35.8522779 472.104,37.4033721 C466.4193,38.880684 461.99932,43.3426448 460.584,49.0327907 C460.584,49.0327907 446.4,40.9245349 440.244,56.4224419 Z" id="Path" fill="#FAFAFA"></path>
                <rect id="Rectangle" fill="#E6E6E6" x="55.152" y="200.215233" width="96.888" height="191.591977"></rect>
                <rect id="Rectangle" fill="#F0F0F0" x="55.152" y="200.215233" width="79.272" height="191.591977"></rect>
                <rect id="Rectangle" fill="#E0E0E0" x="53.064" y="200.215233" width="100.116" height="3.12593023"></rect>
                <rect id="Rectangle" fill="#E0E0E0" x="53.064" y="193.963372" width="100.116" height="3.12593023"></rect>
                <rect id="Rectangle" fill="#F0F0F0" x="55.152" y="197.089302" width="95.928" height="3.12593023"></rect>
                <rect id="Rectangle" fill="#E6E6E6" x="62.676" y="211.485349" width="14.892" height="15.0906977"></rect>
                <rect id="Rectangle" fill="#F5F5F5" x="63.984" y="211.485349" width="13.572" height="15.0906977"></rect>
                <rect id="Rectangle" fill="#E6E6E6" x="85.224" y="211.485349" width="14.892" height="15.0906977"></rect>
                <rect id="Rectangle" fill="#F5F5F5" x="86.532" y="211.485349" width="13.572" height="15.0906977"></rect>
                <rect id="Rectangle" fill="#E6E6E6" x="107.772" y="211.485349" width="14.892" height="15.0906977"></rect>
                <rect id="Rectangle" fill="#F5F5F5" x="109.08" y="211.485349" width="13.572" height="15.0906977"></rect>
                <rect id="Rectangle" fill="#E6E6E6" x="62.676" y="233.702209" width="14.892" height="15.0906977"></rect>
                <rect id="Rectangle" fill="#F5F5F5" x="63.984" y="233.702209" width="13.572" height="15.0906977"></rect>
                <rect id="Rectangle" fill="#E6E6E6" x="85.224" y="233.702209" width="14.892" height="15.0906977"></rect>
                <rect id="Rectangle" fill="#F5F5F5" x="86.532" y="233.702209" width="13.572" height="15.0906977"></rect>
                <rect id="Rectangle" fill="#E6E6E6" x="107.772" y="233.702209" width="14.892" height="15.0906977"></rect>
                <rect id="Rectangle" fill="#F5F5F5" x="109.08" y="233.702209" width="13.572" height="15.0906977"></rect>
                <rect id="Rectangle" fill="#E6E6E6" x="62.676" y="274.387209" width="14.892" height="15.0906977"></rect>
                <rect id="Rectangle" fill="#F5F5F5" x="63.984" y="274.387209" width="13.572" height="15.0906977"></rect>
                <rect id="Rectangle" fill="#E6E6E6" x="85.224" y="274.387209" width="14.892" height="15.0906977"></rect>
                <rect id="Rectangle" fill="#F5F5F5" x="86.532" y="274.387209" width="13.572" height="15.0906977"></rect>
                <rect id="Rectangle" fill="#E6E6E6" x="107.772" y="274.387209" width="14.892" height="15.0906977"></rect>
                <rect id="Rectangle" fill="#F5F5F5" x="109.08" y="274.387209" width="13.572" height="15.0906977"></rect>
                <rect id="Rectangle" fill="#E6E6E6" x="62.676" y="296.60407" width="14.892" height="15.0906977"></rect>
                <rect id="Rectangle" fill="#F5F5F5" x="63.984" y="296.60407" width="13.572" height="15.0906977"></rect>
                <rect id="Rectangle" fill="#E6E6E6" x="85.224" y="296.60407" width="14.892" height="15.0906977"></rect>
                <rect id="Rectangle" fill="#F5F5F5" x="86.532" y="296.60407" width="13.572" height="15.0906977"></rect>
                <rect id="Rectangle" fill="#E6E6E6" x="107.772" y="296.60407" width="14.892" height="15.0906977"></rect>
                <rect id="Rectangle" fill="#F5F5F5" x="109.08" y="296.60407" width="13.572" height="15.0906977"></rect>
                <rect id="Rectangle" fill="#E6E6E6" x="62.676" y="341.816279" width="14.892" height="15.0906977"></rect>
                <rect id="Rectangle" fill="#F5F5F5" x="63.984" y="341.816279" width="13.572" height="15.0906977"></rect>
                <rect id="Rectangle" fill="#E6E6E6" x="85.224" y="341.816279" width="14.892" height="15.0906977"></rect>
                <rect id="Rectangle" fill="#F5F5F5" x="86.532" y="341.816279" width="13.572" height="15.0906977"></rect>
                <rect id="Rectangle" fill="#E6E6E6" x="107.772" y="341.816279" width="14.892" height="15.0906977"></rect>
                <rect id="Rectangle" fill="#F5F5F5" x="109.08" y="341.816279" width="13.572" height="15.0906977"></rect>
                <rect id="Rectangle" fill="#E6E6E6" x="62.676" y="364.03314" width="14.892" height="15.0906977"></rect>
                <rect id="Rectangle" fill="#F5F5F5" x="63.984" y="364.03314" width="13.572" height="15.0906977"></rect>
                <rect id="Rectangle" fill="#E6E6E6" x="85.224" y="364.03314" width="14.892" height="15.0906977"></rect>
                <rect id="Rectangle" fill="#F5F5F5" x="86.532" y="364.03314" width="13.572" height="15.0906977"></rect>
                <rect id="Rectangle" fill="#E6E6E6" x="107.772" y="364.03314" width="14.892" height="15.0906977"></rect>
                <rect id="Rectangle" fill="#F5F5F5" x="109.08" y="364.03314" width="13.572" height="15.0906977"></rect>
                <rect id="Rectangle" fill="#E0E0E0" x="55.152" y="259.404302" width="96.888" height="1.40127907"></rect>
                <rect id="Rectangle" fill="#E0E0E0" x="55.152" y="328.941279" width="96.888" height="1.40127907"></rect>
                <rect id="Rectangle" fill="#E0E0E0" x="437.316" y="160.68" width="95.724" height="232.480581"></rect>
                <rect id="Rectangle" fill="#F0F0F0" x="437.316" y="160.68" width="68.46" height="232.480581"></rect>
                <rect id="Rectangle" fill="#E6E6E6" x="444.372" y="179.782907" width="25.476" height="12.3480233"></rect>
                <rect id="Rectangle" fill="#F5F5F5" x="446.064" y="179.782907" width="23.784" height="12.3480233"></rect>
                <rect id="Rectangle" fill="#E6E6E6" x="473.844" y="179.782907" width="25.476" height="12.3480233"></rect>
                <rect id="Rectangle" fill="#F5F5F5" x="475.536" y="179.782907" width="23.784" height="12.3480233"></rect>
                <rect id="Rectangle" fill="#E6E6E6" x="444.372" y="203.017791" width="25.476" height="12.3480233"></rect>
                <rect id="Rectangle" fill="#F5F5F5" x="446.064" y="203.017791" width="23.784" height="12.3480233"></rect>
                <rect id="Rectangle" fill="#E6E6E6" x="473.844" y="203.017791" width="25.476" height="12.3480233"></rect>
                <rect id="Rectangle" fill="#F5F5F5" x="475.536" y="203.017791" width="23.784" height="12.3480233"></rect>
                <rect id="Rectangle" fill="#E6E6E6" x="444.372" y="232.70814" width="25.476" height="12.3480233"></rect>
                <rect id="Rectangle" fill="#F5F5F5" x="446.064" y="232.70814" width="23.784" height="12.3480233"></rect>
                <rect id="Rectangle" fill="#E6E6E6" x="473.844" y="232.70814" width="25.476" height="12.3480233"></rect>
                <rect id="Rectangle" fill="#F5F5F5" x="475.536" y="232.70814" width="23.784" height="12.3480233"></rect>
                <rect id="Rectangle" fill="#E6E6E6" x="444.372" y="249.775" width="25.476" height="12.3480233"></rect>
                <rect id="Rectangle" fill="#F5F5F5" x="446.064" y="249.775" width="23.784" height="12.3480233"></rect>
                <rect id="Rectangle" fill="#E6E6E6" x="473.844" y="249.775" width="25.476" height="12.3480233"></rect>
                <rect id="Rectangle" fill="#F5F5F5" x="475.536" y="249.775" width="23.784" height="12.3480233"></rect>
                <rect id="Rectangle" fill="#E6E6E6" x="444.372" y="277.812558" width="25.476" height="12.3480233"></rect>
                <rect id="Rectangle" fill="#F5F5F5" x="446.064" y="277.812558" width="23.784" height="12.3480233"></rect>
                <rect id="Rectangle" fill="#E6E6E6" x="473.844" y="277.812558" width="25.476" height="12.3480233"></rect>
                <rect id="Rectangle" fill="#F5F5F5" x="475.536" y="277.812558" width="23.784" height="12.3480233"></rect>
                <rect id="Rectangle" fill="#E6E6E6" x="444.372" y="294.867442" width="25.476" height="12.3480233"></rect>
                <rect id="Rectangle" fill="#F5F5F5" x="446.064" y="294.867442" width="23.784" height="12.3480233"></rect>
                <rect id="Rectangle" fill="#E6E6E6" x="473.844" y="294.867442" width="25.476" height="12.3480233"></rect>
                <rect id="Rectangle" fill="#F5F5F5" x="475.536" y="294.867442" width="23.784" height="12.3480233"></rect>
                <rect id="Rectangle" fill="#E6E6E6" x="444.372" y="325.384186" width="25.476" height="12.3480233"></rect>
                <rect id="Rectangle" fill="#F5F5F5" x="446.064" y="325.384186" width="23.784" height="12.3480233"></rect>
                <rect id="Rectangle" fill="#E6E6E6" x="473.844" y="325.384186" width="25.476" height="12.3480233"></rect>
                <rect id="Rectangle" fill="#F5F5F5" x="475.536" y="325.384186" width="23.784" height="12.3480233"></rect>
                <rect id="Rectangle" fill="#E6E6E6" x="444.372" y="347.912442" width="25.476" height="12.3480233"></rect>
                <rect id="Rectangle" fill="#F5F5F5" x="446.064" y="347.912442" width="23.784" height="12.3480233"></rect>
                <rect id="Rectangle" fill="#E6E6E6" x="473.844" y="347.912442" width="25.476" height="12.3480233"></rect>
                <rect id="Rectangle" fill="#F5F5F5" x="475.536" y="347.912442" width="23.784" height="12.3480233"></rect>
                <rect id="Rectangle" fill="#000000" opacity="0.05" x="437.316" y="222.971047" width="95.724" height="2.11988372"></rect>
                <rect id="Rectangle" fill="#000000" opacity="0.05" x="437.316" y="268.90186" width="95.724" height="2.11988372"></rect>
                <rect id="Rectangle" fill="#000000" opacity="0.05" x="437.316" y="315.239884" width="95.724" height="2.11988372"></rect>
                <rect id="Rectangle" fill="#E0E0E0" x="432.804" y="153.805349" width="100.236" height="7.4255814"></rect>
                <rect id="Rectangle" fill="#000000" opacity="0.05" x="510.132" y="153.805349" width="22.908" height="7.4255814"></rect>
                <rect id="Rectangle" fill="#E6E6E6" x="192.768" y="108.485349" width="108.216" height="280.71093"></rect>
                <rect id="Rectangle" fill="#F0F0F0" x="152.712" y="108.485349" width="108.228" height="280.71093"></rect>
                <rect id="Rectangle" fill="#E6E6E6" x="162.156" y="127.540349" width="89.34" height="14.3002326"></rect>
                <rect id="Rectangle" fill="#F5F5F5" x="165.624" y="127.540349" width="85.872" height="14.3002326"></rect>
                <rect id="Rectangle" fill="#E6E6E6" x="162.156" y="151.613605" width="89.34" height="14.3002326"></rect>
                <rect id="Rectangle" fill="#F5F5F5" x="165.624" y="151.613605" width="85.872" height="14.3002326"></rect>
                <rect id="Rectangle" fill="#E6E6E6" x="162.156" y="176.621047" width="89.34" height="14.3002326"></rect>
                <rect id="Rectangle" fill="#F5F5F5" x="165.624" y="176.621047" width="85.872" height="14.3002326"></rect>
                <rect id="Rectangle" fill="#E6E6E6" x="162.156" y="201.640465" width="89.34" height="14.3002326"></rect>
                <rect id="Rectangle" fill="#F5F5F5" x="165.624" y="201.640465" width="85.872" height="14.3002326"></rect>
                <rect id="Rectangle" fill="#E6E6E6" x="162.156" y="226.647907" width="89.34" height="14.3002326"></rect>
                <rect id="Rectangle" fill="#F5F5F5" x="165.624" y="226.647907" width="85.872" height="14.3002326"></rect>
                <rect id="Rectangle" fill="#E6E6E6" x="162.156" y="251.667326" width="89.34" height="14.3002326"></rect>
                <rect id="Rectangle" fill="#F5F5F5" x="165.624" y="251.667326" width="85.872" height="14.3002326"></rect>
                <rect id="Rectangle" fill="#E6E6E6" x="162.156" y="279.237791" width="89.34" height="14.3002326"></rect>
                <rect id="Rectangle" fill="#F5F5F5" x="165.624" y="279.237791" width="85.872" height="14.3002326"></rect>
                <rect id="Rectangle" fill="#E6E6E6" x="162.156" y="306.796279" width="89.34" height="14.3002326"></rect>
                <rect id="Rectangle" fill="#F5F5F5" x="165.624" y="306.796279" width="85.872" height="14.3002326"></rect>
                <rect id="Rectangle" fill="#E6E6E6" x="162.156" y="334.366744" width="89.34" height="14.3002326"></rect>
                <rect id="Rectangle" fill="#F5F5F5" x="165.624" y="334.366744" width="85.872" height="14.3002326"></rect>
                <rect id="Rectangle" fill="#E6E6E6" x="162.156" y="361.937209" width="89.34" height="14.3002326"></rect>
                <rect id="Rectangle" fill="#F5F5F5" x="165.624" y="361.937209" width="85.872" height="14.3002326"></rect>
                <rect id="Rectangle" fill="#F5F5F5" x="149.652" y="105.658837" width="154.152" height="6.85069767"></rect>
                <rect id="Rectangle" fill="#F5F5F5" x="149.652" y="93.2988372" width="154.152" height="6.85069767"></rect>
                <rect id="Rectangle" fill="#F0F0F0" x="152.712" y="98.8081395" width="145.968" height="6.85069767"></rect>
                <rect id="Rectangle" fill="#E0E0E0" x="270.84" y="127.540349" width="30.156" height="14.3002326"></rect>
                <rect id="Rectangle" fill="#E0E0E0" x="270.84" y="151.074651" width="30.156" height="14.3002326"></rect>
                <rect id="Rectangle" fill="#E0E0E0" x="270.84" y="174.608953" width="30.156" height="14.3002326"></rect>
                <rect id="Rectangle" fill="#E0E0E0" x="270.84" y="201.628488" width="30.156" height="14.3002326"></rect>
                <rect id="Rectangle" fill="#E0E0E0" x="270.84" y="226.647907" width="30.156" height="14.3002326"></rect>
                <rect id="Rectangle" fill="#E0E0E0" x="270.84" y="251.667326" width="30.156" height="14.3002326"></rect>
                <rect id="Rectangle" fill="#E0E0E0" x="270.84" y="279.225814" width="30.156" height="14.3002326"></rect>
                <rect id="Rectangle" fill="#E0E0E0" x="270.84" y="306.796279" width="30.156" height="14.3002326"></rect>
                <rect id="Rectangle" fill="#E0E0E0" x="270.84" y="334.366744" width="30.156" height="14.3002326"></rect>
                <rect id="Rectangle" fill="#E0E0E0" x="270.84" y="361.937209" width="30.156" height="14.3002326"></rect>
                <rect id="Rectangle" fill="#E0E0E0" x="428.196" y="206.58686" width="11.904" height="18.587907"></rect>
                <rect id="Rectangle" fill="#E0E0E0" x="428.196" y="237.007791" width="11.904" height="18.587907"></rect>
                <rect id="Rectangle" fill="#E0E0E0" x="428.196" y="266.578372" width="11.904" height="18.587907"></rect>
                <rect id="Rectangle" fill="#E0E0E0" x="428.196" y="297.837674" width="11.904" height="18.587907"></rect>
                <rect id="Rectangle" fill="#E0E0E0" x="428.196" y="328.258605" width="11.904" height="18.587907"></rect>
                <rect id="Rectangle" fill="#E6E6E6" x="314.832" y="187.90314" width="125.268" height="190.142791"></rect>
                <rect id="Rectangle" fill="#F0F0F0" x="314.844" y="187.90314" width="104.1" height="190.142791"></rect>
                <rect id="Rectangle" fill="#EBEBEB" x="324.204" y="206.598837" width="84.648" height="18.587907"></rect>
                <rect id="Rectangle" fill="#EBEBEB" x="324.204" y="237.007791" width="84.648" height="18.587907"></rect>
                <rect id="Rectangle" fill="#EBEBEB" x="324.204" y="267.428721" width="84.648" height="18.587907"></rect>
                <rect id="Rectangle" fill="#EBEBEB" x="324.204" y="297.837674" width="84.648" height="18.587907"></rect>
                <rect id="Rectangle" fill="#EBEBEB" x="324.204" y="328.258605" width="84.648" height="18.587907"></rect>
                <rect id="Rectangle" fill="#F5F5F5" x="327.324" y="206.598837" width="81.528" height="18.587907"></rect>
                <rect id="Rectangle" fill="#F5F5F5" x="327.324" y="237.007791" width="81.528" height="18.587907"></rect>
                <rect id="Rectangle" fill="#F5F5F5" x="327.324" y="267.428721" width="81.528" height="18.587907"></rect>
                <rect id="Rectangle" fill="#F5F5F5" x="327.324" y="297.837674" width="81.528" height="18.587907"></rect>
                <rect id="Rectangle" fill="#F5F5F5" x="327.324" y="328.258605" width="81.528" height="18.587907"></rect>
            </g>
            <g id="freepik--Shape--inject-40" transform="translate(67.000000, 420.000000)" fill="#F5F5F5" fill-rule="nonzero">
                <ellipse id="freepik--shape--inject-40" cx="233" cy="13.2408" rx="232.867887" ry="13.2444"></ellipse>
            </g>
            <g id="freepik--Route--inject-40" transform="translate(22.000000, 432.000000)" stroke="#E53E37" stroke-linecap="round" stroke-linejoin="round">
                <line x1="145.676885" y1="1.24" x2="140.89" y2="1.24" id="Path"></line>
                <line x1="131.842787" y1="1.24" x2="9.59770492" y2="1.24" id="Path" stroke-dasharray="7.566110134124756,7.566110134124756"></line>
                <line x1="5.07409836" y1="1.24" x2="0.287213115" y2="1.24" id="Path"></line>
            </g>
            <g id="freepik--Character--inject-40" transform="translate(144.000000, 72.000000)">
                <polygon id="Rectangle" fill="#E53E37" fill-rule="nonzero" transform="translate(240.905932, 126.098912) rotate(-0.950000) translate(-240.905932, -126.098912) " points="171.662905 76.2954819 310.142762 76.3040661 310.14896 175.902342 171.669102 175.893758"></polygon>
                <polygon id="Rectangle" fill="#FFFFFF" fill-rule="nonzero" opacity="0.3" transform="translate(213.395075, 126.541303) rotate(-0.950000) translate(-213.395075, -126.541303) " points="171.53002 76.7395697 255.253933 76.7447597 255.260131 176.343036 171.536217 176.337846"></polygon>
                <polygon id="Rectangle" fill="#FFFFFF" fill-rule="nonzero" opacity="0.3" transform="translate(255.050400, 86.355358) rotate(-1.145763) translate(-255.050400, -86.355358) " points="242.993756 83.0063464 267.106541 83.008149 267.107044 89.7043696 242.994259 89.7025671"></polygon>
                <polygon id="Rectangle" fill="#FFFFFF" fill-rule="nonzero" opacity="0.3" transform="translate(255.756511, 163.752180) rotate(-0.950000) translate(-255.756511, -163.752180) " points="243.702315 160.403993 267.81029 160.405488 267.810706 167.100367 243.702731 167.098872"></polygon>
                <ellipse id="Oval" stroke="#FFFFFF" cx="283.824" cy="122.958494" rx="14.148" ry="15.948141"></ellipse>
                <line x1="284.412" y1="109.437244" x2="284.412" y2="112.115192" id="Path" stroke="#FFFFFF" stroke-linecap="round" stroke-linejoin="round"></line>
                <line x1="285.024" y1="133.969167" x2="285.024" y2="136.647115" id="Path" stroke="#FFFFFF" stroke-linecap="round" stroke-linejoin="round"></line>
                <line x1="271.896" y1="122.432468" x2="274.596" y2="122.432468" id="Path" stroke="#FFFFFF" stroke-linecap="round" stroke-linejoin="round"></line>
                <line x1="293.568" y1="122.444423" x2="296.268" y2="122.444423" id="Path" stroke="#FFFFFF" stroke-linecap="round" stroke-linejoin="round"></line>
                <line x1="284.4" y1="122.432468" x2="284.412" y2="114.183429" id="Path" stroke="#FFFFFF" stroke-width="0.5" stroke-linecap="round" stroke-linejoin="round"></line>
                <line x1="284.928" y1="122.970449" x2="290.784" y2="128.804551" id="Path" stroke="#FFFFFF" stroke-width="0.5" stroke-linecap="round" stroke-linejoin="round"></line>
                <path d="M285.708,122.444423 C285.708,123.16411 285.122388,123.747532 284.4,123.747532 C283.677612,123.747532 283.092,123.16411 283.092,122.444423 C283.092,121.724736 283.677612,121.141314 284.4,121.141314 C284.747885,121.13809 285.082464,121.274346 285.328466,121.519428 C285.574469,121.764511 285.711236,122.097839 285.708,122.444423 Z" id="Path" fill="#FFFFFF" fill-rule="nonzero"></path>
                <ellipse id="Oval" fill="#FFFFFF" fill-rule="nonzero" opacity="0.3" cx="283.824" cy="122.958494" rx="18.732" ry="20.1683013"></ellipse>
                <path d="M128.256,297.862019 C130.344,299.452051 172.26,294.956923 161.424,220.870994 C161.424,220.870994 181.308,225.904103 183.444,225.569359 C183.444,225.569359 212.616,270.126122 191.376,292.195288 C170.136,314.264455 138.48,315.615385 138.48,315.615385 L128.256,297.862019 Z" id="Path" fill="#E53E37" fill-rule="nonzero"></path>
                <path d="M128.256,297.862019 C130.344,299.452051 172.26,294.956923 161.424,220.870994 C161.424,220.870994 181.308,225.904103 183.444,225.569359 C183.444,225.569359 212.616,270.126122 191.376,292.195288 C170.136,314.264455 138.48,315.615385 138.48,315.615385 L128.256,297.862019 Z" id="Path" fill="#000000" fill-rule="nonzero" opacity="0.3"></path>
                <path d="M174.708,232.335962 C174.816,232.335962 162.996,232.563109 159.036,227.661506 C155.076,222.759904 152.4,213.996795 159.6,208.019231 C166.8,202.041667 209.076,176.21859 228.984,174.186218 C248.892,172.153846 270.204,184.945833 270.204,184.945833 L244.14,204.145769 L188.016,217.678974 L174.708,232.335962 Z" id="Path" fill="#263238" fill-rule="nonzero"></path>
                <polygon id="Path" fill="#FFC3BD" fill-rule="nonzero" points="136.488 286.193814 137.58 296.905609 150.492 295.817692 148.548 284.807019"></polygon>
                <path d="M133.98,296.128526 L152.712,295.865513 L154.044,305.286154 C154.044,305.286154 136.5,305.525256 129.288,304.568846 C122.076,303.612436 123.204,299.870481 123.204,299.870481 C123.204,299.870481 131.652,300.073718 133.98,296.128526 Z" id="Path" fill="#263238" fill-rule="nonzero"></path>
                <ellipse id="Oval" fill="#263238" fill-rule="nonzero" transform="translate(255.322950, 318.972060) rotate(-84.190000) translate(-255.322950, -318.972060) " cx="255.32295" cy="318.97206" rx="49.8428491" ry="42.3463816"></ellipse>
                <path d="M225.888,166.522981 C225.888,166.522981 227.832,210.960192 201.888,212.227436 C175.944,213.494679 148.068,210.661314 148.068,210.661314 L156.24,290.509615 L131.916,292.004006 C131.916,292.004006 114.456,224.26625 111.708,207.242147 C108.96,190.218045 111.348,178.179231 129.384,170.62359 C147.42,163.067949 225.888,166.522981 225.888,166.522981 Z" id="Path" fill="#E53E37" fill-rule="nonzero"></path>
                <path d="M80.7,307.509808 L113.016,213.996795 L156.216,166.487115 C156.216,166.487115 118.512,166.630577 100.392,177.007628 C82.272,187.384679 81.6,199.853878 78.276,214.690192 C74.952,229.526506 61.62,299.750929 61.62,299.750929 L80.7,307.509808 Z" id="Path" fill="#E53E37" fill-rule="nonzero"></path>
                <path d="M225.888,166.522981 C225.888,166.522981 185.736,164.741667 156.288,166.522981 L156.288,166.522981 C156.288,166.522981 118.584,166.666442 100.464,177.043494 C82.344,187.420545 81.6,199.853878 78.276,214.690192 C74.952,229.526506 61.62,299.750929 61.62,299.750929 L80.7,307.509808 L113.016,213.996795 L113.016,213.996795 C118.452,239.915513 131.916,291.956186 131.916,291.956186 L156.24,290.509615 L148.056,210.709135 C148.056,210.709135 175.92,213.5425 201.876,212.275256 C227.832,211.008013 225.888,166.522981 225.888,166.522981 Z" id="Path" fill="#000000" fill-rule="nonzero" opacity="0.7"></path>
                <path d="M159.6,94.4455128 L144.684,96.2507372 C144.684,96.2507372 142.092,123.568205 139.68,128.876282 C139.68,128.876282 93.804,135.152724 75.012,134.614744 L65.472,141.070513 L65.136,152.296378 L74.484,152.571346 L77.496,145.458045 C77.496,145.458045 83.808,145.183077 85.272,141.644359 C85.272,141.644359 134.016,153.37234 151.968,139.982596 C151.992,139.994551 162.816,124.154006 159.6,94.4455128 Z" id="Path" fill="#FFC3BD" fill-rule="nonzero"></path>
                <path d="M202.344,21.2920833 C202.344,21.2920833 207.012,27.2696474 205.236,32.4462179 C204.239133,35.4486188 201.741474,37.714848 198.648,38.4237821 C198.648,38.4237821 197.772,46.7086859 192.864,46.9477885 C187.956,47.186891 189.6,28.6923077 189.6,28.6923077 L202.344,21.2920833 Z" id="Path" fill="#263238" fill-rule="nonzero"></path>
                <path d="M164.556,166.726218 L161.28,113.32266 L140.952,99.8611859 C140.952,99.8611859 147.6,76.5128205 160.32,72.5556731 C173.04,68.5985256 200.784,59.5245833 217.608,64.0316667 C234.432,68.53875 232.5,88.3125321 229.608,102.981474 L226.368,103.746603 C226.368,103.746603 225.864,161.549647 225.84,166.522981 L164.556,166.726218 Z" id="Path" fill="#263238" fill-rule="nonzero"></path>
                <path d="M201.132,67.3312821 C194.472,73.7511859 180.888,77.5768269 177.132,74.3848077 C173.376,71.1927885 178.116,68.2637821 181.644,64.6533333 C183.552,62.6687821 183.492,58.9507372 183.048,55.9858654 C182.814152,54.4919484 182.469202,53.0174079 182.016,51.5744231 C169.548,50.8929808 164.376,45.0827885 163.86,34.8372436 C163.344,24.5916987 168,12.6963462 168,12.6963462 L176.808,5.2124359 C176.808,5.2124359 188.808,7.00570513 198.408,13.5810256 C204.12,17.4544872 202.428,25.081859 200.064,30.7127244 C199.06242,33.1095931 197.858082,35.4172752 196.464,37.6108333 C195.12,51.6341987 201.132,67.3312821 201.132,67.3312821 Z" id="Path" fill="#FFC3BD" fill-rule="nonzero"></path>
                <path d="M170.796,37.6586538 C170.796,37.6586538 175.596,37.8858013 177.696,34.9209295" id="Path" stroke="#263238" stroke-linecap="round" stroke-linejoin="round"></path>
                <path d="M178.44,25.5600641 C178.44,26.4686538 177.888,27.1859615 177.24,27.1740064 C176.592,27.1620513 176.124,26.4088782 176.148,25.5002885 C176.172,24.5916987 176.7,23.874391 177.348,23.8863462 C177.996,23.8983013 178.476,24.6514744 178.44,25.5600641 Z" id="Path" fill="#263238" fill-rule="nonzero"></path>
                <path d="M167.496,25.8469872 C167.496,26.7555769 166.944,27.4728846 166.296,27.4609295 C165.648,27.4489744 165.18,26.6958013 165.204,25.7872115 C165.228,24.8786218 165.756,24.1613141 166.404,24.1732692 C167.052,24.1852244 167.532,24.9503526 167.496,25.8469872 Z" id="Path" fill="#263238" fill-rule="nonzero"></path>
                <path d="M171.3,33.2711218 L170.808,25.9426282 L167.292,32.9005128 C168.416404,33.8524831 170.018942,34.0006654 171.3,33.2711218 L171.3,33.2711218 Z" id="Path" fill="#ED847E" fill-rule="nonzero"></path>
                <path d="M177.864,19.8216026 C179.764925,19.3012975 181.764763,20.2266833 182.592,22.009391" id="Path" stroke="#263238" stroke-linecap="round" stroke-linejoin="round"></path>
                <path d="M164.112,21.1725321 C164.112,21.1725321 166.32,18.7815064 168.912,19.3912179" id="Path" stroke="#263238" stroke-linecap="round" stroke-linejoin="round"></path>
                <path d="M200.148,30.7127244 L200.148,30.7127244 C186.42,31.2028846 184.716,15.6970833 184.716,15.6970833 C177.924,19.2836218 168.048,12.7083013 168.048,12.7083013 L176.856,5.20048077 C176.856,5.20048077 188.856,7.01766026 198.456,13.5690705 C204.204,17.4544872 202.512,25.1057692 200.148,30.7127244 Z" id="Path" fill="#263238" fill-rule="nonzero"></path>
                <path d="M163.632,17.25125 C163.632,17.25125 156.528,12.5409295 159.66,9.14567308 C162.792,5.75041667 181.98,12.2061859 196.32,20.1204808 C196.32,20.1204808 163.476,-1.76935897 154.548,5.15266026 C147.168,10.8791667 163.536,18.8293269 163.044,18.8173718 L163.632,17.25125 Z" id="Path" fill="#E53E37" fill-rule="nonzero"></path>
                <path d="M203.7,15.6492628 C203.679971,18.1282306 203.208322,20.5829776 202.308,22.8940705 L170.052,7.35240385 C171.388473,5.81507167 172.989565,4.52765206 174.78,3.55067308 C176.689018,2.46277179 178.764766,1.69535479 180.924,1.27919872 C183.213774,0.843089854 185.557478,0.76243562 187.872,1.04009615 C199.668,2.39102564 203.76,11.4291026 203.7,15.6492628 Z" id="Path" fill="#E53E37" fill-rule="nonzero"></path>
                <path d="M129.6,158.596731 C127.5,160.784519 100.344,155.177564 95.604,157.688141 C93.6,158.740192 92.724,162.470192 90.708,166.558846 L90.708,166.558846 C87.96,172.117981 83.076,178.215096 70.308,178.621571 C48.132,179.326923 50.808,156.911058 49.056,149.630385 C49.056,149.630385 28.056,145.816699 26.952,142.146474 C25.848,138.47625 27.204,137.926314 27.204,137.926314 C27.204,137.926314 53.112,142.708365 58.128,136.180865 C59.0997229,135.235227 60.2389654,134.477221 61.488,133.945256 C64.3672125,132.684221 67.4641111,131.990024 70.608,131.900929 C79.74,131.422724 90.876,133.981122 93.996,139.743494 C100.332,151.495385 127.5,148.853301 129.996,151.937724 C132.492,155.022147 131.7,156.408942 129.6,158.596731 Z" id="Path" fill="#E53E37" fill-rule="nonzero"></path>
                <path d="M60.852,173.91125 C60.852,173.91125 24.42,224.122788 54.42,301.412692" id="Path" stroke="#263238" stroke-linecap="round" stroke-linejoin="round"></path>
                <path d="M108.936,199.99734 L108.936,199.99734 C108.936,199.99734 108.936,200.092981 108.936,200.284263 C108.936,200.475545 108.936,200.583141 108.936,200.798333 L108.936,200.917885 C108.502654,205.753692 107.700335,210.549607 106.536,215.264038 C104.88,222.233878 102.684,228.868974 100.872,234.200962 C93.192,256.855929 94.08,281.268301 94.08,281.268301 C91.536,278.112147 86.88,275.864583 81.06,274.286506 C59.868,268.488269 23.892,271.596603 23.892,271.596603 C16.836,246.933173 19.356,208.330064 26.376,186.715192 C33.396,165.100321 52.86,169.978013 52.86,169.978013 C52.86,169.978013 73.404,170.575769 75.984,170.300801 C80.7059624,169.730171 85.4851534,169.826766 90.18,170.587724 C106.044,173.480865 109.86,185.973974 108.936,199.99734 Z" id="Path" fill="#E53E37" fill-rule="nonzero"></path>
                <path d="M267.108,294.096154 C231.108,326.470641 161.616,329.865897 109.908,326.279359 L80.94,274.358237 L69.204,253.329167 L106.908,202.699199 L108.9,200.033205 C108.9,200.033205 108.9,200.128846 108.9,200.320128 C108.9,200.51141 108.9,200.619006 108.9,200.834199 L108.9,200.95375 C108.384,209.979872 105.048,282.415994 131.7,300.181314 L131.916,300.336731 C135.522451,302.658639 139.706869,303.933695 144,304.01891 C192.9,305.429615 191.532,241.852244 179.1,228.235353 L263.952,211.247115 C263.952,211.247115 280.704,253.269391 267.108,294.096154 Z" id="Path" fill="#E53E37" fill-rule="nonzero"></path>
                <path d="M172.728,214.45109 C172.728,214.45109 164.772,221.02641 168.876,229.849295 C172.98,238.672179 212.544,221.540481 228.12,218.420192 C243.696,215.299904 261.72,212.251346 269.472,210.661314 C277.224,209.071282 276.552,186.918429 270.216,184.957788 C263.88,182.997147 201.816,193.924135 191.52,199.925609 C184.721391,204.038947 178.416542,208.912349 172.728,214.45109 L172.728,214.45109 Z" id="Path" fill="#263238" fill-rule="nonzero"></path>
                <path d="M192.648,36.1881731 C191.088915,34.5157443 190.89486,31.9925536 192.18,30.1030128 C194.1,27.2337821 197.976,22.6788782 201.696,26.0860897 C206.904,30.868141 198.012,39.5595192 194.328,37.4554167 C193.71093,37.113873 193.145349,36.6872487 192.648,36.1881731 Z" id="Path" fill="#FFC3BD" fill-rule="nonzero"></path>
                <path d="M163.632,17.25125 C163.632,17.25125 156.528,12.5409295 159.66,9.14567308 C161.052,7.63932692 165.216,7.95016026 170.844,9.55214744 C174.463071,10.5227999 178.008061,11.7493183 181.452,13.2223718 C186.396,15.3623397 191.652,18.1000641 196.32,20.1204808 C196.32,20.1204808 163.476,-1.76935897 154.548,5.15266026 C147.168,10.8791667 162.516,18.3033013 163.056,18.8054167 L163.32,17.8370513 L163.632,17.25125 Z" id="Path" fill="#000000" fill-rule="nonzero" opacity="0.2"></path>
                <path d="M167.004,15.2069231 C167.004,15.2069231 159.804,16.4024359 164.772,24.1254487 L167.004,15.2069231 Z" id="Path" fill="#263238" fill-rule="nonzero"></path>
                <path d="M173.904,10.4966026 C173.904,10.4966026 163.044,6.69487179 160.02,8.84679487 C156.996,10.9987179 160.164,15.0993269 163.62,17.2153846 L166.392,17.5740385 L168.024,12.6724359 L172.248,12.1583654 L173.904,10.4966026 Z" id="Path" fill="#263238" fill-rule="nonzero"></path>
                <path d="M188.7,4.65054487 L186.096,8.48814103 L174.78,3.58653846 C176.689018,2.49863718 178.764766,1.73122018 180.924,1.3150641 L188.7,4.65054487 Z" id="Path" fill="#FFFFFF" fill-rule="nonzero" opacity="0.3"></path>
                <path d="M186.18,50.5223718 C185.431184,52.506497 184.356539,54.3528219 183,55.9858654 C182.766152,54.4919484 182.421202,53.0174079 181.968,51.5744231 C183.423158,51.4731248 184.848988,51.1169884 186.18,50.5223718 L186.18,50.5223718 Z" id="Path" fill="#000000" fill-rule="nonzero" opacity="0.1"></path>
                <path d="M78.6,155.655769 C78.12,163.940673 74.52,170.719231 70.104,172.392949 L70.104,172.392949 C69.3398188,172.686092 68.5213994,172.812473 67.704,172.763558 C62.256,172.452724 58.296,164.311282 58.848,154.591763 C59.4,144.872244 64.272,137.244872 69.72,137.555705 C71.94,137.675256 73.896,139.097917 75.42,141.381346 L75.42,141.381346 C77.664,144.657051 78.924,149.893397 78.6,155.655769 Z" id="Path" fill="#F5F5F5" fill-rule="nonzero"></path>
                <path d="M78.6,155.655769 C78.12,163.940673 74.52,170.719231 70.104,172.392949 L70.104,172.392949 C65.064,172.106026 61.404,164.58625 61.92,155.655769 C62.436,146.725288 66.924,139.635897 71.964,139.922821 C73.2626128,140.019429 74.4916347,140.545385 75.456,141.417212 L75.456,141.417212 C77.664,144.657051 78.924,149.893397 78.6,155.655769 Z" id="Path" fill="#FFFFFF" fill-rule="nonzero"></path>
                <path d="M273.084,273.090994 C263.808,266.599359 227.916,260.227276 227.916,260.227276 C206.112,260.227276 186.972,279.77391 184.332,305.728494 C182.172,326.84125 191.532,346.005321 206.616,354.744519 C206.616,354.744519 207.876,355.270545 209.988,356.095449 C217.98,359.239647 238.26,366.855064 250.248,368.528782" id="Path" fill="#263238" fill-rule="nonzero"></path>
                <ellipse id="Oval" fill="#000000" fill-rule="nonzero" opacity="0.3" transform="translate(255.322950, 318.972060) rotate(-84.190000) translate(-255.322950, -318.972060) " cx="255.32295" cy="318.97206" rx="49.8428491" ry="42.3463816"></ellipse>
                <ellipse id="Oval" fill="#263238" fill-rule="nonzero" transform="translate(68.771716, 317.378234) rotate(-84.190000) translate(-68.771716, -317.378234) " cx="68.7717164" cy="317.378234" rx="49.8428491" ry="42.3463816"></ellipse>
                <path d="M94.656,276.92859 L73.2,366.675737 C70.0697977,367.181047 66.8864328,367.273497 63.732,366.950705 L63.492,366.950705 C59.376,365.898654 61.212,367.034391 57.084,365.671506 C46.584,362.216474 31.332,356.107404 31.332,356.107404 C15.168,348.276795 6.036,329.232276 8.256,307.473942 C10.944,281.112885 29.928,261.422788 52.272,263.036731 C52.272,263.036731 62.88,264.985417 73.8,267.818782 C78.6,269.014295 83.4,270.436955 87.348,271.919391 L87.348,271.919391 C89.9619196,273.315598 92.4128193,274.995544 94.656,276.92859 L94.656,276.92859 Z" id="Path" fill="#263238" fill-rule="nonzero"></path>
                <path d="M110.904,321.592949 C108.504,345.204327 92.46,363.531538 73.176,366.627917 C70.0457977,367.133226 66.8624328,367.225677 63.708,366.902885 L63.468,366.902885 C59.0743323,366.430325 54.8042574,365.162195 50.868,363.160929 C34.656,354.971667 24.396,335.078333 26.64,313.080897 C29.436,285.715609 50.52,265.451667 73.776,267.770962 L73.836,267.770962 C78.557897,268.245968 83.140412,269.639139 87.324,271.871571 L87.324,271.871571 C89.938494,273.271535 92.3894167,274.955506 94.632,276.892724 C106.116,286.839391 112.8,303.52875 110.904,321.592949 Z" id="Path" fill="#000000" fill-rule="nonzero" opacity="0.3"></path>
                <path d="M105.06,290.150962 C104.356639,289.033054 103.553376,287.980713 102.66,287.006763 C97.296,279.714135 85.032,276.988365 77.004,277.633942 C70.8497457,278.232314 64.9409447,280.343806 59.808,283.778878 C53.952,287.556699 49.764,293.342981 43.956,297.312083 C32.94,304.891635 16.224,304.676442 5.16,296.869744 C4.53607793,296.427817 3.94273561,295.944534 3.384,295.423173 C2.25643136,294.253926 1.50439759,292.776295 1.224,291.179103 C0.800692257,289.184905 0.95466753,287.111939 1.668,285.201538 C4.068,278.482756 12.072,272.576923 17.124,268.978429 C27.366425,261.779239 39.4135967,257.553664 51.924,256.772244 C87.6,254.321442 102.816,284.675513 105.06,290.150962 Z" id="Path" fill="#E53E37" fill-rule="nonzero"></path>
                <path d="M102.588,291.107372 C94.92,280.084744 85.08,276.988365 77.052,277.633942 C70.8977457,278.232314 64.9889447,280.343806 59.856,283.778878 C54,287.556699 49.812,293.342981 44.004,297.312083 C32.988,304.891635 16.272,304.676442 5.208,296.869744 C4.58407793,296.427817 3.99073561,295.944534 3.432,295.423173 C2.30443136,294.253926 1.55239759,292.776295 1.272,291.179103 C0.848692257,289.184905 1.00266753,287.111939 1.716,285.201538 C5.424,289.469519 16.224,299.750929 30.852,294.765641 C49.092,288.489199 53.544,269.839199 73.044,270.006571 C88.536,270.185897 98.076,282.141026 102.588,291.107372 Z" id="Path" fill="#000000" fill-rule="nonzero" opacity="0.3"></path>
                <g id="Group" opacity="0.3" transform="translate(21.600000, 255.839744)" fill="#000000" fill-rule="nonzero">
                    <path d="M0.744,9.85102564 C5.94743374,6.16700408 11.8018241,3.49411339 18,1.97259615 C24.2042145,0.399404733 30.6293437,-0.125938366 37.008,0.418429487 C43.3763105,1.02911768 49.6128705,2.60964325 55.5,5.10483974 L57.684,6.06125 L59.82,7.12525641 C61.26,7.79474359 62.616,8.63160256 64.008,9.39673077 C65.4,10.161859 66.684,11.1063141 68.016,11.9551282 C69.348,12.8039423 70.596,13.7962179 71.868,14.7406731 C66.6346027,11.2474426 61.0480785,8.31035839 55.2,5.9775641 C49.3632913,3.64473295 43.2130946,2.18242308 36.948,1.63785256 C30.6958393,1.04231686 24.3883228,1.44590907 18.264,2.83336538 C15.1893399,3.51238762 12.1753582,4.43998956 9.252,5.60695513 C6.28518134,6.74481913 3.43589302,8.16613795 0.744,9.85102564 L0.744,9.85102564 Z" id="Path"></path>
                </g>
                <g id="Group" opacity="0.3" transform="translate(57.600000, 194.868590)" fill="#000000" fill-rule="nonzero">
                    <path d="M3.6,62.2742628 C2.10370697,57.2886225 1.2054492,52.143957 0.924,46.9477885 C0.528,41.7712179 0.444,36.5707372 0.552,31.4061218 C0.66,26.2415064 1.02,21.0290705 1.5,15.8644551 L2.376,8.14144231 C2.76,5.57108974 3.096,3.00073718 3.576,0.442339744 L2.484,15.9840064 L2.052,23.7309295 C1.98,26.3132372 1.824,28.8955449 1.812,31.4778526 C1.608,36.6424679 1.704,41.8070833 1.896,47.0195192 C1.98,49.6018269 2.184,52.1721795 2.448,54.7425321 C2.65881446,57.276383 3.04371657,59.7928579 3.6,62.2742628 L3.6,62.2742628 Z" id="Path"></path>
                </g>
                <path d="M131.64,300.073718 C106.584,284.017981 105.588,242.593462 106.44,215.264038 C106.596,210.565673 106.788,206.297692 106.932,202.627468 C107.194909,198.953936 107.194909,195.266416 106.932,191.592885 C104.4,172.823333 90,170.563814 90,170.563814 L90.06,170.563814 C106.008,173.480865 109.824,185.973974 108.9,199.99734 L108.9,199.99734 C108.9,199.99734 108.9,200.092981 108.9,200.284263 C108.9,200.475545 108.9,200.583141 108.9,200.798333 L108.9,200.917885 C108.36,209.944006 105.024,282.380128 131.64,300.073718 Z" id="Path" fill="#000000" fill-rule="nonzero" opacity="0.3"></path>
                <path d="M129.6,158.596731 C127.5,160.784519 100.344,155.177564 95.604,157.688141 C93.6,158.740192 92.724,162.470192 90.708,166.558846 L90.708,166.558846 C85.044,175.525192 77.076,176.935897 76.584,177.007628 C86.088,169.834551 88.74,152.571346 84.024,141.656314 C79.308,130.741282 62.424,133.574647 61.464,133.897436 C64.3432125,132.6364 67.4401111,131.942204 70.584,131.853109 C79.716,131.374904 90.852,133.933301 93.972,139.695673 C100.308,151.447564 127.476,148.805481 129.972,151.889904 C132.468,154.974327 131.7,156.408942 129.6,158.596731 Z" id="Path" fill="#000000" fill-rule="nonzero" opacity="0.2"></path>
                <path d="M108.336,148.159904 C106.685226,151.195337 106.026601,154.668399 106.452,158.094615 L129.456,160.676923 C131.835637,157.933191 132.899933,154.29408 132.372,150.706346 C132.372,150.706346 109.584,148.422917 108.336,148.159904 Z" id="Path" fill="#263238" fill-rule="nonzero"></path>
                <path d="M38.484,147.31109 C38.484,147.31109 36.192,142.457308 38.94,139.38484 C32.796,138.834904 28.992,138.189327 25.032,137.615481 C24.444,139.396795 24.156,141.106378 26.232,143.820192 C28.308,146.534006 38.484,147.31109 38.484,147.31109 Z" id="Path" fill="#263238" fill-rule="nonzero"></path>
                <path d="M25.704,177.689071 C21.72,184.156795 18.312,194.509936 18.012,211.043878" id="Path" stroke="#E53E37" stroke-linecap="round" stroke-linejoin="round"></path>
                <path d="M38.82,167.025096 C35.9216463,167.694902 33.2569151,169.127568 31.104,171.173526" id="Path" stroke="#E53E37" stroke-linecap="round" stroke-linejoin="round"></path>
                <path d="M217.776,104.703013 L202.632,106.544103 C202.632,106.544103 199.992,134.268045 197.544,139.659808 C197.544,139.659808 150.972,146.043846 131.88,145.481955 L122.196,152.033365 L121.86,163.438558 L131.352,163.713526 L134.412,156.540449 C134.412,156.540449 140.82,156.265481 142.296,152.666987 C142.296,152.666987 191.784,164.622115 210.012,150.993269 C210,150.945449 221.004,134.865801 217.776,104.703013 Z" id="Path" fill="#FFC3BD" fill-rule="nonzero"></path>
                <path d="M94.464,318.00641 C94.032,333.045962 84.144,344.953269 72.372,344.618526 C70.7898744,344.571376 69.2223757,344.301712 67.716,343.817532 C58.284,340.82875 51.492,329.746346 51.864,316.775032 C52.236,304.222147 59.184,293.845096 68.316,290.96391 C70.1407048,290.379225 72.0520209,290.108356 73.968,290.162917 C85.74,290.509615 94.908,303.014679 94.464,318.00641 Z" id="Path" fill="#FAFAFA" fill-rule="nonzero" opacity="0.2"></path>
                <path d="M83.628,318.00641 C83.256,330.846218 76.428,341.402596 67.716,343.853397 C58.284,340.864615 51.492,329.782212 51.864,316.810897 C52.236,304.258013 59.184,293.880962 68.316,290.999776 C77.388,293.450577 84,304.712308 83.628,318.00641 Z" id="Path" fill="#263238" fill-rule="nonzero"></path>
                <path d="M279.36,319.201923 C278.916,334.241474 269.028,346.160737 257.268,345.814038 C255.685233,345.773295 254.116824,345.503474 252.612,345.013045 C243.168,342.024263 236.376,330.953814 236.76,317.970545 C237.12,305.429615 244.068,295.040609 253.2,292.159423 C255.024705,291.574738 256.936021,291.303869 258.852,291.358429 C270.624,291.705128 279.792,304.186282 279.36,319.201923 Z" id="Path" fill="#FAFAFA" fill-rule="nonzero" opacity="0.2"></path>
                <path d="M268.524,319.201923 C268.14,332.029776 261.324,342.586154 252.612,345.036955 C243.168,342.048173 236.376,330.977724 236.76,317.994455 C237.12,305.453526 244.068,295.064519 253.2,292.183333 C262.284,294.634135 268.908,305.895865 268.524,319.201923 Z" id="Path" fill="#263238" fill-rule="nonzero"></path>
                <path d="M297.912,279.582628 C298.116,294.371122 275.52,304.162372 237.708,310.331218 C227.515591,312.116658 217.099466,312.237792 206.868,310.689872 C190.068,307.928237 181.86,300.850801 181.86,300.850801 C181.86,300.850801 186.132,249.742628 228.408,243.262949 C257.208,238.863462 278.88,250.436026 289.872,262.905224 C295.044,268.763237 297.852,274.848397 297.912,279.582628 Z" id="Path" fill="#E53E37" fill-rule="nonzero"></path>
                <path d="M297.912,279.582628 C298.116,294.371122 275.52,304.162372 237.708,310.331218 C227.515591,312.116658 217.099466,312.237792 206.868,310.689872 C208.68,296.809968 216.816,260.406603 252.18,256.628782 C268.224,254.907244 280.608,258.135128 289.872,262.905224 C295.044,268.763237 297.852,274.848397 297.912,279.582628 Z" id="Path" fill="#000000" fill-rule="nonzero" opacity="0.3"></path>
                <g id="Group" opacity="0.3" transform="translate(183.600000, 241.493590)" fill="#000000" fill-rule="nonzero">
                    <path d="M0.708,59.584359 C1.48596868,52.6274204 3.15140603,45.7977435 5.664,39.260641 C8.13475272,32.6560326 11.5456342,26.4395537 15.792,20.8019231 C17.9376619,17.9997001 20.3487518,15.4094635 22.992,13.0669551 C25.6112383,10.6865273 28.4984879,8.61644373 31.596,6.89810897 C37.7595325,3.43528042 44.5894442,1.31247918 51.636,0.669487179 C48.1830961,1.24589179 44.7865143,2.1178611 41.484,3.27570513 C39.816,3.77782051 38.244,4.55490385 36.684,5.2124359 C35.1186989,5.95924493 33.5927106,6.78522498 32.112,7.68714744 C30.6,8.54791667 29.208,9.58801282 27.78,10.5563782 C26.352,11.5247436 25.032,12.6724359 23.772,13.8799038 C21.2095621,16.1997881 18.8749972,18.7578066 16.8,21.5192308 C12.584606,27.0482053 9.14871428,33.1260188 6.588,39.5834295 C5.25847493,42.800009 4.11264472,46.0889375 3.156,49.4344551 C2.13778028,52.766153 1.32032316,56.1554958 0.708,59.584359 L0.708,59.584359 Z" id="Path"></path>
                </g>
                <polygon id="Path" fill="#E53E37" fill-rule="nonzero" points="127.572 284.197308 130.068 292.637628 156.24 290.461795 156.588 278.662083"></polygon>
            </g>
            <g id="freepik--speed-line--inject-40" transform="translate(428.000000, 283.000000)" stroke="#E53E37" stroke-linecap="round" stroke-linejoin="round">
                <line x1="0.190769231" y1="13.9637931" x2="57.4096154" y2="11.6103448" id="Path"></line>
                <line x1="76.3196154" y1="1.06206897" x2="84.8207692" y2="0.712068966" id="Path"></line>
                <line x1="27.6138462" y1="3.06551724" x2="69.7976923" y2="1.32758621" id="Path"></line>
                <line x1="57.1353846" y1="33.0448276" x2="92.4873077" y2="31.5965517" id="Path"></line>
                <line x1="35.2803846" y1="33.95" x2="50.685" y2="33.3103448" id="Path"></line>
            </g>
        </g>
    </g>
</svg>