<?xml version="1.0" encoding="UTF-8"?>
<svg width="43px" height="32px" viewBox="0 0 43 32" version="1.1" xmlns="http://www.w3.org/2000/svg" xmlns:xlink="http://www.w3.org/1999/xlink">
    <title>B36154CA-4ACE-4FA7-958D-AA6D6C30C9DE</title>
    <g id="Page-1" stroke="none" stroke-width="1" fill="none" fill-rule="evenodd">
        <g id="Verify" transform="translate(-359.000000, -180.000000)" fill="#000000" fill-rule="nonzero">
            <g id="email_icon" transform="translate(359.921875, 180.625000)">
                <path d="M32.5943742,11.9223499 L32.5943742,3.39412374 C32.5943742,1.5222526 31.0556558,0 29.1633578,0 L3.43093597,0 C1.53871841,0 0,1.52217306 0,3.39412374 L0,20.3645833 C0,22.2364545 1.53871841,23.7587071 3.43101639,23.7587071 L22.6672079,23.7587071 C23.7910715,27.6703776 27.4269823,30.546875 31.7366805,30.546875 C33.3952155,30.546875 35.0260881,30.1151617 36.4551221,29.2973169 C36.8647501,29.062806 37.0054742,28.544066 36.7675298,28.1380471 C36.5304698,27.7320282 36.0052872,27.5919421 35.5956592,27.8289986 C34.4279701,28.4968933 33.0935832,28.8498529 31.7366,28.8498529 C27.4796533,28.8498529 24.0168735,25.4242277 24.0168735,21.2131342 C24.0168735,17.0020406 27.4797337,13.5764154 31.7366,13.5764154 C35.9934663,13.5764154 39.4563266,17.0020406 39.4563266,21.2131342 L39.4563266,22.061685 C39.4563266,22.997183 38.6865251,23.7587071 37.7408586,23.7587071 C36.7951921,23.7587071 36.0253906,22.997183 36.0253906,22.061685 L36.0253906,18.6675612 C36.0253906,18.1985394 35.6417363,17.8190104 35.1676164,17.8190104 C34.9369092,17.8190104 34.7296024,17.911367 34.5756099,18.0576579 C33.8174684,17.3893654 32.8295042,16.9704596 31.7366,16.9704596 C29.3719513,16.9704596 27.4478899,18.8738322 27.4478899,21.2130546 C27.4478899,23.552277 29.3719513,25.4557292 31.7366805,25.4557292 C33.0149385,25.4557292 34.1515074,24.8884642 34.9379546,24.0077755 C35.5593121,24.8809865 36.581613,25.4557292 37.740939,25.4557292 C39.6331566,25.4557292 41.171875,23.9335561 41.171875,22.0616054 L41.171875,21.2130546 C41.171875,16.35284 37.3959637,12.353029 32.5943742,11.9223499 Z M3.43101639,1.69702209 L29.1634383,1.69702209 C29.199142,1.69702209 29.2290559,1.71507975 29.2642772,1.71722758 L17.0025369,11.6738383 C16.5661311,11.9456578 15.9336765,11.8892574 15.6497353,11.7169539 L3.33122284,1.71706848 C3.36604202,1.7150002 3.39563431,1.69702209 3.43101639,1.69702209 Z M30.8789867,11.9223499 C26.0773167,12.353029 22.3014055,16.35284 22.3014055,21.2131342 C22.3014055,21.4995111 22.3191769,21.7817515 22.3448289,22.061685 L3.43101639,22.061685 C2.48534988,22.061685 1.7155484,21.3001609 1.7155484,20.3646629 L1.7155484,3.39412374 C1.7155484,3.15380575 1.76918442,2.92685201 1.86069534,2.71938782 L14.637084,13.0842448 C15.136293,13.406578 15.710126,13.576495 16.2973077,13.576495 C16.8618932,13.576495 17.4138536,13.4190672 17.8997139,13.1207579 C17.9482838,13.0950635 17.994361,13.0644371 18.0379453,13.028799 L30.7336789,2.71938782 C30.8252702,2.92685201 30.8789867,3.15380575 30.8789867,3.39420329 L30.8789867,11.9223499 L30.8789867,11.9223499 Z M31.7366805,23.7587071 C30.3176982,23.7587071 29.1634383,22.6168585 29.1634383,21.2131342 C29.1634383,19.8094098 30.3176982,18.6675612 31.7366805,18.6675612 C33.1556627,18.6675612 34.3099226,19.8094098 34.3099226,21.2131342 C34.3099226,22.6168585 33.1556627,23.7587071 31.7366805,23.7587071 Z" id="Shape"></path>
            </g>
        </g>
    </g>
</svg>