<?xml version="1.0" encoding="UTF-8"?>
<svg width="500px" height="373px" viewBox="0 0 500 373" version="1.1" xmlns="http://www.w3.org/2000/svg" xmlns:xlink="http://www.w3.org/1999/xlink">
    <!-- Generator: Sketch 64 (93537) - https://sketch.com -->
    <title>fast delivery</title>
    <desc>Created with Sketch.</desc>
    <g id="z" stroke="none" stroke-width="1" fill="none" fill-rule="evenodd">
        <g id="fast-delivery">
            <g id="freepik--background-complete--inject-47" fill-rule="nonzero">
                <rect id="Rectangle" fill="#EBEBEB" x="0" y="327.4" width="500" height="1"></rect>
                <rect id="Rectangle" fill="#EBEBEB" x="150.04" y="333.78" width="23.18" height="1"></rect>
                <rect id="Rectangle" fill="#EBEBEB" x="402.1" y="339.14" width="56.67" height="1"></rect>
                <rect id="Rectangle" fill="#EBEBEB" x="42.72" y="339.14" width="56.67" height="1"></rect>
                <path d="M237,282.8 L43.91,282.8 C40.76036,282.794484 38.21,280.239645 38.21,277.09 L38.21,5.66 C38.2374055,2.5298918 40.7797764,0.00536203973 43.91,1.42108547e-14 L237,1.42108547e-14 C240.153546,1.42108547e-14 242.71,2.55645408 242.71,5.71 L242.71,5.71 L242.71,277.09 C242.71,280.243546 240.153546,282.8 237,282.8 Z M43.91,0.2 C40.8984312,0.205515703 38.46,2.6484262 38.46,5.66 L38.46,277.09 C38.46,280.101574 40.8984312,282.544484 43.91,282.55 L237,282.55 C240.01092,282.539031 242.449031,280.10092 242.46,277.09 L242.46,5.66 C242.449031,2.64908042 240.01092,0.210968851 237,0.2 L43.91,0.2 Z" id="Shape" fill="#EBEBEB"></path>
                <path d="M453.31,282.8 L260.21,282.8 C257.06101,282.789028 254.510972,280.23899 254.5,277.09 L254.5,5.66 C254.532848,2.52828036 257.078113,0.00530307708 260.21,-7.10542736e-15 L453.31,-7.10542736e-15 C456.436323,0.0108307119 458.972643,2.53377766 459,5.66 L459,277.09 C459.002654,278.601735 458.404665,280.052607 457.337582,281.12344 C456.2705,282.194273 454.821735,282.8 453.31,282.8 L453.31,282.8 Z M260.21,0.2 C257.19908,0.210968851 254.760969,2.64908042 254.75,5.66 L254.75,277.09 C254.760969,280.10092 257.19908,282.539031 260.21,282.55 L453.31,282.55 C456.32092,282.539031 458.759031,280.10092 458.77,277.09 L458.77,5.66 C458.759031,2.64908042 456.32092,0.210968851 453.31,0.2 L260.21,0.2 Z" id="Shape" fill="#EBEBEB"></path>
                <path d="M98.7,75.4099921 L182,75.4099921 C183.692895,75.4073403 185.317219,76.0786628 186.514278,77.2757219 C187.711337,78.4727811 188.38266,80.0971048 188.38,81.79 L188.38,327.17 L92.38,327.17 L92.38,81.78 C92.3853256,78.2836207 95.2037712,75.4428773 98.7,75.4099921 Z" id="Path" fill="#F5F5F5"></path>
                <rect id="Rectangle" fill="#EBEBEB" x="100.3" y="90.28" width="12.38" height="27.56"></rect>
                <rect id="Rectangle" fill="#EBEBEB" x="168" y="90.28" width="12.38" height="27.56"></rect>
                <rect id="Rectangle" fill="#EBEBEB" x="122.86" y="90.28" width="12.38" height="27.56"></rect>
                <rect id="Rectangle" fill="#EBEBEB" x="145.43" y="90.28" width="12.38" height="27.56"></rect>
                <rect id="Rectangle" fill="#EBEBEB" x="100.3" y="133.79" width="12.38" height="27.56"></rect>
                <rect id="Rectangle" fill="#EBEBEB" x="168" y="133.79" width="12.38" height="27.56"></rect>
                <rect id="Rectangle" fill="#EBEBEB" x="122.86" y="133.79" width="12.38" height="27.56"></rect>
                <rect id="Rectangle" fill="#EBEBEB" x="145.43" y="133.79" width="12.38" height="27.56"></rect>
                <rect id="Rectangle" fill="#EBEBEB" x="100.3" y="177.29" width="12.38" height="27.56"></rect>
                <rect id="Rectangle" fill="#EBEBEB" x="168" y="177.29" width="12.38" height="27.56"></rect>
                <rect id="Rectangle" fill="#EBEBEB" x="122.86" y="177.29" width="12.38" height="27.56"></rect>
                <rect id="Rectangle" fill="#EBEBEB" x="145.43" y="177.29" width="12.38" height="27.56"></rect>
                <rect id="Rectangle" fill="#EBEBEB" x="100.3" y="220.8" width="12.38" height="27.56"></rect>
                <rect id="Rectangle" fill="#EBEBEB" x="168" y="220.8" width="12.38" height="27.56"></rect>
                <rect id="Rectangle" fill="#EBEBEB" x="122.86" y="220.8" width="12.38" height="27.56"></rect>
                <rect id="Rectangle" fill="#EBEBEB" x="145.43" y="220.8" width="12.38" height="27.56"></rect>
                <rect id="Rectangle" fill="#EBEBEB" x="100.3" y="264.3" width="12.38" height="27.56"></rect>
                <rect id="Rectangle" fill="#EBEBEB" x="168" y="264.3" width="12.38" height="27.56"></rect>
                <rect id="Rectangle" fill="#EBEBEB" x="122.86" y="264.3" width="12.38" height="27.56"></rect>
                <rect id="Rectangle" fill="#EBEBEB" x="145.43" y="264.3" width="12.38" height="27.56"></rect>
                <path d="M393.94,98.28 L453.58,98.28 C456.444076,98.2855026 458.764497,100.605924 458.77,103.47 L458.77,327.17 L388.77,327.17 L388.77,103.48 C388.77,100.619794 391.079842,98.2965012 393.94,98.28 L393.94,98.28 Z" id="Path" fill="#F5F5F5"></path>
                <rect id="Rectangle" fill="#EBEBEB" x="397.67" y="111.81" width="11.25" height="25.05"></rect>
                <rect id="Rectangle" fill="#EBEBEB" x="418.19" y="111.81" width="11.25" height="25.05"></rect>
                <rect id="Rectangle" fill="#EBEBEB" x="438.7" y="111.81" width="11.25" height="25.05"></rect>
                <rect id="Rectangle" fill="#EBEBEB" x="397.67" y="151.36" width="11.25" height="25.05"></rect>
                <rect id="Rectangle" fill="#EBEBEB" x="418.19" y="151.36" width="11.25" height="25.05"></rect>
                <rect id="Rectangle" fill="#EBEBEB" x="438.7" y="151.36" width="11.25" height="25.05"></rect>
                <rect id="Rectangle" fill="#EBEBEB" x="397.67" y="190.92" width="11.25" height="25.05"></rect>
                <rect id="Rectangle" fill="#EBEBEB" x="418.19" y="190.92" width="11.25" height="25.05"></rect>
                <rect id="Rectangle" fill="#EBEBEB" x="438.7" y="190.92" width="11.25" height="25.05"></rect>
                <rect id="Rectangle" fill="#EBEBEB" x="397.67" y="230.46" width="11.25" height="25.05"></rect>
                <rect id="Rectangle" fill="#EBEBEB" x="418.19" y="230.46" width="11.25" height="25.05"></rect>
                <rect id="Rectangle" fill="#EBEBEB" x="438.7" y="230.46" width="11.25" height="25.05"></rect>
                <rect id="Rectangle" fill="#EBEBEB" x="397.67" y="270.02" width="11.25" height="25.05"></rect>
                <rect id="Rectangle" fill="#EBEBEB" x="418.19" y="270.02" width="11.25" height="25.05"></rect>
                <rect id="Rectangle" fill="#EBEBEB" x="438.7" y="270.02" width="11.25" height="25.05"></rect>
                <path d="M257.31,34.26 L354.19,34.26 C358.287953,34.26 361.61,37.5820472 361.61,41.68 L361.61,327.17 L249.9,327.17 L249.9,41.68 C249.9,37.5859492 253.215953,34.2655176 257.31,34.26 Z" id="Path" fill="#F5F5F5"></path>
                <rect id="Rectangle" fill="#EBEBEB" x="259.17" y="51.57" width="14.4" height="32.06"></rect>
                <rect id="Rectangle" fill="#EBEBEB" x="337.93" y="51.57" width="14.4" height="32.06"></rect>
                <rect id="Rectangle" fill="#EBEBEB" x="285.42" y="51.57" width="14.4" height="32.06"></rect>
                <rect id="Rectangle" fill="#EBEBEB" x="311.68" y="51.57" width="14.4" height="32.06"></rect>
                <rect id="Rectangle" fill="#EBEBEB" x="259.17" y="102.19" width="14.4" height="32.06"></rect>
                <rect id="Rectangle" fill="#EBEBEB" x="337.93" y="102.19" width="14.4" height="32.06"></rect>
                <rect id="Rectangle" fill="#EBEBEB" x="285.42" y="102.19" width="14.4" height="32.06"></rect>
                <rect id="Rectangle" fill="#EBEBEB" x="311.68" y="102.19" width="14.4" height="32.06"></rect>
                <rect id="Rectangle" fill="#EBEBEB" x="259.17" y="152.81" width="14.4" height="32.06"></rect>
                <rect id="Rectangle" fill="#EBEBEB" x="337.93" y="152.81" width="14.4" height="32.06"></rect>
                <rect id="Rectangle" fill="#EBEBEB" x="285.42" y="152.81" width="14.4" height="32.06"></rect>
                <rect id="Rectangle" fill="#EBEBEB" x="311.68" y="152.81" width="14.4" height="32.06"></rect>
                <rect id="Rectangle" fill="#EBEBEB" x="259.17" y="203.42" width="14.4" height="32.06"></rect>
                <rect id="Rectangle" fill="#EBEBEB" x="337.93" y="203.42" width="14.4" height="32.06"></rect>
                <rect id="Rectangle" fill="#EBEBEB" x="285.42" y="203.42" width="14.4" height="32.06"></rect>
                <rect id="Rectangle" fill="#EBEBEB" x="311.68" y="203.42" width="14.4" height="32.06"></rect>
                <rect id="Rectangle" fill="#EBEBEB" x="259.17" y="254.03" width="14.4" height="32.06"></rect>
                <rect id="Rectangle" fill="#EBEBEB" x="337.93" y="254.03" width="14.4" height="32.06"></rect>
                <rect id="Rectangle" fill="#EBEBEB" x="285.42" y="254.03" width="14.4" height="32.06"></rect>
                <rect id="Rectangle" fill="#EBEBEB" x="311.68" y="254.03" width="14.4" height="32.06"></rect>
                <rect id="Rectangle" fill="#E6E6E6" x="188.35" y="139.17" width="61.54" height="188.01"></rect>
                <rect id="Rectangle" fill="#E6E6E6" x="361.62" y="159.3" width="27.19" height="167.87"></rect>
                <polygon id="Path" fill="#E6E6E6" points="92.32 327.17 38.46 327.17 38.46 248.68 92.32 230.46"></polygon>
            </g>
            <g id="freepik--Shadow--inject-47" transform="translate(56.000000, 340.000000)" fill="#F5F5F5" fill-rule="nonzero">
                <g id="freepik--Shadow--inject-62--inject-47">
                    <ellipse id="freepik--path--inject-62--inject-47" cx="194" cy="16.67" rx="193.89" ry="15.89"></ellipse>
                </g>
            </g>
            <g id="freepik--Truck--inject-47" transform="translate(33.000000, 109.000000)">
                <path d="M264.68,184.92 L247.68,184.92 C238.83,184.92 231.68,197.75 231.68,213.58 C231.68,229.41 238.85,242.23 247.68,242.23 L264.68,242.23 C273.53,242.23 280.68,229.4 280.68,213.58 C280.68,197.76 273.53,184.92 264.68,184.92 Z" id="Path" fill="#263238" fill-rule="nonzero"></path>
                <path d="M284.68,184.92 L267.68,184.92 C258.83,184.92 251.68,197.75 251.68,213.58 C251.68,229.41 258.85,242.23 267.68,242.23 L284.68,242.23 C293.53,242.23 300.68,229.4 300.68,213.58 C300.68,197.76 293.53,184.92 284.68,184.92 Z" id="Path" fill="#FFFFFF" fill-rule="nonzero" opacity="0.05"></path>
                <polygon id="Path" fill="#E53E37" fill-rule="nonzero" points="402.39 191.06 104.7 190.85 104.7 0.7 402.39 0.7"></polygon>
                <rect id="Rectangle" fill="#263238" fill-rule="nonzero" opacity="0.3" x="200.63" y="0.7" width="201.76" height="190.35"></rect>
                <rect id="Rectangle" fill="#FFFFFF" fill-rule="nonzero" opacity="0.2" x="104.7" y="0.7" width="95.93" height="194.11"></rect>
                <line x1="105.42" y1="9.54" x2="402.39" y2="9.54" id="Path" stroke="#FFFFFF" stroke-width="2" opacity="0.1" stroke-linecap="round" stroke-linejoin="round"></line>
                <line x1="105.42" y1="17.77" x2="402.39" y2="17.77" id="Path" stroke="#FFFFFF" stroke-width="2" opacity="0.1" stroke-linecap="round" stroke-linejoin="round"></line>
                <line x1="105.42" y1="25.99" x2="402.39" y2="25.99" id="Path" stroke="#FFFFFF" stroke-width="2" opacity="0.1" stroke-linecap="round" stroke-linejoin="round"></line>
                <line x1="105.42" y1="34.21" x2="402.39" y2="34.21" id="Path" stroke="#FFFFFF" stroke-width="2" opacity="0.1" stroke-linecap="round" stroke-linejoin="round"></line>
                <line x1="105.42" y1="42.44" x2="402.39" y2="42.44" id="Path" stroke="#FFFFFF" stroke-width="2" opacity="0.1" stroke-linecap="round" stroke-linejoin="round"></line>
                <line x1="105.42" y1="50.66" x2="402.39" y2="50.66" id="Path" stroke="#FFFFFF" stroke-width="2" opacity="0.1" stroke-linecap="round" stroke-linejoin="round"></line>
                <line x1="105.42" y1="58.88" x2="402.39" y2="58.88" id="Path" stroke="#FFFFFF" stroke-width="2" opacity="0.1" stroke-linecap="round" stroke-linejoin="round"></line>
                <line x1="105.42" y1="67.1" x2="402.39" y2="67.1" id="Path" stroke="#FFFFFF" stroke-width="2" opacity="0.1" stroke-linecap="round" stroke-linejoin="round"></line>
                <line x1="105.42" y1="75.33" x2="402.39" y2="75.33" id="Path" stroke="#FFFFFF" stroke-width="2" opacity="0.1" stroke-linecap="round" stroke-linejoin="round"></line>
                <line x1="105.42" y1="83.55" x2="402.39" y2="83.55" id="Path" stroke="#FFFFFF" stroke-width="2" opacity="0.1" stroke-linecap="round" stroke-linejoin="round"></line>
                <line x1="105.42" y1="91.77" x2="402.39" y2="91.77" id="Path" stroke="#FFFFFF" stroke-width="2" opacity="0.1" stroke-linecap="round" stroke-linejoin="round"></line>
                <line x1="105.42" y1="100" x2="402.39" y2="100" id="Path" stroke="#FFFFFF" stroke-width="2" opacity="0.1" stroke-linecap="round" stroke-linejoin="round"></line>
                <line x1="105.42" y1="108.22" x2="402.39" y2="108.22" id="Path" stroke="#FFFFFF" stroke-width="2" opacity="0.1" stroke-linecap="round" stroke-linejoin="round"></line>
                <line x1="105.42" y1="116.44" x2="402.39" y2="116.44" id="Path" stroke="#FFFFFF" stroke-width="2" opacity="0.1" stroke-linecap="round" stroke-linejoin="round"></line>
                <line x1="105.42" y1="124.66" x2="402.39" y2="124.66" id="Path" stroke="#FFFFFF" stroke-width="2" opacity="0.1" stroke-linecap="round" stroke-linejoin="round"></line>
                <line x1="105.42" y1="132.89" x2="402.39" y2="132.89" id="Path" stroke="#FFFFFF" stroke-width="2" opacity="0.1" stroke-linecap="round" stroke-linejoin="round"></line>
                <line x1="105.42" y1="141.11" x2="402.39" y2="141.11" id="Path" stroke="#FFFFFF" stroke-width="2" opacity="0.1" stroke-linecap="round" stroke-linejoin="round"></line>
                <line x1="105.42" y1="149.33" x2="402.39" y2="149.33" id="Path" stroke="#FFFFFF" stroke-width="2" opacity="0.1" stroke-linecap="round" stroke-linejoin="round"></line>
                <line x1="105.42" y1="157.56" x2="402.39" y2="157.56" id="Path" stroke="#FFFFFF" stroke-width="2" opacity="0.1" stroke-linecap="round" stroke-linejoin="round"></line>
                <line x1="105.42" y1="165.78" x2="402.39" y2="165.78" id="Path" stroke="#FFFFFF" stroke-width="2" opacity="0.1" stroke-linecap="round" stroke-linejoin="round"></line>
                <line x1="105.42" y1="174" x2="402.39" y2="174" id="Path" stroke="#FFFFFF" stroke-width="2" opacity="0.1" stroke-linecap="round" stroke-linejoin="round"></line>
                <line x1="105.42" y1="182.23" x2="402.39" y2="182.23" id="Path" stroke="#FFFFFF" stroke-width="2" opacity="0.1" stroke-linecap="round" stroke-linejoin="round"></line>
                <path d="M50.07,188.66 L34.34,188.66 C26.14,188.66 19.5,200.54 19.5,215.2 C19.5,229.86 26.14,241.73 34.34,241.73 L50.07,241.73 C58.27,241.73 64.91,229.85 64.91,215.2 C64.91,200.55 58.27,188.66 50.07,188.66 Z" id="Path" fill="#263238" fill-rule="nonzero"></path>
                <path d="M70.08,188.66 L54.34,188.66 C46.14,188.66 39.5,200.54 39.5,215.2 C39.5,229.86 46.14,241.73 54.34,241.73 L70.08,241.73 C78.27,241.73 84.92,229.85 84.92,215.2 C84.92,200.55 78.27,188.66 70.08,188.66 Z" id="Path" fill="#FFFFFF" fill-rule="nonzero" opacity="0.05"></path>
                <path d="M41.32,136.83 L33.88,136.83 C32.42,136.88 31.22,135.32 31.19,133.34 C31.1700572,133.133814 31.1700572,132.926186 31.19,132.72 L33.19,110.25 C33.44,107.94 34.87,106.25 36.59,106.14 L44.1,106.14 C45.55,106.14 46.75,107.67 46.78,109.65 C46.78,109.85 46.78,110.05 46.78,110.25 L44.78,132.72 C44.48,135 43,136.77 41.32,136.83 Z" id="Path" fill="#263238" fill-rule="nonzero"></path>
                <path d="M48.76,62.61 L34.41,140 L190.64,201.2 L189.55,48.68 L155.19,47.6796939 L61.07,47.6796939 C55.41,47.63 50.42,53.71 48.76,62.61 Z" id="Path" fill="#E53E37" fill-rule="nonzero"></path>
                <path d="M165,75.06 C159.17,74.8 153.94,79.58 152.23,86.71 L140.41,136.23 L117.66,136.23 L116.42,201.56 L191.25,201.56" id="Path" fill="#E53E37" fill-rule="nonzero"></path>
                <path d="M51,132.07 C48.71,132.07 46.8599868,129.13 46.8599868,125.51 C46.8589592,124.878982 46.9192425,124.249356 47.04,123.63 L55.63,78.19 C56.35,74.42 58.55,71.84 61.04,71.849971 L143.22,71.849971 C144.11,71.849971 144.840114,72.99 144.840114,74.41 C144.841966,74.6617187 144.818514,74.9129928 144.77,75.16 C142.97,84.52 137.12,115.53 134.88,127.39 C134.36,130.17 132.74,132.07 130.88,132.07 L51,132.07 Z" id="Path" fill="#263238" fill-rule="nonzero"></path>
                <path d="M126.62,152.21 C126.618463,153.006311 126.56166,153.801555 126.45,154.59 L126.02,157.52 L125.77,159.25 L123.93,171.89 L120.93,192.44 L120.1,198.15 L3.81,198.15 L3.81,192.44 L3.89,171.89 L4,159.6 L4,154.6 C3,148 6.19,141.6 11.05,140.27 C11.6202114,140.114365 12.208938,140.036989 12.8,140.039782 L117.66,140.039782 C122.61,140 126.62,145.48 126.62,152.21 Z" id="Path" fill="#E53E37" fill-rule="nonzero"></path>
                <path d="M185.73,78 L185.73,126.71 C185.73,129.66 184.22,132.06 182.35,132.07 L153.93,132.07 C152.06,132.07 150.549993,129.67 150.549993,126.71 C150.54939,126.227478 150.589533,125.745766 150.67,125.27 L159.43,75.47 C159.85,73.08 161.25,71.47 162.81,71.56 L182.47,72.64 C184.29,72.75 185.73,75.12 185.73,78 Z" id="Path" fill="#263238" fill-rule="nonzero"></path>
                <polygon id="Path" fill="#FFFFFF" fill-rule="nonzero" opacity="0.1" points="98.94 71.85 83.24 71.85 65.21 132.07 80.92 132.07"></polygon>
                <polygon id="Path" fill="#FFFFFF" fill-rule="nonzero" opacity="0.1" points="111.16 71.85 103.66 71.85 85.64 132.07 93.13 132.07"></polygon>
                <polygon id="Path" fill="#000000" fill-rule="nonzero" points="156.75 171.89 156.75 192.44 3.83 192.44 3.91 171.89"></polygon>
                <polygon id="Path" fill="#FFFFFF" fill-rule="nonzero" points="135.45 171.89 121.31 171.89 95.88 186.83 95.88 192.44 156.75 192.44 156.75 171.89"></polygon>
                <polygon id="Path" fill="#FFFFFF" fill-rule="nonzero" points="30.19 186.83 30.19 192.44 3.83 192.44 3.91 171.89 4.77 171.89"></polygon>
                <path d="M190.71,201.56 L189.55,48.68 L168.55,47.68 C163.31,47.42 157.26,53.51 155.73,60.57 L140.51,140 L134.58,140 C127.92,140 123.36,144.85 123.369984,150 L123.46,201.58 L190.71,201.58" id="Path" fill="#263238" fill-rule="nonzero" opacity="0.3"></path>
                <path d="M126.230805,158.24 C126.225692,158.623546 126.058434,158.987152 125.77,159.24 C125.525514,159.467016 125.203624,159.592196 124.87,159.59 L4,159.59 L4,156.87 L124.9,156.87 C125.367906,156.8713 125.802286,157.113043 126.05,157.51 C126.176409,157.731983 126.238722,157.984697 126.230805,158.24 Z" id="Path" fill="#FFFFFF" fill-rule="nonzero"></path>
                <polygon id="Path" fill="#263238" fill-rule="nonzero" points="25.32 156.88 25.32 159.6 3.96 159.6 3.97 156.88"></polygon>
                <path d="M126.23,158.24 C126.225692,158.623546 126.058434,158.987152 125.77,159.24 C125.525514,159.467016 125.203624,159.592196 124.87,159.59 L95.55,159.59 L95.55,156.87 L124.87,156.87 C125.337906,156.8713 125.772286,157.113043 126.02,157.51 C126.15691,157.728898 126.229667,157.981813 126.23,158.24 L126.23,158.24 Z" id="Path" fill="#263238" fill-rule="nonzero"></path>
                <path d="M407.73,196 L407.73,196.54 C407.73,199.301424 405.491424,201.54 402.73,201.54 L5.53,201.54 C2.76857625,201.54 0.53,199.301424 0.53,196.54 L0.53,196 C0.53,193.238576 2.76857625,191 5.53,191 L402.73,191 C405.491424,191 407.73,193.238576 407.73,196 Z" id="Path" fill="#263238" fill-rule="nonzero"></path>
                <rect id="Rectangle" fill="#000000" fill-rule="nonzero" x="34.41" y="195.11" width="59.2" height="2.89"></rect>
                <path d="M18.66,196.55 C18.66,197.459964 17.9232757,198.198139 17.0133131,198.19997 C16.1033506,198.201794 15.3636845,197.466583 15.3599997,196.556626 C15.3563424,195.646669 16.0900523,194.905515 17,194.89997 C17.4393373,194.897337 17.8615948,195.07 18.173196,195.379724 C18.4847972,195.689448 18.66,196.110655 18.66,196.55 Z" id="Path" fill="#FFFFFF" fill-rule="nonzero"></path>
                <path d="M107.75,196.55 C107.75,197.46127 107.01127,198.2 106.1,198.2 C105.18873,198.2 104.45,197.46127 104.45,196.55 C104.45,195.63873 105.18873,194.9 106.1,194.9 C106.537607,194.9 106.957291,195.073839 107.266726,195.383274 C107.576161,195.692709 107.75,196.112393 107.75,196.55 Z" id="Path" fill="#FFFFFF" fill-rule="nonzero"></path>
                <path d="M155.59,212.93 C155.59,197.02 162.8,184.12 171.7,184.12 L154.61,184.12 C145.72,184.12 138.51,197.02 138.51,212.93 C138.51,228.84 145.72,241.730052 154.61,241.730052 L171.7,241.730052 C162.8,241.76 155.59,228.87 155.59,212.93 Z" id="Path" fill="#000000" fill-rule="nonzero"></path>
                <path d="M155.59,212.93 C155.59,197.02 162.8,184.12 171.7,184.12 L154.61,184.12 C145.72,184.12 138.51,197.02 138.51,212.93 C138.51,228.84 145.72,241.730052 154.61,241.730052 L171.7,241.730052 C162.8,241.76 155.59,228.87 155.59,212.93 Z" id="Path" fill="#263238" fill-rule="nonzero" opacity="0.7"></path>
                <ellipse id="Oval" fill="#263238" fill-rule="nonzero" cx="171.7" cy="212.96" rx="16.11" ry="28.81"></ellipse>
                <ellipse id="Oval" fill="#FFFFFF" fill-rule="nonzero" cx="172.99" cy="212.96" rx="11.42" ry="22.46"></ellipse>
                <ellipse id="Oval" fill="#263238" fill-rule="nonzero" cx="171.95" cy="212.96" rx="10.93" ry="19.44"></ellipse>
                <ellipse id="Oval" fill="#000000" fill-rule="nonzero" cx="169.55" cy="212.96" rx="7.98" ry="14.19"></ellipse>
                <path d="M407.73,196 L407.73,196.54 C407.73,199.301424 405.491424,201.54 402.73,201.54 L200.63,201.54 L200.63,191 L402.73,191 C405.491424,191 407.73,193.238576 407.73,196 L407.73,196 Z" id="Path" fill="#000000" fill-rule="nonzero" opacity="0.5"></path>
                <path d="M344.92,212.93 C344.92,197.02 352.13,184.12 361.02,184.12 L343.94,184.12 C335.04,184.12 327.83,197.02 327.83,212.93 C327.83,228.84 335.04,241.730052 343.94,241.730052 L361,241.730052 C352.13,241.76 344.92,228.87 344.92,212.93 Z" id="Path" fill="#000000" fill-rule="nonzero"></path>
                <path d="M344.92,212.93 C344.92,197.02 352.13,184.12 361.02,184.12 L343.94,184.12 C335.04,184.12 327.83,197.02 327.83,212.93 C327.83,228.84 335.04,241.730052 343.94,241.730052 L361,241.730052 C352.13,241.76 344.92,228.87 344.92,212.93 Z" id="Path" fill="#263238" fill-rule="nonzero" opacity="0.7"></path>
                <ellipse id="Oval" fill="#263238" fill-rule="nonzero" cx="361.02" cy="212.96" rx="16.11" ry="28.81"></ellipse>
                <ellipse id="Oval" fill="#FFFFFF" fill-rule="nonzero" cx="362.32" cy="212.96" rx="11.42" ry="22.46"></ellipse>
                <ellipse id="Oval" fill="#263238" fill-rule="nonzero" cx="361.27" cy="212.96" rx="10.93" ry="19.44"></ellipse>
                <ellipse id="Oval" fill="#000000" fill-rule="nonzero" cx="358.87" cy="212.96" rx="7.98" ry="14.19"></ellipse>
            </g>
            <g id="freepik--Character--inject-47" transform="translate(289.000000, 129.000000)" fill-rule="nonzero">
                <path d="M39.86,52 C39.66,55.85 39.31,59.57 38.74,63.36 C38.2474649,67.2746476 37.3904101,71.1347419 36.18,74.89 C35.7981448,75.9837191 35.3195855,77.0412348 34.75,78.05 C34.3534388,78.7303276 33.8693047,79.3556674 33.31,79.91 L33.03,80.17 L32.87,80.29 L32.79,80.36 L32.45,80.59 L31.78,81.06 C30.0815944,82.1498459 28.2954294,83.0964464 26.44,83.89 C22.9186081,85.4376887 19.2590623,86.6497249 15.51,87.51 L14.21,83.95 C17.39,82.19 20.65,80.39 23.62,78.52 C25.0717508,77.6294438 26.4676889,76.6509513 27.8,75.59 L28.24,75.22 L28.46,75.03 L28.46,75.03 L28.46,75.03 C28.46,75.03 28.55,74.88 28.66,74.64 C28.9521169,73.9932625 29.1928608,73.3245295 29.38,72.64 C29.8320328,70.9951772 30.1892869,69.3257653 30.45,67.64 C30.76,65.9 31.01,64.13 31.22,62.33 C31.63,58.76 31.98,55.1 32.22,51.54 L39.86,52 Z" id="Path" fill="#CE7A63"></path>
                <path d="M16.58,84 L10.44,82.1 L11.59,89.53 C11.59,89.53 15.59,89.03 17.59,86.79 L16.58,84 Z" id="Path" fill="#CE7A63"></path>
                <path d="M3,86.88 L3.34,87.88 C3.73429194,89.0144771 4.8305644,89.7521177 6.03,89.69 L9.16,89.55 L8,82.1 L4.56,83.45 C3.20401614,83.9896701 2.51559964,85.5033038 3,86.88 L3,86.88 Z" id="Path" fill="#CE7A63"></path>
                <path d="M47.12,44.79 C47.12,47.11 46,51.69 45.04,55.13 C44.33,57.6 43.74,59.48 43.74,59.48 L42.33,59.13 L30.71,56.19 C30.53,50.19 30.76,43.66 36.71,39.74 C40.43,37.28 47.09,40.66 47.12,44.79 Z" id="Path" fill="#263238"></path>
                <path d="M47.11,45.19 C46.35,44.39 44.63,44.25 40.88,45.44 C35.51,47.14 34.01,53.02 33.94,57.01 L42.33,59.13 L43.05,59.32 L43.74,59.48 C43.74,59.48 44.03,58.54 44.45,57.11 L44.45,57.11 C44.62,56.53 44.83,55.85 45.03,55.11 C46.0308791,51.8753579 46.7272409,48.5542479 47.11,45.19 L47.11,45.19 Z" id="Path" fill="#000000" opacity="0.3"></path>
                <polygon id="Path" fill="#CE7A63" points="23.27 231.47 16.18 228.99 20.64 213.63 27.72 216.12"></polygon>
                <polygon id="Path" fill="#CE7A63" points="118 213.27 112.23 217.57 100.42 205.6 106.19 201.3"></polygon>
                <path d="M109.87,215.82 L116.1,210.67 C116.318047,210.480904 116.641953,210.480904 116.86,210.67 L121.64,215.01 C121.856787,215.225814 121.978659,215.519104 121.978659,215.825 C121.978659,216.130896 121.856787,216.424186 121.64,216.64 L121.54,216.73 C119.34,218.49 118.18,219.23 115.44,221.49 C113.76,222.88 110.23,226.21 107.9,228.13 C105.57,230.05 103.55,227.86 104.35,226.85 C107.92,222.33 108.75,219.35 109.17,216.91 C109.270789,216.476872 109.518059,216.091838 109.87,215.82 L109.87,215.82 Z" id="Path" fill="#263238"></path>
                <path d="M15.7,226.77 L23.58,230.06 C23.8686702,230.186169 24.0396794,230.487471 24,230.8 L23.11,237.75 C23.0371756,238.329316 22.5095839,238.740658 21.93,238.67 C21.8264448,238.659115 21.7252251,238.632123 21.63,238.59 C18.84,237.46 17.53,236.9 14.07,235.45 L3.45,231 C0.57,229.79 1.19,226.63 2.45,226.86 C8.28,227.92 12.04,227.57 14.34,226.7 C14.7845277,226.541029 15.2741428,226.566229 15.7,226.77 Z" id="Path" fill="#263238"></path>
                <polygon id="Path" fill="#000000" opacity="0.2" points="20.64 213.64 18.35 221.55 25.25 224.67 27.73 216.12"></polygon>
                <polygon id="Path" fill="#000000" opacity="0.2" points="106.2 201.3 100.42 205.6 106.51 211.77 112.28 207.47"></polygon>
                <path d="M68.92,82.33 L39.72,82.75 C35.72,60.14 34.719956,49.35 34.719956,44.16 C34.7094485,41.4897308 36.5986828,39.1890632 39.22,38.68 C41,38.33 43.22,37.93 45.45,37.62 C46.21,37.52 46.98,37.42 47.74,37.34 C52.1498745,36.9617533 56.5810986,36.8982591 61,37.15 C61.66,37.15 62.31,37.21 63,37.25 C66,37.44 68.74,37.82 70.69,38.12 C72.150457,38.3552667 73.1440975,39.7293551 72.91,41.19 C72.9148817,41.2398808 72.9148817,41.2901192 72.91,41.34 C72.05,45.34 71.35,48.89 70.79,52.05 C69.9,57.05 69.34,61.13 69.01,64.69 C68.5100414,70.5582097 68.4799456,76.4569943 68.92,82.33 Z" id="Path" fill="#263238"></path>
                <path d="M69,64.72 C67.53,60.31 67.61,51.16 69.19,48.2 L70.8,52.07 C69.89,57.1 69.33,61.16 69,64.72 Z" id="Path" fill="#000000" opacity="0.1"></path>
                <path d="M39.72,82.75 C39.72,82.75 34.72,125.26 30.21,151.75 C26.64,172.49 17.62,215.66 17.62,215.66 L29.33,219.81 C29.33,219.81 42.74,174.81 45.09,155.59 C54.54,127.88 61.34,82.54 61.34,82.54 L39.72,82.75 Z" id="Path" fill="#E53E37"></path>
                <polygon id="Path" fill="#263238" points="15.72 218.56 29.27 223.33 31.08 218.98 16.38 213.36"></polygon>
                <path d="M54.52,95.38 L50.14,103.77 C48.54,110.09 48.92,125.47 50.95,135.19 C54.59,120.54 57.5,105.12 59.31,94.77 L54.52,95.38 Z" id="Path" fill="#000000" opacity="0.1"></path>
                <path d="M46.06,82.75 C46.06,82.75 51.29,130.33 61.06,156.75 C65.96,170 102.31,209.28 102.31,209.28 L110.51,202.72 C110.51,202.72 87.46,163.09 77.38,152.72 C73.27,129.72 78.44,95.24 68.89,82.34 L46.06,82.75 Z" id="Path" fill="#E53E37"></path>
                <polygon id="Path" fill="#263238" points="103 212.09 112.62 204.21 110.02 199.94 99.49 209.11"></polygon>
                <path d="M69.38,80.62 L70.73,83.21 C70.83,83.41 70.6,83.63 70.26,83.63 L39.62,84.07 C39.35,84.07 39.14,83.94 39.11,83.78 L38.82,81.17 C38.82,80.99 39.03,80.83 39.31,80.83 L68.89,80.4 C69.0794937,80.3887284 69.2625102,80.4708991 69.38,80.62 L69.38,80.62 Z" id="Path" fill="#263238"></path>
                <path d="M65.41,84 L66.22,84 C66.37,84 66.49,83.91 66.48,83.82 L66.05,80.42 C66.05,80.32 65.91,80.25 65.75,80.25 L65,80.25 C64.84,80.25 64.72,80.34 64.74,80.43 L65.16,83.82 C65.11,83.9 65.26,84 65.41,84 Z" id="Path" fill="#E53E37"></path>
                <path d="M41.82,84.32 L42.62,84.32 C42.78,84.32 42.89,84.23 42.88,84.13 L42.47,80.74 C42.47,80.64 42.31,80.56 42.15,80.56 L41.35,80.56 C41.19,80.56 41.07,80.65 41.08,80.75 L41.5,84.14 C41.52,84.24 41.66,84.32 41.82,84.32 Z" id="Path" fill="#E53E37"></path>
                <path d="M53.62,84.13 L54.42,84.13 C54.58,84.13 54.7,84.04 54.69,83.94 L54.27,80.55 C54.27,80.44 54.12,80.36 53.96,80.37 L53.16,80.37 C53,80.37 52.89,80.46 52.89,80.56 L53.31,83.95 C53.3,84.07 53.46,84.13 53.62,84.13 Z" id="Path" fill="#E53E37"></path>
                <polygon id="Path" fill="#E53E37" points="0.64 52.82 43.98 46.87 49.98 89.42 7.42 95.26"></polygon>
                <polygon id="Path" fill="#FFFFFF" opacity="0.8" points="0.64 52.82 43.98 46.87 49.98 89.42 7.42 95.26"></polygon>
                <rect id="Rectangle" fill="#E53E37" opacity="0.2" transform="translate(41.892150, 67.581900) rotate(-8.049062) translate(-41.892150, -67.581900) " x="36.0480268" y="45.4152257" width="11.6882464" height="44.3333485"></rect>
                <path d="M56.27,84.06 L50.27,81.71 L50.86,89.21 C50.86,89.21 54.86,89.01 57.01,86.92 L56.27,84.06 Z" id="Path" fill="#CE7A63"></path>
                <path d="M75.14,46.72 C76.75,51.22 78.14,55.72 79.32,60.32 C79.92,62.63 80.48,64.95 80.93,67.32 C81.15,68.52 81.34,69.74 81.48,71.01 C81.6407558,72.336871 81.6975955,73.6742741 81.65,75.01 C81.6219677,75.879773 81.4876366,76.7428502 81.25,77.58 C80.9214603,78.6095626 80.371986,79.5549314 79.64,80.35 C78.5705653,81.4956214 77.2993849,82.4346 75.89,83.12 C73.582262,84.2396017 71.1527912,85.0885742 68.65,85.65 C63.9709642,86.7351859 59.1996533,87.374709 54.4,87.56 L53.93,83.79 C56.12,83.27 58.36,82.69 60.54,82.08 C62.72,81.47 64.89,80.79 66.97,80.03 C68.9566772,79.3472574 70.8723388,78.4731531 72.69,77.42 C73.3503439,77.0338841 73.9390037,76.5365681 74.43,75.95 C74.56,75.75 74.56,75.7 74.54,75.7 C74.5599949,75.4036702 74.5599949,75.1063298 74.54,74.81 C74.5020981,73.8407678 74.3985273,72.8752204 74.23,71.92 C74.07,70.92 73.85,69.8 73.61,68.7 C73.11,66.56 72.55,64.37 71.92,62.18 C70.67,57.84 69.26,53.43 67.85,49.18 L75.14,46.72 Z" id="Path" fill="#CE7A63"></path>
                <path d="M44.74,85.41 L45.21,87.15 C45.4999232,88.2981191 46.5163718,89.1145437 47.7,89.15 L50.92,89.24 L50.33,81.75 L47.05,82.12 C46.3467749,82.1906553 45.7005795,82.5382688 45.2540512,83.0861102 C44.807523,83.6339516 44.5973771,84.3369754 44.67,85.04 C44.6846939,85.1648121 44.7080841,85.2884461 44.74,85.41 Z" id="Path" fill="#CE7A63"></path>
                <path d="M71.73,38.34 C75.09,39.71 77.84,50.75 77.84,50.75 L68.56,58 C68.56,58 61.98,47.7 63.32,43.23 C64.46,39.45 67.45,36.61 71.73,38.34 Z" id="Path" fill="#263238"></path>
                <path d="M107.6,218.94 L107.48,218.94 C107.138851,218.916559 106.833333,218.720424 106.67,218.42 C106.54871,218.246539 106.52963,218.021398 106.62,217.83 C107.03,217.03 109.62,216.71 109.9,216.68 C109.968006,216.667085 110.036605,216.699367 110.07,216.76 C110.108695,216.817423 110.108695,216.892577 110.07,216.95 C109.53,217.68 108.48,218.88 107.6,218.94 Z M109.55,217.07 C108.55,217.22 107.14,217.55 106.94,217.99 C106.890756,218.066059 106.890756,218.163941 106.94,218.24 C107.036169,218.449058 107.240215,218.587655 107.47,218.6 C107.97,218.6 108.77,218.06 109.57,217.07 L109.55,217.07 Z" id="Shape" fill="#263238"></path>
                <path d="M109.78,217 C108.91,217 107.17,216.69 106.78,216 C106.652173,215.75358 106.710078,215.451647 106.92,215.27 C107.098479,215.073878 107.355115,214.967557 107.62,214.98 C108.67,214.98 110,216.59 110.04,216.68 C110.070819,216.728881 110.070819,216.791119 110.04,216.84 C110.023698,216.900095 109.971964,216.94387 109.91,216.95 L109.78,217 Z M107.56,215.34 C107.419063,215.353657 107.287738,215.417545 107.19,215.52 C107.04,215.68 107.07,215.78 107.11,215.86 C107.34,216.3 108.71,216.66 109.59,216.66 C109.08858,216.030612 108.408985,215.567094 107.64,215.33 L107.56,215.34 Z" id="Shape" fill="#263238"></path>
                <path d="M11.67,226.61 C11.114218,226.428795 10.6284856,226.079347 10.28,225.61 C10.1196654,225.329917 10.0904164,224.993554 10.2,224.69 C10.2556546,224.514212 10.4002385,224.381043 10.58,224.34 C11.5,224.17 13.67,226.5 14.09,226.97 C14.1304449,227.030532 14.1304449,227.109468 14.09,227.17 C14.0554706,227.234817 13.9812495,227.267804 13.91,227.25 C13.1436099,227.112973 12.3931001,226.898542 11.67,226.61 Z M10.98,224.73 C10.8774427,224.680548 10.7634008,224.659813 10.65,224.67 C10.65,224.67 10.56,224.67 10.52,224.79 C10.4383742,225.000917 10.4605941,225.23793 10.58,225.43 C10.89,225.97 11.96,226.48 13.48,226.81 C12.7667231,225.991721 11.9299634,225.289922 11,224.73 L10.98,224.73 Z" id="Shape" fill="#263238"></path>
                <path d="M13.9,227.23 L13.84,227.23 C13.11,226.5 11.92,224.31 12.33,223.61 C12.42,223.46 12.61,223.3 13.04,223.42 C14.65,223.89 14.16,227.01 14.13,227.14 C14.1302017,227.208066 14.0778651,227.264764 14.01,227.27 C13.9686941,227.2789 13.9259409,227.263354 13.9,227.23 L13.9,227.23 Z M13.1,223.74 L13,223.74 C12.84,223.69 12.72,223.74 12.68,223.74 C12.44,224.15 13.21,225.8 13.91,226.68 C13.9,225.91 14,224.14 13.1,223.74 L13.1,223.74 Z" id="Shape" fill="#263238"></path>
                <path d="M44.08,7.23 C44.08,7.23 40.08,13.92 43.08,16.85 C46.08,19.78 46.96,9.39 46.96,9.39 L44.08,7.23 Z" id="Path" fill="#263238"></path>
                <path d="M62.66,22.93 C62.66,22.93 67.66,15.11 65.58,7.34 C63.5,-0.43 53.78,4.59 49.68,2.46 C48.1778212,1.54694782 46.5777778,0.805627915 44.91,0.25 C44.3667801,0.089013369 43.7796273,0.188718561 43.32,0.52 C42.32,1.4 44.06,3.05 44.6,3.67 C44.2678139,3.285809 43.8841948,2.94930106 43.46,2.67 C42.93,2.32 42.22,2.29 42.46,3.18 C42.8712598,4.13629357 43.6082519,4.91580441 44.54,5.38 C44.15,5.16 41.84,3.99 41.68,4.72 C41.659988,4.89700978 41.7063055,5.07515392 41.81,5.22 C43.31,8.02 46.33,11.54 49.81,11.61 C54,11.67 58,23.46 62.66,22.93 Z" id="Path" fill="#263238"></path>
                <path d="M64.43,23.28 C64.17,25.92 60.25,25.95 60.25,25.95 C59.6083127,27.4610179 58.5418348,28.7532974 57.18,29.67 C57.0594694,31.2644134 57.1131196,32.8672154 57.34,34.45 C58,36.94 58.84,37.8 59.89,38.36 L59.89,38.36 L59.05,39.19 C57.4422182,40.1176395 55.6258376,40.6233364 53.77,40.66 L52.67,40.02 L51.23,40.25 C47.23,38.94 48.23,36.25 48.23,36.25 C48.9596075,34.4233306 48.9987127,32.3934146 48.34,30.54 C44.5,29.34 42.93,26 42.39,20.38 C41.85,14.76 45.01,9.38 45.01,9.38 C49.35,13.57 57.95,10.88 57.95,10.88 C57.58,18.76 61.26,21.67 61.26,21.67 C62.47,20.59 64.68,20.65 64.43,23.28 Z" id="Path" fill="#CE7A63"></path>
                <path d="M50.47,24 C51.5020677,23.7112444 52.3940704,23.0573461 52.98,22.16 C53.0783365,22.0128202 53.0430385,21.8142686 52.9,21.71 C52.8312307,21.6590727 52.7449287,21.637811 52.6603722,21.6509642 C52.5758157,21.6641174 52.5000501,21.7105897 52.45,21.78 C51.757226,23.0250865 50.3342349,23.6737434 48.94,23.38 C48.7715828,23.3278578 48.5927176,23.4217621 48.54,23.59 C48.4872564,23.7609994 48.5804133,23.9428771 48.75,24 C49.3138573,24.1474165 49.9061427,24.1474165 50.47,24 Z" id="Path" fill="#263238"></path>
                <path d="M51.61,17.12 C51.61,17.63 51.41,18.07 51.07,18.12 C50.73,18.17 50.42,17.75 50.38,17.24 C50.34,16.73 50.59,16.24 50.93,16.24 C51.27,16.24 51.57,16.6 51.61,17.12 Z" id="Path" fill="#263238"></path>
                <path d="M45.49,16.86 C45.49,17.37 45.29,17.81 44.95,17.86 C44.61,17.91 44.31,17.49 44.27,16.98 C44.23,16.47 44.47,16.03 44.81,15.98 C45.15,15.93 45.46,16.34 45.49,16.86 Z" id="Path" fill="#263238"></path>
                <path d="M47.11,21.81 L47.04,18.11 L45.2,21.23 C45.7152233,21.7039302 46.4182433,21.9174127 47.11,21.81 L47.11,21.81 Z" id="Path" fill="#BA4D3C"></path>
                <path d="M54.4,14 C54.4435881,13.9881689 54.4843822,13.9677718 54.52,13.94 C54.6186891,13.8820045 54.6894312,13.7862408 54.7158594,13.6748649 C54.7422875,13.5634891 54.7221118,13.4461517 54.66,13.35 C53.9805655,12.2111661 52.7114716,11.5591546 51.39,11.67 C51.2762825,11.6823457 51.1725197,11.7405386 51.1026864,11.8311333 C51.032853,11.9217279 51.002991,12.036886 51.02,12.15 C51.0511254,12.3842895 51.2655054,12.5495408 51.5,12.52 L51.5,12.52 C52.4856521,12.4585787 53.4231668,12.9524136 53.93,13.8 C54.0258095,13.9625745 54.2164202,14.0436855 54.4,14 Z" id="Path" fill="#263238"></path>
                <path d="M43.55,13.59 C43.6624471,13.5606948 43.7591987,13.489027 43.82,13.39 C44.1864287,12.8359265 44.8449259,12.5497938 45.5,12.66 C45.6116145,12.6833661 45.7279323,12.6603432 45.8222301,12.5962207 C45.9165279,12.5320982 45.9806988,12.4323888 46,12.32 C46.0427645,12.0883366 45.8911627,11.8653929 45.66,11.82 C44.6472749,11.6322477 43.6230533,12.0848108 43.08,12.96 C42.9639264,13.1651015 43.0300634,13.4252401 43.23,13.55 C43.3280619,13.6024091 43.4420547,13.6166582 43.55,13.59 L43.55,13.59 Z" id="Path" fill="#263238"></path>
                <polygon id="Path" fill="#FFFFFF" points="61.52 38.71 59.37 40.81 55.54 44.57 54.1 42.28 52.67 40.02 57.67 34.06 61.31 38.46"></polygon>
                <polygon id="Path" fill="#FFFFFF" points="52.67 40.02 51.56 41.87 49.93 44.57 46.19 37.82 48.58 35.01"></polygon>
            </g>
        </g>
    </g>
</svg>