<?xml version="1.0" encoding="UTF-8"?>
<svg width="27px" height="27px" viewBox="0 0 27 27" version="1.1" xmlns="http://www.w3.org/2000/svg" xmlns:xlink="http://www.w3.org/1999/xlink">
    <title>google</title>
    <g id="Page-1" stroke="none" stroke-width="1" fill="none" fill-rule="evenodd">
        <g id="Login" transform="translate(-240.000000, -247.000000)" fill-rule="nonzero">
            <g id="google" transform="translate(240.390625, 247.031250)">
                <path d="M5.8868103,16.0520508 L4.96220703,19.5037231 L1.58280334,19.5752136 C0.572857666,17.7019867 0,15.5587769 0,13.28125 C0,11.0788971 0.53560791,9.00204163 1.48500977,7.17332764 L1.48573608,7.17332764 L4.49435425,7.72491455 L5.81231079,10.7154785 C5.53646545,11.5196686 5.38611755,12.3829498 5.38611755,13.28125 C5.38622131,14.2561768 5.56282043,15.190274 5.8868103,16.0520508 Z" id="Path" fill="#FBBB00"></path>
                <path d="M26.3304413,10.8001465 C26.4829681,11.6035583 26.5625,12.4332733 26.5625,13.28125 C26.5625,14.2321045 26.4625275,15.159613 26.2720764,16.0542816 C25.6255493,19.0987488 23.9361847,21.7571777 21.5959351,23.638446 L21.5952087,23.6377197 L17.8056946,23.4443634 L17.2693604,20.0962952 C18.822229,19.1855957 20.0358032,17.7604034 20.6750671,16.0542816 L13.57323,16.0542816 L13.57323,10.8001465 L20.7786713,10.8001465 L26.3304413,10.8001465 L26.3304413,10.8001465 Z" id="Path" fill="#518EF8"></path>
                <path d="M21.5951569,23.6377197 L21.5958832,23.638446 C19.3198608,25.4678864 16.428595,26.5625 13.28125,26.5625 C8.22342834,26.5625 3.8260376,23.7355133 1.58280334,19.5752655 L5.8868103,16.0521027 C7.00840149,19.0454681 9.89598389,21.1763306 13.28125,21.1763306 C14.7363251,21.1763306 16.0995209,20.7829773 17.2692566,20.0962952 L21.5951569,23.6377197 Z" id="Path" fill="#28B446"></path>
                <path d="M21.7586304,3.05759277 L17.456076,6.5800293 C16.245459,5.82330933 14.8144043,5.38616943 13.28125,5.38616943 C9.8193573,5.38616943 6.87776794,7.61477356 5.81236267,10.7154785 L1.48573608,7.17332764 L1.48500977,7.17332764 C3.69540405,2.91165466 8.14825439,0 13.28125,0 C16.5037689,0 19.4584839,1.14789429 21.7586304,3.05759277 Z" id="Path" fill="#F14336"></path>
            </g>
        </g>
    </g>
</svg>