<?xml version="1.0" encoding="UTF-8"?>
<svg width="11px" height="11px" viewBox="0 0 11 11" version="1.1" xmlns="http://www.w3.org/2000/svg" xmlns:xlink="http://www.w3.org/1999/xlink">
    <!-- Generator: Sketch 64 (93537) - https://sketch.com -->
    <title>ic_call</title>
    <desc>Created with Sketch.</desc>
    <g id="web" stroke="none" stroke-width="1" fill="none" fill-rule="evenodd" opacity="0.680082775">
        <g id="ic_call" fill="#000000">
            <g id="telephone-(1)">
                <g id="Group" transform="translate(5.500000, 5.500000) scale(-1, 1) rotate(-180.000000) translate(-5.500000, -5.500000) translate(0.000000, -0.000000)" fill-rule="nonzero">
                    <path d="M1.9072407,10.9699219 C1.76086106,10.9226563 1.59080235,10.828125 1.4444227,10.7099609 C1.22054795,10.5273438 0.430528376,9.71523438 0.307827789,9.54121094 C0.185127202,9.3671875 0.0839530333,9.12441406 0.0322896282,8.88808594 C-0.0107632094,8.68398438 -0.0107632094,8.16621094 0.0344422701,7.89121094 C0.176516634,7.00390625 0.647945205,5.90820313 1.3260274,4.87695313 C2.2667319,3.45039063 3.48727984,2.22578125 4.83913894,1.3578125 C6.22328767,0.468359375 7.46320939,0 8.43189824,0 C8.92700587,0 9.24990215,0.098828125 9.58356164,0.350195313 C9.76438356,0.485546875 10.7093933,1.4609375 10.8084149,1.61347656 C10.9268102,1.79609375 10.9827789,1.98730469 10.9827789,2.20429688 C10.9849315,2.41269531 10.9569472,2.52011719 10.855773,2.71777344 C10.7890411,2.85097656 10.6835616,2.96484375 9.97103718,3.68242188 C8.9851272,4.67285156 8.89686888,4.73945313 8.50508806,4.76308594 C8.29843444,4.778125 8.13483366,4.74375 7.94109589,4.64492188 C7.80547945,4.57832031 7.71937378,4.503125 7.29315068,4.08417969 L6.80019569,3.59863281 L6.61506849,3.6953125 C6.15225049,3.9359375 5.57103718,4.37421875 5.07377691,4.85546875 C4.43013699,5.48066406 3.937182,6.10585938 3.67671233,6.62578125 L3.58199609,6.81699219 L4.03835616,7.2703125 C4.29882583,7.53027344 4.53131115,7.78164063 4.58297456,7.86113281 C4.82622309,8.23066406 4.82622309,8.6796875 4.58082192,9.05136719 C4.46027397,9.23398438 2.98786693,10.7056641 2.80273973,10.8238281 C2.6111546,10.9505859 2.43248532,11 2.18923679,10.9979185 C2.0816047,10.9979185 1.95459883,10.9849609 1.9072407,10.9699219 Z M2.4109589,10.3726563 C2.56164384,10.3039063 4.04481409,8.81933594 4.12446184,8.66035156 C4.20410959,8.50136719 4.19549902,8.34453125 4.0964775,8.19199219 C4.05988258,8.13398438 3.81017613,7.871875 3.54324853,7.60761719 C3.2590998,7.32617188 3.03737769,7.08984375 3.01154599,7.04042969 C2.93620352,6.89003906 2.96203523,6.74394531 3.12994129,6.40664063 C3.41624266,5.83085938 3.83600783,5.27011719 4.46888454,4.62128906 C5.10606654,3.96601563 5.73679061,3.48476563 6.40195695,3.13886719 C6.66027397,3.00566406 6.71193738,2.98632813 6.81311155,2.98632813 C6.87553816,2.98632813 6.96594912,3.00136719 7.0111546,3.02070313 C7.06712329,3.04433594 7.26516634,3.22265625 7.61174168,3.56640625 C7.93463796,3.88652344 8.16497065,4.09707031 8.22524462,4.12714844 C8.36086106,4.19804688 8.53091977,4.19375 8.65792564,4.11855469 C8.70958904,4.08847656 9.1035225,3.7125 9.53189824,3.2828125 C10.3671233,2.44707031 10.3972603,2.40839844 10.3994129,2.20214844 C10.3994129,2.00019531 10.3369863,1.91210938 9.83542074,1.40078125 C9.19178082,0.74765625 9.16810176,0.728320313 8.8925636,0.6359375 C8.59980431,0.539257813 8.29843444,0.54140625 7.78610568,0.646679688 C6.9035225,0.827148438 5.59041096,1.48242188 4.56575342,2.25585938 C3.16007828,3.3171875 1.93307241,4.77597656 1.2183953,6.24121094 C0.557534247,7.59472656 0.404696673,8.59375 0.770645793,9.17382812 C0.878277886,9.34355469 1.85988258,10.3146484 1.98258317,10.3726563 C2.11174168,10.4349609 2.28180039,10.4349609 2.4109589,10.3726563 Z" id="Shape"></path>
                </g>
            </g>
        </g>
    </g>
</svg>