<?xml version="1.0" encoding="UTF-8"?>
<svg width="26px" height="26px" viewBox="0 0 26 26" version="1.1" xmlns="http://www.w3.org/2000/svg" xmlns:xlink="http://www.w3.org/1999/xlink">
    <!-- Generator: Sketch 64 (93537) - https://sketch.com -->
    <title>ic_facebook</title>
    <desc>Created with Sketch.</desc>
    <g id="web" stroke="none" stroke-width="1" fill="none" fill-rule="evenodd" opacity="0.65187872">
        <g id="ic_facebook" fill="#000000" fill-rule="nonzero">
            <g id="facebook-(1)" transform="translate(0.093609, 0.050608)">
                <path d="M14.5289306,24.8617812 C14.4246929,24.9052784 14.3200735,24.9453546 14.2150722,24.9820095 C14.3200735,24.9453546 14.4246929,24.9052784 14.5289306,24.8617812 Z" id="Path"></path>
                <path d="M14.7792154,24.8352483 C14.7293875,24.8587075 14.6795596,24.8802118 14.6297318,24.9022047 C14.6795596,24.8802118 14.7293875,24.8587075 14.7792154,24.8352483 Z" id="Path"></path>
                <path d="M13.9355779,24.9518303 C13.8135855,24.9870191 13.6908295,25.018298 13.5676916,25.0446895 C13.6908295,25.018298 13.8135855,24.9870191 13.9355779,24.9518303 Z" id="Path"></path>
                <path d="M14.1759354,24.9335982 C14.1173256,24.9536364 14.058334,24.9722082 13.9995332,24.9898026 C14.058334,24.9722082 14.1173256,24.9536364 14.1759354,24.9335982 Z" id="Path"></path>
                <path d="M15.1198014,24.7664744 C15.0758917,24.7904223 15.0317912,24.8143703 14.9876906,24.8373407 C15.0317912,24.8143703 15.0758917,24.7904223 15.1198014,24.7664744 Z" id="Path"></path>
                <path d="M15.9837442,24.5549827 C15.942039,24.5808855 15.9003337,24.6053223 15.8586285,24.6307364 C15.9003337,24.6053223 15.942039,24.5808855 15.9837442,24.5549827 Z" id="Path"></path>
                <path d="M15.7185682,24.6244096 C15.6770002,24.6503124 15.6352263,24.6767041 15.5934525,24.7016294 C15.6352263,24.6767041 15.6770002,24.6508011 15.7185682,24.6244096 Z" id="Path"></path>
                <path d="M15.3768368,24.7099646 C15.3353898,24.7344013 15.2935555,24.7573717 15.2517211,24.7808309 C15.2935555,24.7573717 15.3353898,24.7344013 15.3768368,24.7099646 Z" id="Path"></path>
                <path d="M13.5636825,25.0051633 C13.4978181,25.0193365 13.4319536,25.0320437 13.3658983,25.0432844 C13.4319536,25.0320437 13.4978181,25.0193365 13.5636825,25.0051633 Z" id="Path"></path>
                <path d="M25.0231395,12.5115697 C25.0231395,5.60267697 19.4204625,0 12.5115697,0 C5.60267697,0 0,5.60267697 0,12.5115697 C0,19.4204625 5.60267697,25.0231395 12.5115697,25.0231395 C12.5850706,25.0231395 12.6581897,25.0216122 12.7314997,25.0202758 L12.7314997,15.2805487 L10.0434671,15.2805487 L10.0434671,12.1478835 L12.7314997,12.1478835 L12.7314997,9.84262832 C12.7314997,7.16910503 14.3636013,5.71397829 16.7484665,5.71397829 C17.8904986,5.71397829 18.872165,5.7991248 19.1583412,5.83711618 L19.1583412,8.63129548 L17.5138303,8.63129548 C16.2163965,8.63129548 15.965157,9.24793929 15.965157,10.1526684 L15.965157,12.1478835 L19.0674673,12.1478835 L18.663117,15.2805487 L15.965157,15.2805487 L15.965157,24.5397518 C21.1947931,23.0405246 25.0231395,18.2224935 25.0231395,12.5115697 Z" id="Path"></path>
                <path d="M13.3382161,25.0181988 C13.2080145,25.0397029 13.0772402,25.0568086 12.9460841,25.0680495 C13.0772402,25.0568086 13.2080145,25.0397029 13.3382161,25.0181988 Z" id="Path"></path>
                <path d="M12.9394022,25.0492219 C12.8702923,25.0550865 12.8009914,25.0594852 12.7316906,25.0624176 C12.8009914,25.0594852 12.8702923,25.0550865 12.9394022,25.0492219 Z" id="Path"></path>
            </g>
        </g>
    </g>
</svg>