<?xml version="1.0" encoding="UTF-8"?>
<svg width="26px" height="26px" viewBox="0 0 26 26" version="1.1" xmlns="http://www.w3.org/2000/svg" xmlns:xlink="http://www.w3.org/1999/xlink">
    <!-- Generator: Sketch 64 (93537) - https://sketch.com -->
    <title>ic_insta</title>
    <desc>Created with Sketch.</desc>
    <g id="web" stroke="none" stroke-width="1" fill="none" fill-rule="evenodd" opacity="0.65187872">
        <g id="ic_insta" transform="translate(0.665670, 0.000000)" fill="#000000" fill-rule="nonzero">
            <g id="instagram" transform="translate(0.093609, 0.050608)">
                <path d="M14.9063624,12.5115697 C14.9063624,13.834204 13.834204,14.9063624 12.5115697,14.9063624 C11.1889355,14.9063624 10.1167771,13.834204 10.1167771,12.5115697 C10.1167771,11.1889355 11.1889355,10.1167771 12.5115697,10.1167771 C13.834204,10.1167771 14.9063624,11.1889355 14.9063624,12.5115697 Z" id="Path"></path>
                <path d="M18.1121467,8.27448208 C17.9970271,7.96253282 17.8133703,7.68017484 17.5747311,7.44840842 C17.3429647,7.20976915 17.0607976,7.0261124 16.7486574,6.91099281 C16.4955089,6.81267343 16.1152134,6.69564475 15.4147595,6.66376253 C14.6570321,6.62920758 14.4298475,6.62176202 12.5115697,6.62176202 C10.5931011,6.62176202 10.3659165,6.62901668 9.60838002,6.66357163 C8.90792609,6.69564475 8.52743968,6.81267343 8.27448208,6.91099281 C7.96234192,7.0261124 7.67998394,7.20976915 7.44840842,7.44840842 C7.20976915,7.68017484 7.0261124,7.96234192 6.91080191,8.27448208 C6.81248253,8.52763058 6.69545385,8.90811699 6.66357163,9.60857092 C6.62901668,10.3661074 6.62157112,10.593292 6.62157112,12.5117606 C6.62157112,14.4300384 6.62901668,14.657223 6.66357163,15.4149504 C6.69545385,16.1154043 6.81248253,16.4956998 6.91080191,16.7488484 C7.0261124,17.0609885 7.20957825,17.3431556 7.44821753,17.574922 C7.67998394,17.8135612 7.96215097,17.997218 8.27429113,18.1123376 C8.52743968,18.2108479 8.90792609,18.3278765 9.60838002,18.3597588 C10.3659165,18.3943138 10.5929102,18.4015684 12.5113788,18.4015684 C14.4300384,18.4015684 14.657223,18.3943138 15.4145686,18.3597588 C16.1150225,18.3278765 16.4955089,18.2108479 16.7486574,18.1123376 C17.3752287,17.8706438 17.8704529,17.3754196 18.1121467,16.7488484 C18.2104661,16.4956998 18.3274947,16.1154043 18.3595679,15.4149504 C18.3941228,14.657223 18.4013775,14.4300384 18.4013775,12.5117606 C18.4013775,10.593292 18.3941228,10.3661074 18.3595679,9.60857092 C18.3276856,8.90811699 18.210657,8.52763058 18.1121467,8.27448208 L18.1121467,8.27448208 Z M12.5115697,16.2007417 C10.4739723,16.2007417 8.82220688,14.5491671 8.82220688,12.5115697 C8.82220688,10.4739723 10.4739723,8.82239778 12.5115697,8.82239778 C14.5489762,8.82239778 16.2007417,10.4739723 16.2007417,12.5115697 C16.2007417,14.5491671 14.5489762,16.2007417 12.5115697,16.2007417 Z M16.346598,9.53869737 C15.870465,9.53869737 15.4844421,9.15267454 15.4844421,8.67654147 C15.4844421,8.20040841 15.870465,7.81438557 16.346598,7.81438557 C16.8227311,7.81438557 17.2087539,8.20040841 17.2087539,8.67654147 C17.208563,9.15267454 16.8227311,9.53869737 16.346598,9.53869737 Z" id="Shape"></path>
                <path d="M12.5115697,0 C5.60267697,0 0,5.60267697 0,12.5115697 C0,19.4204625 5.60267697,25.0231395 12.5115697,25.0231395 C19.4204625,25.0231395 25.0231395,19.4204625 25.0231395,12.5115697 C25.0231395,5.60267697 19.4204625,0 12.5115697,0 Z M19.6526108,15.4735602 C19.6178649,16.2383512 19.4962543,16.7604939 19.3187068,17.2175358 C18.9454749,18.182593 18.182593,18.9454749 17.2175358,19.3187068 C16.7606848,19.4962543 16.2383512,19.617674 15.4737511,19.6526108 C14.7076236,19.6875476 14.4628752,19.6959477 12.5117606,19.6959477 C10.5604552,19.6959477 10.3158977,19.6875476 9.54957931,19.6526108 C8.78497915,19.617674 8.26264555,19.4962543 7.80579457,19.3187068 C7.32622513,19.1382955 6.89209257,18.8555557 6.53317913,18.4899604 C6.16777473,18.1312378 5.8850349,17.6969144 5.70462364,17.2175358 C5.52707606,16.7606848 5.40546546,16.2383512 5.37071961,15.4737511 C5.33540101,14.7074327 5.32719181,14.4626843 5.32719181,12.5115697 C5.32719181,10.5604552 5.33540101,10.3157068 5.37052871,9.54957931 C5.40527456,8.78478825 5.52669421,8.26264555 5.70424184,7.80560367 C5.88465311,7.32622513 6.16758378,6.89190167 6.53317913,6.53317913 C6.89190167,6.16758378 7.32622513,5.884844 7.80560367,5.70443274 C8.26264555,5.52688516 8.78478825,5.40546546 9.54957931,5.37052871 C10.3157068,5.33559191 10.5604552,5.32719181 12.5115697,5.32719181 C14.4626843,5.32719181 14.7074327,5.33559191 15.4735602,5.37071961 C16.2383512,5.40546546 16.7604939,5.52688516 17.2175358,5.70424184 C17.6969144,5.88465311 18.1312378,6.16758378 18.4901513,6.53317913 C18.8555557,6.89209257 19.1384864,7.32622513 19.3187068,7.80560367 C19.4964453,8.26264555 19.6178649,8.78478825 19.6528017,9.54957931 C19.6877385,10.3157068 19.6959477,10.5604552 19.6959477,12.5115697 C19.6959477,14.4626843 19.6877385,14.7074327 19.6526108,15.4735602 L19.6526108,15.4735602 Z" id="Shape"></path>
            </g>
        </g>
    </g>
</svg>