<?xml version="1.0" encoding="UTF-8"?>
<svg width="10px" height="12px" viewBox="0 0 10 12" version="1.1" xmlns="http://www.w3.org/2000/svg" xmlns:xlink="http://www.w3.org/1999/xlink">
    <!-- Generator: Sketch 64 (93537) - https://sketch.com -->
    <title>ic_location</title>
    <desc>Created with Sketch.</desc>
    <g id="web" stroke="none" stroke-width="1" fill="none" fill-rule="evenodd" opacity="0.688988095">
        <g id="ic_location" fill="#141414">
            <g id="location-(4)">
                <g id="Group" transform="translate(5.000000, 6.000000) scale(-1, 1) rotate(-180.000000) translate(-5.000000, -6.000000) translate(0.000000, -0.000000)" fill-rule="nonzero">
                    <path d="M4.2461964,11.9577547 C2.81235592,11.7300997 1.59059474,10.9227459 0.781466113,9.66946998 C0.486399262,9.21181303 0.216689719,8.53354195 0.10373444,7.9679249 C-0.20516367,6.40719734 0.179806362,4.96147076 1.33241125,3.36788578 C1.86491471,2.63094074 2.65790687,1.79542343 3.85892116,0.706434579 C4.62655602,0.00938783493 4.64499769,0 5,0 C5.35500231,0 5.37344398,0.00938783493 6.14107884,0.706434579 C7.34209313,1.79542343 8.13508529,2.63094074 8.66758875,3.36788578 C9.52051637,4.54840602 9.94928538,5.63974183 9.99538958,6.74750636 C10.0414938,7.92567964 9.68418626,9.06864854 8.95804518,10.0449834 C8.76440756,10.3031488 8.28492393,10.7866223 8.0198248,10.9861138 C7.3812817,11.4719343 6.66436146,11.7911207 5.88750576,11.9366321 C5.50945136,12.0093878 4.63347165,12.0211226 4.2461964,11.9577547 Z M5.60857538,11.2395854 C6.55371139,11.08938 7.36284002,10.6739683 8.02904564,9.99569724 C8.67219917,9.34089576 9.08483172,8.5194602 9.23005994,7.61118717 C9.41217151,6.46352435 9.13324112,5.39331117 8.34024896,4.17758654 C7.75703089,3.28574223 7.08852006,2.5534911 5.71230982,1.3025621 C5.17980636,0.816741639 5.05532503,0.715822413 5,0.715822413 C4.94467497,0.715822413 4.82019364,0.816741639 4.28769018,1.3025621 C2.91147994,2.5534911 2.24296911,3.28574223 1.65975104,4.17758654 C0.866758875,5.39331117 0.587828492,6.46352435 0.769940065,7.61118717 C1.01890272,9.17426169 2.09313047,10.4885586 3.55924389,11.0260121 C3.84047948,11.1292783 4.01567543,11.1762175 4.33148917,11.2301975 C4.65191332,11.2865245 5.28584601,11.2912185 5.60857538,11.2395854 Z" id="Shape"></path>
                    <path d="M4.79022591,9.34793663 C4.37989857,9.31742617 3.96496081,9.14844514 3.62378976,8.87385097 C2.60258183,8.05006845 2.50576302,6.48230002 3.4209313,5.54351653 C3.7021669,5.2548406 4.0571692,5.04126736 4.43522361,4.93565421 C4.70262794,4.86055154 5.29737206,4.86055154 5.56477639,4.93565421 C6.2978331,5.14218658 6.88105118,5.70780364 7.10465652,6.43301389 C7.37897649,7.31547037 7.09082527,8.29415216 6.39465191,8.85976922 C5.91747349,9.24232349 5.41263255,9.39722277 4.79022591,9.34793663 Z M5.35730751,8.587522 C6.0373444,8.42323489 6.53757492,7.73557598 6.48916551,7.0291414 C6.46380821,6.6254645 6.33241125,6.3414825 6.03964961,6.04341874 C5.89903181,5.90260121 5.79760258,5.82280462 5.69156293,5.76882456 C5.4011065,5.62566008 5.33656063,5.61157833 5,5.61157833 C4.66343937,5.61157833 4.5988935,5.62566008 4.30843707,5.76882456 C4.10096819,5.87209075 3.79437529,6.18423626 3.68142001,6.40719734 C3.45781466,6.85077254 3.44628861,7.31547037 3.65145228,7.75200469 C3.9626556,8.41854097 4.65421853,8.75884999 5.35730751,8.587522 Z" id="Shape"></path>
                </g>
            </g>
        </g>
    </g>
</svg>