<?xml version="1.0" encoding="UTF-8"?>
<svg width="13px" height="10px" viewBox="0 0 13 10" version="1.1" xmlns="http://www.w3.org/2000/svg" xmlns:xlink="http://www.w3.org/1999/xlink">
    <!-- Generator: Sketch 64 (93537) - https://sketch.com -->
    <title>ic_mail</title>
    <desc>Created with Sketch.</desc>
    <g id="web" stroke="none" stroke-width="1" fill="none" fill-rule="evenodd" opacity="0.61046782">
        <g id="ic_mail" transform="translate(1.000000, 1.000000)" fill="#000000" stroke="#000000">
            <g id="envelope-(3)">
                <g fill-rule="nonzero" stroke-width="0.2">
                    <g id="Group" transform="translate(5.500000, 4.000000) scale(-1, 1) rotate(-180.000000) translate(-5.500000, -4.000000) translate(0.000000, -0.000000)">
                        <path d="M0.623976608,7.9625 C0.407407407,7.88333333 0.255165692,7.76666667 0.141520468,7.59375 C-0.00857699805,7.36458333 0.00214424951,7.63958333 0.00214424951,4 C0.00214424951,0.358333333 -0.00857699805,0.633333333 0.141520468,0.40625 C0.259454191,0.229166667 0.426705653,0.102083333 0.632553606,0.0354166667 C0.731189084,0.00208333333 1.11500975,0 5.491423,0 C9.85925926,0 10.2516569,0.00208333333 10.3502924,0.0354166667 C10.6269006,0.125 10.8499025,0.341666667 10.9442495,0.6125 C10.9785575,0.70625 10.9807018,0.991666667 10.9807018,4 C10.9807018,7.00833333 10.9785575,7.29375 10.9442495,7.3875 C10.8499025,7.65833333 10.6269006,7.875 10.3502924,7.96458333 C10.2516569,7.99791667 9.86140351,8 5.482846,7.99791667 C1.08499025,7.99791667 0.714035088,7.99375 0.623976608,7.9625 Z M10.1230019,7.53125 C10.1230019,7.51875 6.59356725,4.38541667 5.85594542,3.74375 C5.67368421,3.58541667 5.54502924,3.54375 5.37777778,3.59166667 C5.2962963,3.61458333 5.22553606,3.65833333 5.12690058,3.74375 C4.38927875,4.38541667 0.859844055,7.51875 0.859844055,7.53125 C0.859844055,7.5375 2.94405458,7.54166667 5.491423,7.54166667 C8.03879142,7.54166667 10.1230019,7.5375 10.1230019,7.53125 Z M2.29220273,5.61458333 C3.26783626,4.74791667 4.06764133,4.03333333 4.07194678,4.02291667 C4.07407407,4.01458333 3.87251462,3.82916667 3.62163743,3.6125 C3.02339181,3.09791667 2.06920078,2.24375 1.20292398,1.45 C0.819103314,1.1 0.499610136,0.8125 0.491033138,0.8125 C0.480311891,0.8125 0.473879142,2.24791667 0.473879142,4 C0.473879142,6.15833333 0.480311891,7.1875 0.495321637,7.1875 C0.508187135,7.1875 1.3165692,6.47916667 2.29220273,5.61458333 Z M10.5089669,4 C10.5089669,2.24791667 10.5025341,0.8125 10.4918129,0.8125 C10.4832359,0.8125 10.1637427,1.1 9.77992203,1.45 C8.91364522,2.24375 7.95945419,3.09791667 7.36120858,3.6125 C7.11033138,3.82916667 6.90877193,4.01458333 6.91089923,4.02291667 C6.92378168,4.05625 10.4553606,7.18542165 10.4832359,7.18542165 C10.5025341,7.1875 10.5089669,6.5375 10.5089669,4 Z M4.69805068,3.48333333 C5.02612086,3.19583333 5.21695906,3.10416667 5.491423,3.10416667 C5.76588694,3.10416667 5.95672515,3.19583333 6.28693957,3.48333333 C6.43489279,3.61458333 6.53138402,3.68333333 6.54853801,3.675 C6.66432749,3.60625 7.8994152,2.51458333 9.21812865,1.31458333 L10.1465887,0.46875 L7.82007797,0.4625 C6.53781676,0.460416667 4.44502924,0.460416667 3.16491228,0.4625 L0.83625731,0.46875 L1.63606238,1.19791667 C2.90331384,2.35625 4.41072125,3.6875 4.45360624,3.6875 C4.46003899,3.6875 4.56939571,3.59583333 4.69805068,3.48333333 Z" id="Shape"></path>
                    </g>
                </g>
            </g>
        </g>
    </g>
</svg>