<?xml version="1.0" encoding="UTF-8"?>
<svg width="26px" height="26px" viewBox="0 0 26 26" version="1.1" xmlns="http://www.w3.org/2000/svg" xmlns:xlink="http://www.w3.org/1999/xlink">
    <!-- Generator: Sketch 64 (93537) - https://sketch.com -->
    <title>ic_twitter</title>
    <desc>Created with Sketch.</desc>
    <g id="web" stroke="none" stroke-width="1" fill="none" fill-rule="evenodd" opacity="0.65187872">
        <g id="ic_twitter" transform="translate(-0.668660, 0.000000)" fill="#000000" fill-rule="nonzero">
            <g id="twitter">
                <g id="ic_twitter">
                    <path d="M13.2238235,0.964123204 C6.31493074,0.964123204 0.712253768,6.56680018 0.712253768,13.475693 C0.712253768,20.3845857 6.31493074,25.9872627 13.2238235,25.9872627 C20.1327163,25.9872627 25.7353933,20.3845857 25.7353933,13.475693 C25.7353933,6.56680018 20.1327163,0.964123204 13.2238235,0.964123204 Z M18.9364655,10.7193141 C18.9420019,10.842452 18.9446747,10.9661626 18.9446747,11.0904459 C18.9446747,14.8851919 16.0561851,19.2610721 10.7738575,19.261263 L10.7740484,19.261263 L10.7738575,19.261263 C9.1520651,19.261263 7.64291047,18.7858937 6.37201326,17.9712747 C6.59671597,17.9978114 6.82542781,18.0109843 7.05700333,18.0109843 C8.4025469,18.0109843 9.64079829,17.5520332 10.6238011,16.7817057 C9.36664952,16.7584145 8.3067094,15.9281409 7.94092315,14.7870634 C8.1159889,14.8206638 8.29601837,14.8389913 8.4806297,14.8389913 C8.74275105,14.8389913 8.99666319,14.8036727 9.23797521,14.7378083 C7.92393205,14.4747323 6.93405644,13.3134183 6.93405644,11.9228196 C6.93405644,11.9098376 6.93405644,11.898192 6.93443823,11.8861646 C7.32141566,12.1013217 7.76394827,12.2307597 8.23511762,12.245269 C7.46402649,11.7307627 6.9571567,10.8512339 6.9571567,9.85486725 C6.9571567,9.32871547 7.09938569,8.8357822 7.34604322,8.41138614 C8.76222404,10.1490618 10.8786678,11.2918574 13.2654422,11.4119407 C13.2161871,11.2015563 13.1907959,10.98239 13.1907959,10.7571146 C13.1907959,9.17178627 14.476966,7.88561615 16.062867,7.88561615 C16.8889407,7.88561615 17.6350224,8.2347931 18.1590742,8.79301804 C18.8133276,8.66396193 19.4276805,8.42494086 19.9826599,8.0960005 C19.7678846,8.76629045 19.3127518,9.32871547 18.719781,9.68438337 C19.3007244,9.61489162 19.8543675,9.46082611 20.3688737,9.23211427 C19.984569,9.80809396 19.4971722,10.3140092 18.9364655,10.7193141 Z" id="Shape"></path>
                </g>
            </g>
        </g>
    </g>
</svg>