<?xml version="1.0" encoding="UTF-8"?>
<svg width="26px" height="26px" viewBox="0 0 26 26" version="1.1" xmlns="http://www.w3.org/2000/svg" xmlns:xlink="http://www.w3.org/1999/xlink">
    <!-- Generator: Sketch 64 (93537) - https://sketch.com -->
    <title>linkedin</title>
    <desc>Created with Sketch.</desc>
    <g id="web" stroke="none" stroke-width="1" fill="none" fill-rule="evenodd" opacity="0.735700335">
        <g id="linkedin" fill="#0F0E0E" fill-rule="nonzero">
            <g id="Group" transform="translate(13.000000, 13.000000) scale(-1, 1) rotate(-180.000000) translate(-13.000000, -13.000000) translate(0.000000, -0.000000)">
                <path d="M11.3496094,25.9238281 C9.00351563,25.6191406 6.85546875,24.7203125 4.9765625,23.2679687 C4.38242188,22.8058594 3.371875,21.8105469 2.87929688,21.2011719 C1.47773438,19.4644531 0.5484375,17.4128906 0.15234375,15.1785156 C0.01015625,14.3863281 -0.045703125,12.4820312 0.045703125,11.6136719 C0.462109375,7.72382812 2.61015625,4.225 5.91601563,2.06679687 C7.56132813,0.9953125 9.41484375,0.319921875 11.4257813,0.07109375 C12.1976563,-0.025390625 13.8226563,-0.0203125 14.625,0.076171875 C20.515625,0.807421875 25.1925781,5.484375 25.9238281,11.375 C26.0253906,12.1976562 26.0253906,13.8023437 25.9238281,14.625 C25.4566406,18.403125 23.3390625,21.7902344 20.1347656,23.8976562 C18.4640625,24.9945312 16.6054688,25.675 14.625,25.9238281 C13.853125,26.0152344 12.0808594,26.0152344 11.3496094,25.9238281 Z M8.36367187,20.3074219 C8.76484375,20.1550781 9.140625,19.784375 9.29296875,19.3730469 C9.50625,18.7941406 9.35898438,18.0984375 8.92734375,17.6871094 C8.62265625,17.3925781 8.25195312,17.2503906 7.759375,17.225 C7.22617188,17.1996094 6.88085938,17.2910156 6.5203125,17.5652344 C5.525,18.3167969 5.78398438,19.90625 6.9671875,20.3175781 C7.353125,20.4496094 7.9828125,20.4445312 8.36367187,20.3074219 Z M17.8953125,15.9707031 C18.4792969,15.8488281 19.053125,15.5339844 19.4796875,15.1074219 C19.784375,14.8027344 19.8910156,14.6453125 20.0992188,14.2136719 C20.5867187,13.2082031 20.6171875,12.8984375 20.6171875,9.25742187 L20.6171875,6.34765625 L19.0734375,6.34765625 L17.5246094,6.34765625 L17.5042969,9.20664062 C17.4839844,12.309375 17.4789063,12.3550781 17.1894531,12.8933594 C16.9,13.4214844 16.453125,13.6398437 15.7472656,13.5992187 C15.1074219,13.5585937 14.6046875,13.2132812 14.2847656,12.59375 L14.1425781,12.3144531 L14.1273438,9.33359375 L14.1121094,6.34765625 L12.5683594,6.34765625 L11.0195313,6.34765625 L11.0195313,11.0957031 L11.0195313,15.84375 L12.5683594,15.84375 L14.1171875,15.84375 L14.1171875,15.1835937 C14.1171875,14.8230469 14.1324219,14.5234375 14.1578125,14.5234375 C14.178125,14.5234375 14.2695313,14.6402344 14.3660156,14.7824219 C14.7316406,15.315625 15.4171875,15.7878906 16.0976563,15.965625 C16.4632813,16.0621094 17.4484375,16.0671875 17.8953125,15.9707031 Z M9.19140625,11.0957031 L9.19140625,6.34765625 L7.64257813,6.34765625 L6.09375,6.34765625 L6.09375,11.0957031 L6.09375,15.84375 L7.64257813,15.84375 L9.19140625,15.84375 L9.19140625,11.0957031 Z" id="Shape"></path>
            </g>
        </g>
    </g>
</svg>