<?xml version="1.0" encoding="UTF-8"?>
<svg width="500px" height="373px" viewBox="0 0 500 373" version="1.1" xmlns="http://www.w3.org/2000/svg" xmlns:xlink="http://www.w3.org/1999/xlink">
    <!-- Generator: Sketch 64 (93537) - https://sketch.com -->
    <title>minimum order)</title>
    <desc>Created with Sketch.</desc>
    <g id="z" stroke="none" stroke-width="1" fill="none" fill-rule="evenodd">
        <g id="minimum-order)">
            <g id="freepik--background-complete--inject-49" fill-rule="nonzero">
                <rect id="Rectangle" fill="#EBEBEB" x="0" y="327.4" width="500" height="1"></rect>
                <rect id="Rectangle" fill="#EBEBEB" x="416.78" y="343.49" width="33.12" height="1"></rect>
                <rect id="Rectangle" fill="#EBEBEB" x="322.53" y="346.21" width="8.69" height="1"></rect>
                <rect id="Rectangle" fill="#EBEBEB" x="396.59" y="334.21" width="19.19" height="1"></rect>
                <rect id="Rectangle" fill="#EBEBEB" x="52.46" y="335.89" width="43.19" height="1"></rect>
                <rect id="Rectangle" fill="#EBEBEB" x="104.56" y="335.89" width="6.33" height="1"></rect>
                <rect id="Rectangle" fill="#EBEBEB" x="131.47" y="340.11" width="93.68" height="1"></rect>
                <path d="M237,282.8 L43.91,282.8 C40.76036,282.794484 38.21,280.239645 38.21,277.09 L38.21,5.66 C38.2374055,2.5298918 40.7797764,0.00536203973 43.91,1.42108547e-14 L237,1.42108547e-14 C240.153546,1.42108547e-14 242.71,2.55645408 242.71,5.71 L242.71,277.09 C242.71,280.243546 240.153546,282.8 237,282.8 Z M43.91,0.2 C40.8984312,0.205515703 38.46,2.6484262 38.46,5.66 L38.46,277.09 C38.46,280.101574 40.8984312,282.544484 43.91,282.55 L237,282.55 C240.013192,282.544496 242.454496,280.103192 242.46,277.09 L242.46,5.66 C242.454496,2.64680786 240.013192,0.205503561 237,0.2 L43.91,0.2 Z" id="Shape" fill="#EBEBEB"></path>
                <path d="M453.31,282.8 L260.21,282.8 C257.058737,282.794496 254.505504,280.241263 254.5,277.09 L254.5,5.66 C254.532848,2.52828036 257.078113,0.00530307708 260.21,-7.10542736e-15 L453.31,-7.10542736e-15 C456.436323,0.0108307119 458.972643,2.53377766 459,5.66 L459,277.09 C459,280.235752 456.455733,282.788982 453.31,282.8 Z M260.21,0.2 C257.196808,0.205503561 254.755504,2.64680786 254.75,5.66 L254.75,277.09 C254.755504,280.103192 257.196808,282.544496 260.21,282.55 L453.31,282.55 C456.323192,282.544496 458.764496,280.103192 458.77,277.09 L458.77,5.66 C458.764496,2.64680786 456.323192,0.205503561 453.31,0.2 L260.21,0.2 Z" id="Shape" fill="#EBEBEB"></path>
                <rect id="Rectangle" fill="#EBEBEB" x="92.03" y="230.87" width="126.42" height="8.92"></rect>
                <rect id="Rectangle" fill="#E0E0E0" x="163.48" y="230.87" width="54.97" height="8.92"></rect>
                <rect id="Rectangle" fill="#EBEBEB" x="92.03" y="239.79" width="18.68" height="87.61"></rect>
                <polygon id="Path" fill="#E0E0E0" points="110.71 248.83 92.03 242.47 92.03 239.79 110.71 239.79"></polygon>
                <rect id="Rectangle" fill="#E0E0E0" x="199.77" y="239.79" width="18.68" height="87.61"></rect>
                <rect id="Rectangle" fill="#EBEBEB" x="163.48" y="239.79" width="18.68" height="87.61"></rect>
                <polygon id="Path" fill="#E0E0E0" points="182.15 248.83 163.48 242.47 163.48 239.79 182.15 239.79"></polygon>
                <rect id="Rectangle" fill="#E0E0E0" x="128.32" y="239.79" width="18.68" height="87.61"></rect>
                <rect id="Rectangle" fill="#EBEBEB" x="71" y="32.17" width="159.33" height="135.67"></rect>
                <rect id="Rectangle" fill="#E0E0E0" transform="translate(231.220000, 99.995000) rotate(180.000000) translate(-231.220000, -99.995000) " x="230.33" y="32.16" width="1.78" height="135.67"></rect>
                <rect id="Rectangle" fill="#F5F5F5" transform="translate(150.675000, 99.995000) rotate(90.000000) translate(-150.675000, -99.995000) " x="88.84" y="26.33" width="123.67" height="147.33"></rect>
                <path d="M148.89,143.06 C157.89,113.06 160.39,68.81 179.53,74.91 C198.67,81.01 173.6,146.44 173.6,146.44 L148.89,143.06 Z" id="Path" fill="#FFFFFF"></path>
                <path d="M164.35,144.55 C155.19,101.07 157.5,43.35 129.04,44.67 C100.58,45.99 129.04,146.44 129.04,146.44 L164.35,144.55 Z" id="Path" fill="#FFFFFF"></path>
                <path d="M184.46,139.67 L122.15,139.67 C119.504654,139.584968 117.279605,141.636463 117.15,144.28 C115.88,172.98 120.58,202.28 129.33,230.87 L177.04,230.87 C185.79,202.23 190.49,172.98 189.22,144.28 C189.118618,141.718934 187.022999,139.689353 184.46,139.67 Z" id="Path" fill="#EBEBEB"></path>
                <rect id="Rectangle" fill="#E0E0E0" x="322.69" y="47.3" width="3.51" height="280.1"></rect>
                <rect id="Rectangle" fill="#E0E0E0" x="405.18" y="47.3" width="3.51" height="280.1"></rect>
                <rect id="Rectangle" fill="#EBEBEB" x="297.8" y="47.3" width="3.51" height="280.1"></rect>
                <rect id="Rectangle" fill="#EBEBEB" x="380.29" y="47.3" width="3.51" height="280.1"></rect>
                <rect id="Rectangle" fill="#EBEBEB" x="297.8" y="45.38" width="110.89" height="3.83"></rect>
                <rect id="Rectangle" fill="#EBEBEB" x="297.8" y="113.97" width="110.89" height="3.83"></rect>
                <rect id="Rectangle" fill="#EBEBEB" x="297.8" y="182.56" width="110.89" height="3.83"></rect>
                <rect id="Rectangle" fill="#EBEBEB" x="297.8" y="251.15" width="110.89" height="3.83"></rect>
                <rect id="Rectangle" fill="#EBEBEB" x="297.8" y="319.74" width="110.89" height="3.83"></rect>
                <rect id="Rectangle" fill="#E0E0E0" x="383.8" y="45.38" width="24.89" height="3.83"></rect>
                <rect id="Rectangle" fill="#E0E0E0" x="383.8" y="113.97" width="24.89" height="3.83"></rect>
                <rect id="Rectangle" fill="#E0E0E0" x="383.8" y="182.56" width="24.89" height="3.83"></rect>
                <rect id="Rectangle" fill="#E0E0E0" x="383.8" y="251.15" width="24.89" height="3.83"></rect>
                <rect id="Rectangle" fill="#E0E0E0" x="383.8" y="319.74" width="24.89" height="3.83"></rect>
                <path d="M342.53,68.71 L342.53,63.31 L329.2,63.31 L329.2,68.71 C329.200004,72.235198 326.345194,75.0944833 322.82,75.1 L322.82,75.1 C319.294802,75.0999957 316.435517,77.9548063 316.43,81.48 L316.43,114 L355.31,114 L355.31,81.48 C355.304483,77.9548063 352.445198,75.0999957 348.92,75.1 L348.92,75.1 C345.3909,75.1 342.53,72.2390996 342.53,68.71 L342.53,68.71 Z" id="Path" fill="#F0F0F0"></path>
                <rect id="Rectangle" fill="#F0F0F0" x="311.7" y="160.26" width="58.42" height="22.31"></rect>
                <rect id="Rectangle" fill="#E6E6E6" transform="translate(375.205000, 171.405000) rotate(180.000000) translate(-375.205000, -171.405000) " x="370.12" y="160.25" width="10.17" height="22.31"></rect>
                <rect id="Rectangle" fill="#EBEBEB" transform="translate(375.205000, 171.410000) rotate(180.000000) translate(-375.205000, -171.410000) " x="370.12" y="170.18" width="10.17" height="2.46"></rect>
                <rect id="Rectangle" fill="#F5F5F5" x="311.7" y="170.18" width="58.42" height="2.46"></rect>
                <rect id="Rectangle" fill="#F0F0F0" x="308.84" y="280.3" width="45.63" height="39.44"></rect>
                <rect id="Rectangle" fill="#E6E6E6" transform="translate(358.440000, 300.030000) rotate(180.000000) translate(-358.440000, -300.030000) " x="354.47" y="280.31" width="7.94" height="39.44"></rect>
                <rect id="Rectangle" fill="#EBEBEB" transform="translate(358.440000, 300.025000) rotate(180.000000) translate(-358.440000, -300.025000) " x="354.47" y="297.85" width="7.94" height="4.35"></rect>
                <rect id="Rectangle" fill="#F5F5F5" x="308.84" y="297.85" width="45.63" height="4.35"></rect>
                <rect id="Rectangle" fill="#EBEBEB" transform="translate(358.440000, 294.025000) rotate(180.000000) translate(-358.440000, -294.025000) " x="354.47" y="293.25" width="7.94" height="1.55"></rect>
                <rect id="Rectangle" fill="#F5F5F5" x="308.84" y="293.25" width="45.63" height="1.55"></rect>
                <rect id="Rectangle" fill="#F0F0F0" x="311.7" y="211.05" width="8.26" height="40.1"></rect>
                <rect id="Rectangle" fill="#FAFAFA" x="311.7" y="225.34" width="8.26" height="11.52"></rect>
                <rect id="Rectangle" fill="#E6E6E6" transform="translate(334.010000, 231.110000) rotate(180.000000) translate(-334.010000, -231.110000) " x="319.96" y="211.06" width="28.1" height="40.1"></rect>
                <rect id="Rectangle" fill="#EBEBEB" x="323.39" y="205.87" width="9.33" height="45.28"></rect>
                <rect id="Rectangle" fill="#FAFAFA" x="323.39" y="220.26" width="9.33" height="6.97"></rect>
                <rect id="Rectangle" fill="#FAFAFA" x="323.39" y="231.9" width="9.33" height="6.97"></rect>
                <rect id="Rectangle" fill="#E0E0E0" transform="translate(348.595000, 228.510000) rotate(180.000000) translate(-348.595000, -228.510000) " x="332.73" y="205.87" width="31.73" height="45.28"></rect>
                <rect id="Rectangle" fill="#F0F0F0" x="338.08" y="211.05" width="5.03" height="40.1"></rect>
                <rect id="Rectangle" fill="#FAFAFA" x="338.94" y="216.13" width="3.3" height="29.94"></rect>
                <rect id="Rectangle" fill="#E6E6E6" transform="translate(351.645000, 231.110000) rotate(180.000000) translate(-351.645000, -231.110000) " x="343.1" y="211.06" width="17.09" height="40.1"></rect>
                <rect id="Rectangle" fill="#EBEBEB" x="350.86" y="208.94" width="5.68" height="42.21"></rect>
                <rect id="Rectangle" fill="#FAFAFA" x="350.86" y="222.35" width="5.68" height="6.5"></rect>
                <rect id="Rectangle" fill="#FAFAFA" x="350.86" y="233.21" width="5.68" height="6.5"></rect>
                <rect id="Rectangle" fill="#E0E0E0" transform="translate(366.190000, 230.045000) rotate(180.000000) translate(-366.190000, -230.045000) " x="356.54" y="208.94" width="19.3" height="42.21"></rect>
                <circle id="Oval" fill="#F5F5F5" transform="translate(345.160374, 147.820421) rotate(-45.000000) translate(-345.160374, -147.820421) " cx="345.160374" cy="147.820421" r="12.44"></circle>
                <circle id="Oval" fill="#EBEBEB" transform="translate(358.930343, 151.612195) rotate(-9.220000) translate(-358.930343, -151.612195) " cx="358.930343" cy="151.612195" r="8.62"></circle>
            </g>
            <g id="freepik--Shadow--inject-49" transform="translate(56.000000, 349.000000)" fill="#F5F5F5" fill-rule="nonzero">
                <ellipse id="freepik--path--inject-49" cx="194" cy="12.24" rx="193.89" ry="11.32"></ellipse>
            </g>
            <g id="freepik--Box--inject-49" transform="translate(114.000000, 266.000000)" fill-rule="nonzero">
                <path d="M12.11,17.69 L140.55,17.69 L140.55,84 C140.55,85.7159507 139.868341,87.3616205 138.654981,88.5749809 C137.441621,89.7883412 135.795951,90.47 134.08,90.47 L18.58,90.47 C16.8640493,90.47 15.2183795,89.7883412 14.0050191,88.5749809 C12.7916588,87.3616205 12.11,85.7159507 12.11,84 L12.11,17.69 Z" id="Path" fill="#E53E37"></path>
                <path d="M12.11,17.69 L103,17.69 L91.82,3.38 C90.59,1.81 87.55,0.54 85.02,0.54 L3.28,0.54 C0.76,0.54 -0.3,1.81 0.93,3.38 L12.11,17.69 Z" id="Path" fill="#E53E37"></path>
                <path d="M12.11,17.69 L103,17.69 L91.82,3.38 C90.59,1.81 87.55,0.54 85.02,0.54 L3.28,0.54 C0.76,0.54 -0.3,1.81 0.93,3.38 L12.11,17.69 Z" id="Path" fill="#000000" opacity="0.2"></path>
                <path d="M140.55,17.69 L49.67,17.69 L60.85,8.36 C62.08,7.36 65.12,6.51 67.65,6.51 L149.38,6.51 C151.91,6.51 152.96,7.34 151.73,8.36 L140.55,17.69 Z" id="Path" fill="#E53E37"></path>
                <path d="M49.67,17.69 L140.55,17.69 L140.55,84 C140.55,85.7159507 139.868341,87.3616205 138.654981,88.5749809 C137.441621,89.7883412 135.795951,90.47 134.08,90.47 L56.14,90.47 C54.4240493,90.47 52.7783795,89.7883412 51.5650191,88.5749809 C50.3516588,87.3616205 49.67,85.7159507 49.67,84 L49.67,17.69 Z" id="Path" fill="#FFFFFF" opacity="0.2"></path>
                <polygon id="Path" fill="#FFFFFF" opacity="0.5" points="23.39 17.69 23.39 63.17 26.53 60.69 28.74 63.17 30.66 60.41 32.63 63.17 35.37 61.1 38.39 63.17 38.39 17.69"></polygon>
            </g>
            <g id="freepik--Character--inject-49" transform="translate(129.000000, 30.000000)">
                <line x1="28.72" y1="154.48" x2="12.57" y2="140.92" id="Path" stroke="#E53E37"></line>
                <line x1="37.09" y1="161.51" x2="32.17" y2="157.37" id="Path" stroke="#E53E37"></line>
                <path d="M85.47,189.89 L138.75,123.3 L67.81,63.74 L20.81,117.67 L13.81,131.16 C13.1074824,131.93417 12.7589858,132.965868 12.8481569,134.007462 C12.937328,135.049056 13.4561159,136.006505 14.28,136.65 L78.28,190.39 C80.4386067,192.129349 83.5729186,191.911385 85.47,189.89 Z" id="Path" fill="#E53E37" fill-rule="nonzero"></path>
                <polygon id="Path" fill="#FFFFFF" fill-rule="nonzero" opacity="0.5" points="48.93 140.78 41.26 153.13 44.35 153.8 45.4 156.66 47.45 156.78 48.4 159.23 50.91 159.96 52.84 163.03 60.51 150.68"></polygon>
                <polygon id="Path" fill="#000000" fill-rule="nonzero" opacity="0.1" points="136.43 121.35 88.65 174.65 20.78 117.67 67.81 63.74"></polygon>
                <polygon id="Path" fill="#E53E37" fill-rule="nonzero" points="136.43 121.35 88.65 174.65 108.43 176.11 155.47 122.18"></polygon>
                <polygon id="Path" fill="#000000" fill-rule="nonzero" opacity="0.3" points="136.43 121.35 88.65 174.65 108.43 176.11 155.47 122.18"></polygon>
                <polygon id="Path" fill="#E53E37" fill-rule="nonzero" points="48.78 62.9 0.99 116.21 20.78 117.67 67.81 63.74"></polygon>
                <polygon id="Path" fill="#000000" fill-rule="nonzero" opacity="0.4" points="48.78 62.9 0.99 116.21 20.78 117.67 67.81 63.74"></polygon>
                <polygon id="Path" fill="#000000" fill-rule="nonzero" opacity="0.1" points="121.72 137.76 136.43 121.35 67.81 63.74 59.03 84.9"></polygon>
                <polygon id="Path" fill="#000000" fill-rule="nonzero" opacity="0.2" points="20.78 117.67 67.81 63.74 59.03 84.9 25.91 121.98"></polygon>
                <path d="M153,21 C153.19,21.64 153,22.27 152.58,22.39 C152.16,22.51 151.67,22.09 151.48,21.45 C151.29,20.81 151.48,20.18 151.9,20.05 C152.32,19.92 152.82,20.36 153,21 Z" id="Path" fill="#263238" fill-rule="nonzero"></path>
                <path d="M153.07,22.26 C152.881479,24.4602965 152.390177,26.6240453 151.61,28.69 C152.692251,29.0653541 153.884925,28.9446233 154.87,28.36 L153.07,22.26 Z" id="Path" fill="#ED847E" fill-rule="nonzero"></path>
                <path d="M154.33,16.73 C154.414912,16.6811781 154.478959,16.602898 154.51,16.51 C154.548042,16.4120497 154.543827,16.3027195 154.498356,16.207989 C154.452886,16.1132585 154.370219,16.041585 154.27,16.01 C153.081278,15.5541386 151.74488,15.7071898 150.69,16.42 C150.550175,16.5618014 150.535957,16.7848622 150.656648,16.9432685 C150.777338,17.1016748 150.996172,17.1471727 151.17,17.05 L151.17,17.05 C152.012655,16.4971896 153.070441,16.3854515 154.01,16.75 C154.114789,16.7882451 154.230788,16.7809951 154.33,16.73 L154.33,16.73 Z" id="Path" fill="#263238" fill-rule="nonzero"></path>
                <path d="M175.24,25.28 C175.68,30.58 176.99,40.28 180.12,42.52 C180.12,42.52 179.38,48.89 168.12,50.52 C155.78,52.34 161.32,45.26 161.32,45.26 C167.81,42.66 166.9,37.69 165.04,33.17 L169.8,27.71 C171.63,25.69 175,22.57 175.24,25.28 Z" id="Path" fill="#FFC3BD" fill-rule="nonzero"></path>
                <path d="M184.15,45.11 C185.15,44.2 183.15,40.56 181.92,40.05 C178.7,38.7 165.53,40.05 160.58,44.3 C159.748345,45.7241983 159.605001,47.4479989 160.19,48.99 L184.15,45.11 Z" id="Path" fill="#FFFFFF" fill-rule="nonzero"></path>
                <path d="M226.09,312.41 C225.433048,312.709337 224.683114,312.73097 224.01,312.47 C223.739999,312.256421 223.632152,311.896934 223.74,311.57 C223.793728,311.30531 223.962256,311.078162 224.2,310.95 C225.28,310.32 227.95,311.15 228.06,311.19 C228.134931,311.209789 228.190332,311.273105 228.2,311.35 C228.210529,311.430814 228.170969,311.509934 228.1,311.55 C227.460936,311.904166 226.787461,312.19232 226.09,312.41 L226.09,312.41 Z M224.63,311.19 L224.4,311.29 C224.261905,311.364997 224.163331,311.49643 224.13,311.65 C224.06,312.01 224.2,312.12 224.24,312.15 C224.72,312.49 226.35,312 227.48,311.43 C226.559278,311.141033 225.58608,311.05908 224.63,311.19 Z" id="Shape" fill="#E53E37" fill-rule="nonzero"></path>
                <path d="M228.06,311.56 C228.027421,311.570026 227.992579,311.570026 227.96,311.56 C226.96,311.36 224.87,310.11 224.76,309.17 C224.727505,308.864745 224.916329,308.57941 225.21,308.49 C225.490033,308.365075 225.809967,308.365075 226.09,308.49 C227.25,308.97 228.15,311.21 228.18,311.3 C228.220445,311.360532 228.220445,311.439468 228.18,311.5 C228.151672,311.537771 228.107214,311.56 228.06,311.56 Z M225.46,308.83 C225.430618,308.821389 225.399382,308.821389 225.37,308.83 C225.14,308.93 225.15,309.05 225.16,309.1 C225.22,309.66 226.64,310.67 227.65,311.04 C227.35,310.39 226.65,309.13 225.94,308.83 C225.785491,308.77072 225.614509,308.77072 225.46,308.83 L225.46,308.83 Z" id="Shape" fill="#E53E37" fill-rule="nonzero"></path>
                <path d="M167.48,323.15 C166.41,323.15 165.38,323 165.03,322.52 C164.846328,322.262754 164.846328,321.917246 165.03,321.66 C165.164751,321.426066 165.388363,321.256554 165.65,321.19 C167.04,320.82 169.96,322.48 170.08,322.55 C170.156233,322.586579 170.19912,322.669133 170.18522,322.752537 C170.171319,322.835941 170.103975,322.900123 170.02,322.91 C169.182295,323.066376 168.332169,323.146703 167.48,323.15 Z M166.16,321.53 C166.03141,321.524907 165.902895,321.541817 165.78,321.58 C165.619789,321.615754 165.47986,321.712628 165.39,321.85 C165.25,322.1 165.3,322.22 165.39,322.29 C165.78,322.83 167.89,322.84 169.39,322.62 C168.393832,322.051475 167.296958,321.681322 166.16,321.53 Z" id="Shape" fill="#E53E37" fill-rule="nonzero"></path>
                <path d="M170,322.92 L169.92,322.92 C168.92,322.47 166.92,320.66 167.07,319.72 C167.07,319.5 167.27,319.22 167.81,319.17 C168.204901,319.125832 168.600242,319.24915 168.9,319.51 C169.97,320.38 170.19,322.63 170.2,322.72 C170.211441,322.790562 170.180043,322.861208 170.12,322.9 C170.083273,322.919638 170.041111,322.926665 170,322.92 L170,322.92 Z M168,319.54 L167.88,319.54 C167.52,319.54 167.5,319.72 167.49,319.76 C167.4,320.33 168.76,321.76 169.78,322.37 C169.692821,321.415961 169.308027,320.513445 168.68,319.79 C168.49255,319.6246 168.249947,319.535407 168,319.54 L168,319.54 Z" id="Shape" fill="#E53E37" fill-rule="nonzero"></path>
                <polygon id="Path" fill="#FFC3BD" fill-rule="nonzero" points="179.18 322.72 170.83 322.72 170 303.4 178.35 303.4"></polygon>
                <polygon id="Path" fill="#FFC3BD" fill-rule="nonzero" points="237.83 309.53 230.14 312.18 222.16 293.97 229.85 291.32"></polygon>
                <path d="M228.31,310.27 L237.31,307.52 C237.638027,307.41952 237.99176,307.561014 238.16,307.86 L241.91,314.46 C242.092413,314.787049 242.115899,315.179384 241.973806,315.525858 C241.831712,315.872333 241.539518,316.135204 241.18,316.24 C238.03,317.15 236.46,317.43 232.52,318.64 C230.09,319.38 223.97,321.7 220.52,322.39 C217.07,323.08 215.96,319.78 217.3,319.19 C223.3,316.54 225.76,313.53 227.19,311.19 C227.439559,310.757784 227.837546,310.430866 228.31,310.27 L228.31,310.27 Z" id="Path" fill="#263238" fill-rule="nonzero"></path>
                <path d="M170.89,321.75 L180,321.75 C180.33938,321.75469 180.632059,321.989657 180.71,322.32 L182.36,329.74 C182.443063,330.102612 182.354712,330.483278 182.120423,330.772235 C181.886134,331.061191 181.531951,331.226317 181.16,331.22 C177.87,331.17 173.16,330.97 168.99,330.97 C164.16,330.97 162.13,331.24 156.46,331.24 C153.04,331.24 152.09,327.78 153.52,327.46 C160.05,326.03 163.24,325.88 168.88,322.4 C169.478119,322.003947 170.173233,321.779159 170.89,321.75 L170.89,321.75 Z" id="Path" fill="#263238" fill-rule="nonzero"></path>
                <path d="M195.14,47.84 C197.57,50.07 199.67,52.3 201.85,54.63 C204.03,56.96 206.05,59.37 208.01,61.94 C210.056999,64.5508997 211.915052,67.3045614 213.57,70.18 C214.474273,71.7648772 215.256535,73.416319 215.91,75.12 C216.08,75.59 216.25,76.04 216.39,76.55 C216.55388,77.0658463 216.690732,77.589892 216.8,78.12 L216.97,78.95 L217.09,79.87 C217.201913,80.7129685 217.201913,81.5670315 217.09,82.41 C216.860454,84.0011968 216.272312,85.5194243 215.37,86.85 C214.711508,87.8217037 213.939379,88.7113304 213.07,89.5 C211.672068,90.7681716 210.14351,91.8844213 208.51,92.83 C205.63254,94.4760638 202.621968,95.8776523 199.51,97.02 C193.606649,99.2112986 187.523666,100.884286 181.33,102.02 L179.58,96.02 C185.01,93.67 190.51,91.13 195.58,88.42 C198.047959,87.1253378 200.423606,85.6618594 202.69,84.04 C203.634022,83.3693189 204.502443,82.5981342 205.28,81.74 C205.516246,81.486293 205.71493,81.2000526 205.87,80.89 C205.95,80.72 205.87,80.74 205.77,81.1 C205.7,81.77 205.71,81.25 205.55,80.89 C205.5,80.72 205.41,80.49 205.32,80.27 C205.23,80.05 205.12,79.8 205.01,79.56 C204.468175,78.4693812 203.863836,77.4109535 203.2,76.39 C201.655487,74.0968734 199.986311,71.8902231 198.2,69.78 C196.36,67.6 194.42,65.43 192.43,63.3 C190.44,61.17 188.35,59.02 186.43,57.04 L195.14,47.84 Z" id="Path" fill="#FFC3BD" fill-rule="nonzero"></path>
                <path d="M181.87,95.07 L174,97.45 L179.06,105.77 C179.06,105.77 183.71,103.85 184.74,99.9 L181.87,95.07 Z" id="Path" fill="#FFC3BD" fill-rule="nonzero"></path>
                <polygon id="Path" fill="#FFC3BD" fill-rule="nonzero" points="170.82 100.4 173.92 107.26 179.01 105.78 173.95 97.45"></polygon>
                <path d="M176.7,50.1 C175.95,58.1 192.87,70.48 192.87,70.48 L209.16,59.33 C206.331105,54.1129055 202.196231,49.7196016 197.16,46.58 C187.82,40.6 177.64,40.16 176.7,50.1 Z" id="Path" fill="#E53E37" fill-rule="nonzero"></path>
                <g id="Group" opacity="0.3" transform="translate(176.000000, 42.000000)" fill="#FFFFFF" fill-rule="nonzero">
                    <path d="M0.7,8.1 C-0.05,16.1 16.87,28.48 16.87,28.48 L33.16,17.33 C30.3311052,12.1129055 26.196231,7.71960158 21.16,4.58 C11.82,-1.4 1.64,-1.84 0.7,8.1 Z" id="Path"></path>
                </g>
                <path d="M149,49.46 C149,49.46 141.69,60.68 159.05,120.86 L203.19,114.34 C202.57,108.24 195.19,81.63 194.94,52.54 C194.919266,49.7012432 193.738994,46.99434 191.673032,45.04735 C189.60707,43.10036 186.834999,42.0825234 184,42.23 C182.72,42.3 181.4,42.39 180.09,42.52 C173.788604,43.0818262 167.524866,44.0066959 161.33,45.29 C157.119045,46.3614121 152.996857,47.7555343 149,49.46 Z" id="Path" fill="#E53E37" fill-rule="nonzero"></path>
                <g id="Group" opacity="0.3" transform="translate(147.000000, 42.000000)" fill="#FFFFFF" fill-rule="nonzero">
                    <path d="M2,7.46 C2,7.46 -5.31,18.68 12.05,78.86 L56.19,72.34 C55.57,66.24 48.19,39.63 47.94,10.54 C47.9192665,7.7012432 46.7389944,4.99434002 44.6730321,3.04735002 C42.6070699,1.10036001 39.8349992,0.0825233658 37,0.23 C35.72,0.3 34.4,0.39 33.09,0.52 C26.7886044,1.08182621 20.524866,2.0066959 14.33,3.29 C10.119045,4.36141213 5.99685655,5.75553426 2,7.46 Z" id="Path"></path>
                </g>
                <path d="M147.92,68.8 L148.07,68.63 L158.45,69.55 C160.03,76.25 154.25,85.39 151.2,89.63 C149.731777,82.7509066 148.636844,75.7974094 147.92,68.8 Z" id="Path" fill="#000000" fill-rule="nonzero" opacity="0.2"></path>
                <polygon id="Path" fill="#000000" fill-rule="nonzero" opacity="0.2" points="170 303.41 170.43 313.37 178.78 313.37 178.35 303.41"></polygon>
                <polygon id="Path" fill="#000000" fill-rule="nonzero" opacity="0.2" points="229.85 291.32 222.16 293.97 226.28 303.36 233.97 300.71"></polygon>
                <path d="M174.15,13.32 C175.99,21.39 177.47,26.02 174.66,31.32 C170.44,39.21 159.58,38.45 155.37,31.09 C151.58,24.46 149.2,12.38 156.04,6.94 C159.087544,4.49310652 163.183129,3.79471685 166.86937,5.09334822 C170.55561,6.39197959 173.309089,9.50323679 174.15,13.32 L174.15,13.32 Z" id="Path" fill="#FFC3BD" fill-rule="nonzero"></path>
                <path d="M157.94,21.23 L154.87,23.11 L155.16,12.61 C153.180566,12.6950032 151.227744,12.1295277 149.6,11 C150.71,9.94 167.99,3.89 173.38,4.94 C173.94,4.71 174.62,3.67 174.62,3.67 C174.62,3.67 174.83,4.98 173.92,5.48 C174.58,5.35 176.23,5.67 176.69,6.64 C175.932832,6.43323317 175.128903,6.47887102 174.4,6.77 C174.4,6.77 180.4,7.68 178.27,16 C175.88,25.17 176.67,30.44 176.67,30.44 C176.67,30.44 172.21,33.89 168.33,33.25 C164.19,28.69 158.21,23.21 157.94,21.23 Z" id="Path" fill="#263238" fill-rule="nonzero"></path>
                <path d="M152.06,10.17 C147.19,10.17 145.44,7.79 144.19,5.79 C147.69,5.42 154.98,3.17 160.39,2.79 C165.8,2.41 171.73,3.42 169.94,5.79 C168.15,8.16 152.06,10.17 152.06,10.17 Z" id="Path" fill="#263238" fill-rule="nonzero"></path>
                <path d="M153.13,8 C149.13,7.44 145.23,3.67 148.23,0.06 C149.34,2.71 156.83,2.4 162.15,1.29 C169.15,-0.17 174,2.19 171.52,6.96 C170.16,9.57 153.13,8 153.13,8 Z" id="Path" fill="#263238" fill-rule="nonzero"></path>
                <path d="M162.26,18.84 C162.832493,20.8145353 162.741152,22.9223893 162,24.84 C161,27.35 158.78,26.84 157.62,24.67 C156.62,22.67 155.86,19.04 157.56,17.23 C159.26,15.42 161.54,16.47 162.26,18.84 Z" id="Path" fill="#FFC3BD" fill-rule="nonzero"></path>
                <path d="M174.71,118.55 C174.71,118.55 181.87,179.5 187.07,203.38 C192.76,229.54 220.83,300.86 220.83,300.86 L234.83,296.02 C234.83,296.02 216.83,242.32 212.05,205.75 C208.38,177.67 203.15,114.34 203.15,114.34 L174.71,118.55 Z" id="Path" fill="#263238" fill-rule="nonzero"></path>
                <path d="M217.25,296.38 C217.18,296.38 220.12,302.38 220.12,302.38 L236.47,297.07 L234.55,292.19 L217.25,296.38 Z" id="Path" fill="#E53E37" fill-rule="nonzero"></path>
                <path d="M178.66,149.82 C180.9,166.76 183.77,186.82 186.29,199.63 C190,180 190.87,155.21 178.66,149.82 Z" id="Path" fill="#000000" fill-rule="nonzero" opacity="0.3"></path>
                <path d="M159.05,120.86 C159.05,120.86 153.11,178.12 154.05,203.56 C154.99,230.02 167.35,311.44 167.35,311.44 L181.48,311.44 C181.48,311.44 178.88,231.56 179.48,205.58 C180.17,177.25 190.79,116.17 190.79,116.17 L159.05,120.86 Z" id="Path" fill="#263238" fill-rule="nonzero"></path>
                <path d="M164.6,305.81 C164.54,305.81 165.4,311.67 165.4,311.67 L182.59,311.67 L183.06,306.44 L164.6,305.81 Z" id="Path" fill="#E53E37" fill-rule="nonzero"></path>
                <path d="M156.31,63.52 C154.75,66 153.17,68.23 151.53,70.52 C149.89,72.81 148.17,75.02 146.42,77.22 C142.852573,81.682968 138.987066,85.8992768 134.85,89.84 C133.73,90.84 132.7,91.84 131.49,92.75 L130.61,93.46 L130.17,93.81 C130.01,93.94 129.94,94.01 129.61,94.25 C128.619289,94.956645 127.531288,95.5158033 126.38,95.91 C124.597255,96.5188053 122.733055,96.855912 120.85,96.91 C119.256962,96.9634517 117.662177,96.893241 116.08,96.7 C110.296134,95.941673 104.653567,94.3449108 99.33,91.96 L101.06,85.96 C106.176365,86.5670299 111.329019,86.8143038 116.48,86.7 C117.61936,86.6403352 118.754476,86.5168078 119.88,86.33 C120.728128,86.206068 121.551508,85.9496055 122.32,85.57 C122.56,85.44 122.69,85.31 122.66,85.28 C122.63,85.25 122.79,85.15 122.88,85.06 L123.22,84.75 L123.89,84.12 C124.79,83.32 125.64,82.35 126.52,81.47 C128.25,79.61 129.97,77.7 131.6,75.67 C133.23,73.64 134.88,71.6 136.48,69.5 C138.08,67.4 139.63,65.27 141.19,63.14 C142.75,61.01 144.27,58.77 145.71,56.7 L156.31,63.52 Z" id="Path" fill="#FFC3BD" fill-rule="nonzero"></path>
                <path d="M162.12,60.87 C165.48,71.87 145.97,84.06 145.97,84.06 L133.29,67.91 C136.148021,62.5848489 139.676769,57.6479623 143.79,53.22 C152.42,43.83 159.56,52.5 162.12,60.87 Z" id="Path" fill="#E53E37" fill-rule="nonzero"></path>
                <g id="Group" opacity="0.3" transform="translate(133.000000, 49.000000)" fill="#FFFFFF" fill-rule="nonzero">
                    <path d="M29.12,11.87 C32.48,22.87 12.97,35.06 12.97,35.06 L0.29,18.91 C3.14802102,13.5848489 6.67676916,8.64796228 10.79,4.22 C19.42,-5.17 26.56,3.5 29.12,11.87 Z" id="Path"></path>
                </g>
                <path d="M104,86.33 L93.73,84.45 L94.81,93.33 C94.81,93.33 100.15,96.33 104.02,91.64 L104,86.33 Z" id="Path" fill="#FFC3BD" fill-rule="nonzero"></path>
                <polygon id="Path" fill="#FFC3BD" fill-rule="nonzero" points="89.77 86.45 91.99 92.86 94.79 93.33 93.71 84.45"></polygon>
            </g>
        </g>
    </g>
</svg>