<?xml version="1.0" encoding="UTF-8"?>
<svg width="40px" height="38px" viewBox="0 0 40 38" version="1.1" xmlns="http://www.w3.org/2000/svg" xmlns:xlink="http://www.w3.org/1999/xlink">
    <!-- Generator: Sketch 64 (93537) - https://sketch.com -->
    <title>% off</title>
    <desc>Created with Sketch.</desc>
    <g id="web" stroke="none" stroke-width="1" fill="none" fill-rule="evenodd">
        <g id="%-off">
            <g id="hnrn2">
                <polygon id="Path" fill="#FFFFFF" fill-rule="nonzero" points="40 18.9875082 34.4871795 22.2353715 38 27.4569362 31.6153846 28.0315582 32.4615385 34.2274819 26.4358974 32.0539119 24.4358974 38 20 33.477975 15.5384615 38 13.5384615 32.0539119 7.51282051 34.2274819 8.35897436 28.0315582 1.97435897 27.4569362 5.48717949 22.2353715 0 18.9875082 5.48717949 15.7646285 1.97435897 10.5430638 8.35897436 9.96844181 7.51282051 3.77251808 13.5384615 5.9460881 15.5384615 0 20 4.49704142 24.4358974 0 26.4358974 5.9460881 32.4615385 3.77251808 31.6153846 9.96844181 38 10.5430638 34.4871795 15.7646285"></polygon>
                <polygon id="Path" fill="#EC5837" points="40 18.9875082 34.4871795 22.2353715 38 27.4569362 31.6153846 28.0315582 32.4615385 34.2274819 26.4358974 32.0539119 24.4358974 38 20 33.477975 15.5384615 38 13.5384615 32.0539119 7.51282051 34.2274819 8.35897436 28.0315582 1.97435897 27.4569362 5.48717949 22.2353715 0 18.9875082 5.48717949 15.7646285 1.97435897 10.5430638 8.35897436 9.96844181 7.51282051 3.77251808 13.5384615 5.9460881 15.5384615 0 20 4.49704142 24.4358974 0 26.4358974 5.9460881 32.4615385 3.77251808 31.6153846 9.96844181 38 10.5430638 34.4871795 15.7646285"></polygon>
            </g>
        </g>
    </g>
</svg>