<?xml version="1.0" encoding="UTF-8"?>
<svg width="33px" height="33px" viewBox="0 0 33 33" version="1.1" xmlns="http://www.w3.org/2000/svg" xmlns:xlink="http://www.w3.org/1999/xlink">
    <!-- Generator: Sketch 64 (93537) - https://sketch.com -->
    <title>original (1)</title>
    <desc>Created with Sketch.</desc>
    <g id="web" stroke="none" stroke-width="1" fill="none" fill-rule="evenodd">
        <g id="original-(1)" fill="#000000" fill-rule="nonzero">
            <g id="Group" transform="translate(16.500000, 16.500000) scale(-1, 1) rotate(-180.000000) translate(-16.500000, -16.500000) translate(0.000000, -0.000000)">
                <path d="M24.2988281,31.6142578 L22.9066406,30.2285156 L21.9269531,30.2736328 L20.9472656,30.3123047 L20.0642578,31.1373047 C18.8525391,32.2652344 18.9685547,32.2458984 17.6472656,31.6142578 C17.0671875,31.3435547 16.5515625,31.1050781 16.4935547,31.0857422 C16.4419922,31.0728516 15.9263672,31.2791016 15.3527344,31.5433594 C13.9476562,32.2007812 13.9734375,32.2007812 13.1613281,31.4595703 C12.8197266,31.14375 12.4136719,30.7570313 12.2589844,30.6023437 L11.9882812,30.31875 L10.7507813,30.4734375 C9.63574219,30.6152344 9.49394531,30.6152344 9.31347656,30.5314453 C9.15234375,30.4541016 8.99765625,30.2285156 8.52070312,29.3455078 L7.92773438,28.25625 L6.78691406,28.0435547 C5.54941406,27.8115234 5.34960938,27.740625 5.24003906,27.5085937 C5.2078125,27.4248047 5.07890625,26.8447266 4.95644531,26.2130859 L4.74375,25.0658203 L3.65449219,24.4728516 C2.77792969,23.9958984 2.54589844,23.8412109 2.46855469,23.6865234 C2.38476562,23.5060547 2.39121094,23.3578125 2.5265625,22.2492188 L2.68125,21.0117188 L2.39765625,20.7410156 C2.24296875,20.5863281 1.85625,20.1802734 1.54042969,19.8386719 C0.79921875,19.0265625 0.79921875,19.0523438 1.45664063,17.6472656 C1.72089844,17.0736328 1.92714844,16.5580078 1.91425781,16.5064453 C1.89492187,16.4484375 1.65644531,15.9328125 1.38574219,15.3527344 C0.90234375,14.3408203 0.889453125,14.2957031 0.960351562,14.0636719 C1.01191406,13.9025391 1.31484375,13.5287109 1.87558594,12.9228516 L2.71347656,12.0205078 L2.66835938,10.9892578 L2.6296875,9.95800781 L1.31484375,8.63027344 L0,7.30898438 L0,6.99316406 L0,6.67089844 L3.33867187,3.33867187 L6.67089844,0 L6.99316406,0 L7.30898438,0 L8.79785156,1.48242188 C9.61640625,2.30097656 10.2996094,2.96484375 10.3253906,2.96484375 C10.3511719,2.96484375 10.6089844,2.65546875 10.8990234,2.27519531 C11.1955078,1.88847656 11.4791016,1.546875 11.5306641,1.50175781 C11.7626953,1.32773438 11.9753906,1.34707031 13.1419922,1.68222656 L14.3150391,2.01738281 L15.3269531,1.33417969 C16.6675781,0.425390625 16.5515625,0.425390625 17.8792969,1.32773438 L18.8847656,2.00449219 L20.00625,1.68222656 C20.625,1.50175781 21.2115234,1.35351562 21.3210937,1.35351562 C21.5982422,1.35351562 21.7851562,1.53398437 22.5521484,2.53300781 L23.2289062,3.403125 L24.4535156,3.44824219 C25.7167969,3.49980469 25.9746094,3.55136719 26.0712891,3.78339844 C26.0970703,3.84785156 26.3033203,4.38925781 26.5224609,4.98867188 L26.9220703,6.07792969 L28.0113281,6.47753906 C28.6107422,6.69667969 29.1521484,6.90292969 29.2166016,6.92871094 C29.4486328,7.02539062 29.5066406,7.28320312 29.5517578,8.54648438 L29.596875,9.77753906 L30.4669922,10.4478516 C31.4724609,11.2212891 31.6464844,11.4017578 31.6464844,11.6853516 C31.6464844,11.8013672 31.4982422,12.3878906 31.3177734,13.0001953 L30.9955078,14.1087891 L31.6722656,15.1207031 C32.5746094,16.4484375 32.5746094,16.3388672 31.6658203,17.6730469 L30.9826172,18.6849609 L31.3177734,19.8580078 C31.6529297,21.0246094 31.6722656,21.2373047 31.4982422,21.4628906 C31.453125,21.5208984 31.1115234,21.8044922 30.73125,22.1009766 C30.3445312,22.3974609 30.0351562,22.6617188 30.0351562,22.6810547 C30.0351562,22.7003906 30.7054687,23.3835937 31.5175781,24.2021484 L33,25.6910156 L33,26.0068359 L33,26.3291016 L29.6613281,29.6613281 L26.3291016,33 L26.0068359,33 L25.6910156,33 L24.2988281,31.6142578 Z M26.2324219,20.8505859 L21.0761719,15.6943359 L21.0761719,15.4171875 C21.0761719,15.0691406 21.1535156,14.9208984 21.4113281,14.7855469 C21.8625,14.5535156 21.8753906,14.5599609 24.2730469,16.9576172 L26.4773437,19.1619141 L26.5482422,18.9105469 C26.8833984,17.7310547 26.9478516,15.7974609 26.6964844,14.5148438 C25.8521484,10.2867188 22.7132813,7.14785156 18.4851562,6.30351562 C17.2025391,6.05214844 15.2689453,6.11660156 14.0894531,6.45175781 L13.8380859,6.52265625 L16.0359375,8.72050781 C18.3820312,11.0730469 18.4142578,11.1117187 18.2402344,11.5371094 C18.1435547,11.7755859 17.8792969,11.9238281 17.5505859,11.9238281 C17.3121094,11.9238281 17.1638672,11.7820312 12.1494141,6.76757812 L6.99316406,1.61132812 L4.29902344,4.30546875 L1.61132812,6.99316406 L13.8058594,19.1876953 L26.0068359,31.3886719 L28.6945313,28.7009766 L31.3886719,26.0068359 L26.2324219,20.8505859 Z M15.2173828,30.0867187 C15.8619141,29.7837891 16.2873047,29.6226562 16.4355469,29.6226562 C16.5837891,29.6226562 17.0027344,29.7902344 17.6214844,30.0867187 C18.15,30.3445312 18.6011719,30.5507812 18.6205078,30.5507812 C18.6462891,30.5507812 19.0265625,30.215625 19.4648438,29.803125 C19.9095703,29.390625 20.3349609,29.0296875 20.41875,28.9974609 C20.5025391,28.9652344 20.8054687,28.9394531 21.0955078,28.9394531 L21.6240234,28.9394531 L20.8828125,28.2046875 L20.1416016,27.4699219 L19.5486328,27.6181641 C17.7503906,28.0822266 15.5332031,28.0951172 13.7994141,27.6503906 C9.91289062,26.6578125 6.8578125,23.8283203 5.61386719,20.0771484 C5.19492188,18.8203125 5.08535156,18.1822266 5.04667969,16.7578125 C5.00800781,15.3785156 5.08535156,14.5921875 5.37539062,13.4578125 L5.53007813,12.8583984 L4.7953125,12.1171875 L4.06054688,11.3759766 L4.06054688,11.9044922 C4.06054688,12.1945313 4.03476563,12.4974609 4.00253906,12.58125 C3.9703125,12.6650391 3.609375,13.0904297 3.196875,13.5351562 C2.784375,13.9734375 2.44921875,14.3537109 2.44921875,14.3794922 C2.44921875,14.3988281 2.65546875,14.85 2.91328125,15.3785156 C3.20976563,15.9972656 3.37734375,16.4162109 3.37734375,16.5644531 C3.37734375,16.7126953 3.21621094,17.1380859 2.91328125,17.7826172 L2.44921875,18.7816406 L2.65546875,19.0072266 C2.77148438,19.1361328 3.11953125,19.5035156 3.42890625,19.8193359 C3.75117187,20.1609375 4.00898437,20.4832031 4.03476563,20.5927734 C4.0734375,20.7539062 3.93164062,22.2363281 3.82207031,22.8228516 C3.78984375,22.9839844 3.84785156,23.0226563 4.73730469,23.4996094 C5.259375,23.7767578 5.74921875,24.0732422 5.83300781,24.1570312 C5.95546875,24.2794922 6.01992187,24.5115234 6.20039063,25.4460937 L6.41953125,26.5869141 L7.50234375,26.7867187 C8.10175781,26.9027344 8.65605469,27.0316406 8.73984375,27.0703125 C8.83007812,27.121875 9.08789062,27.5150391 9.39082031,28.0822266 C9.66796875,28.5914062 9.92578125,29.0490234 9.95800781,29.1005859 C10.0160156,29.184375 10.1642578,29.1779297 11.1181641,29.0554687 C11.7240234,28.978125 12.2976562,28.9394531 12.3943359,28.9652344 C12.4974609,28.9910156 12.9228516,29.3390625 13.3869141,29.7773438 C13.8380859,30.2027344 14.2119141,30.5507812 14.2183594,30.5507812 C14.2248047,30.5507812 14.6759766,30.3445312 15.2173828,30.0867187 Z M18.0919922,26.5224609 C18.459375,26.4644531 18.8203125,26.4 18.8847656,26.3742188 C18.9943359,26.3355469 18.0017578,25.3171875 12.8326172,20.1480469 L6.6515625,13.9669922 L6.58710937,14.2828125 C6.32929687,15.4816406 6.32285156,17.2347656 6.56777344,18.4142578 C6.98027344,20.3800781 7.95351562,22.1912109 9.384375,23.615625 C10.2029297,24.440625 11.0279297,25.0271484 12.0849609,25.5492188 C13.2064453,26.1035156 14.2376953,26.4193359 15.4365234,26.5740234 C15.9521484,26.6449219 17.4796875,26.6126576 18.0919922,26.5224609 Z M29.5582031,21.2630859 C29.8417969,21.0503906 30.0867188,20.8505859 30.1125,20.8248047 C30.1447266,20.7990234 30.0351562,20.3285156 29.8740234,19.7742188 C29.7128906,19.2134766 29.5839844,18.6527344 29.5839844,18.5173828 C29.5839844,18.3175781 29.6935547,18.1177734 30.2027344,17.3765625 C30.5378906,16.8802734 30.8279297,16.4613281 30.8408203,16.4355469 C30.8537109,16.4097656 30.5765625,15.9585938 30.2285156,15.4300781 C29.7386719,14.7017578 29.5839844,14.4181641 29.5839844,14.2570313 C29.5839844,14.1410156 29.7128906,13.6060547 29.8740234,13.0710938 C30.0351562,12.5296875 30.1640625,12.0591797 30.1640625,12.0269531 C30.1640625,11.9882812 29.7580078,11.6402344 29.2681641,11.2535156 C28.6300781,10.7572266 28.3464844,10.4994141 28.3013672,10.3576172 C28.2626953,10.2544922 28.2240234,9.85488281 28.2240234,9.48105469 C28.2175781,9.10722656 28.1982422,8.6109375 28.1724609,8.38535156 L28.1337891,7.97929688 L27.0703125,7.59257813 C26.4837891,7.38632813 25.9552734,7.16074219 25.8972656,7.10273438 C25.8392578,7.04472656 25.6136719,6.51621094 25.4074219,5.9296875 L25.0207031,4.86621094 L24.646875,4.82753906 C24.4341797,4.80175781 23.9443359,4.78242188 23.5511719,4.77597656 C23.1580078,4.76953125 22.7455078,4.73730469 22.6423828,4.69863281 C22.5005859,4.65351563 22.2427734,4.36992188 21.7464844,3.73183594 C21.3597656,3.24199219 21.0181641,2.8359375 20.9859375,2.8359375 C20.9537109,2.8359375 20.4832031,2.96484375 19.9353516,3.12597656 C19.3939453,3.28710938 18.8525391,3.41601563 18.7365234,3.41601563 C18.5818359,3.41601563 18.2853516,3.25488281 17.5699219,2.77792969 L16.6095703,2.13339844 L15.6621094,2.77792969 C14.8822266,3.3 14.6759766,3.41601563 14.4761719,3.41601563 C14.3472656,3.41601563 13.7865234,3.28710938 13.2257813,3.12597656 C12.6714844,2.96484375 12.2009766,2.85527344 12.1751953,2.8875 C12.0527344,3.00996094 11.34375,3.95097656 11.34375,3.98964844 C11.34375,4.00898438 11.6595703,4.34414063 12.0398438,4.72441406 L12.7423828,5.42695313 L13.2837891,5.26582031 C15.2496094,4.67929688 17.1509766,4.61484375 19.2070312,5.07246094 C23.4416016,6.00703125 26.8511719,9.35214844 27.8824219,13.5673828 C28.3851563,15.6363281 28.3335937,17.8470703 27.7341797,19.7484375 L27.5730469,20.2576172 L28.2691406,20.9537109 C28.6558594,21.3404297 28.9910156,21.65625 29.0103516,21.65625 C29.0361328,21.65625 29.2810547,21.4822266 29.5582031,21.2630859 Z" id="Shape"></path>
                <path d="M25.0142578,28.4496094 C24.7693359,28.2498047 24.6984375,27.9339844 24.8337891,27.6761719 C24.8917969,27.5730469 25.5685547,26.8576172 26.3419922,26.090625 L27.7535156,24.6855469 L28.0564453,24.6855469 C28.3529297,24.6855469 28.3851563,24.7048828 28.9136719,25.2140625 C29.5066406,25.7876953 29.6484375,25.9875 29.6484375,26.2904297 C29.6484375,26.5546875 29.3712891,26.8640625 29.0941406,26.915625 C28.8169922,26.9671875 28.6429688,26.8898438 28.2949219,26.5804688 L28.0306641,26.3419922 L26.8833984,27.4763672 C25.7748047,28.5849609 25.7361328,28.6171875 25.4783203,28.6171875 C25.2849609,28.6171875 25.1560547,28.5720703 25.0142578,28.4496094 Z" id="Path"></path>
                <path d="M22.7197266,26.1099609 C22.5005859,26.0132812 22.2943359,25.7490234 22.2556641,25.5041016 C22.2298828,25.3107422 22.3458984,24.9949219 23.1128906,23.2998047 C23.8541016,21.6498047 24.028125,21.3082031 24.1763672,21.2308594 C24.6662109,20.9794922 25.2076172,21.2953125 25.2011719,21.8302734 C25.2011719,21.9269531 24.9820313,22.4876953 24.7177734,23.0742188 C24.4535156,23.6542969 24.2472656,24.1441406 24.2601563,24.1505859 C24.2666016,24.1634766 24.75,23.9507812 25.3365234,23.6865234 C25.9166016,23.4222656 26.4773438,23.203125 26.5740234,23.203125 C27.1669922,23.203125 27.4828125,23.8669922 27.0896484,24.2988281 C26.9607422,24.4277344 26.3677734,24.7306641 25.1044922,25.3042969 C23.3320313,26.1035156 22.9775391,26.2195312 22.7197266,26.1099609 Z" id="Path"></path>
                <path d="M19.9740234,23.409375 C19.7871094,23.2417969 19.7548828,23.1708984 19.7548828,22.9195312 C19.7548828,22.6359375 19.7742187,22.6101562 20.3671875,22.0107422 C20.7023438,21.6755859 20.934375,21.3984375 20.8828125,21.3984375 C20.83125,21.3984375 20.3220703,21.4886719 19.7548828,21.5917969 C19.1876953,21.6949219 18.6462891,21.7851562 18.5496094,21.7851562 C18.4400391,21.7851562 18.2853516,21.7078125 18.1628906,21.5982422 C17.9824219,21.4371094 17.9501953,21.3662109 17.9501953,21.1148437 L17.9501953,20.8183594 L19.4326172,19.3359375 L20.9214844,17.8535156 L21.2115234,17.8535156 C21.3662109,17.8535156 21.5595703,17.8986328 21.6369141,17.9501953 C21.8109375,18.0726563 21.9398438,18.4529297 21.8818359,18.6785156 C21.8625,18.76875 21.5724609,19.1167969 21.2501953,19.4519531 C20.7990234,19.9095703 20.6958984,20.0449219 20.8183594,20.0191406 C21.2824219,19.9095703 22.7455078,19.6582031 22.9324219,19.6582031 C23.3642578,19.6582031 23.6542969,19.9289063 23.6478516,20.3349609 C23.6478516,20.4767578 23.615625,20.6572266 23.5705078,20.728125 C23.5253906,20.8054687 22.8744141,21.4693359 22.1203125,22.2041016 C20.83125,23.4609375 20.7345703,23.5447266 20.4703125,23.5705078 C20.2253906,23.6027344 20.1609375,23.5769531 19.9740234,23.409375 Z" id="Path"></path>
                <path d="M16.5128906,19.9482422 C16.2808594,19.7548828 16.2099609,19.4648438 16.3324219,19.1876953 C16.3839844,19.0716797 17.0542969,18.3498047 17.8341797,17.5828125 C19.2263672,16.1970703 19.2521484,16.1777344 19.5164062,16.1777344 C19.8451172,16.1777344 20.0707031,16.3066406 20.1738281,16.5644531 C20.3478516,16.9769531 20.2705078,17.0865234 18.7042969,18.6462891 C17.2669922,20.0771484 17.2283203,20.109375 16.9705078,20.109375 C16.7771484,20.109375 16.6482422,20.0642578 16.5128906,19.9482422 Z" id="Path"></path>
                <path d="M14.953125,17.9888672 C14.2957031,17.7826172 13.6511719,17.2154297 13.3546875,16.5773438 C13.0001953,15.7974609 13.1162109,14.7533203 13.6382813,14.0378906 C14.5277344,12.8261719 16.3775391,12.6972656 17.4474609,13.7671875 C18.2595703,14.5792969 18.3046875,15.8039063 17.5699219,16.809375 C17.2283203,17.2669922 17.11875,17.3378906 16.7513672,17.3378906 C16.4935547,17.3378906 16.4419922,17.3056641 15.9070313,16.7707031 C15.4042969,16.2615234 15.3398438,16.1777344 15.3398438,15.9650391 C15.3398438,15.6298828 15.4558594,15.4236328 15.7136719,15.3011719 C15.9908203,15.1722656 16.2744141,15.2173828 16.5064453,15.4429688 C16.6804688,15.6105469 16.6804688,15.6105469 16.7255859,15.4751953 C16.8351563,15.1271484 16.5193359,14.6759766 16.0359375,14.4761719 C15.7072266,14.334375 15.5460938,14.3472656 15.1722656,14.5341797 C14.7791016,14.7275391 14.5599609,15.0498047 14.5148438,15.4623047 C14.4632813,16.0230469 14.8113281,16.4742188 15.4880859,16.7191406 C16.0230469,16.9189453 16.1519531,17.4410156 15.7652344,17.8277344 C15.5396484,18.0533203 15.3205078,18.0984375 14.953125,17.9888672 Z" id="Path"></path>
                <path d="M11.0472656,14.4761719 C10.7636719,14.1925781 10.7507813,13.9154297 11.0150391,13.5609375 C11.1181641,13.4255859 11.7755859,12.7359375 12.4845703,12.0398437 C13.3804688,11.1503906 13.81875,10.7636719 13.9283203,10.7507812 C14.4117188,10.725 14.6630859,10.8539062 14.746875,11.1761719 C14.8693359,11.6080078 14.8113281,11.6917969 13.3804688,13.1355469 C12.6328125,13.8960938 11.9431641,14.5535156 11.8464844,14.6050781 C11.55,14.7597656 11.2921875,14.7210937 11.0472656,14.4761719 Z" id="Path"></path>
                <path d="M19.4132813,13.8896484 C19.1619141,13.7800781 18.9878906,13.4191406 19.0458984,13.1484375 C19.1554688,12.6328125 19.8064453,12.4458984 20.1802734,12.8197266 C20.4380859,13.0775391 20.4445313,13.5029297 20.1996094,13.7542969 C20.1029297,13.8445312 19.9933594,13.921875 19.9546875,13.921875 C19.9160156,13.921875 19.8257813,13.9347656 19.7548828,13.9541016 C19.6839844,13.9734375 19.5292969,13.9412109 19.4132813,13.8896484 Z" id="Path"></path>
                <path d="M9.63574219,12.6585937 C9.15878906,12.5361328 9.01699219,12.4458984 8.46269531,11.9044922 C7.81171875,11.2664062 7.70859375,11.0601563 7.88261719,10.725 C7.940625,10.621875 8.61738281,9.90644531 9.39082031,9.13945312 L10.8023438,7.734375 L11.1052734,7.734375 C11.34375,7.734375 11.446875,7.76660156 11.5693359,7.8890625 C11.8787109,8.1984375 11.859375,8.559375 11.5113281,8.94609375 L11.2921875,9.18457031 L12.0269531,9.15878906 C12.8841797,9.13300781 13.0324219,9.19101563 13.1548828,9.59707031 C13.2193359,9.80976563 13.2128906,9.88710937 13.1097656,10.0998047 C12.9615234,10.3962891 12.7166016,10.4994141 12.1042969,10.4994141 C11.4919922,10.5058594 11.4791016,10.51875 11.5177734,10.9183594 C11.5822266,11.5693359 11.2341797,12.2332031 10.6863281,12.4974609 C10.4027344,12.6328125 9.86132812,12.7101563 9.63574219,12.6585937 Z" id="Path"></path>
                <path d="M6.28417969,9.32636719 C5.59453125,9.09433594 5.01445313,8.59160156 4.73085937,7.97285156 C4.56328125,7.61191406 4.54394531,7.50878906 4.54394531,6.89648438 C4.54394531,6.28417969 4.56328125,6.18105469 4.73085937,5.82011719 C4.95644531,5.32382813 5.45917969,4.83398438 5.97480469,4.5890625 C6.30351563,4.44082031 6.43242188,4.41503906 6.99316406,4.41503906 C7.58613281,4.41503906 7.67636719,4.434375 8.06953125,4.62128906 C8.84296875,4.98867187 9.32636719,5.62675781 9.4875,6.50976562 C9.68730469,7.57324219 9.08789062,8.69472656 8.06953125,9.17167969 C7.71503906,9.33925781 7.54746094,9.37792969 7.08984375,9.39082031 C6.76113281,9.40371094 6.43886719,9.37792969 6.28417969,9.32636719 Z M7.43144531,7.96640625 C7.70214844,7.85683594 8.03085938,7.4765625 8.12753906,7.1671875 C8.32089844,6.51621094 7.70859375,5.73632812 6.99316406,5.73632812 C6.57421875,5.73632812 6.084375,6.07792969 5.93613281,6.46464844 C5.58164063,7.39921875 6.52265625,8.34667969 7.43144531,7.96640625 Z" id="Shape"></path>
            </g>
        </g>
    </g>
</svg>