<?xml version="1.0" encoding="UTF-8"?>
<svg width="28px" height="42px" viewBox="0 0 28 42" version="1.1" xmlns="http://www.w3.org/2000/svg" xmlns:xlink="http://www.w3.org/1999/xlink">
    <title>8F783619-4CF2-4623-B6CC-B6DD14146E50</title>
    <g id="Page-1" stroke="none" stroke-width="1" fill="none" fill-rule="evenodd">
        <g id="Verify" transform="translate(-970.000000, -175.000000)" fill="#000000" fill-rule="nonzero">
            <g id="phone-otp" transform="translate(970.859375, 175.312500)">
                <path d="M23.242168,0 C25.0725646,0 26.5625,1.53871841 26.5625,3.43101639 L26.5625,3.43101639 L26.5625,37.7408586 C26.5625,39.6331566 25.0725646,41.171875 23.242168,41.171875 L23.242168,41.171875 L3.32033195,41.171875 C1.48993544,41.171875 0,39.6331566 0,37.740939 L0,37.740939 L0,3.43101639 C0,1.53871841 1.48993544,0 3.32033195,0 L3.32033195,0 Z M24.9023729,34.3098422 L1.66020489,34.3098422 L1.66020489,37.7408586 C1.66020489,38.6865251 2.40431659,39.4563266 3.32033195,39.4563266 L3.32033195,39.4563266 L23.242168,39.4563266 C24.1581056,39.4563266 24.9023729,38.6865251 24.9023729,37.7408586 L24.9023729,37.7408586 L24.9023729,34.3098422 Z M23.242168,1.7155484 L3.32033195,1.7155484 C2.40439441,1.7155484 1.66020489,2.48534988 1.66020489,3.43101639 L1.66020489,3.43101639 L1.66020489,32.5943742 L24.9022951,32.5943742 L24.9022951,3.43101639 C24.9022951,2.48534988 24.1581834,1.7155484 23.242168,1.7155484 L23.242168,1.7155484 Z M9.96625,15.5178125 L9.96625,17.0159375 L11.3846875,16.1553125 L12.0540625,17.31875 L10.60375,18.1953125 L12.0540625,19.071875 L11.3846875,20.219375 L9.96625,19.3746875 L9.96625,20.9046875 L8.6275,20.9046875 L8.6275,19.3746875 L7.2090625,20.219375 L6.5396875,19.071875 L7.99,18.1953125 L6.5396875,17.31875 L7.2090625,16.1553125 L8.6275,17.0159375 L8.6275,15.5178125 L9.96625,15.5178125 Z M17.935,15.5178125 L17.935,17.0159375 L19.3534375,16.1553125 L20.0228125,17.31875 L18.5725,18.1953125 L20.0228125,19.071875 L19.3534375,20.219375 L17.935,19.3746875 L17.935,20.9046875 L16.59625,20.9046875 L16.59625,19.3746875 L15.1778125,20.219375 L14.5084375,19.071875 L15.95875,18.1953125 L14.5084375,17.31875 L15.1778125,16.1553125 L16.59625,17.0159375 L16.59625,15.5178125 L17.935,15.5178125 Z" id="Combined-Shape"></path>
                <path d="M12.4511476,5.14648438 L14.1112746,5.14648438 C14.5700994,5.14648438 14.9413771,4.76283005 14.9413771,4.28871017 C14.9413771,3.8145903 14.5700994,3.43093597 14.1112746,3.43093597 L12.4511476,3.43093597 C11.9923228,3.43093597 11.6210451,3.8145903 11.6210451,4.28871017 C11.6211229,4.76283005 11.9924006,5.14648438 12.4511476,5.14648438 Z" id="Path"></path>
                <path d="M10.7910205,37.7408586 L15.7714795,37.7408586 C16.2303043,37.7408586 16.601582,37.3572043 16.601582,36.8830844 C16.601582,36.4089645 16.2303043,36.0253906 15.7714795,36.0253906 L10.7910205,36.0253906 C10.3321957,36.0253906 9.96091805,36.409045 9.96091805,36.8831648 C9.96091805,37.3572847 10.3321957,37.7408586 10.7910205,37.7408586 Z" id="Path"></path>
                <ellipse id="Oval" cx="22.4120656" cy="4.28871017" rx="1" ry="1"></ellipse>
            </g>
        </g>
    </g>
</svg>