<?xml version="1.0" encoding="UTF-8"?>
<svg width="30px" height="31px" viewBox="0 0 30 31" version="1.1" xmlns="http://www.w3.org/2000/svg" xmlns:xlink="http://www.w3.org/1999/xlink">
    <!-- Generator: Sketch 64 (93537) - https://sketch.com -->
    <title>returning</title>
    <desc>Created with Sketch.</desc>
    <g id="web" stroke="none" stroke-width="1" fill="none" fill-rule="evenodd">
        <g id="returning" transform="translate(0.000000, -1.000000)" fill="#000000" fill-rule="nonzero">
            <g id="Group" transform="translate(15.000000, 15.558594) scale(-1, 1) rotate(-180.000000) translate(-15.000000, -15.558594) translate(0.000000, 0.058594)">
                <path d="M4.84570312,29.9179688 C4.52929688,29.8007813 4.1953125,29.5664063 4.02539062,29.34375 C3.94335937,29.2382813 3.00585938,27.5683594 1.93945312,25.6289063 L0,22.1132813 L0,14.1738281 C0,6.32226563 0.005859375,6.24023438 0.123046875,5.9765625 C0.26953125,5.65429688 0.591796875,5.30859375 0.908203125,5.13867188 L1.14257812,5.00976563 L11.0039062,4.9921875 L20.8710938,4.98046875 L21.0703125,5.1796875 C21.234375,5.34375 21.2695312,5.42578125 21.2695312,5.625 C21.2695312,5.82421875 21.234375,5.90625 21.0703125,6.0703125 L20.8710938,6.26953125 L11.2324219,6.26953125 L1.59960938,6.26953125 L1.44140625,6.39257813 L1.2890625,6.50976563 L1.2890625,13.8632813 L1.2890625,21.2109375 L12.5097656,21.2109375 L23.7304688,21.2109375 L23.7304688,18.9199219 L23.7304688,16.6289063 L23.9296875,16.4296875 C24.09375,16.265625 24.1757812,16.2304688 24.375,16.2304688 C24.5742188,16.2304688 24.65625,16.265625 24.8203125,16.4296875 L25.0253906,16.6347656 L25.0078125,19.40625 L24.9902344,22.1777344 L23.1269531,25.546875 C22.1015625,27.3984375 21.1757812,29.0390625 21.0761719,29.1972656 C20.8652344,29.5136719 20.5078125,29.7890625 20.1503906,29.9121094 C19.7988281,30.0351563 5.19140625,30.0410156 4.84570312,29.9179688 Z M11.8359375,25.6054688 L11.8359375,22.5 L6.796875,22.5 C4.02539062,22.5 1.7578125,22.5117188 1.7578125,22.5292969 C1.7578125,22.6289063 5.02148438,28.4707031 5.13867188,28.5820313 L5.27929688,28.7109375 L8.56054688,28.7109375 L11.8359375,28.7109375 L11.8359375,25.6054688 Z M19.8632813,28.5527344 C19.9921875,28.4296875 22.4707031,24.0351563 23.1796875,22.6640625 L23.2675781,22.5 L18.1933594,22.5 L13.125,22.5 L13.125,25.6054688 L13.125,28.7109375 L16.40625,28.7109375 L19.6875,28.7109375 L19.8632813,28.5527344 Z" id="Shape"></path>
                <path d="M23.4082031,14.9296875 C23.1796875,14.7949219 18.8261719,11.0273438 18.7851562,10.9277344 C18.7675781,10.875 18.7499631,10.7167969 18.7499631,10.5820312 C18.7499631,10.2714844 18.7089844,10.3125 21.3632812,8.0390625 C22.7402344,6.8671875 23.484375,6.26953125 23.6074219,6.24023438 C23.8359375,6.19335938 24.0117188,6.24609375 24.2167969,6.43359375 C24.3457031,6.55664062 24.375,6.6328125 24.375,6.85546875 C24.375,7.00195312 24.3398438,7.17773438 24.2929688,7.2421875 C24.2460938,7.30664062 23.53125,7.93945312 22.7050781,8.6484375 L21.2050781,9.93164062 L21.7792969,9.94921875 C24.9140625,10.0488281 27.7324219,7.8515625 28.5410156,4.66992188 C28.6523438,4.24804688 28.6699219,3.95507812 28.7050781,2.2734375 L28.7402344,0.357421875 L28.9101562,0.181640625 C29.0566406,0.029296875 29.1269531,0 29.3730469,0 C29.6074219,0 29.6835938,0.029296875 29.8300781,0.169921875 L30,0.33984375 L30,2.15039062 C30,4.1953125 29.9472656,4.6640625 29.6132812,5.671875 C28.8222656,8.07421875 26.9414062,9.99023438 24.5507812,10.828125 C23.7480469,11.109375 23.1972656,11.203125 22.1367188,11.2441406 L21.1523438,11.2792969 L22.6230469,12.5332031 C23.4257812,13.2246094 24.1523438,13.8691406 24.234375,13.9628906 C24.4453125,14.2148438 24.4335938,14.6015625 24.2050781,14.8300781 C24.0644531,14.9648438 23.9824219,15 23.7773438,15 C23.6367188,15 23.4726562,14.9648438 23.4082031,14.9296875 Z" id="Path"></path>
            </g>
        </g>
    </g>
</svg>