<?xml version="1.0" encoding="UTF-8"?>
<svg width="28px" height="23px" viewBox="0 0 28 23" version="1.1" xmlns="http://www.w3.org/2000/svg" xmlns:xlink="http://www.w3.org/1999/xlink">
    <title>twitter</title>
    <g id="Page-1" stroke="none" stroke-width="1" fill="none" fill-rule="evenodd">
        <g id="Login" transform="translate(-398.000000, -249.000000)" fill="#03A9F4" fill-rule="nonzero">
            <g id="twitter" transform="translate(398.849677, 249.321121)">
                <path d="M26.2877155,2.66748094 C25.3101411,3.11986074 24.2684904,3.41971403 23.1824791,3.56530753 C24.299707,2.8616056 25.1524148,1.7557883 25.5533025,0.422914456 C24.5116517,1.07808521 23.3615642,1.54086456 22.1358994,1.79911969 C21.1468242,0.688102619 19.7371454,0 18.199314,0 C15.2156583,0 12.8136183,2.5548193 12.8136183,5.68681283 C12.8136183,6.13745938 12.8497639,6.57077338 12.938485,6.9832883 C8.45807247,6.75276525 4.49355637,4.4873997 1.83028219,1.03648707 C1.36531822,1.88751575 1.09258318,2.8616056 1.09258318,3.91022546 C1.09258318,5.87920424 2.05372777,7.624593 3.48640827,8.63508123 C2.62055664,8.61774867 1.77113483,8.35256051 1.05150862,7.93484582 C1.05150862,7.95217838 1.05150862,7.97471071 1.05150862,7.99724304 C1.05150862,10.7600531 2.9195794,13.054884 5.36926589,13.583527 C4.93058964,13.7100547 4.45248182,13.7707187 3.95630119,13.7707187 C3.61127492,13.7707187 3.26296269,13.7499196 2.93600923,13.6736563 C3.63427667,15.9251558 5.61571323,17.5804153 7.97174973,17.6341462 C6.13818157,19.1472787 3.81007577,20.0589713 1.28974104,20.0589713 C0.847778825,20.0589713 0.423889413,20.0381722 0,19.9809748 C2.38725317,21.6050356 5.21646855,22.5323276 8.26748653,22.5323276 C18.1845272,22.5323276 23.6063685,13.8660477 23.6063685,6.35411638 C23.6063685,6.10279426 23.5981536,5.86013843 23.5866527,5.61921585 C24.6562342,4.81845159 25.5549454,3.8183629 26.2877155,2.66748094 Z" id="Path"></path>
            </g>
        </g>
    </g>
</svg>