<?xml version="1.0" encoding="UTF-8"?>
<svg width="249px" height="249px" viewBox="0 0 249 249" version="1.1" xmlns="http://www.w3.org/2000/svg" xmlns:xlink="http://www.w3.org/1999/xlink">
    <!-- Generator: Sketch 64 (93537) - https://sketch.com -->
    <title>Group 18</title>
    <desc>Created with Sketch.</desc>
    <g id="empty-state" stroke="none" stroke-width="1" fill="none" fill-rule="evenodd" opacity="0.704148065">
        <g id="Group-18" fill-rule="nonzero">
            <g id="freepik--Streetlight--inject-55" transform="translate(0.000000, 6.000000)">
                <g id="freepik--Streetlights--inject-55">
                    <path d="M38.0432432,34.2065132 C35.3234263,35.5583937 32.1144115,35.5583937 29.3945946,34.2065132 C28.2,33.5244079 27.6,32.6078289 27.6,31.7392105 L27.6,29.9966447 C27.6,29.1013816 28.2,28.2061184 29.3945946,27.5293421 C32.113171,26.172329 35.3246669,26.172329 38.0432432,27.5293421 C39.2378378,28.2061184 39.8378378,29.1280263 39.8378378,29.9913158 L39.8378378,31.7392105 C39.8378378,32.6291447 39.2378378,33.5244079 38.0432432,34.2065132 Z" id="Path" fill="#455A64"></path>
                    <path d="M38.0432432,32.4586184 C40.4378378,31.0944079 40.4378378,28.8882237 38.0432432,27.5240132 C35.3246669,26.1670001 32.113171,26.1670001 29.3945946,27.5240132 C27,28.8882237 27,31.0944079 29.3945946,32.4586184 C32.113171,33.8156315 35.3246669,33.8156315 38.0432432,32.4586184 Z" id="Path" fill="#37474F"></path>
                    <path d="M39.6810811,15.6884211 L27.7405405,15.6884211 L27.7405405,29.4051316 C27.7405405,30.27375 28.3189189,31.1423684 29.4864865,31.8084868 C32.1398836,33.1357999 35.2763326,33.1357999 37.9297297,31.8084868 C39.0972973,31.1423684 39.6810811,30.27375 39.6810811,29.4051316 L39.6810811,29.4051316 L39.6810811,15.6884211 Z" id="Path" fill="#A4A4A4"></path>
                    <path d="M39.6810811,15.6884211 L27.7405405,15.6884211 L27.7405405,29.4051316 C27.7405405,30.27375 28.3189189,31.1423684 29.4864865,31.8084868 C32.1398836,33.1357999 35.2763326,33.1357999 37.9297297,31.8084868 C39.0972973,31.1423684 39.6810811,30.27375 39.6810811,29.4051316 L39.6810811,29.4051316 L39.6810811,15.6884211 Z" id="Path" fill="#FFFFFF" opacity="0.7"></path>
                    <path d="M29.4864865,13.2850658 C27.1567568,14.6119737 27.1567568,16.7648684 29.4864865,18.0811184 C32.1398836,19.4084315 35.2763326,19.4084315 37.9297297,18.0811184 C40.2594595,16.7542105 40.2594595,14.6013158 37.9297297,13.2850658 C35.2763326,11.9577527 32.1398836,11.9577527 29.4864865,13.2850658 Z" id="Path" fill="#A4A4A4"></path>
                    <path d="M29.4864865,13.2850658 C27.1567568,14.6119737 27.1567568,16.7648684 29.4864865,18.0811184 C32.1398836,19.4084315 35.2763326,19.4084315 37.9297297,18.0811184 C40.2594595,16.7542105 40.2594595,14.6013158 37.9297297,13.2850658 C35.2763326,11.9577527 32.1398836,11.9577527 29.4864865,13.2850658 Z" id="Path" fill="#FFFFFF" opacity="0.5"></path>
                    <path d="M37.2973014,27.4227632 C37.2994843,28.8544038 36.4263944,30.1462752 35.0853809,30.6956349 C33.7443674,31.2449947 32.1997074,30.9435792 31.1720854,29.9320184 C30.1444634,28.9204576 29.8363956,27.3981024 30.3916157,26.0752307 C30.9468358,24.752359 32.255925,23.8896711 33.7081081,23.8896711 C35.6882535,23.8896711 37.2943152,25.4706286 37.2973014,27.4227632 L37.2973014,27.4227632 Z" id="Path" fill="#FFFFFF" opacity="0.2"></path>
                    <path d="M39.6810811,23.2075658 C38.30579,21.3038907 36.0814947,20.1735212 33.7108108,20.1735212 C31.340127,20.1735212 29.1158316,21.3038907 27.7405405,23.2075658 L27.7405405,29.4051316 C27.7405405,30.27375 28.3189189,31.1423684 29.4864865,31.8084868 C32.1398836,33.1357999 35.2763326,33.1357999 37.9297297,31.8084868 C39.0972973,31.1423684 39.6810811,30.27375 39.6810811,29.4051316 L39.6810811,23.2075658 Z" id="Path" fill="#FFFFFF" opacity="0.2"></path>
                    <path d="M35.372973,27.4227632 C35.372973,28.0866134 34.9673417,28.6850967 34.3452243,28.9391412 C33.7231069,29.1931857 33.0070189,29.0527617 32.5308709,28.5833487 C32.0547229,28.1139357 31.9122841,27.4079765 32.1699735,26.7946588 C32.427663,26.1813411 33.0347331,25.7814474 33.7081081,25.7814474 C34.6263558,25.7843723 35.3700061,26.5175038 35.372973,27.4227632 L35.372973,27.4227632 Z" id="Path" fill="#FFFFFF" opacity="0.4"></path>
                    <path d="M38.0432432,18.6513158 C35.3246669,20.0083289 32.113171,20.0083289 29.3945946,18.6513158 C28.1783784,17.9905263 27.5675676,17.1005921 27.5675676,16.2053289 L27.5675676,14.4627632 C27.5675676,13.5675 28.1675676,12.6775658 29.3621622,11.9954605 C32.0807385,10.6384475 35.2922344,10.6384475 38.0108108,11.9954605 C39.2054054,12.6775658 39.8054054,13.5941447 39.8054054,14.4627632 L39.8054054,16.2053289 C39.8378378,17.1005921 39.2378378,17.9905263 38.0432432,18.6513158 Z" id="Path" fill="#455A64"></path>
                    <path d="M38.0432432,16.9300658 C40.4378378,15.5658553 40.4378378,13.3543421 38.0432432,11.9954605 C35.3246669,10.6384475 32.113171,10.6384475 29.3945946,11.9954605 C27,13.3543421 27,15.5658553 29.3945946,16.9300658 C32.1144115,18.2819464 35.3234263,18.2819464 38.0432432,16.9300658 L38.0432432,16.9300658 Z" id="Path" fill="#37474F"></path>
                    <path d="M1.55135135,242.882763 C2.67567568,242.882763 2.7027027,242.307237 2.7027027,242.307237 L2.7027027,24.5131579 C2.7027027,20.6017105 5.60540541,15.6511184 9.03243243,13.6953947 L27.4108108,3.19736842 C28.8756757,2.36605263 30.1891892,2.19552632 31.1135135,2.71776316 C32.0378378,3.24 32.5405405,4.44967105 32.5405405,6.11763158 L32.5405405,13.8552632 C32.5830001,14.4792995 33.1088309,14.9640849 33.7432432,14.9640849 C34.3776555,14.9640849 34.9034864,14.4792995 34.9459459,13.8552632 L34.9459459,6.13361842 C34.9459459,3.58638158 34.0108108,1.65197368 32.3135135,0.687434211 C30.6162162,-0.277105263 28.4486486,-0.111907895 26.2108108,1.16703947 L7.83243243,11.6544079 C3.61081081,14.0577632 0.302702703,19.7171053 0.302702703,24.5131579 L0.302702703,242.307237 C0.302702703,242.307237 0.421621622,242.882763 1.55135135,242.882763 Z" id="Path" fill="#000000" opacity="0.523414249"></path>
                </g>
            </g>
            <g id="freepik--Shadows--inject-55" transform="translate(204.000000, 141.000000)" fill="#E0E0E0">
                <path d="M5.30181818,3.35461538 C-1.65272727,7.32307692 -1.65272727,13.7469231 5.30181818,17.7153846 C12.2563636,21.6838462 23.5418182,21.6784615 30.4963636,17.7153846 C37.4509091,13.7523077 37.4509091,7.32307692 30.4963636,3.35461538 C23.5418182,-0.613846154 12.2618182,-0.608461538 5.30181818,3.35461538 Z" id="freepik--Shadow--inject-55"></path>
            </g>
            <g id="freepik--Store--inject-55" transform="translate(14.000000, 0.000000)">
                <g id="freepik--Wall--inject-55">
                    <g id="freepik--wall--inject-55">
                        <path d="M126.855073,29.4317073 L126.855073,32.2219512 C126.855073,33.1019512 127.471942,33.4614634 128.233641,33.0214634 L140.994782,25.6487805 C141.80854,25.1181801 142.320609,24.2312308 142.37335,23.2609756 L142.37335,20.4707317 C142.37335,19.5907317 141.756481,19.2365854 140.994782,19.6765854 L128.233641,27.0439024 C127.419882,27.5745028 126.907813,28.4614521 126.855073,29.4317073 Z" id="Path" fill="#F0F0F0"></path>
                        <path d="M220.356311,76.195122 L209.118568,82.6878049 C208.306099,83.2196267 207.794443,84.1058617 207.74,85.0756098 L207.74,87.8658537 C207.74,88.7458537 208.362233,89.1 209.118568,88.66 L220.356311,82.1726829 L220.356311,76.195122 Z" id="Path" fill="#F0F0F0"></path>
                        <path d="M217.663544,91.0585366 L220.345583,89.502439 L220.345583,83.5302439 L217.663544,85.0863415 C216.849785,85.6169418 216.337716,86.5038911 216.284976,87.4741463 L216.284976,90.2643902 C216.284976,91.1443902 216.901845,91.4985366 217.663544,91.0585366 Z" id="Path" fill="#F0F0F0"></path>
                        <path d="M13.7374029,89.0034146 L0.976262136,96.3760976 C0.79684893,96.4822241 0.6326438,96.6121876 0.488131068,96.762439 L0.488131068,102.525366 C0.661175277,102.500118 0.827263256,102.439869 0.976262136,102.348293 L13.7374029,94.9756098 C14.5511616,94.4450094 15.0632302,93.5580601 15.1159709,92.5878049 L15.1159709,89.797561 C15.1159709,88.9229268 14.4830097,88.5634146 13.7374029,89.0034146 Z" id="Path" fill="#F0F0F0"></path>
                        <path d="M13.6193932,152.647805 L0.858252427,160.015122 C0.725531527,160.095027 0.601488892,160.188539 0.488131068,160.294146 L0.488131068,166.137561 C0.618258119,166.108725 0.743119566,166.05985 0.858252427,165.992683 L13.6193932,158.62 C14.4413319,158.094203 14.9618404,157.206452 15.0194175,156.232195 L15.0194175,153.463415 C15.0194175,152.561951 14.3810922,152.207805 13.6193932,152.647805 Z" id="Path" fill="#F0F0F0"></path>
                        <path d="M13.7374029,118.354634 L0.976262136,125.721951 C0.799114009,125.831344 0.635300767,125.960998 0.488131068,126.108293 L0.488131068,131.87122 C0.660280235,131.845571 0.825954302,131.787293 0.976262136,131.699512 L13.7374029,124.326829 C14.5511616,123.796229 15.0632302,122.90928 15.1159709,121.939024 L15.1159709,119.14878 C15.1159709,118.26878 14.4830097,117.914634 13.7374029,118.354634 Z" id="Path" fill="#F0F0F0"></path>
                        <path d="M67.405,115.478537 L54.6438592,122.845854 C53.8301005,123.376454 53.3180319,124.263403 53.2652913,125.233659 L53.2652913,128.023902 C53.2652913,128.903902 53.8821602,129.263415 54.6438592,128.823415 L67.405,121.450732 C68.2187587,120.920131 68.7308273,120.033182 68.783568,119.062927 L68.783568,116.272683 C68.783568,115.392683 68.166699,115.038537 67.405,115.478537 Z" id="Path" fill="#F0F0F0"></path>
                        <path d="M83.1432039,76.2541463 L83.1432039,79.0443902 C83.1432039,79.9190244 83.7600728,80.2785366 84.5217718,79.8385366 L97.2829126,72.4658537 C98.0979712,71.9364864 98.6104573,71.048814 98.6614806,70.0780488 L98.6614806,67.2878049 C98.6614806,66.4078049 98.0446117,66.0536585 97.2829126,66.4936585 L84.5217718,73.8609756 C83.7071856,74.3932884 83.1951258,75.2822156 83.1432039,76.2541463 L83.1432039,76.2541463 Z" id="Path" fill="#F0F0F0"></path>
                        <path d="M147.946626,5.73609756 L135.174757,13.1087805 C134.360999,13.6393808 133.84893,14.5263302 133.796189,15.4965854 L133.796189,18.2868293 C133.796189,19.1668293 134.413058,19.5209756 135.174757,19.0809756 L147.935898,11.7136585 C148.749657,11.1830582 149.261725,10.2961089 149.314604,9.32585366 L149.314604,6.53560976 C149.325194,5.65560976 148.708325,5.30146341 147.946626,5.73609756 Z" id="Path" fill="#F0F0F0"></path>
                        <path d="M63.5428641,79.9512195 L50.7817233,87.3185366 C49.9679646,87.8491369 49.455896,88.7360863 49.4031553,89.7063415 L49.4031553,92.4965854 C49.4031553,93.3765854 50.0200243,93.7360976 50.7817233,93.2960976 L63.5428641,85.9234146 C64.3566228,85.3928143 64.8686914,84.505865 64.921432,83.5356098 L64.921432,80.7453659 C64.9053398,79.8653659 64.3045631,79.5112195 63.5428641,79.9512195 Z" id="Path" fill="#F0F0F0"></path>
                        <path d="M92.7609951,118.531707 L105.522136,111.16439 C106.335895,110.63379 106.847963,109.746841 106.900704,108.776585 L106.900704,105.986341 C106.900704,105.106341 106.283835,104.746829 105.522136,105.186829 L92.7609951,112.559512 C91.9472364,113.090113 91.4351678,113.977062 91.3824272,114.947317 L91.3824272,117.737561 C91.3824272,118.617561 91.9992961,118.971707 92.7609951,118.531707 Z" id="Path" fill="#F0F0F0"></path>
                        <path d="M17.5780825,141.787317 L30.3392233,134.42 C31.152982,133.8894 31.6650506,133.00245 31.7177913,132.032195 L31.7177913,129.241951 C31.7177913,128.361951 31.1009223,128.002439 30.3392233,128.442439 L17.5780825,135.815122 C16.7643238,136.345722 16.2522552,137.232672 16.1995146,138.202927 L16.1995146,140.993171 C16.1995146,141.873171 16.8163835,142.227317 17.5780825,141.787317 Z" id="Path" fill="#F0F0F0"></path>
                        <path d="M207.745364,49.4087805 L207.745364,52.1990244 C207.745364,53.0790244 208.362233,53.4331707 209.123932,52.9931707 L220.356311,46.5058537 L220.356311,40.5336585 L209.123932,47.0209756 C208.310173,47.551576 207.798105,48.4385253 207.745364,49.4087805 L207.745364,49.4087805 Z" id="Path" fill="#F0F0F0"></path>
                        <path d="M92.5303398,179.251707 L105.291481,171.88439 C106.106067,171.352077 106.618127,170.46315 106.670049,169.49122 L106.670049,166.700976 C106.670049,165.826341 106.05318,165.466829 105.291481,165.906829 L92.5303398,173.279512 C91.7165811,173.810113 91.2045125,174.697062 91.1517718,175.667317 L91.1517718,178.457561 C91.1517718,179.337561 91.7686408,179.691707 92.5303398,179.251707 Z" id="Path" fill="#F0F0F0"></path>
                        <path d="M216.429806,7.04536585 L216.429806,4.25512195 C216.429806,3.37512195 215.807573,3.02097561 215.051238,3.46097561 L202.290097,10.8282927 C201.476985,11.3595052 200.965123,12.2460963 200.911529,13.2160976 L200.911529,16.0063415 C200.911529,16.8863415 201.528398,17.2458537 202.290097,16.8058537 L215.051238,9.43317073 C215.863707,8.90134893 216.375363,8.01511389 216.429806,7.04536585 Z" id="Path" fill="#F0F0F0"></path>
                        <path d="M31.7177913,205.404878 L31.7177913,202.614634 C31.7177913,201.734634 31.1009223,201.375122 30.3392233,201.815122 L17.5780825,209.187805 C16.7643238,209.718405 16.2522552,210.605355 16.1995146,211.57561 L16.1995146,214.365854 C16.1995146,215.245854 16.8163835,215.6 17.5780825,215.16 L30.3392233,207.792683 C31.152982,207.262083 31.6650506,206.375133 31.7177913,205.404878 L31.7177913,205.404878 Z" id="Path" fill="#F0F0F0"></path>
                        <path d="M220.356311,62.2868293 L209.118568,68.7741463 C208.306099,69.3059681 207.794443,70.1922032 207.74,71.1619512 L207.74,73.9521951 C207.74,74.8321951 208.356869,75.1917073 209.118568,74.7517073 L220.356311,68.2590244 L220.356311,62.2868293 Z" id="Path" fill="#F0F0F0"></path>
                        <path d="M5.67519417,107.810732 L0.488131068,110.804878 L0.488131068,116.777073 L5.67519417,113.782927 C6.48895289,113.252326 7.0010215,112.365377 7.05376214,111.395122 L7.05376214,108.604878 C7.05376214,107.724878 6.4368932,107.370732 5.67519417,107.810732 Z" id="Path" fill="#F0F0F0"></path>
                        <path d="M26.1176942,202.866829 L38.878835,195.499512 C39.6925937,194.968912 40.2046623,194.081963 40.2574029,193.111707 L40.2574029,190.321463 C40.2574029,189.441463 39.640534,189.087317 38.878835,189.521951 L26.1176942,196.894634 C25.3039355,197.425235 24.7918668,198.312184 24.7391262,199.282439 L24.7391262,202.072683 C24.7391262,202.952683 25.3559951,203.306829 26.1176942,202.866829 Z" id="Path" fill="#F0F0F0"></path>
                        <path d="M13.7374029,174.390244 L0.976262136,181.768293 C0.798142439,181.874185 0.63413002,182.002193 0.488131068,182.149268 L0.488131068,187.912195 C0.6608881,187.889039 0.827039427,187.830592 0.976262136,187.740488 L13.7374029,180.373171 C14.5505155,179.841958 15.0623772,178.955367 15.1159709,177.985366 L15.1159709,175.189756 C15.1159709,174.315122 14.4830097,173.95561 13.7374029,174.390244 Z" id="Path" fill="#F0F0F0"></path>
                        <path d="M13.7374029,201.375122 L0.976262136,208.731707 C0.798142439,208.8376 0.63413002,208.965608 0.488131068,209.112683 L0.488131068,214.87561 C0.660280235,214.849961 0.825954302,214.791683 0.976262136,214.703902 L13.7374029,207.336585 C14.5432037,206.810901 15.0540845,205.935952 15.1159709,204.97561 L15.1159709,202.185366 C15.1159709,201.294634 14.4830097,200.935122 13.7374029,201.375122 Z" id="Path" fill="#F0F0F0"></path>
                        <path d="M89.708835,34.5990244 L89.708835,37.3946341 C89.708835,38.2692683 90.3257039,38.6287805 91.0874029,38.1887805 L103.848544,30.8160976 C104.65936,30.2876988 105.171033,29.4054185 105.227112,28.4390244 L105.227112,25.6487805 C105.227112,24.7687805 104.610243,24.4146341 103.848544,24.8546341 L91.0874029,32.195122 C90.269858,32.7296299 89.7574004,33.6232371 89.708835,34.5990244 Z" id="Path" fill="#F0F0F0"></path>
                        <path d="M5.67519417,64.6853659 L0.488131068,67.6795122 L0.488131068,73.6517073 L5.67519417,70.657561 C6.48895289,70.1269606 7.0010215,69.2400113 7.05376214,68.2697561 L7.05376214,65.4634146 C7.05376214,64.5995122 6.4368932,64.2453659 5.67519417,64.6853659 Z" id="Path" fill="#F0F0F0"></path>
                        <path d="M30.3392233,55.0697561 L17.5780825,62.442439 C16.7643238,62.9730394 16.2522552,63.8599887 16.1995146,64.8302439 L16.1995146,67.6097561 C16.1995146,68.4897561 16.8163835,68.8439024 17.5780825,68.4039024 L30.3392233,61.0365854 C31.152982,60.505985 31.6650506,59.6190357 31.7177913,58.6487805 L31.7177913,55.8585366 C31.7177913,54.9892683 31.1116505,54.6297561 30.3392233,55.0697561 Z" id="Path" fill="#F0F0F0"></path>
                        <path d="M59.326699,183.721463 L72.0878398,176.354146 C72.9015985,175.823546 73.4136671,174.936597 73.4664078,173.966341 L73.4664078,171.170732 C73.4664078,170.290732 72.8495388,169.93122 72.0878398,170.37122 L59.326699,177.749268 C58.5129403,178.279869 58.0008717,179.166818 57.9481311,180.137073 L57.9481311,182.927317 C57.9320388,183.807317 58.565,184.161463 59.326699,183.721463 Z" id="Path" fill="#F0F0F0"></path>
                        <path d="M81.5339806,162.01122 L81.5339806,159.220976 C81.5339806,158.340976 80.9171117,157.981463 80.1554126,158.421463 L67.3835437,165.804878 C66.569785,166.335478 66.0577164,167.222428 66.0049757,168.192683 L66.0049757,170.982927 C66.0049757,171.862927 66.6218447,172.217073 67.3835437,171.777073 L80.1446845,164.409756 C80.9654893,163.879363 81.4821769,162.987333 81.5339806,162.01122 L81.5339806,162.01122 Z" id="Path" fill="#F0F0F0"></path>
                        <path d="M63.5428641,65.2756098 L50.7817233,72.6429268 C49.9686108,73.1741394 49.456749,74.0607304 49.4031553,75.0307317 L49.4031553,77.804878 C49.4031553,78.684878 50.0200243,79.0443902 50.7817233,78.6043902 L63.5428641,71.2317073 C64.3566228,70.701107 64.8686914,69.8141576 64.921432,68.8439024 L64.921432,66.0536585 C64.9053398,65.1897561 64.3045631,64.8356098 63.5428641,65.2756098 Z" id="Path" fill="#F0F0F0"></path>
                        <path d="M95.303568,37.1370732 L82.5424272,44.5043902 C81.7286685,45.0349906 81.2165999,45.9219399 81.1638592,46.8921951 L81.1638592,49.682439 C81.1638592,50.562439 81.7807282,50.9219512 82.5424272,50.4819512 L95.303568,43.1092683 C96.1173267,42.5786679 96.6293953,41.6917186 96.6821359,40.7214634 L96.6821359,37.9312195 C96.6821359,37.0512195 96.065267,36.6970732 95.303568,37.1370732 Z" id="Path" fill="#F0F0F0"></path>
                        <path d="M24.7391262,125.909756 L24.7391262,128.7 C24.7391262,129.58 25.3559951,129.934146 26.1176942,129.499512 L38.878835,122.126829 C39.6925937,121.596229 40.2046623,120.70928 40.2574029,119.739024 L40.2574029,116.97561 C40.2574029,116.09561 39.640534,115.741463 38.878835,116.181463 L26.1176942,123.521951 C25.3039355,124.052552 24.7918668,124.939501 24.7391262,125.909756 L24.7391262,125.909756 Z" id="Path" fill="#F0F0F0"></path>
                        <path d="M197.12449,41.4565854 L209.885631,34.0839024 C210.69939,33.5533021 211.211458,32.6663528 211.264199,31.6960976 L211.264199,28.9058537 C211.264199,28.0258537 210.64733,27.6717073 209.885631,28.1117073 L197.12449,35.4790244 C196.309904,36.0113372 195.797844,36.9002644 195.745922,37.8721951 L195.745922,40.662439 C195.745922,41.5370732 196.362791,41.8965854 197.12449,41.4565854 Z" id="Path" fill="#F0F0F0"></path>
                        <path d="M26.1176942,188.196585 L38.878835,180.829268 C39.6925937,180.298668 40.2046623,179.411719 40.2574029,178.441463 L40.2574029,175.65122 C40.2574029,174.77122 39.640534,174.417073 38.878835,174.857073 L26.1176942,182.219024 C25.3098043,182.745214 24.7985251,183.622836 24.7391262,184.585366 L24.7391262,187.37561 C24.7391262,188.277073 25.3559951,188.636585 26.1176942,188.196585 Z" id="Path" fill="#F0F0F0"></path>
                        <path d="M50.8031796,139.721463 L38.0420388,147.094146 C37.2282801,147.624747 36.7162115,148.511696 36.6634709,149.481951 L36.6634709,152.272195 C36.6634709,153.152195 37.2803398,153.506341 38.0420388,153.066341 L50.8031796,145.699024 C51.6169383,145.168424 52.1290069,144.281475 52.1817476,143.31122 L52.1817476,140.520976 C52.1817476,139.640976 51.5648786,139.281463 50.8031796,139.721463 Z" id="Path" fill="#F0F0F0"></path>
                        <path d="M69.8671117,100.985366 L69.8671117,103.77561 C69.8671117,104.65561 70.4839806,105.015122 71.2456796,104.575122 L84.0068204,97.202439 C84.8205791,96.6718387 85.3326477,95.7848893 85.3853883,94.8146341 L85.3853883,92.0243902 C85.3853883,91.1443902 84.7685194,90.7902439 84.0068204,91.2302439 L71.2456796,98.597561 C70.4319209,99.1281613 69.9198523,100.015111 69.8671117,100.985366 L69.8671117,100.985366 Z" id="Path" fill="#F0F0F0"></path>
                        <path d="M105.323665,69.2195122 L92.5625243,76.5868293 C91.7487656,77.1174296 91.2366969,78.0043789 91.1839563,78.9746341 L91.1839563,81.764878 C91.1839563,82.644878 91.8008252,83.0043902 92.5625243,82.5643902 L105.323665,75.1917073 C106.137424,74.661107 106.649492,73.7741576 106.702233,72.8039024 L106.702233,70.0136585 C106.702233,69.1282927 106.085364,68.7741463 105.323665,69.2195122 Z" id="Path" fill="#F0F0F0"></path>
                        <path d="M76.8404126,121.804878 L76.8404126,119.014634 C76.8404126,118.134634 76.2235437,117.775122 75.4618447,118.215122 L62.7007039,125.560976 C61.8869452,126.091576 61.3748766,126.978525 61.3221359,127.94878 L61.3221359,130.739024 C61.3221359,131.619024 61.9390049,131.973171 62.7007039,131.533171 L75.4618447,124.165854 C76.2682768,123.640771 76.7793602,122.765475 76.8404126,121.804878 L76.8404126,121.804878 Z" id="Path" fill="#F0F0F0"></path>
                        <path d="M107.104539,133.572195 L107.104539,130.781951 C107.104539,129.901951 106.482306,129.547805 105.725971,129.987805 L92.9648301,137.365854 C92.1517176,137.897066 91.6398558,138.783657 91.5862621,139.753659 L91.5862621,142.543902 C91.5862621,143.423902 92.2031311,143.783415 92.9648301,143.343415 L105.725971,135.970732 C106.541385,135.436707 107.053436,134.545802 107.104539,133.572195 Z" id="Path" fill="#F0F0F0"></path>
                        <path d="M98.1250728,181.78439 L98.1250728,178.994146 C98.1250728,178.114146 97.5082039,177.76 96.7465049,178.2 L83.9853641,185.567317 C83.1722515,186.09853 82.6603898,186.985121 82.6067961,187.955122 L82.6067961,190.750732 C82.6067961,191.625366 83.223665,191.984878 83.9853641,191.544878 L96.7465049,184.172195 C97.5602636,183.641595 98.0723322,182.754645 98.1250728,181.78439 L98.1250728,181.78439 Z" id="Path" fill="#F0F0F0"></path>
                        <path d="M64.9053398,200.929756 L64.9053398,198.139512 C64.9053398,197.259512 64.2884709,196.905366 63.5267718,197.345366 L50.7656311,204.712683 C49.9527288,205.251868 49.4463931,206.147222 49.4031553,207.121951 L49.4031553,209.912195 C49.4031553,210.786829 50.0200243,211.146341 50.7817233,210.706341 L63.5428641,203.333659 C64.3562515,202.797414 64.8630104,201.903307 64.9053398,200.929756 L64.9053398,200.929756 Z" id="Path" fill="#F0F0F0"></path>
                        <path d="M5.67519417,223.342927 L0.488131068,226.337073 L0.488131068,232.341463 L5.67519417,229.347317 C6.48895289,228.816717 7.0010215,227.929767 7.05376214,226.959512 L7.05376214,224.169268 C7.05376214,223.262439 6.4368932,222.902927 5.67519417,223.342927 Z" id="Path" fill="#F0F0F0"></path>
                        <path d="M13.7374029,79.275122 L0.976262136,86.6478049 C0.79684893,86.7539314 0.6326438,86.8838949 0.488131068,87.0341463 L0.488131068,92.7970732 C0.661175277,92.7718258 0.827263256,92.7115761 0.976262136,92.62 L13.7374029,85.2526829 C14.5511616,84.7220826 15.0632302,83.8351332 15.1159709,82.864878 L15.1159709,80.0746341 C15.1159709,79.1946341 14.4830097,78.8404878 13.7374029,79.275122 Z" id="Path" fill="#F0F0F0"></path>
                        <path d="M75.9285194,174.14878 L88.6896602,166.781463 C89.5034189,166.250863 90.0154875,165.363914 90.0682282,164.393659 L90.0682282,161.603415 C90.0682282,160.723415 89.4513592,160.363902 88.6896602,160.803902 L75.9285194,168.176585 C75.1147607,168.707186 74.6026921,169.594135 74.5499515,170.56439 L74.5499515,173.354634 C74.5606796,174.234634 75.1668204,174.58878 75.9285194,174.14878 Z" id="Path" fill="#F0F0F0"></path>
                        <path d="M209.885631,57.86 L197.12449,65.2273171 C196.310732,65.7579174 195.798663,66.6448668 195.745922,67.615122 L195.745922,70.4053659 C195.745922,71.2853659 196.362791,71.644878 197.12449,71.204878 L209.885631,63.8536585 C210.69939,63.3230582 211.211458,62.4361089 211.264199,61.4658537 L211.264199,58.6756098 C211.264199,57.7741463 210.64733,57.4146341 209.885631,57.86 Z" id="Path" fill="#F0F0F0"></path>
                        <path d="M111.910752,27.5643902 L99.1496117,34.9317073 C98.3358529,35.4623077 97.8237843,36.349257 97.7710437,37.3195122 L97.7710437,40.1097561 C97.7710437,40.9897561 98.3879126,41.3492683 99.1496117,40.9092683 L111.910752,33.5365854 C112.723221,33.0047636 113.234878,32.1185285 113.28932,31.1487805 L113.28932,28.3585366 C113.28932,27.4785366 112.645631,27.1243902 111.910752,27.5643902 Z" id="Path" fill="#F0F0F0"></path>
                        <path d="M174.203786,0.536585366 L161.458738,7.89853659 C160.644979,8.42913695 160.132911,9.31608627 160.08017,10.2863415 L160.08017,13.0765854 C160.08017,13.9565854 160.697039,14.3160976 161.458738,13.8760976 L174.219879,6.50341463 C175.033637,5.97281427 175.545706,5.08586495 175.598447,4.11560976 L175.598447,1.32536585 C175.582354,0.445365854 174.965485,0.0912195122 174.203786,0.536585366 Z" id="Path" fill="#F0F0F0"></path>
                        <path d="M34.1799029,102.86878 L46.9410437,95.5121951 C47.7548024,94.9815948 48.266871,94.0946454 48.3196117,93.1243902 L48.3196117,90.3341463 C48.3196117,89.4541463 47.7027427,89.1 46.9410437,89.54 L34.1799029,96.9073171 C33.3661442,97.4379174 32.8540756,98.3248668 32.801335,99.295122 L32.801335,102.085366 C32.801335,102.949268 33.4182039,103.30878 34.1799029,102.86878 Z" id="Path" fill="#F0F0F0"></path>
                        <path d="M97.4760194,132.94439 L97.4760194,130.14878 C97.4760194,129.274146 96.8591505,128.914634 96.0974515,129.354634 L83.3363107,136.727317 C82.522552,137.257917 82.0104834,138.144867 81.9577427,139.115122 L81.9577427,141.905366 C81.9577427,142.785366 82.5746117,143.139512 83.3363107,142.699512 L96.0974515,135.332195 C96.910564,134.800983 97.4224258,133.914392 97.4760194,132.94439 L97.4760194,132.94439 Z" id="Path" fill="#F0F0F0"></path>
                        <path d="M98.3557282,106.394146 L98.3557282,103.603902 C98.3557282,102.723902 97.7388592,102.36439 96.9771602,102.80439 L84.2160194,110.177073 C83.4022607,110.707674 82.8901921,111.594623 82.8374515,112.564878 L82.8374515,115.365854 C82.8374515,116.245854 83.4543204,116.6 84.2160194,116.16 L96.9771602,108.792683 C97.793876,108.259888 98.306343,107.368259 98.3557282,106.394146 L98.3557282,106.394146 Z" id="Path" fill="#F0F0F0"></path>
                        <path d="M5.07441748,150.243902 L0.488131068,152.926829 L0.488131068,158.90439 L5.07441748,156.253659 C5.88648901,155.716184 6.39283301,154.822809 6.4368932,153.849756 L6.4368932,151.059512 C6.4368932,150.179512 5.8361165,149.825366 5.07441748,150.243902 Z" id="Path" fill="#F0F0F0"></path>
                        <path d="M14.3381796,186.549268 L1.57703883,193.916585 C1.10743566,194.222319 0.735160277,194.656164 0.504223301,195.166829 L0.504223301,199.894146 C0.822292436,200.132034 1.2589697,200.132034 1.57703883,199.894146 L14.3381796,192.521463 C15.1519383,191.990863 15.6640069,191.103914 15.7167476,190.133659 L15.7167476,187.343415 C15.7167476,186.463415 15.0998786,186.109268 14.3381796,186.549268 Z" id="Path" fill="#F0F0F0"></path>
                        <path d="M24.7391262,67.2126829 L24.7391262,70.0029268 C24.7391262,70.8829268 25.3559951,71.2370732 26.1176942,70.7970732 L38.878835,63.4297561 C39.6925937,62.8991557 40.2046623,62.0122064 40.2574029,61.0419512 L40.2574029,58.2517073 C40.2574029,57.3717073 39.640534,57.0121951 38.878835,57.4521951 L26.1176942,64.824878 C25.3039355,65.3554784 24.7918668,66.2424277 24.7391262,67.2126829 Z" id="Path" fill="#F0F0F0"></path>
                        <path d="M220.356311,96.6336585 L209.118568,103.120976 C208.306099,103.652797 207.794443,104.539032 207.74,105.50878 L207.74,108.299024 C207.74,109.179024 208.356869,109.538537 209.118568,109.098537 L220.356311,102.605854 L220.356311,96.6336585 Z" id="Path" fill="#F0F0F0"></path>
                        <line x1="1.61995146" y1="241.409756" x2="220.249029" y2="115.140488" id="Path" fill="#E0E0E0"></line>
                        <path d="M1.6092233,241.694415 C1.5072074,241.692694 1.41347851,241.637661 1.36247573,241.549268 C1.32410497,241.484088 1.3140608,241.406178 1.33428176,241.333358 C1.35450272,241.260539 1.40338844,241.199039 1.46975728,241.162927 L220.104199,114.893659 C220.240474,114.813645 220.415789,114.85929 220.495777,114.99561 C220.575764,115.13193 220.530134,115.307303 220.393859,115.387317 L1.76478155,241.656585 C1.71748352,241.68347 1.66357322,241.696487 1.6092233,241.694415 Z" id="Path" fill="#E0E0E0"></path>
                    </g>
                    <g id="freepik--Window--inject-55" transform="translate(113.182039, 3.756098)">
                        <g id="freepik--Door--inject-55">
                            <polygon id="Path" fill="#FFFFFF" opacity="0.95" points="73.6273301 70.1746341 4.93495146 109.84439 4.93495146 46.5326829 73.6273301 6.86292683"></polygon>
                            <polygon id="Path" fill="#EBEBEB" points="73.6273301 72.8414634 74.4051214 73.2868293 74.4051214 6.41219512 73.6273301 6.86292683"></polygon>
                            <polygon id="Path" fill="#E0E0E0" points="77.489466 1.06243902 1.8506068 44.7512195 0.284296117 43.8443902 75.9231553 0.16097561"></polygon>
                            <polygon id="Path" fill="#E0E0E0" points="74.4051214 69.7239024 4.93495146 109.84439 4.93495146 108.948293 73.621966 69.2678049"></polygon>
                            <polygon id="Path" fill="#EBEBEB" points="1.8506068 115.194146 1.8506068 44.7512195 0.284296117 43.8443902 0.284296117 114.292683"></polygon>
                            <path d="M1.8506068,44.7512195 L1.8506068,115.18878 L77.4841019,71.5053659 L77.4841019,1.07317073 L1.8506068,44.7512195 Z M4.93495146,109.84439 L4.93495146,46.5273171 L74.4051214,6.43902439 L74.4051214,69.7560976 L4.93495146,109.84439 Z" id="Shape" fill="#F5F5F5"></path>
                        </g>
                        <polygon id="Path" fill="#F0F0F0" points="4.92958738 59.5556098 74.4051214 19.435122 74.4051214 21.302439 4.93495146 61.4229268"></polygon>
                        <polygon id="Path" fill="#E0E0E0" points="4.93495146 58.6863415 73.621966 19.0165854 74.4051214 19.435122 4.93495146 59.5556098"></polygon>
                        <polygon id="Path" fill="#E0E0E0" points="4.93495146 58.6863415 73.621966 19.0165854 74.4051214 19.435122 4.93495146 59.5556098"></polygon>
                        <polygon id="Path" fill="#F0F0F0" points="51.4575971 82.9507317 51.4575971 19.6390244 49.8376456 20.5780488 49.8376456 83.8790244"></polygon>
                        <polygon id="Path" fill="#EBEBEB" points="49.0920388 33.182439 49.8483738 33.6170732 49.8483738 20.6102439 49.0920388 21.0502439"></polygon>
                        <polygon id="Path" fill="#EBEBEB" points="49.0920388 83.4604878 49.8483738 83.895122 49.8483738 35.4790244 49.0920388 35.9190244"></polygon>
                        <polygon id="Path" fill="#F0F0F0" points="28.6066262 96.1829268 28.6066262 32.8712195 26.9866748 33.804878 26.9866748 97.1112195"></polygon>
                        <polygon id="Path" fill="#EBEBEB" points="26.2303398 46.3985366 26.9866748 46.8331707 26.9866748 33.8263415 26.2303398 34.2663415"></polygon>
                        <polygon id="Path" fill="#EBEBEB" points="26.2303398 96.6765854 26.9866748 97.1112195 26.9866748 48.695122 26.2303398 49.135122"></polygon>
                        <path d="M77.2749029,85.3170732 C77.145096,85.2366239 76.9809477,85.2366239 76.8511408,85.3170732 C76.4486535,85.6034365 75.9257656,85.6583884 75.4725728,85.4619512 C75.000534,85.1882927 74.7323301,84.5121951 74.7323301,83.6 C74.731843,83.4485548 74.6525851,83.3082829 74.5231311,83.2297561 C74.3900691,83.1541646 74.2270668,83.1541646 74.0940049,83.2297561 L4.8276699,123.232195 C4.69898316,123.311464 4.61998906,123.451269 4.61847087,123.602439 C4.61847087,125.49122 3.48128641,127.69122 2.07589806,128.501463 C1.94277837,128.577055 1.86133193,128.718586 1.86133193,128.871707 L1.86133193,163.073659 C1.86399819,163.225897 1.94515448,163.365938 2.07589806,163.443902 C2.20771589,163.524067 2.37320644,163.524067 2.50502427,163.443902 C2.9065302,163.155763 3.42947802,163.098769 3.88359223,163.293659 C4.35026699,163.567317 4.61847087,164.243415 4.61847087,165.15561 C4.61397751,165.269839 4.65699685,165.380826 4.7372953,165.462168 C4.81759374,165.54351 4.92799376,165.587936 5.04223301,165.585026 C5.11893923,165.586245 5.19469715,165.567762 5.26216019,165.53122 L74.5338592,125.52878 C74.6633132,125.450254 74.7425711,125.309982 74.7430583,125.158537 C74.7430583,123.301951 75.9070631,121.053659 77.2856311,120.259512 C77.4187508,120.183921 77.5002002,120.04239 77.5002002,119.889268 L77.5002002,85.6873171 C77.5010325,85.5312422 77.4138796,85.3880151 77.2749029,85.3170732 L77.2749029,85.3170732 Z M76.6365777,119.658537 C75.1346359,120.656585 73.9545388,122.878049 73.8848058,124.911707 L5.40699029,164.447317 C5.33938758,163.688615 4.92831707,163.002612 4.29126214,162.585366 C4.01080206,162.423286 3.69253915,162.338141 3.36864078,162.338537 C3.14281531,162.340918 2.91861739,162.377091 2.70349515,162.445854 L2.70349515,129.107805 C4.20007282,128.10439 5.38553398,125.888293 5.45526699,123.849268 L73.9277184,84.3136585 C73.992085,85.0791236 74.4031445,85.7730162 75.0434466,86.1970732 C75.5337138,86.4765377 76.1216492,86.527509 76.6526699,86.3365854 L76.6365777,119.658537 Z" id="Shape" fill="#E0E0E0"></path>
                        <path d="M76.6365777,86.3365854 L76.6365777,111.201951 C75.1346359,112.2 73.9545388,114.421463 73.8848058,116.455122 L5.40699029,155.996098 C5.34737071,155.227693 4.93536875,154.530228 4.29126214,154.107317 C4.01037903,153.946874 3.69208315,153.863572 3.36864078,153.865854 C3.14307365,153.866337 2.91885802,153.900704 2.70349515,153.967805 L2.70349515,129.107805 C4.20007282,128.10439 5.38553398,125.888293 5.45526699,123.849268 L73.9277184,84.3136585 C73.992085,85.0791236 74.4031445,85.7730162 75.0434466,86.1970732 C75.5293832,86.471694 76.1103322,86.5225683 76.6365777,86.3365854 Z" id="Path" fill="#FFFFFF"></path>
                    </g>
                </g>
                <g id="freepik--door--inject-55" transform="translate(11.800971, 6.439024)">
                    <polygon id="Path" fill="#A4A4A4" points="86.463568 10.3614634 86.463568 179.17122 7.68135922 224.673659 7.65990291 55.8746341"></polygon>
                    <polygon id="Path" fill="#FFFFFF" opacity="0.6" points="86.463568 10.6297561 86.463568 179.176585 7.68135922 224.679024 7.65990291 55.88"></polygon>
                    <polygon id="Path" fill="#A4A4A4" points="80.2251456 175.565366 89.3440777 180.834634 7.65990291 228.01122 7.6867233 217.166829"></polygon>
                    <polygon id="Path" fill="#FFFFFF" opacity="0.8" points="80.2251456 175.565366 89.3440777 180.834634 7.65990291 228.01122 7.6867233 217.166829"></polygon>
                    <polygon id="Path" fill="#A4A4A4" points="80.2251456 175.565366 7.6867233 217.467317 7.65990291 56.4434146 80.2251456 14.5360976"></polygon>
                    <polygon id="Path" fill="#FFFFFF" opacity="0.95" points="80.2251456 175.565366 7.6867233 217.467317 7.65990291 56.1429268 80.2251456 14.262439"></polygon>
                    <polygon id="Path" fill="#000000" opacity="0.1" points="80.2251456 14.2356098 80.2197816 26.3731707 7.65990291 68.2804878 7.65990291 56.1429268"></polygon>
                    <polygon id="Path" fill="#A4A4A4" points="46.1954369 29.5926829 43.4597573 31.1702439 43.4597573 199.958537 46.1954369 198.402439"></polygon>
                    <polygon id="Path" fill="#FFFFFF" opacity="0.45" points="46.1954369 29.5926829 43.4597573 31.1702439 43.4597573 199.958537 46.1954369 198.402439"></polygon>
                    <polygon id="Path" fill="#A4A4A4" points="43.4597573 31.1702439 43.4597573 199.958537 40.7187136 198.391707 40.7187136 32.742439"></polygon>
                    <polygon id="Path" fill="#FFFFFF" opacity="0.25" points="43.4597573 31.1702439 43.4597573 199.958537 40.7187136 198.391707 40.7187136 32.742439"></polygon>
                    <polygon id="Path" fill="#A4A4A4" points="86.463568 179.439512 89.1187864 180.963415 89.1187864 9.1004878 86.463568 10.6297561"></polygon>
                    <polygon id="Path" fill="#000000" opacity="0.4" points="86.463568 179.439512 89.1187864 180.963415 89.1187864 9.1004878 86.463568 10.6297561"></polygon>
                    <polygon id="Path" fill="#A4A4A4" points="89.1187864 180.963415 93.3349515 178.532683 93.3349515 1.79756098 2.73031553 54.1253659 2.73031553 230.855122 7.65990291 228.01122 7.65990291 56.1429268 89.1187864 9.1004878"></polygon>
                    <g id="Group" opacity="0.25" transform="translate(2.682039, 1.609756)" fill="#000000">
                        <polygon id="Path" points="86.4367476 179.353659 90.6529126 176.922927 90.6529126 0.187804878 0.048276699 52.5156098 0.048276699 229.245366 4.97786408 226.401463 4.97786408 54.5331707 86.4367476 7.49073171"></polygon>
                    </g>
                    <polygon id="Path" fill="#A4A4A4" points="93.3349515 1.79756098 2.73031553 54.1253659 0.123373786 52.6068293 90.7226456 0.27902439"></polygon>
                    <polygon id="Path" fill="#000000" opacity="0.1" points="93.3349515 1.79756098 2.73031553 54.1253659 0.123373786 52.6068293 90.7226456 0.27902439"></polygon>
                    <polygon id="Path" fill="#A4A4A4" points="2.73031553 230.855122 2.73031553 54.1253659 0.123373786 52.6068293 0.123373786 229.352683"></polygon>
                    <polygon id="Path" fill="#000000" opacity="0.4" points="0.123373786 52.6068293 0.123373786 229.352683 2.73031553 230.855122 2.73031553 54.1253659"></polygon>
                </g>
                <polygon id="Path" fill="#FAFAFA" points="11.9243447 59.0458537 103.371141 6.2297561 130.003786 25.8419512 38.5569903 78.6580488"></polygon>
                <polygon id="Path" fill="#A4A4A4" points="11.9243447 59.0458537 38.5569903 78.6580488 46.8713107 73.8556098 20.238665 54.2434146"></polygon>
                <polygon id="Path" fill="#A4A4A4" points="28.5476214 49.4409756 55.1856311 69.0531707 63.4999515 64.2560976 36.8619417 44.6385366"></polygon>
                <polygon id="Path" fill="#A4A4A4" points="45.1762621 39.8414634 71.8089078 59.4536585 80.1232282 54.6512195 53.4905825 35.0390244"></polygon>
                <polygon id="Path" fill="#A4A4A4" points="61.8049029 30.2365854 88.4375485 49.8487805 96.7518689 45.0463415 70.1192233 25.4341463"></polygon>
                <polygon id="Path" fill="#A4A4A4" points="78.4335437 20.6317073 105.066189 40.2439024 113.38051 35.4468293 86.7478641 15.8346341"></polygon>
                <polygon id="Path" fill="#A4A4A4" points="95.0568204 11.0321951 121.69483 30.6443902 130.003786 25.8419512 103.371141 6.2297561"></polygon>
                <g id="Group" opacity="0.5" transform="translate(11.800971, 5.902439)" fill="#FFFFFF">
                    <polygon id="Path" points="0.123373786 53.1434146 26.7560194 72.7556098 35.0703398 67.9531707 8.43769417 48.3409756"></polygon>
                    <polygon id="Path" points="16.7466505 43.5385366 43.3846602 63.1507317 51.6989806 58.3536585 25.0609709 38.7360976"></polygon>
                    <polygon id="Path" points="33.3752913 33.9390244 60.0079369 53.5512195 68.3222573 48.7487805 41.6896117 29.1365854"></polygon>
                    <polygon id="Path" points="50.003932 24.3341463 76.6365777 43.9463415 84.9508981 39.1439024 58.3182524 19.5317073"></polygon>
                    <polygon id="Path" points="66.6325728 14.7292683 93.2652184 34.3414634 101.579539 29.5443902 74.9468932 9.93219512"></polygon>
                    <polygon id="Path" points="83.2558495 5.1297561 109.893859 24.7419512 118.202816 19.9395122 91.5701699 0.327317073"></polygon>
                </g>
                <path d="M38.5569903,78.6580488 C38.5569903,81.3087805 40.4183252,82.3873171 42.7141505,81.0565854 C45.1680979,79.4563468 46.7122552,76.7815787 46.8713107,73.8556098 L38.5569903,78.6580488 Z" id="Path" fill="#A4A4A4"></path>
                <path d="M46.8713107,73.8556098 C46.8713107,76.5063415 48.7326456,77.6117073 51.0284709,76.2595122 C53.4838936,74.6581748 55.0282496,71.9810693 55.1856311,69.0531707 L46.8713107,73.8556098 Z" id="Path" fill="#E6E6E6"></path>
                <path d="M55.1856311,69.0531707 C55.1856311,71.7092683 57.046966,72.782439 59.3427913,71.4570732 C61.798214,69.8557358 63.34257,67.1786303 63.4999515,64.2507317 L55.1856311,69.0531707 Z" id="Path" fill="#A4A4A4"></path>
                <path d="M63.4999515,64.2507317 C63.4999515,66.9068293 65.3612864,67.98 67.6571117,66.6546341 C70.1096632,65.0538147 71.6519208,62.3788858 71.8089078,59.4536585 L63.4999515,64.2507317 Z" id="Path" fill="#E6E6E6"></path>
                <path d="M71.8142718,59.4536585 C71.8142718,62.1043902 73.6756068,63.177561 75.971432,61.8521951 C78.4253794,60.2519565 79.9695368,57.5771885 80.1285922,54.6512195 L71.8142718,59.4536585 Z" id="Path" fill="#A4A4A4"></path>
                <path d="M80.1232282,54.6512195 C80.1232282,57.3019512 81.9845631,58.375122 84.2803883,57.0497561 C86.7343358,55.4495175 88.2784931,52.7747494 88.4375485,49.8487805 L80.1232282,54.6512195 Z" id="Path" fill="#E6E6E6"></path>
                <path d="M88.4375485,49.8487805 C88.4375485,52.4995122 90.2988835,53.5726829 92.5947087,52.2473171 C95.0412983,50.6525814 96.5844655,47.9894877 96.7518689,45.0731707 L88.4375485,49.8487805 Z" id="Path" fill="#A4A4A4"></path>
                <path d="M96.7518689,45.0731707 C96.7518689,47.7239024 98.6132039,48.8292683 100.909029,47.4717073 C103.370366,45.8659808 104.915518,43.1795167 105.066189,40.2439024 L96.7518689,45.0731707 Z" id="Path" fill="#E6E6E6"></path>
                <path d="M105.066189,40.2439024 C105.066189,42.8946341 106.927524,44 109.22335,42.6478049 C111.678124,41.0458537 113.222273,38.3691079 113.38051,35.4414634 L105.066189,40.2439024 Z" id="Path" fill="#A4A4A4"></path>
                <path d="M113.38051,35.4414634 C113.38051,38.1243902 115.241845,39.197561 117.53767,37.8453659 C119.993093,36.2440285 121.537449,33.5669229 121.69483,30.6390244 L113.38051,35.4414634 Z" id="Path" fill="#E6E6E6"></path>
                <path d="M121.69483,30.6390244 C121.69483,33.3219512 123.556165,34.395122 125.85199,33.0429268 C128.305938,31.4426882 129.850095,28.7679202 130.00915,25.8419512 L121.69483,30.6390244 Z" id="Path" fill="#A4A4A4"></path>
            </g>
            <g id="freepik--Plant--inject-55" transform="translate(193.000000, 81.000000)">
                <g id="freepik--Plants--inject-55">
                    <g id="freepik--Pot--inject-55" transform="translate(10.330097, 45.166568)">
                        <g id="freepik--pot--inject-55">
                            <path d="M6.35029126,28.7829335 C0.788349515,23.0994736 -2.4792233,9.25376957 2.94679612,4.75324364 L30.5607767,4.75324364 C35.9976699,9.25376957 32.735534,23.0940966 27.1627184,28.7775565 L27.0104854,28.9334887 L26.8147573,29.1163058 C26.6625243,29.272238 26.4939806,29.4174162 26.3145631,29.5679714 L26.1840777,29.6701339 C26.0427184,29.7776734 25.912233,29.8852128 25.76,29.9873753 C25.5300615,30.1551701 25.2904321,30.3095717 25.0423301,30.4497949 C20.464466,33.0898884 13.0431068,33.0898884 8.46524272,30.4497949 L8.46524272,30.4497949 C8.21608692,30.3064989 7.97471842,30.1503513 7.74213592,29.9819983 C7.60610633,29.8908131 7.47541135,29.792077 7.35067961,29.6862648 L7.18757282,29.5572175 C7.01895825,29.4220958 6.85745218,29.2785218 6.70368932,29.1270597 C6.62757282,29.0571591 6.55145631,28.9872584 6.4807767,28.9119808 L6.35029126,28.7829335 Z" id="Path" fill="#37474F"></path>
                            <path d="M28.1631068,2.93582695 C34.464466,6.57603729 34.464466,12.4745761 28.1631068,16.1147864 C21.8617476,19.7549967 11.6458252,19.7496198 5.32815534,16.1147864 C-0.989514563,12.479953 -0.973203883,6.57603729 5.32815534,2.93582695 C11.6295146,-0.70438339 21.8617476,-0.699006417 28.1631068,2.93582695 Z" id="Path" fill="#455A64"></path>
                            <path d="M25.1347573,4.68871997 C29.7615534,7.37720619 29.7615534,11.6787841 25.1347573,14.3672704 C20.5079612,17.0557566 13.0050485,17.0557566 8.37825243,14.3672704 C3.75145631,11.6787841 3.74601942,7.37720619 8.37825243,4.68871997 C13.0104854,2.00023375 20.5079612,2.01636466 25.1347573,4.68871997 Z" id="Path" fill="#263238"></path>
                            <path d="M8.37825243,9.28065443 C13.0050485,6.59216821 20.5079612,6.59216821 25.1347573,9.28065443 C26.2566213,9.88777132 27.2077568,10.7618947 27.9021359,11.8239624 C27.2058339,12.8830417 26.2550462,13.7549981 25.1347573,14.3618934 C20.5079612,17.0503796 13.0050485,17.0503796 8.37825243,14.3618934 C7.25531031,13.7566378 6.30238527,12.8844349 5.60543689,11.8239624 C6.30062608,10.7606385 7.25386145,9.88630296 8.37825243,9.28065443 L8.37825243,9.28065443 Z" id="Path" fill="#F0F0F0"></path>
                        </g>
                    </g>
                    <g id="freepik--plants--inject-55">
                        <path d="M15.9029126,10.5496199 L25.096699,17.7440091 L16.2019417,13.6843949 C16.2019417,13.6843949 16.1421359,20.5830505 17.7460194,24.4921095 C17.7460194,24.4921095 22.1281553,27.0730562 24.6726214,29.3313847 L17.8547573,26.6428984 C17.8547573,26.6428984 17.3871845,31.0842777 19.2574757,37.8592629 C19.7467961,39.6336639 21.7638835,43.0211565 23.0361165,45.5537105 C23.6180912,46.7238381 24.2792706,47.8537786 25.0151456,48.9358262 L25.151068,49.1401511 C26.7114563,48.2637046 28.3316505,47.403389 30.0116505,46.5807122 C31.0990291,44.3008759 32.5343689,38.6711858 33.0508738,34.0631204 C35.0135922,16.4158969 21.5246602,3.8230274 10.6780583,0.430157795 C10.6780583,0.489304492 14.4023301,5.11350079 15.9029126,10.5496199 Z" id="Path" fill="#A4A4A4"></path>
                        <path d="M15.9029126,10.5496199 L25.096699,17.7440091 L16.2019417,13.6843949 C16.2019417,13.6843949 16.1421359,20.5830505 17.7460194,24.4921095 C17.7460194,24.4921095 22.1281553,27.0730562 24.6726214,29.3313847 L17.8547573,26.6428984 C17.8547573,26.6428984 17.3871845,31.0842777 19.2574757,37.8592629 C19.7467961,39.6336639 21.7638835,43.0211565 23.0361165,45.5537105 C23.6180912,46.7238381 24.2792706,47.8537786 25.0151456,48.9358262 L25.151068,49.1401511 C26.7114563,48.2637046 28.3316505,47.403389 30.0116505,46.5807122 C31.0990291,44.3008759 32.5343689,38.6711858 33.0508738,34.0631204 C35.0135922,16.4158969 21.5246602,3.8230274 10.6780583,0.430157795 C10.6780583,0.489304492 14.4023301,5.11350079 15.9029126,10.5496199 Z" id="Path" fill="#FFFFFF" opacity="0.2"></path>
                        <path d="M23.5906796,11.2916421 C25.4664078,13.1574516 26.9941748,17.942957 27.6520388,20.5507887 C28.2991385,23.0596248 28.7624758,25.6113416 29.0384466,28.1860895 C29.6217935,33.3727836 28.9547886,38.6223742 27.0920388,43.505084 L27.0920388,43.505084 C27.0655389,43.5684401 27.0662053,43.6397256 27.0938852,43.7025864 C27.1215651,43.7654471 27.1738825,43.8144873 27.238835,43.8384563 C27.3708804,43.8863547 27.5175541,43.822149 27.5704854,43.693278 L27.5704854,43.693278 C29.3777069,38.7226025 29.9683377,33.3991742 29.2939806,28.1592047 C29.0710657,25.5078484 28.5885459,22.8841387 27.8532039,20.3249558 C26.7658252,16.3728811 25.4990291,13.1198128 23.5906796,11.2916421 Z" id="Path" fill="#FAFAFA"></path>
                        <path d="M55.695534,22.2821738 L55.695534,22.2821738 C55.4671845,22.5563994 51.6885437,26.9924016 46.0885437,35.6331964 L36.758835,37.1172408 L43.6365049,38.3055517 L39.9339806,44.091174 L30.751068,45.9731144 L37.9223301,47.1237865 C37.9223301,47.1237865 35.9324272,54.04395 30.8,56.9260072 C27.9673786,58.539099 26.5809709,58.7649318 25.7328155,57.9637629 C25.1401942,57.4260657 24.998835,54.0869658 24.5040777,51.124254 C24.0093204,48.1615421 23.9603883,43.3437748 26.7930097,37.5366446 C27.5593605,35.9704508 28.5500015,34.5216922 29.7343689,33.2350667 C36.5250485,25.8094677 49.3506796,22.1907653 55.695534,22.2821738 Z" id="Path" fill="#A4A4A4"></path>
                        <path d="M55.695534,22.2821738 L55.695534,22.2821738 C55.4671845,22.5563994 51.6885437,26.9924016 46.0885437,35.6331964 L36.758835,37.1172408 L43.6365049,38.3055517 L39.9339806,44.091174 L30.751068,45.9731144 L37.9223301,47.1237865 C37.9223301,47.1237865 35.9324272,54.04395 30.8,56.9260072 C27.9673786,58.539099 26.5809709,58.7649318 25.7328155,57.9637629 C25.1401942,57.4260657 24.998835,54.0869658 24.5040777,51.124254 C24.0093204,48.1615421 23.9603883,43.3437748 26.7930097,37.5366446 C27.5593605,35.9704508 28.5500015,34.5216922 29.7343689,33.2350667 C36.5250485,25.8094677 49.3506796,22.1907653 55.695534,22.2821738 Z" id="Path" fill="#FFFFFF" opacity="0.5"></path>
                        <path d="M45.9363107,25.2986553 C41.1137864,27.3902976 36.5467961,30.2669779 32.9638835,34.1652829 C31.1454882,36.0958447 29.6447653,38.2967178 28.5165049,40.6875505 C27.4232258,43.0871264 26.7380252,45.6487484 26.4885437,48.2690816 C26.4885437,48.2690816 26.4885437,48.2959665 26.4885437,48.2959665 C26.4988663,48.3008089 26.5108425,48.3008089 26.521165,48.2959665 C27.0163592,45.7464728 27.8366307,43.2694173 28.9623301,40.9241372 C30.0899007,38.5922454 31.5310405,36.4218035 33.2466019,34.4717703 C36.7153398,30.5680883 41.1790291,27.6053765 45.9363107,25.3846869 C45.9363107,25.3846869 45.9526214,25.2717705 45.9363107,25.2986553 Z" id="Path" fill="#FAFAFA"></path>
                        <path d="M0.11961165,26.0890703 L0.11961165,26.0890703 C0.902202125,26.0773997 1.68477805,26.1133139 2.46291262,26.1966097 C5.53533857,26.5429119 8.55236038,27.2653745 11.4446602,28.3473987 C12.5320388,28.7399177 13.592233,29.1915834 14.6524272,29.6916418 C15.1961165,29.9389825 15.7071845,30.2024542 16.2236893,30.4820568 C18.7890232,31.8058344 21.1134056,33.5430829 23.1013592,35.6224424 C24.0239817,36.619856 24.8200318,37.7249326 25.4718447,38.9131495 L25.7219417,39.3755692 L25.7219417,39.3755692 C25.9231068,39.7788421 26.1025243,40.1767381 26.2656311,40.5692571 C27.8673334,43.9823192 28.5651857,47.7421249 28.2935922,51.4952651 C28.1957282,54.1461125 27.287767,57.173348 26.7658252,57.6680294 C26.6953498,57.7346762 26.6168276,57.7924673 26.5320388,57.8400925 C25.7708738,58.3186431 24.5530097,58.0390405 22.2858252,56.764698 C17.7405825,54.2482749 15.9518447,47.8765626 15.9518447,47.8765626 L14.1576699,45.1880764 L10.8737864,40.1713611 L16.9413592,39.0959666 L8.69902913,37.8270011 C6.08529674,33.7514758 3.22575127,29.8353276 0.13592233,26.0998242 L0.13592233,26.0998242 L0.11961165,26.0890703 Z" id="Path" fill="#A4A4A4"></path>
                        <path d="M0.11961165,26.0890703 L0.11961165,26.0890703 C0.902202125,26.0773997 1.68477805,26.1133139 2.46291262,26.1966097 C5.53533857,26.5429119 8.55236038,27.2653745 11.4446602,28.3473987 C12.5320388,28.7399177 13.592233,29.1915834 14.6524272,29.6916418 C15.1961165,29.9389825 15.7071845,30.2024542 16.2236893,30.4820568 C18.7890232,31.8058344 21.1134056,33.5430829 23.1013592,35.6224424 C24.0239817,36.619856 24.8200318,37.7249326 25.4718447,38.9131495 L25.7219417,39.3755692 L25.7219417,39.3755692 C25.9231068,39.7788421 26.1025243,40.1767381 26.2656311,40.5692571 C27.8673334,43.9823192 28.5651857,47.7421249 28.2935922,51.4952651 C28.1957282,54.1461125 27.287767,57.173348 26.7658252,57.6680294 C26.6953498,57.7346762 26.6168276,57.7924673 26.5320388,57.8400925 C25.7708738,58.3186431 24.5530097,58.0390405 22.2858252,56.764698 C17.7405825,54.2482749 15.9518447,47.8765626 15.9518447,47.8765626 L14.1576699,45.1880764 L10.8737864,40.1713611 L16.9413592,39.0959666 L8.69902913,37.8270011 C6.08529674,33.7514758 3.22575127,29.8353276 0.13592233,26.0998242 L0.13592233,26.0998242 L0.11961165,26.0890703 Z" id="Path" fill="#FFFFFF" opacity="0.5"></path>
                        <path d="M2.46291262,26.1966097 C5.53533857,26.5429119 8.55236038,27.2653745 11.4446602,28.3473987 C12.5320388,28.7399177 13.592233,29.1915834 14.6524272,29.6916418 C15.1961165,29.9389825 15.7071845,30.2024542 16.2236893,30.4820568 C18.7890232,31.8058344 21.1134056,33.5430829 23.1013592,35.6224424 C24.0239817,36.619856 24.8200318,37.7249326 25.4718447,38.9131495 L25.7219417,39.3755692 L25.7219417,39.3755692 C25.9231068,39.7788421 26.1025243,40.1767381 26.2656311,40.5692571 C27.8673334,43.9823192 28.5651857,47.7421249 28.2935922,51.4952651 C28.1957282,54.1461125 27.287767,57.173348 26.7658252,57.6680294 C26.6953498,57.7346762 26.6168276,57.7924673 26.5320388,57.8400925 C26.3777828,57.9302886 26.2083372,57.9922197 26.0318447,58.0229096 C26.575534,53.9149027 24.5475728,43.505084 21.4594175,39.2035061 C18.2407767,34.7513729 10.5856311,28.293629 0.125048544,26.0621783 L0.125048544,26.0621783 C0.906330233,26.0615282 1.68697193,26.1064141 2.46291262,26.1966097 L2.46291262,26.1966097 Z" id="Path" fill="#A4A4A4" opacity="0.4"></path>
                        <path d="M26.064466,58.0390405 C26.2625743,55.0007499 26.0615461,51.9498788 25.4664078,48.962711 C24.9124058,45.9552445 23.8850442,43.0522761 22.4217476,40.3595551 C20.7989599,37.7409949 18.7101132,35.4347033 16.2563107,33.552308 C13.8474563,31.6434605 11.1881855,30.0662064 8.35106796,28.8635881 C8.33969629,28.8555111 8.32438138,28.8555111 8.31300971,28.8635881 C11.0159941,30.2840756 13.5662711,31.9721279 15.9246602,33.9018112 C17.108578,34.8507075 18.2257295,35.8782978 19.2683495,36.9774395 C20.3302953,38.0506966 21.2659627,39.2394083 22.0574757,40.5208643 C23.5463081,43.1587012 24.6084833,46.0107512 25.2054369,48.973465 C25.8649561,51.9341933 26.1336025,54.9669851 26.0046602,57.9960247 C26.0046602,57.9960247 26.0590291,58.0713024 26.064466,58.0390405 Z" id="Path" fill="#FAFAFA"></path>
                    </g>
                </g>
            </g>
            <g id="freepik--Locator--inject-9-Copy" transform="translate(61.000000, 81.000000)">
                <g id="freepik--Pin--inject-9">
                    <path d="M13.5098079,78.8609524 L13.5098079,73.611619 C13.5937648,66.7475802 14.7316222,59.9379889 16.8829727,53.4246667 L16.8829727,53.4246667 C22.3568629,36.3582857 33.8568339,20.0780952 47.1694308,12.3008571 C55.6443573,7.37809524 63.3870309,6.7612381 69.2810661,9.67619048 L57.6250412,2.91495238 C54.7518365,1.00887603 51.3774402,0.0145753433 47.9376961,0.0604761905 C47.3975096,0.0604761905 46.8573231,0.0604761905 46.3051324,0.133047619 C45.7338461,0.172448765 45.1649162,0.241076952 44.6005438,0.338666667 C44.0183452,0.412359987 43.4410953,0.521415672 42.8719469,0.665238095 C42.2957479,0.786190476 41.6715324,0.95552381 41.1073375,1.13695238 C39.8584054,1.51089206 38.6353263,1.96747145 37.4460733,2.50371429 C36.8338619,2.76980952 36.2456588,3.08428571 35.5734266,3.38666667 C34.9011945,3.68904762 34.3009873,4.064 33.6767717,4.42685714 C15.0943551,15.24 0.0651653592,42.6840952 0.0651653592,65.7255238 L0.0651653592,70.9869524 C0.0651653592,93.9679048 30.8197852,119.077619 30.8197852,119.077619 L43.292092,126.165429 C43.066847,126.027073 42.8539716,125.86924 42.6558723,125.693714 C33.4606971,117.202857 13.5098079,96.6046667 13.5098079,78.8609524 Z M50.242492,30.4074286 C50.3528462,30.9906564 50.4250267,31.5805634 50.4585666,32.1733333 C50.4585666,32.3668571 50.4585666,32.5724762 50.4585666,32.7901905 C50.4767581,33.1407129 50.4767581,33.4919537 50.4585666,33.8424762 C50.4585666,44.6435238 42.9319676,57.8031429 33.6527634,63.197619 C33.3046432,63.4032381 32.9805313,63.5846667 32.6444152,63.7419048 C32.3082992,63.8991429 31.9721831,64.0684762 31.6480712,64.213619 L30.6757354,64.6127619 L30.5797023,64.6127619 C32.0201997,72.8859048 38.8625624,75.7766667 47.1214142,70.9990476 C56.4126226,65.580381 63.9272174,52.4328571 63.9272174,41.6197143 C63.9872381,32.0765714 58.0691946,27.5408571 50.242492,30.4074286 Z" id="Shape" fill="#A0A0A0"></path>
                    <path d="M13.5098079,78.8609524 L13.5098079,73.611619 C13.5937648,66.7475802 14.7316222,59.9379889 16.8829727,53.4246667 C22.3568629,36.3582857 33.8568339,20.0780952 47.1694308,12.3008571 C55.6443573,7.37809524 63.3870309,6.7612381 69.2810661,9.67619048 L57.6250412,2.91495238 C54.7518365,1.00887603 51.3774402,0.0145753433 47.9376961,0.0604761905 C47.3975096,0.0604761905 46.8573231,0.0604761905 46.3051324,0.133047619 C45.7338461,0.172448765 45.1649162,0.241076952 44.6005438,0.338666667 C44.0183452,0.412359987 43.4410953,0.521415672 42.8719469,0.665238095 C42.2957479,0.786190476 41.6715324,0.95552381 41.1073375,1.13695238 C39.8584054,1.51089206 38.6353263,1.96747145 37.4460733,2.50371429 C36.8338619,2.76980952 36.2456588,3.08428571 35.5734266,3.38666667 C34.9011945,3.68904762 34.3009873,4.064 33.6767717,4.42685714 C15.0943551,15.24 0.0651653592,42.6840952 0.0651653592,65.7255238 L0.0651653592,70.9869524 C0.0651653592,93.9679048 30.8197852,119.077619 30.8197852,119.077619 L43.292092,126.165429 C43.066847,126.027073 42.8539716,125.86924 42.6558723,125.693714 C33.4606971,117.202857 13.5098079,96.6046667 13.5098079,78.8609524 Z" id="Path" fill-opacity="0" fill="#000000" opacity="0"></path>
                    <path d="M50.242492,30.4074286 C50.3528462,30.9906564 50.4250267,31.5805634 50.4585666,32.1733333 C50.4585666,32.3668571 50.4585666,32.5724762 50.4585666,32.7901905 C50.4767581,33.1407129 50.4767581,33.4919537 50.4585666,33.8424762 C50.4585666,44.6435238 42.9319676,57.8031429 33.6527634,63.197619 C33.3046432,63.4032381 32.9805313,63.5846667 32.6444152,63.7419048 C32.3082992,63.8991429 31.9721831,64.0684762 31.6480712,64.213619 L30.6757354,64.6127619 L30.5797023,64.6127619 C32.0201997,72.8859048 38.8625624,75.7766667 47.1214142,70.9990476 C56.4126226,65.580381 63.9272174,52.4328571 63.9272174,41.6197143 C63.9872381,32.0765714 58.0691946,27.5408571 50.242492,30.4074286 Z" id="Path" fill="#000000" opacity="0.5"></path>
                    <path d="M80.8170496,34.4593333 C80.8170496,11.4179048 65.7518475,1.48771429 47.2054433,12.3008571 C28.659039,23.114 13.5938369,50.5580952 13.5938369,73.611619 L13.5938369,78.8609524 C13.5938369,96.6046667 33.5567303,117.202857 42.7278971,125.73 C43.778453,126.735994 45.2436451,127.174154 46.6687745,126.908504 C48.093904,126.642855 49.3065488,125.705535 49.9303842,124.387429 C57.85312,108.046762 80.9490952,58.7949524 80.9490952,39.7207619 L80.8170496,34.4593333 Z M47.2054433,71.0232381 C37.9142349,76.4298095 30.3996401,72.0513333 30.3996401,61.2381905 C30.3996401,50.4250476 37.9382432,37.2775238 47.2054433,31.8830476 C56.4726433,26.4885714 64.0112464,30.8549524 64.0112464,41.6680952 C64.0112464,52.4812381 56.4606392,65.6166667 47.1694308,71.0232381 L47.2054433,71.0232381 Z" id="Shape" fill="#DDDDDD"></path>
                    <path d="M69.2810661,9.67619048 L57.6250412,2.91495238 C54.7518365,1.00887603 51.3774402,0.0145753433 47.9376961,0.0604761905 C47.3975096,0.0604761905 46.8573231,0.0604761905 46.3051324,0.133047619 C45.7338461,0.172448765 45.1649162,0.241076952 44.6005438,0.338666667 C44.0183452,0.412359987 43.4410953,0.521415672 42.8719469,0.665238095 C42.2957479,0.786190476 41.6715324,0.95552381 41.1073375,1.13695238 C39.8584054,1.51089206 38.6353263,1.96747145 37.4460733,2.50371429 C36.8338619,2.76980952 36.2456588,3.08428571 35.5734266,3.38666667 C34.9011945,3.68904762 34.3009873,4.064 33.6767717,4.42685714 C21.1084318,11.684 10.1606514,26.6579048 4.3866576,42.6840952 L17.8433043,50.5097143 C23.6172981,34.495619 34.5770826,19.5700952 47.1454225,12.2524762 C55.6563614,7.37809524 63.3870309,6.7612381 69.2810661,9.67619048 Z" id="Path" fill="#A0A0A0"></path>
                    <path d="M69.2810661,9.67619048 L57.6250412,2.91495238 C54.7518365,1.00887603 51.3774402,0.0145753433 47.9376961,0.0604761905 C47.3975096,0.0604761905 46.8573231,0.0604761905 46.3051324,0.133047619 C45.7338461,0.172448765 45.1649162,0.241076952 44.6005438,0.338666667 C44.0183452,0.412359987 43.4410953,0.521415672 42.8719469,0.665238095 C42.2957479,0.786190476 41.6715324,0.95552381 41.1073375,1.13695238 C39.8584054,1.51089206 38.6353263,1.96747145 37.4460733,2.50371429 C36.8338619,2.76980952 36.2456588,3.08428571 35.5734266,3.38666667 C34.9011945,3.68904762 34.3009873,4.064 33.6767717,4.42685714 C21.1084318,11.684 10.1606514,26.6579048 4.3866576,42.6840952 L17.8433043,50.5097143 C23.6172981,34.495619 34.5770826,19.5700952 47.1454225,12.2524762 C55.6563614,7.37809524 63.3870309,6.7612381 69.2810661,9.67619048 Z" id="Path" fill="#FFFFFF" opacity="0.356259301"></path>
                    <path d="M47.181435,12.3008571 L45.1887469,13.6918095 C44.5051438,14.1236115 43.8477468,14.5961672 43.2200671,15.1069524 C42.0196526,16.1471429 40.6751883,17.0784762 39.5347945,18.239619 C38.3307798,19.3096031 37.1809311,20.4399195 36.0896049,21.6262857 L34.4690453,23.3921905 L32.9325147,25.2548571 C24.7682618,35.2899847 18.888094,47.0074424 15.7065665,59.5811429 C15.2744172,61.1414286 15.0343343,62.738 14.6862141,64.3224762 C14.3380939,65.9069524 14.2540649,67.5277143 14.0259861,69.1605714 C13.7979074,70.7934286 13.7979074,72.39 13.7138784,73.9986667 L13.5698286,78.8367619 L13.4257789,73.9986667 C13.4257789,72.3779048 13.4257789,70.7450476 13.4857996,69.1605714 C13.5458203,67.5760952 13.7738991,65.8948571 14.013982,64.3224762 C14.2540649,62.7500952 14.5061519,61.0809524 14.8782804,59.484381 C17.773508,46.657209 23.7551736,34.7443214 32.296295,24.7952381 C36.4930793,19.7837996 41.5314529,15.5546583 47.181435,12.3008571 L47.181435,12.3008571 Z" id="Path" fill="#A0A0A0"></path>
                    <g id="Group" opacity="0.5" transform="translate(13.204560, 12.095238)" fill="#FFFFFF">
                        <path d="M33.9768753,0.205619048 L31.9841872,1.59657143 C31.3005842,2.02837345 30.6431871,2.5009291 30.0155074,3.01171429 C28.8150929,4.05190476 27.4706287,4.9832381 26.3302349,6.14438095 C25.1262202,7.21436496 23.9763714,8.34468138 22.8850452,9.53104762 L21.2644856,11.2969524 L19.7279551,13.159619 C11.5637022,23.1947466 5.68353439,34.9122043 2.50200682,47.4859048 C2.06985759,49.0461905 1.82977469,50.6427619 1.48165448,52.2272381 C1.13353428,53.8117143 1.04950526,55.4324762 0.821426502,57.0653333 C0.593347745,58.6981905 0.593347745,60.2947619 0.509318729,61.9034286 L0.365268987,66.7415238 L0.221219246,61.9034286 C0.221219246,60.2826667 0.221219246,58.6498095 0.281239971,57.0653333 C0.341260697,55.4808571 0.569339454,53.799619 0.809422357,52.2272381 C1.04950526,50.6548571 1.30159231,48.9857143 1.67372081,47.3891429 C4.5689484,34.561971 10.5506139,22.6490833 19.0917354,12.7 C23.2885197,7.68856147 28.3268933,3.45942022 33.9768753,0.205619048 L33.9768753,0.205619048 Z" id="Path"></path>
                    </g>
                </g>
            </g>
            <g id="freepik--Character--inject-55" transform="translate(125.000000, 40.000000)">
                <g id="freepik--Chartacter--inject-55">
                    <g id="freepik--Bottom--inject-55" transform="translate(9.169247, 58.403130)">
                        <path d="M29.1689925,70.3784512 L28.2412805,62.7485376 L37.0491512,63.2039749 C37.0491512,63.2039749 36.9736398,67.351133 36.8819473,69.7033324 C36.8280106,71.0910765 38.7481587,73.6415252 38.7481587,73.6415252 C38.7481587,73.6415252 34.6435723,75.8972791 32.4159847,75.1578633 C30.1883971,74.4184475 28.9802139,71.6965402 29.0017886,71.0964346 C29.0233633,70.4963291 29.1689925,70.3784512 29.1689925,70.3784512 Z" id="Path" fill="#C8856A"></path>
                        <path d="M50.5333379,82.0162126 C50.6735734,82.0162126 50.9216824,83.4307471 50.1881427,84.0576431 C49.3413358,84.7809846 46.817096,86.0079862 43.4298683,85.7025753 C40.0426407,85.3971644 38.1818229,84.4862899 36.8010422,83.4789699 C35.4202615,82.4716498 33.4785386,81.041041 31.946735,80.7999272 C30.5174112,80.5480972 28.9586392,80.0015725 28.4893895,79.6050742 C28.0201398,79.2085758 28.0362535,77.397543 28.0362535,77.397543 L50.5333379,82.0162126 Z" id="Path" fill="#263238"></path>
                        <path d="M29.1689925,70.3623769 C28.921602,70.3781477 28.7168875,70.5594066 28.6727745,70.8017399 C28.581082,71.3053999 28.5163579,72.7627992 28.3167919,73.5879443 C28.0104917,75.0374323 27.9430931,76.526704 28.117226,77.9976486 C28.332973,78.9245973 30.6630404,79.4979125 32.1570883,79.9747821 C33.8985559,80.6267628 35.5341294,81.5294191 37.0113955,82.6538247 C38.6294979,83.8218873 42.0113319,84.9845919 44.2119512,84.9042206 C46.8117023,84.802417 49.7242867,83.929049 50.3607403,82.7877769 C51.1482168,81.3732423 51.7037653,79.7443844 47.7933511,78.2012558 C47.0544177,77.9065611 44.4438792,76.5938302 43.5539229,76.0901702 C41.148344,74.7774393 39.4439428,73.5557958 38.278909,71.1392993 C38.1798473,70.8345797 37.9753968,70.574534 37.7017859,70.4052416 C37.4609052,70.3203924 37.200308,70.3073554 36.9520651,70.367735 C36.3102178,70.4695386 33.753616,70.8767531 33.1764928,71.1553736 C32.5993696,71.433994 31.9359476,71.6911821 31.9683097,72.3073619 C31.9870183,72.5220487 32.0417082,72.7321208 32.1301199,72.9288998 C32.1840567,73.0521358 32.2218124,73.2182364 32.1301199,73.2986077 C32.0384275,73.378979 31.8658299,73.2986077 31.7633501,73.2128783 C31.3724735,72.8687033 31.0116084,72.4922951 30.6846151,72.0876804 C30.4964908,71.8769102 30.2847677,71.688156 30.0535552,71.5250814 C29.8235742,71.4128787 29.6002682,71.2876506 29.3847395,71.1500155 C29.1258431,70.9249759 29.1905672,70.6517135 29.1689925,70.3623769 Z" id="Path" fill="#455A64"></path>
                        <path d="M37.0275765,82.6377505 C36.3371862,82.1448066 35.6090401,81.667937 34.8701067,81.2392902 L34.8701067,81.2392902 C34.8701067,81.2392902 39.4870922,83.6665029 41.2831858,82.4448594 C42.4428259,81.6572209 41.8549153,80.7624206 41.8225533,80.473084 C41.7901912,80.1837474 45.8947777,77.9976486 47.0382367,77.836906 L47.0382367,77.836906 C47.3618572,77.9922905 47.6369346,78.1155264 47.8041385,78.1851815 C51.7145526,79.7283101 51.1590041,81.3571681 50.3715276,82.7717026 C49.735074,83.9129748 47.6369346,84.8559978 44.2712816,84.9578014 C42.0706623,85.0274565 38.6510726,83.8058131 37.0275765,82.6377505 Z" id="Path" fill="#37474F"></path>
                        <path d="M41.4827518,79.6318646 C43.9099054,80.4516517 42.9012882,80.9017308 42.2324726,81.0088925 C41.5636569,81.1160542 37.4536768,79.0531914 34.9348308,77.3118136 C32.3081112,75.5007808 30.619891,73.4861407 29.6490296,72.8217381 C29.2876534,72.5752662 28.8939151,72.2859296 28.5433263,71.9805187 C28.5918694,71.4875748 28.6296251,71.0374957 28.6727745,70.8017399 C28.7168875,70.5594066 28.921602,70.3781477 29.1689925,70.3623769 C29.1689925,70.6517135 29.1420242,70.9249759 29.3847395,71.1339412 C29.6002682,71.2715764 29.8235742,71.3968044 30.0535552,71.5090072 C30.2847677,71.6720817 30.4964908,71.8608359 30.6846151,72.0716062 C31.0116084,72.4762209 31.3724735,72.8526291 31.7633501,73.1968041 C33.9316073,75.6079425 39.0555982,78.8174356 41.4827518,79.6318646 Z" id="Path" fill="#37474F"></path>
                        <path d="M42.0706623,80.6874074 C42.0170677,80.6889995 41.9642976,80.6740218 41.9196394,80.6445427 C41.8706427,80.6103296 41.8381665,80.5574238 41.8299832,80.4984868 C41.8218,80.4395499 41.8386462,80.3798859 41.87649,80.3337738 C42.5345183,79.5407771 45.689818,77.6118664 47.4589433,77.7404605 C47.5195657,77.7417671 47.5769885,77.7677451 47.6177771,77.8123165 C47.6585657,77.8568879 47.6791414,77.9161422 47.6746903,77.9762162 C47.6693017,78.0370483 47.6392582,78.093093 47.5914551,78.1314873 C47.543652,78.1698816 47.4821944,78.1873284 47.4211876,78.1798235 C45.7653295,78.0673037 42.77184,79.9747821 42.2540473,80.601678 C42.2088937,80.6560514 42.1416179,80.6875224 42.0706623,80.6874074 L42.0706623,80.6874074 Z" id="Path" fill="#263238"></path>
                        <path d="M39.9131925,79.5514933 C39.8593652,79.5550888 39.8059599,79.5399308 39.7621696,79.5086286 C39.7131728,79.4744155 39.6806966,79.4215097 39.6725134,79.3625727 C39.6643302,79.3036358 39.6811763,79.2439718 39.7190202,79.1978597 C40.3716548,78.4102211 43.5269545,76.4813104 45.3014734,76.6045464 C45.3804794,76.6112462 45.4498858,76.6593083 45.483548,76.7306279 C45.5172102,76.8019476 45.510014,76.8856897 45.4646701,76.9503095 C45.4193263,77.0149292 45.3427237,77.0506093 45.2637177,77.0439094 C43.6078596,76.9313896 40.6143702,78.838868 40.0965774,79.4657639 C40.0514238,79.5201373 39.9841481,79.5515876 39.9131925,79.5514933 L39.9131925,79.5514933 Z" id="Path" fill="#263238"></path>
                        <path d="M37.7934783,78.4852409 C37.7392405,78.4856237 37.686307,78.4687216 37.6424554,78.4370116 C37.5920552,78.4038703 37.5584406,78.3507938 37.550182,78.2913143 C37.5419235,78.2318348 37.559819,78.1717003 37.599306,78.1262426 C38.2519407,77.3386041 41.4072403,75.4096933 43.1763656,75.5329293 C43.2379002,75.5357062 43.2957952,75.5626864 43.3372809,75.6079191 C43.3787666,75.6531517 43.4004348,75.7129207 43.3975063,75.7740431 C43.3806734,75.9002048 43.2660835,75.9903233 43.1386099,75.9776504 C41.4881455,75.8597725 38.4892624,77.7672509 37.9714696,78.399505 C37.9262734,78.4508462 37.8620471,78.4817808 37.7934783,78.4852409 L37.7934783,78.4852409 Z" id="Path" fill="#263238"></path>
                        <path d="M35.8139997,77.2475166 C35.7603143,77.2498522 35.7073167,77.2348099 35.6629768,77.2046519 C35.6125766,77.1715107 35.578962,77.1184341 35.5707034,77.0589546 C35.5624449,76.9994752 35.5803404,76.9393406 35.6198274,76.893883 C36.2724621,76.1008863 39.4331554,74.1719756 41.196887,74.3005697 C41.2584515,74.3004057 41.3172979,74.3257439 41.3592681,74.3704879 C41.4012383,74.4152319 41.4225326,74.475331 41.4180277,74.5363254 C41.4112772,74.5976048 41.3800881,74.6536411 41.3314344,74.6919044 C41.2827808,74.7301678 41.2207208,74.7474665 41.1591313,74.7399327 C39.5086669,74.6274129 36.5097838,76.5348913 35.991991,77.1617872 C35.9480479,77.2147354 35.8830623,77.2460356 35.8139997,77.2475166 L35.8139997,77.2475166 Z" id="Path" fill="#263238"></path>
                        <path d="M33.8722768,76.0097989 C33.8186822,76.011391 33.7659121,75.9964133 33.721254,75.9669342 C33.6727186,75.9325779 33.6401969,75.8802152 33.6310585,75.8217118 C33.6219201,75.7632085 33.6369387,75.7035175 33.6727109,75.6561653 C34.5734546,74.5363254 37.8905645,72.9021094 39.6596898,73.0307034 C39.7207456,73.0320784 39.7786562,73.0578844 39.8202902,73.10227 C39.8619242,73.1466556 39.8837543,73.2058602 39.8808304,73.2664592 C39.8639976,73.3926209 39.7494076,73.4827393 39.621934,73.4700664 C38.0308,73.3575466 34.8539256,74.9274656 34.0556618,75.9187114 C34.0126545,75.9763893 33.94453,76.0102268 33.8722768,76.0097989 Z" id="Path" fill="#263238"></path>
                        <path d="M11.8283285,78.4905924 L13.7376894,71.2250287 L4.75722105,69.9712367 L4.45517527,76.9796123 C4.45517527,76.9796123 3.5328569,79.4925544 4.09379906,80.4034289 C4.65474123,81.3143034 10.6255391,82.2787588 11.1703002,81.6732951 C11.7150614,81.0678315 11.8283285,78.4905924 11.8283285,78.4905924 Z" id="Path" fill="#C8856A"></path>
                        <path d="M11.1271508,94.3023023 C10.8628608,96.5473401 10.3882174,97.9993812 9.41196228,99.2156666 C8.43570716,100.431952 6.71512495,100.640917 4.96757436,100.040812 C3.22002377,99.4407062 1.06255391,98.1279752 0.652634633,96.1133352 C0.24271536,94.0986951 0.415312949,92.775248 0.911531017,90.7231013 L11.1271508,94.3023023 Z" id="Path" fill="#263238"></path>
                        <path d="M4.45517527,76.9796123 C3.73242286,76.9421057 3.9158078,80.0176467 3.37644034,83.0128165 C2.7669551,86.2276677 1.5965277,87.4332369 1.06794758,90.0640568 C0.46385602,93.0645846 0.577123188,94.4523287 1.70440119,96.4455364 C2.83167919,98.4387442 7.0441391,100.780228 9.29330143,98.3905214 C11.1325445,96.4455364 11.3213231,94.0611885 11.3159294,90.9910056 C11.2399688,88.3920558 11.3138031,85.7909173 11.5370701,83.2003494 C11.7905728,80.9285212 12.4539948,78.9138812 11.8445095,78.5763218 C11.7797855,78.9085231 11.7150614,79.3318118 11.6449436,79.6479388 C11.5748258,79.9640659 11.4615586,81.1267704 11.057033,81.0892638 C11.0399847,80.8011865 11.0526357,80.5121324 11.0947888,80.2266121 C11.1500507,79.9616772 11.0913912,79.6858542 10.9329785,79.4657639 C10.5886811,79.1962739 10.194782,78.9960739 9.77333848,78.8763746 C9.07216077,78.6674092 7.82082825,78.4102211 7.1088632,78.2655528 C6.75288067,78.1905396 6.39150447,78.1369588 6.03012827,78.0940941 C5.72801529,78.0485334 5.42071023,78.0485334 5.11859725,78.0940941 C4.94962804,78.1133562 4.79970258,78.2106612 4.71407165,78.3566403 C4.67133331,78.4657243 4.65293102,78.5827218 4.6601349,78.6995577 C4.64909677,78.9098423 4.60730723,79.1174113 4.53608039,79.3157376 C4.50911201,79.4014669 4.42820689,79.5032705 4.33112075,79.471122 C4.2533953,79.4377112 4.20880999,79.3557727 4.22324726,79.2728729 C4.22324726,78.903165 4.30415238,78.6406188 4.3419081,78.2012558 C4.3419081,78.0083647 4.41202587,77.7404605 4.42281322,77.5422113 C4.43360057,77.3439621 4.42820689,77.1564292 4.45517527,76.9796123 Z" id="Path" fill="#455A64"></path>
                        <path d="M1.25133252,89.2121212 C1.15964005,89.6461261 0.593304212,92.5127018 1.46707951,93.150314 C2.3408548,93.7879261 3.0851819,91.6071854 3.0851819,91.6071854 C3.0851819,91.6071854 5.40446201,91.269626 8.67842252,92.9574229 C8.48425024,93.4128601 8.92113788,95.03636 9.8542436,94.8166785 C10.7873493,94.596997 11.2997484,91.2964164 11.3105358,91.2535517 C11.3105358,94.1951406 11.0732141,96.4991173 9.28790776,98.3905214 C7.03874543,100.780228 2.81549817,98.4441023 1.69900752,96.4455364 C0.582516863,94.4469706 0.458462346,93.0645846 1.06255391,90.0640568 C1.1057033,89.7586459 1.17582108,89.4800255 1.25133252,89.2121212 Z" id="Path" fill="#37474F"></path>
                        <path d="M3.31710991,91.832225 C3.25238582,92.9359905 2.02802167,92.4162563 2.05499004,90.8463372 C2.08195842,89.2764182 3.23081112,85.6972172 3.35486564,83.0128165 C3.55982527,79.3264537 3.73242286,76.9421057 4.43360057,76.9796123 C4.43360057,77.0171189 4.43360057,77.0546255 4.43360057,77.0921321 L4.26100298,78.6245445 C4.22346794,78.8425105 4.20004725,79.0626441 4.19088521,79.283589 C4.06143702,81.5339849 4.02907497,85.9061825 3.70545449,87.942255 C3.49809927,89.2300666 3.36841981,90.5290398 3.31710991,91.832225 L3.31710991,91.832225 Z" id="Path" fill="#37474F"></path>
                        <path d="M8.27389692,92.8824097 C8.64797342,91.63779 8.94162776,90.3707015 9.15306589,89.0888852 C9.49826107,87.0742452 10.7118379,83.044965 11.3105358,80.8802985 C11.4680958,80.4865569 11.5732614,80.074074 11.6233689,79.6532969 C11.688093,79.3532442 11.7474234,78.967462 11.8121475,78.6459769 L11.8121475,78.5816799 C12.2490351,78.8281518 12.0980123,80.5695295 11.8660842,81.475046 C11.6341562,82.3805624 11.3267168,83.3450177 11.057033,84.6416744 C10.3127059,87.1974811 10.2425882,91.0285121 9.75715745,92.5019856 C9.27172674,93.9754591 7.98803217,93.9379525 8.27389692,92.8824097 Z" id="Path" fill="#37474F"></path>
                        <path d="M8.72696559,93.0592265 L8.62987945,93.0217199 C6.94913851,92.103949 5.03500673,91.6942229 3.12293763,91.8429411 C2.98122517,91.8587568 2.8488252,91.7703167 2.8101045,91.6339758 C2.79563984,91.5720994 2.80955089,91.5070368 2.84808423,91.4563429 C2.88661758,91.405649 2.94580266,91.3745473 3.00967046,91.3714296 C5.05593288,91.200688 7.10689494,91.6410116 8.89956318,92.6359378 C8.95957992,92.6629156 9.00480279,92.7145097 9.02344656,92.7772745 C9.04209033,92.8400393 9.03230816,92.9077573 8.99664933,92.962781 C8.93281649,93.0436524 8.8280406,93.0811229 8.72696559,93.0592265 Z" id="Path" fill="#263238"></path>
                        <path d="M9.44432432,90.7338175 C9.41468739,90.725567 9.38581574,90.7148115 9.35802553,90.7016689 C7.45551089,89.7312823 5.32897926,89.2766235 3.1930554,89.3835799 C3.05035613,89.3965739 2.91870517,89.3063792 2.88022227,89.1692565 C2.86709696,89.1054483 2.88388976,89.0391732 2.92585982,88.9891414 C2.96782989,88.9391097 3.03042335,88.9107499 3.09596925,88.9120684 C5.35420051,88.7886343 7.60437651,89.269748 9.61152824,90.3051706 C9.67097297,90.3327119 9.71629257,90.3834653 9.73672781,90.4453815 C9.75716304,90.5072977 9.75089136,90.5748547 9.71940173,90.6320138 C9.65685338,90.7180645 9.54830209,90.7582383 9.44432432,90.7338175 Z" id="Path" fill="#263238"></path>
                        <path d="M3.47892015,87.127826 C3.37730694,87.110425 3.29402327,87.0380326 3.26317317,86.940293 C3.24339202,86.8795978 3.25185808,86.8133035 3.28626911,86.7594378 C3.32068014,86.7055721 3.37745864,86.6697353 3.44116443,86.6616726 C6.70973127,86.0937155 9.81648788,87.9261807 9.95132974,88.0011939 C10.0092626,88.0317632 10.0522728,88.0843257 10.0705624,88.1469072 C10.0888519,88.2094887 10.0808631,88.2767597 10.0484159,88.3333952 C9.95716061,88.4404138 9.80005221,88.4633656 9.68164601,88.3869761 C9.65467764,88.3869761 6.62882615,86.5973756 3.59218732,87.127826 L3.47892015,87.127826 Z" id="Path" fill="#263238"></path>
                        <path d="M3.77557226,85.0006661 C3.67724111,84.9801551 3.5960443,84.9115932 3.55982527,84.8184912 C3.53798775,84.7585929 3.54484795,84.6920704 3.5784577,84.6378149 C3.61206745,84.5835595 3.6687553,84.5474978 3.73242286,84.5398708 C6.03537912,84.1638964 8.39721576,84.6384836 10.3720364,85.874034 C10.4290733,85.9071455 10.4696359,85.9623758 10.4839668,86.0264392 C10.4982976,86.0905026 10.4850997,86.1576009 10.4475478,86.2115934 C10.3476571,86.3103362 10.1909326,86.3238745 10.0753843,86.2437419 C8.23129958,85.1075105 6.03798373,84.6664183 3.8942331,85.0006661 C3.8554181,85.0114049 3.81438727,85.0114049 3.77557226,85.0006661 L3.77557226,85.0006661 Z" id="Path" fill="#263238"></path>
                        <path d="M4.10458641,82.6163181 C4.00784161,82.5950876 3.92859593,82.5264574 3.8942331,82.4341432 C3.87021781,82.3751022 3.87539163,82.3082999 3.90821588,82.2536031 C3.94104014,82.1989064 3.99773407,82.1626153 4.06143702,82.1555228 C7.43248368,81.4643298 10.6147517,83.4736118 10.7441999,83.5593412 C10.8027022,83.5894778 10.8455369,83.6429145 10.8620039,83.7063032 C10.8784709,83.7696919 10.8670153,83.8370466 10.8304987,83.8915425 C10.7369251,84.0005166 10.5745262,84.0192212 10.4583352,83.9344071 C10.4313668,83.9344071 7.35697223,81.9733479 4.22864093,82.6163181 L4.10458641,82.6163181 Z" id="Path" fill="#263238"></path>
                        <path d="M9.33105716,2.0842952 C7.89094602,19.8570643 7.01717073,44.193488 7.01717073,44.193488 C6.88772254,45.5437255 5.9384358,47.8530603 5.28040749,54.5078023 C4.57922978,61.5268942 4.69249695,71.4447102 4.69249695,71.4447102 C4.69249695,71.4447102 9.43353698,74.0916043 13.3223764,72.7788734 C13.3223764,72.7788734 17.0116499,57.1975612 19.0450652,48.9300355 C20.9706071,41.1018728 23.6674444,29.1801329 23.6674444,29.1801329 L25.9489688,40.9679206 C25.9489688,40.9679206 25.663104,46.0366694 25.7979459,49.5783638 C25.9543624,53.7040895 28.4947832,65.7758559 28.4947832,65.7758559 C28.4947832,65.7758559 33.1657055,68.8085322 37.2325362,65.657978 C37.2325362,65.657978 38.1386735,46.2349186 38.2681217,41.2733315 C38.5270181,31.5484066 39.7136265,12.6557976 38.5000497,0.107161707 L9.33105716,2.0842952 Z" id="Path" fill="#70797E"></path>
                        <path d="M23.6836254,29.1801329 L25.7386155,16.5404095 C25.7386155,16.5404095 30.4742618,15.8599327 32.9068091,13.6470434 C32.9068091,13.6470434 31.3318561,16.5779161 26.8658935,17.7084721 L24.8109034,29.2122814 L25.9489688,40.9679206 L23.6836254,29.1801329 Z" id="Path" fill="#263238"></path>
                        <path d="M4.58462346,71.6429593 C5.56087857,72.9664064 9.90818034,74.322002 13.4086752,73.1110747 L14.0235541,70.3784512 C11.3806535,71.2196706 6.79603007,70.3784512 4.64934755,68.6692219 L4.58462346,71.6429593 Z" id="Path" fill="#455A64"></path>
                        <path d="M28.4893895,66.1937865 C29.675998,67.3297006 34.0718428,67.9030157 37.318835,66.1080571 L37.4590705,63.3057785 C34.9995548,64.6024352 30.4796555,64.656016 28.0686829,63.3057785 L28.4893895,66.1937865 Z" id="Path" fill="#455A64"></path>
                    </g>
                    <g id="freepik--Top--inject-55">
                        <g id="freepik--Arm--inject-55" transform="translate(42.070662, 17.145873)">
                            <path d="M0.361376202,9.85351897 C4.05064967,10.3893275 4.67631593,11.2948439 10.2102261,15.9188716 C14.7085508,19.6695313 17.108736,21.276957 17.108736,21.276957 C17.108736,21.276957 21.7958393,26.801143 22.0007989,27.8888343 C22.2057586,28.9765256 22.6210715,31.4251706 20.4636016,32.8236309 C19.0936083,33.7184312 17.4701122,32.9415088 16.6179116,33.0325962 C14.8326053,33.2308454 13.7161147,31.7948785 12.9663939,31.3662317 C7.88555235,28.4407171 3.79714696,25.7670325 3.79714696,25.7670325 L0.361376202,9.85351897 Z" id="Path" fill="#70797E"></path>
                            <path d="M26.9252239,15.1098007 C24.7138173,16.5993484 16.9253511,21.1644372 16.9253511,21.1644372 C14.1260339,24.0095805 13.8185945,31.0983274 16.6394863,32.2235253 C19.8756911,33.5094658 20.954426,31.9127564 23.8130736,28.7568441 C26.6717212,25.6009318 32.2703555,20.2374884 34.7622332,17.9388698 L26.9252239,15.1098007 Z" id="Path" fill="#C8856A"></path>
                            <path d="M36.5852952,5.1598362 C36.5583268,3.93819274 36.1753759,3.16662845 35.6845515,3.14519611 C35.1937271,3.12376376 35.112822,3.50418782 35.1020347,4.80084448 C35.1020347,5.87246155 35.0480979,7.52810993 34.9078624,7.00301756 C34.8138214,6.08268211 34.7706072,5.15791964 34.7784142,4.23288743 C34.6705407,2.73262353 34.6975091,1.61278369 33.7644034,1.66100646 C33.1710991,1.69851306 33.0254699,2.95766312 33.057832,4.42577851 C33.057832,5.18662663 33.057832,6.82084266 33.057832,8.20322868 C32.6640937,8.04248612 32.7396052,5.91532624 32.6317317,3.62742379 C32.5562202,2.01999818 32.5076772,0.38042406 31.6015398,0.38042406 C30.9542989,0.38042406 30.7601266,1.25379197 30.8464254,3.43453271 C30.9327242,5.61527346 30.9435115,8.0156957 30.7601266,8.03176995 C30.4149314,8.07463463 30.3286326,5.69028665 30.1290666,4.21145509 C29.9295007,2.73262353 29.8971386,1.59670944 28.9694266,1.70387114 C28.3761224,1.77352625 28.3060046,3.04339248 28.4300591,4.5007917 C28.5433263,5.85102921 28.7644669,9.97139685 28.6404124,10.4911311 C28.4354528,11.3698571 27.4106546,9.30699427 26.6986896,8.48184912 C25.5390495,7.12089544 24.2661423,7.84959505 24.8756275,9.11410319 C25.6224547,10.6591315 26.2115116,12.2746317 26.6339655,13.93638 C27.0115227,15.5116571 27.9392347,19.5570116 30.9489052,19.3587624 C34.9510118,18.9836964 36.3102178,16.8779689 36.655413,13.3416325 C36.8403062,10.6165285 36.8168664,7.88141812 36.5852952,5.1598362 L36.5852952,5.1598362 Z" id="Path" fill="#C8856A"></path>
                            <path d="M30.6900088,12.1735699 C30.6900088,12.1735699 33.4839323,14.2578651 33.057832,17.0387114 C33.6757276,15.8973891 33.6157118,14.5117426 32.9014154,13.4273619 C32.4177201,12.6725198 31.5902543,12.2033749 30.6900088,12.1735699 Z" id="Path" fill="#AF6152"></path>
                            <path d="M25.9705435,11.7877878 C26.294164,12.5379197 26.6069971,13.309484 26.8551061,14.0917645 C27.0673147,14.8697281 27.3230119,15.6353359 27.6210079,16.385025 C27.9014937,17.1202336 28.3105051,17.8004445 28.829191,18.394307 C29.3759666,18.9795943 30.1301313,19.3311365 30.9327242,19.3748367 C30.5093035,19.4455052 30.0750816,19.4161362 29.6652106,19.2891073 C29.2488132,19.1632992 28.8656629,18.9473693 28.5433263,18.6568532 C27.9274275,18.0665783 27.4488118,17.3497346 27.1409709,16.5564838 C26.8389943,15.7830169 26.6114437,14.982875 26.4613679,14.1667777 C26.2995576,13.3952134 26.110779,12.5915006 25.9705435,11.7877878 Z" id="Path" fill="#AF6152"></path>
                        </g>
                        <g id="freepik--Chest--inject-55" transform="translate(16.181024, 25.718810)" fill="#67696A">
                            <path d="M10.2803439,0.128594049 C5.63099634,1.23235963 4.23942828,1.70387114 2.04420269,2.24503777 C2.04420269,2.24503777 -1.77991264,6.21537902 1.28369457,20.8268778 C1.67743282,22.6968496 1.96329758,28.2853326 1.97408492,32.8718537 C1.97408492,36.1349277 1.85542408,38.2781618 1.73136956,40.54999 C1.73136956,40.54999 8.02578789,44.8364583 21.0461185,43.3201201 C31.2941004,42.1306252 31.9035856,38.3210265 31.9035856,38.3210265 C31.9035856,38.3210265 31.9844907,25.9492074 31.4073675,18.4157394 C30.6522531,8.51935572 27.4807724,2.64153608 26.310345,1.30737283 C25.9435751,1.0984075 18.9803411,0.15002639 18.9803411,0.15002639 L10.2803439,0.128594049 Z" id="freepik--chest--inject-55"></path>
                        </g>
                        <g id="freepik--Head--inject-55" transform="translate(19.956596, 0.000000)">
                            <path d="M3.5760063,6.11893348 C3.5760063,6.11893348 2.08195842,6.34397306 1.24054517,8.31039039 C0.814444873,9.2962781 0.587910538,11.0537301 2.3192801,15.9027973 C2.97943536,17.7943526 3.92120042,19.5769564 5.11320357,21.1912276 C5.46515864,21.7149168 6.00553195,22.0849307 6.62343248,22.2253381 L6.24048158,18.4210975 L5.90068007,15.7795614 C5.90068007,15.7795614 7.90173337,13.68455 7.94488277,11.7663554 C8.03495385,10.4263363 7.68068614,9.09389497 6.93626561,7.97283101 L3.5760063,6.11893348 Z" id="Path" fill="#263238"></path>
                            <path d="M3.06900088,6.28503413 C1.9147545,2.67904268 9.82188155,-1.75209391 13.8132008,1.05018473 C15.3557917,-0.787638548 18.6944764,0.283978524 18.8940423,2.29326053 C20.1453748,1.79495859 21.8228077,3.68100464 21.170173,5.12768769 C22.1086724,4.85978342 23.5703583,6.33325689 22.5725284,7.56025844 C21.849776,8.44434252 22.033161,9.22662299 23.1118959,9.4409464 C22.944692,10.7268869 20.6254119,10.7590354 20.2640357,9.77850578 C20.2047053,10.5339958 19.6653378,10.1642879 19.0936083,9.6606279 C15.1346511,9.37129129 11.0030963,9.72492492 7.0009897,9.6606279 C7.01177705,9.64455364 3.07439455,6.2957503 3.06900088,6.28503413 Z" id="Path" fill="#263238"></path>
                            <path d="M2.21680028,19.1765875 C4.20167256,20.1356848 5.10241623,18.5711239 5.10241623,18.5711239 L5.42064303,27.1440604 C9.23397101,32.2235253 19.379473,30.1660206 15.2101625,26.367138 L15.2101625,23.9506416 C15.7852654,23.9236731 16.3581105,23.8610401 16.9253511,23.7631086 C18.7411156,23.4727253 20.2051857,22.1301934 20.6415929,20.3553663 C21.4074947,17.5530876 21.3643453,13.0469378 20.3017914,8.27288379 C20.0968318,7.35129311 19.6976998,6.34397306 18.8454993,5.92604241 C16.7365725,4.89193193 14.7948496,6.39219583 11.8337222,7.53346801 C10.6201454,8.01033761 7.66980536,8.21930294 6.89311621,7.86031122 C7.9179144,8.98550915 7.33000386,11.9056657 7.06032013,12.8326144 C6.67197555,14.1667777 6.10563971,14.815106 5.8305623,14.874045 C4.62777286,15.125875 4.48753731,14.0971226 3.94816985,13.5345236 C3.41582636,13.091618 2.70498024,12.9228239 2.02855745,13.0787017 C1.35213466,13.2345795 0.788693122,13.6970258 0.507005418,14.3275202 C0.077350728,15.1943836 0.0164497073,16.1964193 0.337994834,17.108338 C0.659539961,18.0202567 1.3365459,18.7655267 2.21680028,19.1765875 Z" id="Path" fill="#C8856A"></path>
                            <path d="M7.93409542,21.6895295 C8.35480204,23.6291564 10.7388062,24.9043807 15.1993752,25.0008263 L15.1993752,23.9292092 C14.1039429,23.9172224 13.0111149,23.8204842 11.9308083,23.6398726 C10.4631859,23.3097055 9.09417047,22.6416441 7.93409542,21.6895295 L7.93409542,21.6895295 Z" id="Path" fill="#AF6152"></path>
                            <path d="M11.8660842,9.88566749 L10.1562894,11.1180271 C9.81971671,10.6293239 9.92893847,9.96416508 10.4043984,9.60704705 C10.632999,9.44384013 10.9191174,9.38123852 11.1955871,9.43393802 C11.4720568,9.48663751 11.7145294,9.64999694 11.8660842,9.88566749 L11.8660842,9.88566749 Z" id="Path" fill="#263238"></path>
                            <path d="M19.546677,10.3786113 L17.5941667,9.53739194 C17.6897563,9.27451932 17.8909933,9.0629177 18.1497574,8.95318599 C18.4085215,8.84345428 18.7015477,8.84545826 18.9587664,8.95871872 C19.5039904,9.20107142 19.762457,9.82530727 19.546677,10.3786113 Z" id="Path" fill="#263238"></path>
                            <path d="M12.6373797,17.8960051 L15.6200818,18.4050232 C15.5726539,18.7989054 15.3644914,19.1561607 15.0442988,19.3932011 C14.7241061,19.6302416 14.3199775,19.7262688 13.926468,19.6588152 C13.1002752,19.4942787 12.5394868,18.7274085 12.6373797,17.8960051 Z" id="Path" fill="#AF6152"></path>
                            <path d="M14.5035912,19.6427409 C14.3307032,18.9439886 13.6960679,18.4556136 12.9717875,18.4639621 C12.8720131,18.4637862 12.7725248,18.4745679 12.6751354,18.4961107 C12.8274295,19.0934464 13.3163411,19.5477299 13.926468,19.6588152 C14.1180353,19.6912012 14.3141514,19.6857389 14.5035912,19.6427409 L14.5035912,19.6427409 Z" id="Path" fill="#F28F8F"></path>
                            <path d="M11.1703002,12.6343653 C11.1884896,13.1073335 11.5890822,13.4761686 12.0652005,13.4583209 C12.5413188,13.4404733 12.9127914,13.0426968 12.8950484,12.5697118 C12.8773054,12.0967269 12.477061,11.7275189 12.0009261,11.7449231 C11.5254961,11.7652348 11.1550822,12.1618776 11.1703002,12.6343653 Z" id="Path" fill="#263238"></path>
                            <path d="M17.4377502,12.0128274 C17.4274321,12.3331979 17.5978836,12.6325255 17.8796134,12.7887774 C18.1613432,12.9450293 18.5072847,12.9321017 18.7764013,12.755265 C19.0455179,12.5784283 19.1928502,12.2672254 19.1583324,11.9485303 C19.1378858,11.4762374 18.7386084,11.1082676 18.2629824,11.1233852 C18.026968,11.1078684 17.7965637,11.1992932 17.6362602,11.3720696 C17.4759567,11.5448461 17.4029777,11.7804103 17.4377502,12.0128274 L17.4377502,12.0128274 Z" id="Path" fill="#263238"></path>
                            <path d="M14.5035912,11.0322978 L15.4582716,16.5618418 L18.4409737,15.3884211 C17.4808996,13.2826936 15.7711047,11.9646046 14.5035912,11.0322978 Z" id="Path" fill="#AF6152"></path>
                        </g>
                        <g id="freepik--arm--inject-55" transform="translate(0.539367, 27.862044)">
                            <path d="M12.6265924,46.0313113 C11.1055761,46.5242552 9.06137342,44.7025061 8.49503758,44.064894 C7.92870175,43.4272818 8.55976168,41.8252143 8.82944541,40.485693 C9.09912915,39.1461716 8.67302885,36.9172081 10.361249,37.4798071 C12.0494692,38.042406 15.6901996,42.3288743 12.6265924,46.0313113 Z" id="Path" fill="#AF6152"></path>
                            <path d="M17.7128276,0.482227682 C13.9372553,1.18413686 11.9415957,1.73601966 9.33645083,6.79941032 C6.53174001,12.2539412 1.66664547,20.1946237 1.07873493,22.6164783 C0.539367466,24.856158 -0.684996681,26.4850159 1.8931798,29.7588061 C4.25021563,32.7486177 11.6017942,40.5392738 12.6805291,41.6859041 C13.6298159,42.6932241 13.2522586,45.7151843 10.096959,45.3936992 C10.096959,45.3936992 12.567262,47.3976231 13.8725312,47.1136446 C14.9944155,46.8671726 16.7365725,45.8116298 18.2306203,42.3395905 C19.1691197,40.1481336 18.2306203,38.4978433 16.5801559,36.1670762 C14.5952836,33.3808718 10.2318008,25.5741414 10.2318008,25.5741414 L17.8476694,13.3952134 C17.8476694,13.3952134 21.5099745,4.12036764 17.7128276,0.482227682 Z" id="Path" fill="#C8856A"></path>
                        </g>
                        <path d="M18.2252267,27.9638475 C14.190758,28.8640058 12.7452532,28.9872418 9.27172674,35.1329657 C5.79820026,41.2786896 2.11971414,47.6280207 1.13267168,50.8214396 C0.145629216,54.0148585 0.0539367466,54.8828683 1.79069999,57.4761816 C2.52963341,58.5906634 3.01506413,58.3388334 3.01506413,58.3388334 L2.43254727,57.6208499 C3.50215809,55.8005172 5.29334627,54.5112037 7.36775958,54.0684393 C10.7549873,53.4361853 11.5802195,54.8989426 11.5802195,54.8989426 L11.8822653,55.4347511 C11.8822653,55.4347511 12.1303743,55.0918337 11.6557309,54.2774047 L11.1163635,53.3504559 C11.1163635,53.3504559 16.5855496,45.3133279 18.4301863,42.6932241 C20.274823,40.0731204 22.2543016,30.5410865 18.2252267,27.9638475 Z" id="Path" fill="#70797E"></path>
                    </g>
                </g>
            </g>
        </g>
    </g>
</svg>