<?xml version="1.0" encoding="UTF-8"?>
<svg width="17px" height="17px" viewBox="0 0 17 17" version="1.1" xmlns="http://www.w3.org/2000/svg" xmlns:xlink="http://www.w3.org/1999/xlink">
    <title>1370259</title>
    <g id="Page-1" stroke="none" stroke-width="1" fill="none" fill-rule="evenodd">
        <g id="Artboard" transform="translate(-26.000000, -842.000000)" fill="#363636" fill-rule="nonzero">
            <g id="1370259" transform="translate(26.000000, 842.000000)">
                <path d="M16.9997243,7.6370932 C16.9997243,6.31769611 16.2966229,5.1595428 15.2454079,4.51768091 C15.7168658,4.03797092 16.0084305,3.38093166 16.0084305,2.65682638 C16.0084305,1.19227096 14.8171399,0.000649484118 13.352702,0.000649484118 C12.7117267,0.000649484118 12.1231501,0.228959278 11.6637542,0.608524327 C9.64835252,-0.201716015 7.36291633,-0.203142959 5.34543951,0.60605961 C4.8865624,0.228051252 4.29902332,0.000649484118 3.65947475,0.000649484118 C2.19516656,0.000649484118 1.00374631,1.19227096 1.00374631,2.65682638 C1.00374631,3.37924526 1.29401393,4.03472789 1.7633967,4.51404874 C0.709068879,5.15526196 0.00337347972,6.3152314 0.00337347972,7.6370932 C0.0508435399,8.11317102 -0.326452508,10.6394967 1.47520426,13.2827014 C2.33005412,14.5367189 3.4904762,15.5303854 4.8499871,16.1773064 L4.8499871,16.3359558 C4.8499871,16.7026784 5.14725856,17 5.51391922,17 L11.4891785,17 C11.8558392,17 12.1531107,16.7026784 12.1531107,16.3359558 L12.1531107,16.1773064 C15.1459283,14.7530944 17.1615894,11.6314768 16.989478,8.08151898 C17.0068577,7.98033624 16.9967412,7.94985168 16.9997243,7.6370932 Z M13.3481625,5.31300328 C14.5167557,5.31300328 15.4866491,6.18019132 15.6482547,7.30500623 L11.0480703,7.30500623 C11.209676,6.18019132 12.1795693,5.31300328 13.3481625,5.31300328 Z M14.6805662,2.65682638 C14.6805662,3.38910412 14.0848561,3.98491484 13.352702,3.98491484 C12.6205479,3.98491484 12.0248378,3.38910412 12.0248378,2.65682638 C12.0248378,1.92454867 12.6205479,1.32873795 13.352702,1.32873795 C14.0848561,1.32873795 14.6805662,1.92454867 14.6805662,2.65682638 Z M3.65947475,1.32873795 C4.39162883,1.32873795 4.98733896,1.92454867 4.98733896,2.65682638 C4.98733896,3.38910412 4.39162883,3.98491484 3.65947475,3.98491484 C2.92732064,3.98491484 2.33161051,3.38910412 2.33161051,2.65682638 C2.33161051,1.92454867 2.92732064,1.32873795 3.65947475,1.32873795 Z M3.65493526,5.31300328 C4.82352843,5.31300328 5.79342181,6.18019132 5.95502746,7.30500623 L1.35484306,7.30500623 C1.51644871,6.18019132 2.4863421,5.31300328 3.65493526,5.31300328 Z M6.20145668,15.6719116 C6.36306233,14.5470967 7.33295572,13.6797789 8.50154889,13.6797789 C9.67014205,13.6797789 10.6400354,14.5470967 10.8016411,15.6719116 L6.20145668,15.6719116 Z M8.50608838,12.3516904 C7.77393427,12.3516904 7.17822414,11.7558797 7.17822414,11.023602 C7.17822414,10.2913243 7.77393427,9.69551354 8.50608838,9.69551354 C9.23824246,9.69551354 9.83395259,10.2913243 9.83395259,11.023602 C9.83395259,11.7558797 9.23824246,12.3516904 8.50608838,12.3516904 Z M11.9463695,14.7925297 C11.6644027,13.9929265 11.1117528,13.3199315 10.3987942,12.8844565 C10.8702522,12.4048763 11.1618168,11.7477073 11.1618168,11.023602 C11.1618168,9.55904655 9.97052623,8.36755483 8.50608838,8.36755483 C7.04178019,8.36755483 5.85048962,9.55904655 5.85048962,11.023602 C5.85048962,11.7460209 6.14062756,12.4016332 6.61001032,12.8808243 C5.89419837,13.3161696 5.33934362,13.9907213 5.05672824,14.7925297 C2.80864556,13.5643268 1.37961565,11.2308969 1.33240501,8.63309469 L6.64256492,8.63309469 C7.00922559,8.63309469 7.30649704,8.33577307 7.30649704,7.96905046 L7.30649704,7.6370932 C7.30649704,6.31769611 6.60326594,5.1595428 5.55218061,4.51768091 C6.29600766,3.76088585 6.50054388,2.66785273 6.14594523,1.72464789 C7.66394903,1.19551399 9.3466713,1.19603287 10.8651939,1.72750174 C10.5112438,2.67213353 10.7190225,3.76088585 11.4566239,4.51404874 C10.4022961,5.15526196 9.69660073,6.3152314 9.69660073,7.6370932 L9.69660073,7.96905046 C9.69660073,8.33577307 9.99387218,8.63309469 10.3605329,8.63309469 L15.6706928,8.63309469 C15.6234821,11.2308969 14.1944522,13.5643268 11.9463695,14.7925297 Z" id="Shape"></path>
            </g>
        </g>
    </g>
</svg>