<svg xmlns="http://www.w3.org/2000/svg" width="1262" height="1261" xmlns:v="https://vecta.io/nano"><defs><linearGradient x1="107.438537%" y1="101.356003%" x2="33.8161174%" y2="36.2837285%" id="A"><stop stop-color="#dae3fe" offset="0%"/><stop stop-color="#e9effd" offset="100%"/></linearGradient><linearGradient x1="-0.00373126387%" y1="50.0626368%" x2="100.008395%" y2="50.0626368%" id="B"><stop stop-color="#dae3fe" offset="0%"/><stop stop-color="#e9effd" offset="100%"/></linearGradient><linearGradient x1="0.0291164038%" y1="50.0615497%" x2="100.060501%" y2="50.0615497%" id="C"><stop stop-color="#dae3fe" offset="0%"/><stop stop-color="#e9effd" offset="100%"/></linearGradient><linearGradient x1="-0.0308537493%" y1="49.8992574%" x2="99.9796464%" y2="49.8992574%" id="D"><stop stop-color="#dae3fe" offset="0%"/><stop stop-color="#e9effd" offset="100%"/></linearGradient><linearGradient x1="0.198550329%" y1="50.0989966%" x2="100.175512%" y2="50.0989966%" id="E"><stop stop-color="#dae3fe" offset="0%"/><stop stop-color="#e9effd" offset="100%"/></linearGradient><linearGradient x1="54.1163031%" y1="23.8488418%" x2="40.239086%" y2="103.008483%" id="F"><stop stop-color="#4f52ff" offset="0%"/><stop stop-color="#4042e2" offset="100%"/></linearGradient><linearGradient x1="250.066047%" y1="-499.152842%" x2="190.458427%" y2="-335.654325%" id="G"><stop stop-color="#ff928e" offset="0%"/><stop stop-color="#fe7062" offset="100%"/></linearGradient><linearGradient x1="-40.1766244%" y1="372.241741%" x2="114.0419%" y2="-179.433358%" id="H"><stop stop-color="#febbba" offset="0%"/><stop stop-color="#ff928e" offset="100%"/></linearGradient><linearGradient x1="-54.7158228%" y1="62.7378169%" x2="110.138048%" y2="42.6845653%" id="I"><stop stop-color="#febbba" offset="0%"/><stop stop-color="#ff928e" offset="100%"/></linearGradient><linearGradient x1="-48.7361822%" y1="60.7576277%" x2="116.184495%" y2="42.788493%" id="J"><stop stop-color="#febbba" offset="0%"/><stop stop-color="#ff928e" offset="100%"/></linearGradient><linearGradient x1="-42.6935315%" y1="60.8876566%" x2="122.227425%" y2="41.5182905%" id="K"><stop stop-color="#febbba" offset="0%"/><stop stop-color="#ff928e" offset="100%"/></linearGradient><linearGradient x1="255.120165%" y1="-767.936906%" x2="194.024024%" y2="-524.337047%" id="L"><stop stop-color="#ff928e" offset="0%"/><stop stop-color="#fe7062" offset="100%"/></linearGradient><linearGradient x1="-29.9864726%" y1="459.093337%" x2="106.846565%" y2="-241.0448%" id="M"><stop stop-color="#febbba" offset="0%"/><stop stop-color="#ff928e" offset="100%"/></linearGradient><linearGradient x1="27.5143194%" y1="-41.9207087%" x2="50.2356703%" y2="90.7358699%" id="N"><stop stop-color="#09005d" offset="0%"/><stop stop-color="#1a0f91" offset="100%"/></linearGradient><linearGradient x1="32.9748801%" y1="0.114376997%" x2="60.0254766%" y2="134.745919%" id="O"><stop stop-color="#09005d" offset="0%"/><stop stop-color="#1a0f91" offset="100%"/></linearGradient><linearGradient x1="251.962851%" y1="-467.033531%" x2="215.504766%" y2="-372.089412%" id="P"><stop stop-color="#ff928e" offset="0%"/><stop stop-color="#fe7062" offset="100%"/></linearGradient><linearGradient x1="48.7682022%" y1="50.9237031%" x2="59.9294531%" y2="211.015015%" id="Q"><stop stop-color="#febbba" offset="0%"/><stop stop-color="#ff928e" offset="100%"/></linearGradient><linearGradient x1="43.9545802%" y1="38.2351973%" x2="94.7719713%" y2="134.860784%" id="R"><stop stop-color="#febbba" offset="0%"/><stop stop-color="#ff928e" offset="100%"/></linearGradient><linearGradient x1="10.1006202%" y1="-76.5298281%" x2="131.253143%" y2="317.475228%" id="S"><stop stop-color="#febbba" offset="0%"/><stop stop-color="#ff928e" offset="100%"/></linearGradient><linearGradient x1="53.25233%" y1="52.1007572%" x2="224.78112%" y2="467.191162%" id="T"><stop stop-color="#febbba" offset="0%"/><stop stop-color="#ff928e" offset="100%"/></linearGradient><linearGradient x1="0.00511463845%" y1="49.9771538%" x2="100.008959%" y2="49.9771538%" id="U"><stop stop-color="#09005d" offset="0%"/><stop stop-color="#1a0f91" offset="100%"/></linearGradient><linearGradient x1="50.0074916%" y1="221.610973%" x2="50.0074916%" y2="-70.2835962%" id="V"><stop stop-color="#09005d" offset="0%"/><stop stop-color="#1a0f91" offset="100%"/></linearGradient><linearGradient x1="49.1462482%" y1="8.26675359%" x2="70.3260663%" y2="115.267775%" id="W"><stop stop-color="#09005d" offset="0%"/><stop stop-color="#1a0f91" offset="100%"/></linearGradient><linearGradient x1="38.3254073%" y1="-18.71315%" x2="62.6885293%" y2="96.1276428%" id="X"><stop stop-color="#09005d" offset="0%"/><stop stop-color="#1a0f91" offset="100%"/></linearGradient></defs><g fill="none"><path d="M1203.234 854.03c-120.507 283.851-441.491 442.841-719.877 399.951-45.305-6.972-169.48-27.752-279.44-125.871C-7.749 939.305-53.008 565.409 117.755 301.924 242.022 110.137 464.786 1.422 676.452 6.881c45.58 1.193 220.333 8.394 373.855 135.045 22.561 18.624 72.313 62.798 117.114 132.935 105.329 164.769 114.362 394.217 35.813 579.17z" fill="url(#A)"/><g transform="translate(274.671 50)"><g fill="#bdd0fb"><path d="M257.659 158.347c-1.788-.321-2.981-2.064-2.66-3.853.642-3.486 1.146-7.064 1.467-10.596.183-1.789 1.742-3.119 3.531-2.982h.046c1.834.183 3.118 1.789 2.981 3.624-.367 3.716-.871 7.477-1.559 11.147-.321 1.697-1.834 2.844-3.485 2.706-.092 0-.183 0-.321-.046zm-.688-31.743c-.138-3.532-.459-7.156-.871-10.642-.229-1.789 1.055-3.44 2.843-3.67 1.834-.229 3.439 1.055 3.668 2.844.459 3.716.78 7.477.917 11.193.092 1.835-1.33 3.349-3.164 3.44h-.413c-1.559-.138-2.889-1.514-2.981-3.165zm-4.219-27.706c-.917-3.44-2.018-6.835-3.256-10.183-.642-1.697.275-3.624 1.972-4.22 1.697-.642 3.623.275 4.219 1.972a121.57 121.57 0 0 1 3.393 10.734c.459 1.743-.55 3.578-2.339 4.037-.367.092-.734.138-1.101.092-1.33-.092-2.522-1.009-2.889-2.431zm-10.363-26.009c-1.651-3.119-3.485-6.238-5.411-9.22a3.27 3.27 0 0 1 .963-4.541c1.513-1.009 3.577-.55 4.54.963a145.11 145.11 0 0 1 5.732 9.679c.871 1.605.229 3.624-1.376 4.45-.596.321-1.192.413-1.788.367-1.055-.046-2.063-.642-2.66-1.697zm-15.82-23.073c-2.339-2.661-4.769-5.275-7.337-7.752-1.284-1.284-1.33-3.349-.046-4.679a3.32 3.32 0 0 1 4.677-.046c2.66 2.615 5.273 5.367 7.704 8.165 1.192 1.376 1.055 3.44-.321 4.633-.688.596-1.559.872-2.43.78-.871-.046-1.697-.413-2.247-1.101zM205.98 30.825c-2.843-2.11-5.824-4.083-8.85-5.963-1.559-.963-2.063-2.982-1.101-4.541s2.981-2.064 4.54-1.101a123.62 123.62 0 0 1 9.354 6.284c1.467 1.101 1.788 3.165.688 4.633-.688.963-1.834 1.422-2.935 1.33-.596-.046-1.192-.275-1.697-.642zM84.969 12.156c-.642-1.697.275-3.624 1.972-4.22a121.51 121.51 0 0 1 10.73-3.394c1.742-.459 3.577.55 4.035 2.339.459 1.743-.55 3.578-2.339 4.037-3.439.917-6.878 2.018-10.18 3.211-.459.183-.917.229-1.376.183-1.238-.092-2.384-.917-2.843-2.156zm96.754 4.725a113.8 113.8 0 0 0-9.951-3.807c-1.742-.596-2.66-2.431-2.063-4.174a3.26 3.26 0 0 1 4.173-2.064c3.531 1.193 7.062 2.523 10.501 4.037a3.32 3.32 0 0 1 1.697 4.358c-.596 1.33-1.926 2.064-3.302 1.972a9.24 9.24 0 0 1-1.055-.321zM112.711 4.725c-.229-1.789 1.055-3.44 2.889-3.67 3.714-.459 7.474-.78 11.189-.917 1.834-.092 3.347 1.33 3.439 3.165s-1.33 3.349-3.164 3.44c-3.531.138-7.153.413-10.638.872a1.51 1.51 0 0 1-.642 0c-1.605-.138-2.889-1.33-3.072-2.89zm42.278 3.991c-3.485-.642-7.062-1.147-10.592-1.514-1.834-.183-3.118-1.789-2.981-3.624.183-1.789 1.742-3.119 3.531-2.982h.092c3.714.367 7.474.917 11.143 1.56 1.788.321 2.981 2.064 2.66 3.853-.321 1.651-1.834 2.798-3.485 2.706-.138.046-.275.046-.367 0zM66.856 24.174c.642.046 1.33-.092 1.926-.459l4.494-2.523c1.605-.872 2.201-2.844 1.376-4.45a3.32 3.32 0 0 0-4.448-1.376l-4.723 2.661c-1.559.917-2.109 2.936-1.192 4.495.55 1.009 1.513 1.56 2.568 1.651z" opacity=".3"/><path d="M6.878 104.908c1.605.138 3.072-.917 3.439-2.523l1.284-4.954c.504-1.743-.504-3.578-2.247-4.083a3.3 3.3 0 0 0-4.081 2.248l-1.376 5.229a3.31 3.31 0 0 0 2.43 3.991c.183.046.367.046.55.092zm108.355 157.568c-1.788-.229-3.072-1.881-2.843-3.67s1.88-3.073 3.668-2.844c3.439.459 6.97.734 10.455.872 1.788.092 3.21 1.605 3.164 3.44-.092 1.835-1.605 3.211-3.439 3.165-1.513-.046-3.026-.138-4.54-.275l-6.466-.688zm25.404-2.477c-.183-1.835 1.146-3.44 2.981-3.578 3.485-.321 6.97-.78 10.409-1.422a3.284 3.284 0 0 1 1.146 6.468c-3.623.642-7.291 1.147-10.959 1.468h-.55c-1.559-.092-2.889-1.33-3.026-2.936zm-43.012-1.009c-3.531-.963-7.108-2.064-10.547-3.349-1.697-.642-2.614-2.523-1.972-4.22s2.522-2.615 4.219-1.972c3.302 1.193 6.649 2.248 9.996 3.165 1.742.459 2.797 2.294 2.339 4.037a3.27 3.27 0 0 1-3.439 2.431c-.229 0-.413-.046-.596-.092zm70.846-3.991c-.55-1.743.367-3.578 2.109-4.174 3.302-1.055 6.649-2.294 9.859-3.67 1.697-.688 3.623.092 4.31 1.743.688 1.697-.092 3.624-1.742 4.312-3.393 1.422-6.878 2.706-10.363 3.853a3.08 3.08 0 0 1-1.284.138c-1.284-.046-2.476-.872-2.889-2.202zm-97.854-6.605a123.02 123.02 0 0 1-9.538-5.55c-1.513-.963-1.972-3.028-1.009-4.541a3.32 3.32 0 0 1 4.54-1.009c2.935 1.881 6.007 3.67 9.079 5.275 1.605.872 2.247 2.844 1.376 4.45a3.3 3.3 0 0 1-3.164 1.743c-.413-.046-.871-.138-1.284-.367zM46.635 232.11c-2.797-2.385-5.548-4.908-8.116-7.523-1.284-1.284-1.284-3.394 0-4.679a3.32 3.32 0 0 1 4.677 0 142.17 142.17 0 0 0 7.704 7.156c1.376 1.193 1.559 3.257.367 4.633-.734.826-1.742 1.239-2.751 1.147a2.79 2.79 0 0 1-1.88-.734zM26.78 211.009a140.03 140.03 0 0 1-6.282-9.128c-.963-1.56-.505-3.578 1.009-4.541 1.559-.963 3.577-.505 4.54 1.009 1.88 2.936 3.852 5.872 5.961 8.67 1.101 1.468.825 3.532-.642 4.633-.688.505-1.467.734-2.247.642a3.13 3.13 0 0 1-2.339-1.284zM11.968 186.1a133.36 133.36 0 0 1-4.127-10.275c-.596-1.697.275-3.624 2.018-4.22 1.697-.596 3.623.275 4.219 2.018 1.146 3.303 2.476 6.56 3.944 9.771.734 1.651 0 3.624-1.651 4.358a3.22 3.22 0 0 1-1.605.275c-1.238-.092-2.293-.826-2.797-1.927zM2.98 158.486c-.734-3.578-1.33-7.248-1.788-10.917-.229-1.789 1.055-3.44 2.889-3.67 1.788-.229 3.439 1.055 3.668 2.89.413 3.486.963 6.972 1.697 10.367a3.3 3.3 0 0 1-2.568 3.899c-.321.046-.642.092-.917.046-1.422-.092-2.66-1.147-2.981-2.615zM.275 129.632a157.87 157.87 0 0 1 .367-8.119l.275-2.936c.183-1.835 1.788-3.165 3.623-2.936 1.834.183 3.118 1.789 2.935 3.624a55.46 55.46 0 0 0-.229 2.752c-.183 2.569-.321 5.138-.367 7.752-.046 1.835-1.513 3.257-3.347 3.257h-.183c-1.742-.229-3.072-1.651-3.072-3.394zm196.901 115.963c.642.046 1.33-.092 1.926-.459l4.585-2.844c1.513-1.009 1.972-3.028.963-4.541s-3.026-1.972-4.54-.963l-4.356 2.706c-1.559.917-2.063 2.936-1.146 4.541.55.917 1.559 1.468 2.568 1.56z" opacity=".3"/></g><g transform="translate(32.557 31.651)"><path d="M178.697 159.173c.459-.459.55-1.193.275-1.789l-8.621-16.651c4.448-7.569 7.704-15.871 9.538-24.679l17.562-6.514c.596-.229 1.009-.826 1.009-1.468l-.55-22.523c0-.642-.459-1.239-1.055-1.422l-17.883-5.688c-2.247-8.716-5.915-16.881-10.73-24.22l7.795-17.064c.275-.596.138-1.284-.321-1.743l-16.279-15.55c-.459-.459-1.192-.55-1.788-.275l-16.645 8.624c-7.566-4.45-15.866-7.706-24.67-9.541l-6.511-17.569c-.229-.596-.825-1.009-1.467-1.009L85.84.642a1.53 1.53 0 0 0-1.422 1.055l-5.686 17.89a81 81 0 0 0-24.211 10.734l-17.058-7.798a1.54 1.54 0 0 0-1.742.321L20.176 39.128c-.459.459-.55 1.193-.275 1.789l8.621 16.651c-4.448 7.569-7.704 15.871-9.538 24.679L1.422 88.761c-.596.229-1.009.826-1.009 1.468l.55 22.523c0 .642.459 1.239 1.055 1.422l17.883 5.688c2.247 8.716 5.915 16.881 10.73 24.22l-7.795 17.064c-.275.596-.138 1.284.321 1.743l16.279 15.55c.459.459 1.192.55 1.788.275l16.645-8.624c7.566 4.45 15.866 7.706 24.67 9.541L89.05 197.2c.229.596.825 1.009 1.467 1.009l22.515-.55a1.53 1.53 0 0 0 1.422-1.055l5.686-17.89a81 81 0 0 0 24.211-10.734l17.058 7.798a1.54 1.54 0 0 0 1.742-.321l15.545-16.284z" fill="#bdd0fb"/><path d="M94.415 121.146c-12.152-2.752-19.809-14.908-17.058-27.064a22.54 22.54 0 0 1 9.996-14.128c5.09-3.211 11.189-4.266 17.058-2.936 12.152 2.752 19.809 14.908 17.058 27.064-2.522 11.055-12.794 18.394-23.799 17.523-1.055-.046-2.155-.183-3.256-.459zm-4.219-36.743c-3.898 2.477-6.649 6.33-7.658 10.826-2.109 9.312 3.76 18.624 13.069 20.78 9.309 2.11 18.617-3.761 20.772-13.073 2.109-9.312-3.76-18.624-13.069-20.78-.825-.183-1.697-.321-2.522-.367a17.5 17.5 0 0 0-10.592 2.615z" fill="url(#B)"/><path d="M94.69 154.219l5.732.138h0c.596 0 1.192-.046 1.788-.092 2.981-.183 5.915-.55 8.804-1.193.046 0 .092 0 .138-.046.092-.046.229-.046.321-.092l.642-.138a1.37 1.37 0 0 0 1.009-1.193c0-.138 0-.275-.046-.413-.183-.688-.871-1.147-1.605-.963-3.623.872-7.428 1.376-11.189 1.468-18.755.459-35.492-8.991-45.259-23.532-5.411-8.073-8.712-17.752-8.942-28.211-.046-1.835 0-3.67.138-5.459.917-12.11 5.961-23.44 14.49-32.385 9.767-10.229 22.927-16.055 37.097-16.422 29.21-.688 53.513 22.523 54.201 51.697a52.43 52.43 0 0 1-.138 5.367c-.596 7.752-2.889 15.229-6.695 22.018-.092.183-.138.367-.183.55-.046.505.183 1.009.642 1.239.642.367 1.422.138 1.788-.505 4.035-7.11 6.42-15 7.062-23.119a57.94 57.94 0 0 0 .138-5.642c-.734-30.688-26.275-55-56.906-54.312-14.857.367-28.659 6.468-38.931 17.248-8.942 9.358-14.215 21.284-15.178 33.991-.138 1.881-.183 3.807-.138 5.734.367 14.862 6.466 28.67 17.196 38.945 9.4 9.037 21.323 14.312 34.024 15.321z" fill="url(#C)"/></g><g transform="translate(201.303 133.027)"><g fill="#bdd0fb"><path d="M162.189 120.733c.871.046 1.742-.459 2.063-1.33l1.697-4.908c.321-1.055-.275-2.202-1.33-2.569-1.055-.321-2.201.275-2.568 1.33l-1.605 4.679c-.413 1.055.138 2.248 1.192 2.615a.88.88 0 0 0 .55.183zm3.989-15.137c-1.101-.183-1.834-1.239-1.651-2.385a87.62 87.62 0 0 0 1.101-8.486l.138-1.789c.046-1.101 1.009-1.972 2.155-1.927 1.055.092 1.972 1.009 1.926 2.156l-.138 1.881c-.229 2.982-.596 5.963-1.146 8.899-.183 1.055-1.146 1.743-2.155 1.651-.092.046-.138 0-.229 0zm-.459-22.981c-.229-3.44-.688-6.881-1.33-10.275-.229-1.101.504-2.156 1.605-2.385s2.155.505 2.384 1.605c.688 3.532 1.146 7.156 1.376 10.78.092 1.101-.78 2.11-1.88 2.156h-.275a1.99 1.99 0 0 1-1.88-1.881zm-3.898-20.275a82.5 82.5 0 0 0-3.806-9.633c-.459-1.009-.046-2.248.963-2.706s2.247-.046 2.705.963a96.14 96.14 0 0 1 3.989 10.092c.367 1.055-.229 2.202-1.33 2.569-.275.092-.504.092-.78.092-.734-.046-1.467-.596-1.742-1.376zm-8.712-18.715c-1.834-2.936-3.852-5.734-6.053-8.394-.734-.872-.596-2.156.275-2.89.871-.688 2.155-.596 2.843.275a85.59 85.59 0 0 1 6.328 8.807c.596.963.321 2.202-.642 2.798-.367.229-.825.321-1.238.321-.596-.046-1.192-.367-1.513-.917zM140.04 27.616c-2.476-2.385-5.136-4.633-7.887-6.697-.917-.688-1.101-1.972-.413-2.844.688-.917 1.972-1.101 2.843-.413 2.889 2.156 5.686 4.495 8.254 7.018.825.78.825 2.064.046 2.89-.459.459-1.055.688-1.651.642-.413-.092-.825-.275-1.192-.596zm-16.554-12.339c-2.981-1.697-6.099-3.257-9.263-4.541-1.055-.413-1.513-1.605-1.101-2.661s1.605-1.514 2.66-1.101c3.302 1.376 6.603 2.982 9.721 4.771.963.55 1.33 1.789.78 2.798-.413.688-1.146 1.101-1.926 1.009a3.22 3.22 0 0 1-.871-.275zm-19.03-7.936c-3.302-.917-6.695-1.651-10.134-2.156-1.101-.183-1.88-1.193-1.697-2.294s1.192-1.881 2.293-1.697c3.577.55 7.153 1.284 10.592 2.248 1.101.321 1.697 1.422 1.422 2.523-.275.963-1.146 1.56-2.109 1.468-.092-.046-.229-.092-.367-.092zm-32.97-4.495c-.092-1.101.688-2.11 1.834-2.248 3.118-.321 6.282-.459 9.4-.413h1.422c1.101 0 2.018.963 1.972 2.11s-.963 2.018-2.109 1.972h-1.33c-3.026-.046-6.053.092-8.988.413h-.367c-.963-.046-1.742-.826-1.834-1.835z" opacity=".3"/><path d="M74.01 175.825c-3.531-.321-7.062-.872-10.547-1.605-1.101-.229-1.788-1.33-1.559-2.431s1.33-1.789 2.43-1.56c3.302.688 6.695 1.239 10.042 1.514 1.101.092 1.926 1.101 1.834 2.202a2.02 2.02 0 0 1-2.201 1.881zm8.575-1.651c-.046-1.147.871-2.064 1.972-2.11 3.393-.092 6.787-.413 10.134-.917 1.101-.183 2.155.596 2.339 1.697s-.596 2.156-1.697 2.339a81.86 81.86 0 0 1-10.638.963h-.229c-1.055-.092-1.88-.917-1.88-1.972zm-29.393-2.798a87.54 87.54 0 0 1-9.859-4.083c-1.009-.505-1.422-1.697-.917-2.706s1.697-1.422 2.705-.917c3.026 1.468 6.19 2.798 9.4 3.899 1.055.367 1.605 1.514 1.238 2.569a2.12 2.12 0 0 1-2.063 1.376c-.183-.046-.321-.092-.504-.138zm50.028.183c-.321-1.101.321-2.202 1.422-2.523 3.256-.917 6.511-2.018 9.63-3.349 1.055-.413 2.247.046 2.66 1.101s-.046 2.248-1.101 2.661c-3.256 1.376-6.649 2.523-10.088 3.486-.229.046-.459.092-.688.092a2.01 2.01 0 0 1-1.834-1.468zm-69.149-9.587c-2.981-1.927-5.869-4.083-8.575-6.33-.871-.734-.963-2.018-.229-2.89s2.018-.963 2.889-.229c2.568 2.156 5.319 4.22 8.162 6.055.963.596 1.192 1.881.596 2.798-.413.642-1.146.963-1.88.917-.321 0-.688-.092-.963-.321zm-16.324-13.67c-2.43-2.615-4.723-5.367-6.787-8.211-.642-.917-.459-2.202.459-2.844s2.201-.459 2.843.459c1.972 2.706 4.173 5.367 6.511 7.844.78.826.734 2.11-.092 2.89-.413.413-1.009.596-1.559.55-.504-.092-1.009-.275-1.376-.688zM5.182 131.1c-1.742-3.119-3.302-6.33-4.631-9.633-.413-1.055.092-2.248 1.101-2.661 1.055-.413 2.247.092 2.66 1.101a88.51 88.51 0 0 0 4.402 9.174c.55.963.183 2.202-.78 2.752a2.63 2.63 0 0 1-1.146.275c-.642 0-1.238-.367-1.605-1.009zm119.131 33.899c.413.046.78-.046 1.146-.275l4.448-2.706c.963-.596 1.192-1.881.596-2.798s-1.88-1.193-2.797-.596l-4.265 2.569c-.963.55-1.33 1.789-.78 2.798.367.596 1.009.917 1.651 1.009z" opacity=".3"/></g><g transform="translate(15.591 21.101)"><path d="M119.452 106.605c.321-.321.367-.78.183-1.193l-5.778-11.147c2.981-5.046 5.136-10.642 6.374-16.514l11.739-4.358c.413-.138.688-.55.688-1.009l-.367-15.046c0-.459-.321-.826-.734-.963l-11.968-3.807c-1.513-5.826-3.944-11.284-7.153-16.193l5.227-11.422c.183-.413.092-.872-.229-1.193l-10.913-10.413c-.321-.321-.78-.367-1.192-.183l-11.143 5.78c-5.044-2.982-10.638-5.138-16.508-6.376L73.322.826c-.138-.413-.55-.688-1.009-.688l-15.04.367c-.459 0-.825.321-.963.734l-3.806 11.972c-5.824 1.514-11.28 3.945-16.187 7.156l-11.418-5.229c-.413-.183-.871-.092-1.192.229L13.298 26.284c-.321.321-.367.78-.183 1.193l5.778 11.147c-2.981 5.046-5.136 10.642-6.374 16.514L.78 59.495c-.413.138-.688.55-.688 1.009L.459 75.55c0 .459.321.826.734.963l11.968 3.807c1.513 5.826 3.944 11.284 7.153 16.193l-5.227 11.422c-.183.413-.092.872.229 1.193l10.913 10.413c.321.321.78.367 1.192.183l11.143-5.78c5.044 2.982 10.638 5.138 16.508 6.376l4.356 11.743c.138.413.55.688 1.009.688l15.04-.367c.459 0 .825-.321.963-.734l3.806-11.972c5.824-1.514 11.28-3.945 16.187-7.156l11.418 5.229c.413.183.871.092 1.192-.229l10.409-10.917z" fill="#bdd0fb"/><path d="M63.005 81.467c-4.035-.917-7.428-3.349-9.63-6.835s-2.889-7.615-1.972-11.605c1.88-8.303 10.134-13.486 18.434-11.605s13.481 10.138 11.601 18.44c-.917 4.037-3.347 7.431-6.832 9.633-2.843 1.789-6.099 2.569-9.354 2.339-.734-.092-1.513-.229-2.247-.367zm-7.658-17.569c-.688 2.936-.138 6.009 1.467 8.532 1.605 2.569 4.127 4.358 7.062 5h0c2.935.688 6.007.138 8.529-1.468 2.568-1.605 4.356-4.128 4.998-7.064 1.376-6.101-2.43-12.202-8.529-13.578-.55-.138-1.101-.229-1.651-.229-5.457-.413-10.592 3.257-11.876 8.807z" fill="url(#D)"/><path d="M63.188 104.449l3.898.092c2.614-.046 5.227-.367 7.749-.963.092-.046.229-.046.321-.092.871-.229 1.467-.963 1.559-1.835 0-.229 0-.413-.046-.642-.275-1.101-1.376-1.743-2.476-1.514-2.384.55-4.815.872-7.245.963h0-.413c-5.778.092-11.372-1.284-16.324-3.899-2.705-1.422-5.227-3.211-7.52-5.367l-.046-.046-.183-.183c-6.649-6.33-10.409-14.862-10.638-23.991-.046-1.193 0-2.385.092-3.532.596-7.844 3.852-15.183 9.354-20.963a34.07 34.07 0 0 1 23.982-10.642c9.171-.229 17.838 3.165 24.487 9.449 6.649 6.33 10.409 14.862 10.638 23.991.046 1.147 0 2.339-.092 3.486-.367 5-1.88 9.862-4.356 14.22-.138.275-.229.55-.275.826-.046.78.321 1.514 1.009 1.927.963.55 2.201.229 2.797-.78 2.797-4.908 4.448-10.321 4.861-15.917.092-1.284.138-2.615.092-3.899-.229-10.229-4.448-19.77-11.876-26.881-7.428-7.064-17.15-10.826-27.375-10.596s-19.763 4.45-26.871 11.881c-6.145 6.468-9.813 14.679-10.501 23.44-.092 1.284-.138 2.615-.092 3.945.596 20 16.141 36.009 35.492 37.523z" fill="url(#E)"/></g></g></g><path d="M110.969 10.55c-2.705-6.789 4.998-13.073 11.143-9.083 62.454 40.413 217.949 167.246 233.677 435.41 19.718 336.42 110.052 444.079 208.686 501.831 0 0-123.441-13.165-219.278-121.605C109.869 550.73 159.254 131.559 110.969 10.55z" fill="#bdd0fb"/><path d="M170.26 105.963c13.344 35.413 25.954 71.1 37.28 107.201 11.51 36.009 21.873 72.385 31.136 108.99 9.125 36.651 17.517 73.486 24.349 110.596 7.016 37.11 12.427 74.449 17.7 111.972 5.503 37.477 10.822 75.229 20.039 112.568 9.171 37.293 22.927 74.036 42.966 107.247 4.998 8.257 10.18 16.468 15.82 24.312 5.457 7.936 11.28 15.596 17.241 23.211 12.014 15.092 24.991 29.449 39.023 42.752 28.109 26.514 60.253 48.761 94.369 66.33 3.577 1.835 8.025.413 9.859-3.165 1.834-3.532.459-7.844-2.981-9.771h-.046c-8.162-4.495-16.324-9.083-24.211-14.037-3.989-2.385-7.841-5-11.785-7.477-3.806-2.661-7.749-5.138-11.464-7.936-15.086-10.826-29.439-22.66-42.829-35.504-26.871-25.55-50.028-55.229-69.287-86.88-9.446-15.963-17.7-32.569-24.624-49.724-6.924-17.202-12.564-34.954-17.15-53.027-9.217-36.192-14.811-73.532-20.589-110.962-5.824-37.431-11.922-74.999-19.58-112.247-3.76-18.624-7.887-37.202-12.335-55.688l-6.832-27.66-7.428-27.523c-10.226-36.605-21.552-72.889-34.024-108.761-12.656-35.825-26.229-71.284-41.178-106.146-.413-1.009-1.559-1.468-2.568-1.009-.78.275-1.238 1.376-.871 2.339z" fill="#fff"/><path d="M246.058 1057.745c-4.31 12.798-20.314 17.018-30.494 8.165-56.218-48.899-202.725-201.466-194.242-458.575 7.153-217.109-9.584-335.548-20.91-388.759-2.384-11.238 10.959-19.037 19.58-11.376 94.966 84.174 382.568 386.878 226.065 850.544z" fill="#91b3fa"/><path d="M227.761 1058.249c-.275.183-.55.367-.871.505-2.66 1.193-5.778-.046-6.97-2.706-1.33-3.027-133.025-305.594-136.694-607.931a5.25 5.25 0 1 1 10.547-.092c3.668 300.135 134.493 600.821 135.822 603.803 1.009 2.294.229 5-1.834 6.422z" fill="#fff"/><g transform="translate(73.826 397.245)"><path d="M1188.01 53.899l-13.344 564.308-2.063 87.293c0 11.422-9.354 20.642-20.772 20.642H30.264c-11.418 0-20.772-9.22-20.772-20.642l-1.284-87.339L.138 60.779c0-11.422 13.435-33.669 38.06-31.972L1134.359.413c14.307-.367 28.155 5.138 38.289 15.275 10.134 10.092 15.682 23.945 15.361 38.211z" fill="url(#F)"/><path d="M1145.181 687.931c0 10.642-8.896 19.358-19.763 19.358H56.998c-10.868 0-19.763-8.716-19.763-19.358L28.338 86.238c0-10.642 12.794-31.422 36.225-29.862l1044.209-26.468c13.619-.367 26.825 4.816 36.455 14.22 9.675 9.449 14.949 22.339 14.628 35.688l-14.674 608.115z" fill="#91b3fa" opacity=".2"/><path d="M937.275 123.852c-.275 9.908-5.548 18.073-11.785 18.119l-370.6 2.202c-7.016.046-12.702-8.624-12.611-19.174h0c.047-10.55 5.779-19.312 12.84-19.312h371.379c6.236-.046 11.051 8.211 10.776 18.165h0zm-3.99 428.163c-.275 9.908-5.457 17.752-11.601 17.752l-365.418 2.019c-6.924.046-12.518-8.028-12.473-18.578h0c.046-10.55 5.732-18.715 12.656-18.715h366.152c6.19 0 10.959 7.569 10.684 17.523h0zm.046-68.578c-.275 9.908-5.503 17.66-11.647 17.706l-366.885 2.019c-6.97.046-12.564-7.936-12.519-18.486h0c.046-10.55 5.732-18.578 12.702-18.578h367.619c6.236-.046 11.005 7.431 10.73 17.34h0zm3.944-283.576c-.275 8.303-9.4 15.046-20.451 15.138l-353.496 2.936c-11.647.092-21.093-6.743-21.002-15.275v-.963c.092-8.532 9.63-15.55 21.323-15.596l354.138-2.11c11.051-.046 19.809 6.606 19.534 14.908l-.046.963zm-1.376 74.449c-.321 8.211-9.492 14.908-20.497 15l-352.533 2.661c-11.647.092-20.956-6.697-20.82-15.138v-.963c.139-8.486 9.723-15.367 21.37-15.459l353.175-1.835c11.051-.046 19.718 6.56 19.397 14.771l-.092.963z" fill="#7d97f4"/><path d="M1124.776 710.912H1004.59a1.53 1.53 0 0 1-1.513-1.514 1.53 1.53 0 0 1 1.513-1.514h120.186c14.765 0 27.284-13.761 27.284-30v-369.95a1.53 1.53 0 0 1 1.513-1.514 1.53 1.53 0 0 1 1.513 1.514v369.951c0 17.89-13.894 33.027-30.31 33.027zM30.173 307.934a1.53 1.53 0 0 1-1.513-1.514V92.568c0-21.972 16.416-38.578 38.197-38.578h95.608a1.53 1.53 0 0 1 1.513 1.514 1.53 1.53 0 0 1-1.513 1.514H66.811c-20.36 0-35.125 14.954-35.125 35.55V306.42a1.53 1.53 0 0 1-1.513 1.514z" fill="#bdd0fb"/><g transform="translate(983.588 152.292)"><path d="M107.071 134.77l-79.971.735C12.381 135.641.275 123.531.275 108.577L.092 27.064C.046 12.11 12.106 0 26.825.183l80.017.826c14.307.138 26 12.248 26.046 26.926l.183 79.999c-.046 14.633-11.647 26.697-26 26.835z" fill="url(#G)"/><path d="M101.477 127.109l-68.691.551c-13.573.091-24.716-11.056-24.716-24.863l-.184-69.954C7.841 19.037 18.938 7.89 32.511 8.027l68.737.642c13.252.138 24.074 11.284 24.074 24.862l.183 68.807c0 13.532-10.73 24.679-24.028 24.77zM32.511 11.467c-11.693-.091-21.231 9.496-21.185 21.377l.184 69.908c.046 11.881 9.584 21.514 21.277 21.423l68.691-.505c11.418-.092 20.681-9.679 20.635-21.376l-.184-68.807c-.046-11.697-9.309-21.33-20.772-21.422l-68.645-.597z" fill="url(#H)"/><g transform="translate(9.171 39.449)"><path d="M.459 2.064l114.041.505L.459 2.064z" fill="#f4f7fa"/><path fill="url(#I)" d="M114.5 4.266L.459 3.807.413.321l114.041.505z"/><path d="M.505 28.348l114.041.092L.505 28.348z" fill="#f4f7fa"/><path fill="url(#J)" d="M114.087 3.532L.046 3.486V0l114.041.092z" transform="translate(.459 26.605)"/><path d="M.551 54.632l114.041-.367-114.041.367z" fill="#f4f7fa"/><path fill="url(#K)" d="M114.133 3.716L.092 4.083V.642L114.133.275z" transform="translate(.459 52.293)"/></g><g transform="translate(34.391 20.642)"><path d="M48.79 92.385l-31.869.184c-8.116.046-14.811-6.697-14.857-15l-.138-60.871c0-8.303 6.649-15 14.765-14.954l31.869.23c8.025.046 14.628 6.835 14.628 15.046l.138 60.321c.046 8.257-6.512 15-14.536 15.046z" fill="url(#L)"/><path d="M48.79 94.128l-31.869.184C7.841 94.357.413 86.88.367 77.614L.229 16.743C.229 7.477 7.612 0 16.691.046l31.869.23c8.988.046 16.279 7.569 16.324 16.789l.138 60.321c0 9.174-7.245 16.697-16.233 16.743zM16.691 3.532C9.492 3.486 3.623 9.404 3.623 16.789l.138 60.825c0 7.339 5.915 13.303 13.115 13.257l31.869-.184c7.153-.046 12.931-6.009 12.886-13.303l-.138-60.321c0-7.294-5.824-13.257-12.977-13.303l-31.823-.23z" fill="url(#M)"/></g></g><path d="M492.849 574.721H83.777c-3.026 0-5.503-2.477-5.503-5.505v-442.52c0-3.028 2.476-5.505 5.503-5.505h409.072c3.026 0 5.503 2.477 5.503 5.505v442.52c0 3.028-2.476 5.505-5.503 5.505z" fill="#fff"/><g transform="translate(57.319 142.66)"><path d="M477.9 414.309c-12.564-73.21-46.13-140.091-46.13-140.091l-43.929 152.384s.78 1.697 2.018 5.55l73.139-.138c9.354-.046 16.462-8.486 14.903-17.706z" fill="url(#N)"/><path d="M97.625 432.153c4.815-17.202 8.529-28.303 8.529-28.303L34.345 274.218S18.021 293.668.55 405.502c-2.201 13.945 8.208 26.651 22.331 26.651h74.744z" fill="url(#O)"/><path d="M344.921 432.153L325.432 227.98c-86.941-32.156-196.626 3.853-196.626 3.853l-9.033 200.32h225.148z" fill="url(#P)"/><g transform="translate(146.736)"><path d="M39.068 163.577l-1.651 53.899c-.183 5.321 3.164 10.138 8.162 11.881 13.756 4.862 42.278 12.248 69.287 2.569 5.457-1.972 8.712-7.523 7.887-13.257l-8.116-55.091H39.068z" fill="url(#Q)"/><path d="M11.51 65.229s9.446 96.467 30.264 121.054c0 0 62.409 5.688 85.061-7.569 0 0 16.049-48.211 14.169-112.522 0 0 3.118-58.532-61.446-63.348C3.989-2.844 11.51 65.229 11.51 65.229z" fill="url(#R)"/><path d="M134.401 95.504s5.686-17.018 15.132-17.018-1.88 45.367-15.132 45.367V95.504z" fill="url(#S)"/><path d="M20.13 99.953S12.197 83.853 2.843 85.137s7.979 44.724 21.093 42.935L20.13 99.953z" fill="url(#T)"/><path d="M12.748 77.293s7.428 92.752 32.74 125.137c2.339 2.982 5.686 4.679 9.217 4.908 12.931.688 45.993 1.927 64.61-2.202 4.631-1.009 8.437-4.633 9.996-9.587 2.705-8.807 5.136-15.826 5.273-18.945.642-14.404 3.898-54.266 8.162-108.623l-3.852-6.147c-1.192 12.569-8.85 92.614-21.047 94.495-2.614.413-5.457-.183-5.457-.183-7.383-1.514-9.675-7.339-14.811-11.101-8.988-6.605-24.395-5.275-33.016 1.605-3.577 2.89-5.824 6.605-12.106 9.266-3.989 1.697-7.749 2.156-8.942 2.11-8.896-.367-17.792-35.458-22.744-83.21l-8.025 2.477z" fill="url(#U)"/><path d="M115.509 41.146S67.361 82.935 14.857 82.798c0 0-29.806-67.156 28.797-78.348 58.603-11.147 60.483 3.211 60.483 3.211s68.553-14.22 38.06 67.889l-26.688-34.403z" fill="url(#V)"/></g><path d="M97.442 432.153h51.587l24.762-211.099c-67.819 6.193-139.445 53.165-139.445 53.165l53.329 129.494c3.852 9.266 7.108 18.853 9.767 28.44z" fill="url(#W)"/><path d="M391.509 432.153c2.889-12.11 6.374-23.257 10.409-34.633l29.806-123.302c-59.428-46.422-152.376-57.293-152.376-57.293l34.758 215.228h77.403 0z" fill="url(#X)"/></g></g></g></svg>