<?xml version="1.0" encoding="UTF-8"?>
<svg width="18px" height="13px" viewBox="0 0 18 13" version="1.1" xmlns="http://www.w3.org/2000/svg" xmlns:xlink="http://www.w3.org/1999/xlink">
    <title>banner_icon</title>
    <g id="Page-1" stroke="none" stroke-width="1" fill="none" fill-rule="evenodd">
        <g id="Artboard" transform="translate(-25.000000, -465.000000)" fill="#363636" fill-rule="nonzero">
            <g id="banner_icon" transform="translate(25.000000, 465.000000)">
                <ellipse id="Oval" cx="9" cy="6.5" rx="1" ry="1"></ellipse>
                <path d="M12.8671875,9.23684211 C12.4788516,9.23684211 12.1640625,9.54316316 12.1640625,9.92105263 C12.1640625,10.2989421 12.4788516,10.6052632 12.8671875,10.6052632 L14.8359375,10.6052632 C15.2242734,10.6052632 15.5390625,10.2989421 15.5390625,9.92105263 L15.5390625,3.07894737 C15.5390625,2.70105789 15.2242734,2.39473684 14.8359375,2.39473684 L12.8671875,2.39473684 C12.4788516,2.39473684 12.1640625,2.70105789 12.1640625,3.07894737 C12.1640625,3.45683684 12.4788516,3.76315789 12.8671875,3.76315789 L14.1328125,3.76315789 L14.1328125,9.23684211 L12.8671875,9.23684211 Z" id="Path"></path>
                <path d="M3.1640625,10.6052632 L5.1328125,10.6052632 C5.52114844,10.6052632 5.8359375,10.2989421 5.8359375,9.92105263 C5.8359375,9.54316316 5.52114844,9.23684211 5.1328125,9.23684211 L3.8671875,9.23684211 L3.8671875,3.76315789 L5.1328125,3.76315789 C5.52114844,3.76315789 5.8359375,3.45683684 5.8359375,3.07894737 C5.8359375,2.70105789 5.52114844,2.39473684 5.1328125,2.39473684 L3.1640625,2.39473684 C2.77572656,2.39473684 2.4609375,2.70105789 2.4609375,3.07894737 L2.4609375,9.92105263 C2.4609375,10.2989421 2.77572656,10.6052632 3.1640625,10.6052632 Z" id="Path"></path>
                <path d="M17.296875,0 L0.703125,0 C0.314789063,0 0,0.306321053 0,0.684210526 L0,12.3157895 C0,12.6936789 0.314789063,13 0.703125,13 L17.296875,13 C17.6852109,13 18,12.6936789 18,12.3157895 L18,0.684210526 C18,0.306321053 17.6852109,0 17.296875,0 Z M16.59375,11.6315789 L1.40625,11.6315789 L1.40625,1.36842105 L16.59375,1.36842105 L16.59375,11.6315789 Z" id="Shape"></path>
            </g>
        </g>
    </g>
</svg>