<?xml version="1.0" encoding="UTF-8"?>
<svg width="15px" height="18px" viewBox="0 0 15 18" version="1.1" xmlns="http://www.w3.org/2000/svg" xmlns:xlink="http://www.w3.org/1999/xlink">
    <title>catalog_icon</title>
    <g id="Page-1" stroke="none" stroke-width="1" fill="none" fill-rule="evenodd">
        <g id="Artboard" transform="translate(-27.000000, -508.000000)" fill="#363636" fill-rule="nonzero">
            <g id="catalog_icon" transform="translate(27.000000, 508.000000)">
                <path d="M14.2990654,2.67187352 L12.3364486,2.67187352 L12.3364486,0.703124612 C12.3364486,0.314758127 12.0226709,0 11.635514,0 L0.700934579,0 C0.313777745,0 0,0.314758127 0,0.703124612 L0,14.6249919 C0,15.0133584 0.313777745,15.3281165 0.700934579,15.3281165 L2.6635514,15.3281165 L2.6635514,17.2968655 C2.6635514,17.2972774 2.66368829,17.2976894 2.66368829,17.2981014 C2.66437283,17.683584 2.97760297,18.00205 3.36927754,18 L14.2990654,18 C14.6862223,18 15,17.6852319 15,17.2968655 L15,3.37499814 C15,2.98663165 14.6862223,2.67187352 14.2990654,2.67187352 Z M1.40186916,13.9218673 L1.40186916,1.40624922 L10.9345794,1.40624922 L10.9345794,13.9218673 L1.40186916,13.9218673 Z M4.06542056,16.3317171 L4.06542056,15.3281165 L7.17225834,15.3281165 L4.06542056,16.3317171 Z M13.5981308,16.5937408 L7.82774166,16.5937408 L11.8414136,15.2970802 C12.1305491,15.208091 12.3406925,14.9320596 12.3364486,14.6156536 L12.3364486,4.07812275 L13.5981308,4.07812275 L13.5981308,16.5937408 Z M9.6728972,4.18359144 C9.6728972,4.57195793 9.35911945,4.88671605 8.97196262,4.88671605 L3.36448598,4.88671605 C2.97732915,4.88671605 2.6635514,4.57195793 2.6635514,4.18359144 C2.6635514,3.79522496 2.97732915,3.48046683 3.36448598,3.48046683 L8.97196262,3.48046683 C9.35911945,3.48046683 9.6728972,3.79522496 9.6728972,4.18359144 Z M9.6728972,7.66405827 C9.6728972,8.05242475 9.35911945,8.36718288 8.97196262,8.36718288 L3.36448598,8.36718288 C2.97732915,8.36718288 2.6635514,8.05242475 2.6635514,7.66405827 C2.6635514,7.27569178 2.97732915,6.96093366 3.36448598,6.96093366 L8.97196262,6.96093366 C9.35911945,6.96093366 9.6728972,7.27569178 9.6728972,7.66405827 Z M9.6728972,11.1445251 C9.6728972,11.5328916 9.35911945,11.8476497 8.97196262,11.8476497 L3.36448598,11.8476497 C2.97732915,11.8476497 2.6635514,11.5328916 2.6635514,11.1445251 C2.6635514,10.7561586 2.97732915,10.4414005 3.36448598,10.4414005 L8.97196262,10.4414005 C9.35911945,10.4414005 9.6728972,10.7561586 9.6728972,11.1445251 Z" id="Shape"></path>
            </g>
        </g>
    </g>
</svg>