<?xml version="1.0" encoding="UTF-8"?>
<svg width="17px" height="17px" viewBox="0 0 17 17" version="1.1" xmlns="http://www.w3.org/2000/svg" xmlns:xlink="http://www.w3.org/1999/xlink">
    <title>celebrities_icon</title>
    <g id="Page-1" stroke="none" stroke-width="1" fill="none" fill-rule="evenodd">
        <g id="Artboard" transform="translate(-26.000000, -751.000000)" fill="#363636" fill-rule="nonzero">
            <g id="celebrities_icon" transform="translate(26.000000, 751.000000)">
                <path d="M16.9683875,4.90472412 L15.5512865,0.472625732 C15.4681489,0.19636534 15.2091382,0 14.9154976,0 L2.08454658,0 C1.79492673,0 1.53319232,0.191955566 1.44875769,0.472625732 L0.0315269755,4.90472412 C-0.0387703834,5.12469482 0.0102561929,5.36541748 0.160967452,5.54038238 L3.09153655,8.9420166 C2.80334341,9.64304351 2.6569122,10.3858337 2.6569122,11.1565094 C2.6569122,14.3786392 5.27814706,17 8.50002211,17 C11.7218972,17 14.343132,14.3786392 14.343132,11.1565094 C14.343132,10.3735123 14.1880109,9.62631226 13.9074701,8.94331358 L16.8390768,5.54038238 C16.989788,5.36541748 17.0388146,5.12469482 16.9683875,4.90472412 Z M13.4673983,1.328125 L12.0365491,2.98892974 L4.96336541,2.98892974 L3.53264588,1.328125 L13.4673983,1.328125 Z M10.8924664,4.31705474 L9.89014558,5.48046113 C9.44436702,5.37125396 8.97887411,5.31288911 8.50002211,5.31288911 C8.0283036,5.31288911 7.56229186,5.36904907 7.10937987,5.47981261 L6.10770758,4.31705474 L10.8924664,4.31705474 Z M1.40984775,4.9551773 L2.35574907,1.99685669 L5.78825674,5.981102 C4.9999408,6.39653017 4.31071555,6.99055479 3.782837,7.70960997 L1.40984775,4.9551773 Z M8.50002211,15.671875 C6.01043265,15.671875 3.98503911,13.646225 3.98503911,11.1565094 C3.98503911,8.66705322 6.00070515,6.6411438 8.50002211,6.6411438 C10.9896116,6.6411438 13.0150051,8.66666412 13.0150051,11.1565094 C13.0150051,13.646225 10.9896116,15.671875 8.50002211,15.671875 L8.50002211,15.671875 Z M13.2161696,7.71090698 C12.6901068,6.99275971 12.0043835,6.39873505 11.2113984,5.98149111 L14.6442952,1.99698638 L15.5901965,4.9551773 L13.2161696,7.71090698 Z" id="Shape"></path>
            </g>
        </g>
    </g>
</svg>