<?xml version="1.0" encoding="UTF-8"?>
<svg width="17px" height="17px" viewBox="0 0 17 17" version="1.1" xmlns="http://www.w3.org/2000/svg" xmlns:xlink="http://www.w3.org/1999/xlink">
    <title>configure_icon</title>
    <g id="Page-1" stroke="none" stroke-width="1" fill="none" fill-rule="evenodd">
        <g id="Artboard" transform="translate(-26.000000, -414.000000)" fill="#363636" fill-rule="nonzero">
            <g id="configure_icon" transform="translate(26.000000, 414.000000)">
                <path d="M16.8055641,4.11251047 L12.8875991,0.194549189 C12.6281999,-0.0648497298 12.2077139,-0.0648497298 11.9484444,0.194549189 L8.5,3.64286873 C4.80718536,-0.0405959226 5.03364081,0.143707001 4.86567988,0.064330932 C4.77489017,0.0212707114 4.67579969,0 4.58202688,0 C2.06390946,0 0,2.04561988 0,4.58500561 C0.00103759667,4.76645516 0.0756148654,4.93272985 0.194549375,5.05166425 L3.64287221,8.49998379 L0.194549375,11.948433 C-0.0648497917,12.2077023 -0.0648497917,12.6281879 0.194549375,12.8875868 L4.11251439,16.8055481 C4.37178386,17.0648173 4.7922699,17.0648173 5.05166906,16.8055481 L8.5,13.3570988 C11.5020184,16.3584741 11.3354842,16.2416148 11.5680355,16.3100961 C11.7453349,16.3622353 11.6178402,16.3256601 15.673157,16.337333 C16.0399475,16.337333 16.3372189,16.0399322 16.3372189,15.6732718 C16.3360516,11.4083645 16.3510968,11.7018744 16.3084256,11.5617989 C16.2217863,11.2771086 16.2461698,11.428857 13.3571116,8.49998379 L16.8054344,5.05166425 C17.0648336,4.79226533 17.0648336,4.3717797 16.8055641,4.11251047 L16.8055641,4.11251047 Z M6.54100939,13.4377719 L5.05153937,11.948433 C4.7922699,11.6891638 4.37178386,11.6891638 4.1123847,11.948433 C3.85311522,12.2077023 3.85311522,12.6281879 4.1123847,12.8875868 L5.60185471,14.3769257 L4.58202688,15.3967526 L1.60321654,12.4179451 L4.58202688,9.43913757 L7.56083722,12.4179451 L6.54100939,13.4377719 Z M15.0090952,15.0092106 L12.4874759,15.0092106 C12.7502472,13.746716 13.7467291,12.7503648 15.0090952,12.4875937 L15.0090952,15.0092106 Z M14.2851121,11.306291 C12.8730727,11.7560887 11.7560999,12.8731902 11.3063018,14.2850985 C10.7375691,13.7163664 1.9650784,4.94388402 1.33888881,4.31782472 C1.4669023,2.73393492 2.73380783,1.46690091 4.31769911,1.33888753 C4.44454532,1.46573359 11.5459866,8.5670384 11.9480553,8.96923642 C11.948185,8.96936614 11.9483147,8.96949583 11.9484444,8.96962552 C11.9484444,8.96962552 11.9485741,8.96975525 11.9487038,8.96988494 L14.2851121,11.306291 Z M14.3769394,5.60184937 L12.8875991,4.11251047 C12.6281999,3.85324124 12.2077139,3.85324124 11.9484444,4.11251047 C11.6890452,4.3717797 11.6890452,4.79226533 11.9484444,5.05166425 L13.4377847,6.54100315 L12.4179569,7.56083001 L9.43914657,4.58202251 L12.4179569,1.60321501 L15.3967672,4.58202251 L14.3769394,5.60184937 Z" id="Shape"></path>
            </g>
        </g>
    </g>
</svg>