<?xml version="1.0" encoding="UTF-8"?>
<svg width="17px" height="17px" viewBox="0 0 17 17" version="1.1" xmlns="http://www.w3.org/2000/svg" xmlns:xlink="http://www.w3.org/1999/xlink">
    <title>customize_icon</title>
    <g id="Page-1" stroke="none" stroke-width="1" fill="none" fill-rule="evenodd">
        <g id="Artboard" transform="translate(-26.000000, -366.000000)" fill="#363636" fill-rule="nonzero">
            <g id="customize_icon" transform="translate(26.000000, 366.000000)">
                <path d="M16.3359375,6.17578125 L15.6860527,6.17578125 C15.4302559,6.17578125 15.2004902,6.01949414 15.1015449,5.77986719 C15.0004746,5.53685352 15.0438711,5.24307227 15.2248281,5.06211523 L15.6843262,4.60261719 C15.9415176,4.35532031 15.9415176,3.91076367 15.6843262,3.6635 L13.3364668,1.31570703 C13.0892031,1.05844922 12.6446133,1.05851562 12.3973496,1.31570703 L11.9378848,1.77517188 C11.7569609,1.95612891 11.4631465,1.99952539 11.2223242,1.89935156 C10.9804727,1.79950977 10.8242188,1.56974414 10.8242188,1.31394727 L10.8242188,0.6640625 C10.8242188,0.297300781 10.526918,0 10.1601562,0 L6.83984375,0 C6.47308203,0 6.17578125,0.297300781 6.17578125,0.6640625 L6.17578125,1.31394727 C6.17578125,1.56974414 6.01952734,1.79950977 5.77960156,1.89855469 C5.53658789,1.999625 5.24307227,1.9560957 5.06211523,1.77517188 L4.60265039,1.31570703 C4.35535352,1.05851562 3.91079687,1.05848242 3.6635332,1.31570703 L1.31567383,3.6635 C1.05635742,3.92281641 1.05632422,4.34330078 1.31567383,4.60261719 L1.77517188,5.06211523 C1.9560957,5.24307227 2.0006875,5.53393164 1.89931836,5.77764258 C1.79950977,6.01949414 1.56971094,6.17578125 1.31394727,6.17578125 L0.6640625,6.17578125 C0.297300781,6.17578125 0,6.47308203 0,6.83984375 L0,10.1601562 C0,10.526918 0.297300781,10.8242188 0.6640625,10.8242188 L1.31394727,10.8242188 C1.56971094,10.8242188 1.80641602,10.9971406 1.90665625,11.2399551 C2.00772656,11.4829688 1.9560957,11.7569277 1.77513867,11.9378848 L1.31567383,12.3973828 C1.05632422,12.6567324 1.05635742,13.0771836 1.31567383,13.3365 L3.6635332,15.684293 C3.91079688,15.9415508 4.35538672,15.9414844 4.60265039,15.684293 L5.06211523,15.2248281 C5.24303906,15.0438711 5.53682031,15.0004746 5.77767578,15.1006484 C6.01952734,15.2004902 6.17578125,15.4302559 6.17578125,15.6860527 L6.17578125,16.3359375 C6.17578125,16.7026992 6.47308203,17 6.83984375,17 L10.1601562,17 C10.526918,17 10.8242188,16.7026992 10.8242188,16.3359375 L10.8242188,15.6860527 C10.8242188,15.4302559 10.9804727,15.2004902 11.2203984,15.1014453 C11.4633789,15.0004082 11.7569277,15.0438711 11.9378848,15.2248281 L12.3973496,15.684293 C12.6446465,15.9414844 13.0892031,15.9415176 13.3364668,15.684293 L15.6843262,13.3365 C15.9415176,13.0892031 15.9415176,12.6446465 15.684293,12.3973496 L15.2248281,11.937918 C15.0438711,11.7569609 14.9922734,11.483002 15.0936426,11.2392578 C15.1934844,10.9974062 15.4302559,10.8242188 15.6860527,10.8242188 L16.3359375,10.8242188 C16.7026992,10.8242188 17,10.526918 17,10.1601562 L17,6.83984375 C17,6.47308203 16.7026992,6.17578125 16.3359375,6.17578125 Z M15.6719082,9.49612695 C14.8819727,9.50173828 14.1719902,9.99121875 13.8671191,10.7298887 C13.5605215,11.4670312 13.7210254,12.3041816 14.2756836,12.8669082 L12.8669082,14.2756504 C12.304248,13.7209922 11.4549453,13.5654355 10.7156113,13.8729961 C9.97916602,14.1769707 9.50177148,14.8819727 9.49616016,15.671875 L7.50383984,15.671875 C7.49822852,14.8819727 7.00848242,14.1718242 6.27011133,13.8670859 C5.53290234,13.5604883 4.69578516,13.7210254 4.133125,14.2756836 L2.72434961,12.8669082 C3.27900781,12.3042148 3.43954492,11.4670645 3.13317969,10.7306191 C2.82920508,9.99414062 2.11799414,9.50177148 1.328125,9.49612695 L1.328125,7.50383984 C2.11799414,7.49822852 2.82299609,7.02083398 3.12657227,6.28535156 C3.43320312,5.54820898 3.27900781,4.69578516 2.72434961,4.1330918 L4.133125,2.72431641 C4.69578516,3.27897461 5.53300195,3.43944531 6.27236914,3.13195117 C7.00881445,2.82797656 7.49826172,2.11796094 7.50387305,1.3280918 L9.49619336,1.3280918 C9.50180469,2.11799414 9.97919922,2.82299609 10.7175703,3.12776758 C11.4547793,3.43436523 12.3042148,3.27897461 12.8669082,2.72431641 L14.2756836,4.13305859 C13.7210254,4.69575195 13.5666641,5.54791016 13.8729961,6.28435547 C14.1769707,7.02080078 14.8820059,7.49819531 15.6719082,7.50383984 L15.6719082,9.49612695 L15.6719082,9.49612695 Z M8.5,4.515625 C6.30301562,4.515625 4.515625,6.30301562 4.515625,8.5 C4.7345,13.7858047 12.2663301,13.7842773 12.484375,8.4999668 C12.484375,6.30301562 10.6969844,4.515625 8.5,4.515625 Z M8.5,11.15625 C7.03534375,11.15625 5.84375,9.96465625 5.84375,8.5 C5.98964453,4.97611914 11.0108867,4.97714844 11.15625,8.5000332 C11.15625,9.96465625 9.96465625,11.15625 8.5,11.15625 Z" id="Shape"></path>
            </g>
        </g>
    </g>
</svg>