<?xml version="1.0" encoding="UTF-8"?>
<svg width="19px" height="19px" viewBox="0 0 19 19" version="1.1" xmlns="http://www.w3.org/2000/svg" xmlns:xlink="http://www.w3.org/1999/xlink">
    <title>customer_icon</title>
    <g id="Page-1" stroke="none" stroke-width="1" fill="none" fill-rule="evenodd">
        <g id="Artboard" transform="translate(-25.000000, -224.000000)" fill="#363636" fill-rule="nonzero" stroke="#363636" stroke-width="0.1">
            <g id="customer_icon" transform="translate(26.000000, 225.000000)">
                <path d="M11.0234375,7.8359375 C12.7091934,7.8359375 14.3251895,8.55335742 15.4570508,9.80425195 C16.4521152,10.9047695 17,12.3281875 17,13.8125 L17,13.8125 L17,16.3359375 C17,16.7026992 16.7026992,17 16.3359375,17 L16.3359375,17 L0.6640625,17 C0.297300781,17 0,16.7026992 0,16.3359375 L0,16.3359375 L0,13.8125 C0,12.3281875 0.547884766,10.9047695 1.5427832,9.80445117 C2.67481055,8.55335742 4.29080664,7.8359375 5.9765625,7.8359375 C6.84894141,7.8359375 7.71418164,8.02815039 8.5,8.39388281 C9.28581836,8.02815039 10.1510586,7.8359375 11.0234375,7.8359375 Z M5.9765625,9.1640625 C4.66537109,9.1640625 3.40830078,9.72220703 2.52775391,10.6953574 C1.7542207,11.5508691 1.328125,12.6579609 1.328125,13.8125 L1.328125,13.8125 L1.328125,15.671875 L10.625,15.671875 L10.625,13.8125 C10.625,11.2450352 8.54416016,9.1640625 5.9765625,9.1640625 Z M11.0234375,9.1640625 C10.6431953,9.1640625 10.2648457,9.2108457 9.8982168,9.30195508 C11.2060879,10.4400254 11.953125,12.0797285 11.953125,13.8125 L11.953125,13.8125 L11.953125,15.671875 L15.671875,15.671875 L15.671875,13.8125 C15.671875,12.6579609 15.2457793,11.5508691 14.4720801,10.6951914 C13.5916992,9.72220703 12.3346289,9.1640625 11.0234375,9.1640625 Z M11.0234375,0 C13.0373398,0 14.6757812,1.63844141 14.6757812,3.65234375 C14.6757812,5.66624609 13.0373398,7.3046875 11.0234375,7.3046875 C10.0670547,7.3046875 9.17103516,6.93732813 8.5000332,6.29398437 C7.82913086,6.93726172 6.93304492,7.3046875 5.9765625,7.3046875 C3.96266016,7.3046875 2.32421875,5.66624609 2.32421875,3.65234375 C2.32421875,1.63844141 3.96266016,0 5.9765625,0 C6.93297852,0 7.82899805,0.367392578 8.5,1.01073633 C9.17100195,0.367392578 10.0670215,0 11.0234375,0 Z M5.9765625,1.328125 C4.69498828,1.328125 3.65234375,2.37076953 3.65234375,3.65234375 C3.65234375,4.93391797 4.69498828,5.9765625 5.9765625,5.9765625 C7.24352734,5.9765625 8.25572461,4.97226758 8.29932031,3.73525195 C8.34543945,2.42764648 7.30309375,1.328125 5.9765625,1.328125 Z M11.0234375,1.328125 C10.350377,1.328125 9.72409961,1.61380469 9.28661523,2.10716992 C9.52398438,2.61487891 9.64550781,3.18603906 9.62681445,3.77038086 C9.61160742,4.24777539 9.50207031,4.73669141 9.28661523,5.19751758 C9.72409961,5.69088281 10.350377,5.9765625 11.0234375,5.9765625 C12.3050117,5.9765625 13.3476562,4.93391797 13.3476562,3.65234375 C13.3476562,2.37076953 12.3050117,1.328125 11.0234375,1.328125 Z" id="Combined-Shape"></path>
            </g>
        </g>
    </g>
</svg>