<?xml version="1.0" encoding="UTF-8"?>
<svg width="18px" height="16px" viewBox="0 0 18 16" version="1.1" xmlns="http://www.w3.org/2000/svg" xmlns:xlink="http://www.w3.org/1999/xlink">
    <title>dashboard_icon</title>
    <g id="Page-1" stroke="none" stroke-width="1" fill="none" fill-rule="evenodd">
        <g id="Artboard" transform="translate(-25.000000, -82.000000)" fill="#363636" fill-rule="nonzero">
            <g id="dashboard_icon" transform="translate(25.000000, 82.000000)">
                <path d="M17.296875,0 L0.703125,0 C0.314758301,0 0,0.328555046 0,0.733944954 L0,15.266055 C0,15.671445 0.314758301,16 0.703125,16 L17.296875,16 C17.6852417,16 18,15.671445 18,15.266055 C18,14.8739966 18,1.12327982 18,0.733944954 C18,0.328555046 17.6852417,0 17.296875,0 Z M16.59375,14.5321101 L1.40625,14.5321101 L1.40625,4.99082569 L16.59375,4.99082569 L16.59375,14.5321101 Z M16.59375,3.52293578 L1.40625,3.52293578 L1.40625,1.46788991 L16.59375,1.46788991 L16.59375,3.52293578 Z M2.671875,12.4770642 C2.671875,12.0716743 2.9866333,11.7431193 3.375,11.7431193 L4.078125,11.7431193 L4.078125,9.5412844 C4.078125,9.1358945 4.3928833,8.80733945 4.78125,8.80733945 C5.1696167,8.80733945 5.484375,9.1358945 5.484375,9.5412844 L5.484375,11.7431193 L8.296875,11.7431193 L8.296875,8.0733945 C8.296875,7.66800459 8.6116333,7.33944954 9,7.33944954 C9.3883667,7.33944954 9.703125,7.66800459 9.703125,8.0733945 L9.703125,11.7431193 L12.515625,11.7431193 L12.515625,6.60550459 C12.515625,6.20011468 12.8303833,5.87155963 13.21875,5.87155963 C13.6071167,5.87155963 13.921875,6.20011468 13.921875,6.60550459 L13.921875,11.7431193 L14.625,11.7431193 C15.0133667,11.7431193 15.328125,12.0716743 15.328125,12.4770642 C15.328125,12.8824541 15.0133667,13.2110092 14.625,13.2110092 L3.375,13.2110092 C2.9866333,13.2110092 2.671875,12.8824541 2.671875,12.4770642 Z" id="Shape"></path>
            </g>
        </g>
    </g>
</svg>