<?xml version="1.0" encoding="UTF-8"?>
<svg width="16px" height="17px" viewBox="0 0 16 17" version="1.1" xmlns="http://www.w3.org/2000/svg" xmlns:xlink="http://www.w3.org/1999/xlink">
    <title>8AA924B5-3C76-4C56-BEEF-0BA775E62E1F</title>
    <g id="Page-1" stroke="none" stroke-width="1" fill="none" fill-rule="evenodd" opacity="0.300000012">
        <g id="Cart-Page" transform="translate(-112.000000, -377.000000)" fill="#000000" fill-rule="nonzero">
            <g id="Group-5" transform="translate(83.000000, 133.000000)">
                <g id="Group-6" transform="translate(19.000000, 237.000000)">
                    <g id="discount_icon" transform="translate(10.445344, 7.714286)">
                        <path d="M14.0841165,7.91412975 C14.0220692,7.7871167 14.0220692,7.64145096 14.0841165,7.51446804 L14.6592894,6.33729963 C14.9795261,5.68186407 14.7257946,4.90065094 14.0816467,4.55872517 L12.9247346,3.94460275 C12.799917,3.87836914 12.7143459,3.76048656 12.6899185,3.62129955 L12.4636565,2.33070833 C12.3376643,1.61214291 11.6732757,1.12928238 10.9513879,1.23146536 L9.65462835,1.41497888 C9.51466036,1.43474651 9.37625862,1.38972694 9.27472386,1.29146132 L8.33344143,0.38046285 C7.80932203,-0.126805883 6.98824882,-0.126836017 6.46415954,0.38046285 L5.52284699,1.29155173 C5.42128211,1.38984747 5.28288037,1.43477664 5.1429425,1.41506928 L3.84618297,1.23155576 C3.1240542,1.12931252 2.45990658,1.61223331 2.33391431,2.33079873 L2.10765232,3.62132968 C2.08322494,3.76054683 1.99765381,3.87839927 1.87286634,3.94466302 L0.715954311,4.55878544 C0.0718064141,4.90068107 -0.181925087,5.68195447 0.138311537,6.33739003 L0.713454344,7.51452831 C0.775501696,7.64154136 0.775501696,7.7872071 0.713454344,7.91419002 L0.138281417,9.09132829 C-0.181955207,9.74676385 0.0717762941,10.527977 0.71592419,10.8699028 L1.87283622,11.4840252 C1.99765381,11.5502588 2.08322494,11.6681414 2.10765232,11.8073284 L2.33391431,13.0979196 C2.44861155,13.7520594 3.0092666,14.2108131 3.65362534,14.2107528 C3.71708834,14.2107528 3.78148505,14.206293 3.84621309,14.1971324 L5.14297262,14.0136189 C5.28282013,13.9937609 5.42131223,14.0388709 5.52287711,14.1371365 L6.46415954,15.0481349 C6.72626442,15.3017994 7.06246468,15.4285714 7.39878543,15.4285714 C7.73501581,15.4285714 8.07142691,15.3017392 8.33341131,15.0481349 L9.27472386,14.1371365 C9.37628874,14.0388709 9.5147206,13.9939718 9.65462835,14.0136189 L10.9513879,14.1971324 C11.673607,14.2993455 12.3376643,13.8164549 12.4636565,13.0978895 L12.6899487,11.8073585 C12.714376,11.6681414 12.7999472,11.5502889 12.9247346,11.4840252 L14.0816467,10.8699028 C14.7257946,10.5280071 14.9795261,9.74673372 14.6592894,9.09129816 L14.0841165,7.91412975 Z M13.6647547,10.083808 L12.5078427,10.6979304 C12.1389923,10.8937685 11.8860138,11.2420525 11.8138762,11.6535567 L11.5876142,12.9441178 C11.5449943,13.1872355 11.3203287,13.3505294 11.0759645,13.3160265 L9.77920497,13.1325129 C9.36565636,13.0739031 8.95644504,13.2070634 8.6562985,13.497521 L7.71498596,14.4084894 C7.53769921,14.58007 7.25990177,14.58007 7.08255477,14.4084894 L6.14127235,13.4974909 C5.88760109,13.2519926 5.55597908,13.1189528 5.20977895,13.1189528 C5.14634607,13.1189528 5.08240116,13.1234126 5.01836588,13.1324828 L3.72160635,13.3159963 C3.47745303,13.3505294 3.25260668,13.1872054 3.20995665,12.9440877 L2.98366454,11.6534964 C2.91149684,11.2419922 2.65854846,10.8936781 2.28966792,10.6979003 L1.13275589,10.0837778 C0.914807037,9.96809502 0.828964827,9.70379336 0.937306732,9.48204033 L1.51247966,8.30487192 C1.69585067,7.92952801 1.69585067,7.49903965 1.51247966,7.12369574 L0.937306732,5.94652733 C0.828964827,5.72477429 0.914807037,5.46047264 1.13275589,5.34478981 L2.28966792,4.7306674 C2.65851834,4.53482924 2.91149684,4.18654529 2.98363442,3.77504108 L3.20989641,2.48448 C3.25254644,2.24136225 3.47718195,2.07803824 3.72154611,2.11257132 L5.01830564,2.29608484 C5.43170365,2.35463439 5.84106557,2.22153436 6.14121211,1.93107675 L7.08252465,1.02007828 C7.2598114,0.848497658 7.53760884,0.848497658 7.71495584,1.02007828 L8.65623826,1.93107675 C8.9563848,2.22156449 9.36568648,2.35463439 9.77914473,2.29608484 L11.0759043,2.11257132 C11.3200877,2.0780081 11.5449341,2.24136225 11.587554,2.48448 L11.8138159,3.77507122 C11.8859836,4.18657542 12.138932,4.53488951 12.5078126,4.7306674 L13.6647246,5.34478981 C13.8826735,5.46047264 13.9685157,5.72477429 13.8601738,5.94652733 L13.2850008,7.12366561 C13.1016298,7.49897938 13.1016298,7.92952801 13.2850008,8.30484178 L13.8601738,9.48198006 C13.9685458,9.70379336 13.8827036,9.96812515 13.6647547,10.083808 Z" id="Shape"></path>
                        <path d="M10.6482595,4.46332225 C10.4746172,4.28957201 10.1929945,4.28957201 10.0193222,4.46332225 L4.14925115,10.3360562 C3.97557881,10.5098064 3.97557881,10.7915253 4.14925115,10.9652755 C4.23608733,11.0521507 4.34991108,11.0956033 4.46370472,11.0956033 C4.57749836,11.0956033 4.69135224,11.0521808 4.77815829,10.9652755 L10.6482293,5.09257172 C10.8219619,4.91879135 10.8219619,4.63710262 10.6482595,4.46332225 Z" id="Path"></path>
                        <path d="M5.61986375,3.70998268 C4.72071931,3.70998268 3.98919308,4.441837 3.98919308,5.34138472 C3.98919308,6.24093243 4.72071931,6.97278676 5.61986375,6.97278676 C6.51900819,6.97278676 7.25053442,6.24093243 7.25053442,5.34138472 C7.25053442,4.441837 6.51900819,3.70998268 5.61986375,3.70998268 Z M5.61986375,6.08291192 C5.21116447,6.08291192 4.87866898,5.7502673 4.87866898,5.34135458 C4.87866898,4.932472 5.21116447,4.59982738 5.61986375,4.59982738 C6.02856303,4.59982738 6.36108865,4.932472 6.36108865,5.34135458 C6.36105853,5.7502673 6.02856303,6.08291192 5.61986375,6.08291192 Z" id="Shape"></path>
                        <path d="M9.17764686,8.45584117 C8.27850242,8.45584117 7.54697619,9.18769549 7.54697619,10.0872432 C7.54697619,10.9867909 8.27850242,11.7186452 9.17764686,11.7186452 C10.0767913,11.7186452 10.8083175,10.9867909 10.8083175,10.0872432 C10.8083175,9.18769549 10.0767913,8.45584117 9.17764686,8.45584117 Z M9.17764686,10.8287704 C8.76894758,10.8287704 8.43642196,10.4961258 8.43642196,10.0872432 C8.43642196,9.67836062 8.76891746,9.345716 9.17764686,9.345716 C9.58634614,9.345716 9.91884163,9.67836062 9.91884163,10.0872432 C9.91884163,10.4961258 9.58634614,10.8287704 9.17764686,10.8287704 Z" id="Shape"></path>
                    </g>
                </g>
            </g>
        </g>
    </g>
</svg>