<?xml version="1.0" encoding="UTF-8"?>
<svg width="32px" height="32px" viewBox="0 0 32 32" version="1.1" xmlns="http://www.w3.org/2000/svg" xmlns:xlink="http://www.w3.org/1999/xlink">
    <title>driver_icon</title>
    <g id="driver_icon" stroke="none" stroke-width="1" fill="none" fill-rule="evenodd">
        <g id="food-delivery" transform="translate(6.000000, 7.000000)" fill="#363636" fill-rule="nonzero">
            <path d="M17.6186422,12.514751 L17.6186422,8.35333663 L20,8.35333663 L20,3.37934254 L14.420145,3.37934254 C13.2162272,3.37934254 12.209682,4.23973484 11.9821607,5.37805738 L10.5816124,5.37805738 L10.5816124,6.54993467 L12.0300394,6.54993467 C12.2766574,7.41130354 12.9766777,8.08243766 13.854388,8.28759431 C13.8458354,9.32337758 13.8259576,11.6272102 13.8095554,12.7568218 C13.7842493,14.4972939 12.4011185,15.9410468 10.6594836,16.0318282 L9.63848882,16.0318282 C8.84556205,15.9691718 8.21942952,15.3042486 8.21942952,14.4953408 L8.21939046,2.33957488 L6.71437609,2.33957488 C6.71437609,1.87926148 6.74706323,1.41984652 6.54082573,0.9922285 C6.25050769,0.390313262 5.62550769,0 4.95700294,0 C4.28849819,0 3.66349819,0.390313262 3.37318014,0.9922285 C3.16690359,1.41988559 3.19962978,1.87922242 3.19962978,2.33957488 L1.69461541,2.33957488 L1.69461541,7.5386866 L0,7.5386866 L0,11.0543185 L2.03503812,11.0543185 C1.41941077,11.7134213 1.04192702,12.597759 1.04192702,13.5687765 L1.04438734,17.2089789 C1.09593695,18.7684742 2.37952231,20 3.95096538,20 C5.52240846,20 6.80595476,18.7684742 6.85754343,17.2089789 L13.082784,17.2089789 C13.1343336,18.7684742 14.417919,20 15.989362,20 C17.5608051,20 18.8443514,18.7684742 18.895901,17.2089789 L19.8869423,17.2089789 C20.0332339,16.3455788 20.0521354,15.4831943 19.7265137,14.6528021 C19.3482879,13.6884642 18.5804721,12.9026424 17.6186422,12.514751 L17.6186422,12.514751 Z M4.37121188,1.7536753 C4.37121188,1.43058873 4.63399775,1.16773666 4.95700294,1.16773666 C5.28000812,1.16773666 5.54279399,1.43058873 5.54279399,1.7536753 L5.54279399,2.33961394 L4.37121188,2.33961394 L4.37121188,1.7536753 Z M2.86619751,3.51149123 L7.04776931,3.51149123 L7.04776931,7.53872566 L2.86619751,7.53872566 L2.86619751,3.51149123 Z M1.15404743,8.71056389 L7.04776931,8.71056389 L7.04776931,9.88244118 L1.15404743,9.88244118 L1.15404743,8.71056389 Z M3.95096538,18.8496462 C3.02557173,18.8496462 2.26681611,18.1222229 2.21620376,17.209018 L5.68572701,17.209018 C5.63511466,18.1222229 4.87635904,18.8496462 3.95096538,18.8496462 Z M2.21350912,16.0371798 L2.21350912,14.851279 L4.75861503,14.851279 L4.75861503,13.6794017 L2.21350912,13.6794017 C2.20339446,12.2702974 3.28046895,11.0543575 4.72733379,11.0543575 L7.04784741,11.0543575 L7.04784741,14.4953799 C7.04784741,15.0676466 7.22581073,15.5990148 7.52932861,16.0371798 L2.21350912,16.0371798 L2.21350912,16.0371798 Z M18.8512247,16.0371407 L16.7652228,16.0371407 C17.2745486,15.4194051 17.5916958,14.6289739 17.6170801,13.8261598 C18.3585744,14.300067 18.8372438,15.1250295 18.8512247,16.0371407 L18.8512247,16.0371407 Z M18.8284179,7.18145934 L16.5526978,7.18145934 L16.5526978,4.55121983 L18.8284179,4.55121983 L18.8284179,7.18145934 Z M13.1053565,5.86633958 C13.1053565,5.14118192 13.69517,4.55121983 14.420145,4.55121983 L15.3810766,4.55121983 L15.3810766,7.18145934 L14.420145,7.18145934 C13.69517,7.18145934 13.1053565,6.59149725 13.1053565,5.86633958 Z M14.9809813,12.7738531 C14.9971492,11.6612728 15.0166755,9.41533089 15.0255014,8.35333663 L16.4470601,8.35333663 L16.4470601,13.7242456 C16.4470601,14.793818 15.5734504,16.0371407 14.4471304,16.0371407 L13.5260716,16.0371407 C14.4346335,15.2137797 14.9627046,14.0342852 14.9809813,12.7738531 L14.9809813,12.7738531 Z M15.989362,18.8496462 C15.0639684,18.8496462 14.3052128,18.1222229 14.2545614,17.209018 L17.7241237,17.209018 C17.6735113,18.1222229 16.9147557,18.8496462 15.989362,18.8496462 Z" id="Shape"></path>
        </g>
    </g>
</svg>