<?xml version="1.0" encoding="UTF-8"?>
<svg width="44px" height="44px" viewBox="0 0 44 44" version="1.1" xmlns="http://www.w3.org/2000/svg" xmlns:xlink="http://www.w3.org/1999/xlink">
    <!-- Generator: Sketch 64 (93537) - https://sketch.com -->
    <title>ic_accept</title>
    <desc>Created with Sketch.</desc>
    <g id="jet" stroke="none" stroke-width="1" fill="none" fill-rule="evenodd">
        <g id="ic_accept" fill="#FF5C5C" fill-rule="nonzero">
            <g id="Group" transform="translate(22.000000, 22.000000) scale(-1, 1) rotate(-180.000000) translate(-22.000000, -22.000000) translate(0.000000, -0.000000)">
                <path d="M19.8034456,43.9655645 C14.0234926,43.3457249 8.7862177,40.5822735 5.09945184,36.1917433 C2.50665623,33.1097633 0.895849648,29.6145568 0.180892717,25.5167286 C0.0172278778,24.5783604 0,24.1220896 0,21.9870867 C0,19.8520837 0.0172278778,19.395813 0.180892717,18.4574447 C0.990602976,13.808648 2.93735317,9.9604774 6.15035239,6.62883976 C9.44949099,3.2025044 13.6100235,1.03306594 18.468285,0.180786539 C19.4072044,0.0172177656 19.8637431,0 22,0 C24.6961629,0 25.5058731,0.086088828 27.6249021,0.628448445 C35.2223962,2.59127372 41.4072044,8.77245158 43.3711825,16.3654862 C43.9138606,18.4832714 44,19.2925064 44,21.9870867 C44,24.681667 43.9138606,25.490902 43.3711825,27.6086871 C41.4072044,35.1931129 35.2223962,41.3828996 27.6249021,43.3457249 C25.669538,43.8450401 24.7478465,43.9569556 22.3445576,43.9827822 C21.1386061,44 19.9929522,43.9917399 19.8034456,43.9655645 Z M33.5857478,31.3363334 C34.3868442,30.9661514 34.834769,30.3204852 34.9036805,29.4595969 C34.981206,28.4695754 35.2826938,28.8139307 27.2717306,20.8679319 C22.1722788,15.8145177 19.8981989,13.6192526 19.6139389,13.4642927 C19.0195771,13.1543729 18.2270948,13.1629818 17.6930305,13.4815105 C17.2192639,13.7656036 9.81989037,20.49775 9.50117463,20.936803 C8.84651527,21.8407357 8.99295223,23.0976326 9.82850431,23.7863432 C10.4745497,24.3287028 11.3617854,24.4234005 12.1025842,24.0446097 C12.2920908,23.949912 13.825372,22.6155351 15.513704,21.0659362 L18.5716523,18.2680493 L25.0924041,24.7763647 C28.6758027,28.3576599 31.6303837,31.2846801 31.6476116,31.2846801 C31.6734534,31.2846801 31.8457322,31.3449423 32.0352388,31.4138133 C32.5434612,31.5945999 33.0947533,31.5687732 33.5857478,31.3363334 Z" id="Shape"></path>
            </g>
        </g>
    </g>
</svg>