<?xml version="1.0" encoding="UTF-8"?>
<svg width="35px" height="44px" viewBox="0 0 35 44" version="1.1" xmlns="http://www.w3.org/2000/svg" xmlns:xlink="http://www.w3.org/1999/xlink">
    <!-- Generator: Sketch 64 (93537) - https://sketch.com -->
    <title>ic_end</title>
    <desc>Created with Sketch.</desc>
    <g id="jet" stroke="none" stroke-width="1" fill="none" fill-rule="evenodd">
        <g id="ic_end" fill="#F55000" fill-rule="nonzero">
            <g id="Group" transform="translate(17.500000, 22.000000) scale(-1, 1) rotate(-180.000000) translate(-17.500000, -22.000000) translate(0.000000, -0.000000)">
                <path d="M3.78518519,22.7304688 L3.78518519,1.4609375 L2.1,1.4609375 C0.535802469,1.4609375 0.40617284,1.45234375 0.241975309,1.2890625 C0.14691358,1.19453125 0.0518518519,1.02265625 0.0172839506,0.90234375 C-0.0518518519,0.6359375 0.120987654,0.19765625 0.337037037,0.0859375 C0.432098765,0.034375 2.48024691,0 5.54814815,0 C10.4740741,0 10.6209877,0.00859375 10.7851852,0.171875 C10.8802469,0.26640625 10.9753086,0.43828125 11.0098765,0.55859375 C11.0790123,0.825 10.9061728,1.26328125 10.6901235,1.375 C10.6037037,1.4265625 9.8,1.4609375 8.89259259,1.4609375 L7.24197531,1.4609375 L7.24197531,22.7304688 L7.24197531,44 L5.51358025,44 L3.78518519,44 L3.78518519,22.7304688 Z" id="Path"></path>
                <path d="M26.2197531,42.3585938 C24.845679,42.1609375 23.6617284,41.6796875 22.2790123,40.7601563 C21.0518519,39.94375 20.5333333,39.6601563 19.6777778,39.3507813 C17.517284,38.56875 15.3740741,38.4742188 13.3,39.0671875 C12.4185185,39.325 11.6666667,39.66875 10.0074074,40.5625 C9.30740741,40.940625 8.71111111,41.25 8.67654321,41.25 C8.65061728,41.25 8.62469136,37.7007813 8.62469136,33.3609375 L8.62469136,25.471875 L10.4740741,24.4664063 C13.308642,22.9195313 14.2679012,22.6359375 16.4024691,22.7132813 C18.3641975,22.7820313 19.582716,23.1945313 21.354321,24.3890625 C23.5148148,25.85 25.2432099,26.4 27.5506173,26.3914063 C29.6074074,26.3828125 30.817284,26.021875 33.3407407,24.6640625 C34.2135802,24.1914062 34.9395062,23.8046875 34.9567901,23.8046875 C34.9740741,23.8046875 34.9740741,27.3710938 34.9654321,31.728125 L34.9395062,39.6429688 L33.7728395,40.2875 C31.9580247,41.2757813 30.9987654,41.7484375 30.3074074,41.9890625 C29.1148148,42.3929688 27.4814815,42.5390625 26.2197531,42.3585938 Z" id="Path"></path>
            </g>
        </g>
    </g>
</svg>