<?xml version="1.0" encoding="UTF-8"?>
<svg width="44px" height="44px" viewBox="0 0 44 44" version="1.1" xmlns="http://www.w3.org/2000/svg" xmlns:xlink="http://www.w3.org/1999/xlink">
    <!-- Generator: Sketch 64 (93537) - https://sketch.com -->
    <title>ic_ride</title>
    <desc>Created with Sketch.</desc>
    <g id="jet" stroke="none" stroke-width="1" fill="none" fill-rule="evenodd">
        <g id="ic_ride" fill="#5AB75D" fill-rule="nonzero">
            <g id="Group" transform="translate(22.000000, 22.000000) scale(-1, 1) rotate(-180.000000) translate(-22.000000, -22.000000) translate(0.000000, -0.000000)">
                <path d="M37.0404218,43.9484375 C32.5639524,43.6132812 27.8297208,42.3242188 24.4100762,40.5109375 C19.0743995,37.675 13.9105643,32.5015625 10.8517868,26.9070312 L10.4995118,26.2539062 L18.3784417,18.3734375 L26.2659637,10.4929687 L27.3227885,11.0945312 C30.9572349,13.1828125 34.2479984,15.9585937 37.0490139,19.31875 C40.8037493,23.8132812 42.8658465,28.6945313 43.7508299,35.2 C43.8883031,36.1710937 43.9398555,37.159375 43.9742238,39.2046875 C44.0343683,42.4359375 44,42.6421875 43.3212263,43.3210938 C42.6768209,43.965625 42.4362429,44.0085937 39.7125561,43.9914062 C38.4581136,43.9828125 37.2552236,43.965625 37.0404218,43.9484375 Z M31.4813513,36.3945312 C31.8250342,36.3257812 32.4866237,36.0765625 32.9591877,35.8445312 C34.7033782,35.0023437 35.8976762,33.5070312 36.3616481,31.5734375 C36.6881468,30.215625 36.4991213,28.5742187 35.8633079,27.29375 C35.5711775,26.709375 34.8150752,25.7296875 34.3596954,25.3515625 C32.3491506,23.684375 29.8058973,23.2976562 27.5375903,24.3289062 C24.9685608,25.4976562 23.3962117,28.290625 23.8086311,30.9976562 C24.2210506,33.7132812 26.1628588,35.8101562 28.8349932,36.403125 C29.5481351,36.5578125 30.7424331,36.5578125 31.4813513,36.3945312 Z" id="Shape"></path>
                <path d="M29.049795,33.9023438 C27.2110916,33.4125 25.9824253,31.4703125 26.2917399,29.5539063 C26.6354228,27.4054688 28.6717438,25.9273437 30.7596173,26.296875 C33.4403437,26.778125 34.8236673,29.5796875 33.5864089,32.0117188 C33.354423,32.4671875 32.6240969,33.2320313 32.160125,33.4984375 C31.2837336,34.0140625 30.0636594,34.1773438 29.049795,33.9023438 Z" id="Path"></path>
                <path d="M8.64362429,31.9773438 C7.28607694,31.8570313 6.7190002,31.7796875 6.34954111,31.6335938 C5.44737356,31.2984375 5.15524312,30.9375 2.60339777,27.0789063 C1.30599492,25.1195313 0.189025581,23.3921875 0.128881078,23.2375 C-0.0343682874,22.859375 -0.0257762156,21.9570313 0.146065222,21.4671875 C0.309314587,20.9773438 0.842023042,20.41875 1.34036321,20.1953125 C1.73559852,20.0148438 5.43018942,19.4046875 5.51611013,19.4992188 C5.54188635,19.5335938 5.63639914,19.8859375 5.71372779,20.2898438 C6.42686975,23.7015625 8.18824448,27.6546875 10.5510642,31.1007813 L11.2642062,32.1492188 L10.8603788,32.140625 C10.6283929,32.1320312 9.64030463,32.0632813 8.64362429,31.9773438 Z" id="Path"></path>
                <path d="M9.11618824,23.1085938 C8.488967,21.4585938 7.91329114,19.0953125 7.91329114,18.1585938 C7.91329114,17.1359375 7.8789299,17.1875 12.6131615,12.4609375 C17.4762742,7.6140625 17.1669596,7.8546875 18.4643624,7.940625 C18.8767819,7.96640625 19.7703574,8.1296875 20.4577231,8.3015625 C21.6262449,8.60234375 23.439172,9.1953125 23.7227104,9.37578125 C23.8258153,9.44453125 22.356571,10.9570313 16.6772115,16.6375 C12.7334505,20.5820313 9.47705526,23.8132813 9.44268698,23.8132813 C9.41691076,23.8132813 9.27084554,23.4953125 9.11618824,23.1085938 Z" id="Path"></path>
                <path d="M5.21538762,14.5234375 C4.93184925,14.4804688 4.60535052,14.1882813 2.56902949,12.1601563 C1.29740285,10.8882813 0.197617653,9.7453125 0.128881078,9.61640625 C-0.163249365,9.0578125 0.0687365749,8.25859375 0.627221246,7.91484375 C0.962312048,7.70859375 1.63249365,7.6828125 1.96758446,7.86328125 C2.09646553,7.93203125 3.19625073,8.9890625 4.40773286,10.209375 C7.00253857,12.8046875 7.09705136,12.9679688 6.7190002,13.81875 C6.46123804,14.3859375 5.90275337,14.64375 5.21538762,14.5234375 Z" id="Path"></path>
                <path d="M31.1118922,10.5617188 C29.0927553,9.16953125 26.54091,7.81171875 24.3842999,6.96953125 C23.190002,6.496875 21.0591681,5.85234375 20.1140402,5.68046875 C19.8047256,5.6203125 19.5297793,5.5515625 19.4954111,5.5171875 C19.4610428,5.49140625 19.5727397,4.61484375 19.7359891,3.575 C20.0710799,1.4609375 20.2343292,0.97109375 20.801406,0.52421875 C20.9818395,0.378125 21.2911541,0.20625 21.4887717,0.1375 C21.9441515,-0.02578125 22.8635032,-0.02578125 23.2329623,0.12890625 C23.3876196,0.1890625 25.1232181,1.30625 27.0822105,2.60390625 C30.9400508,5.15625 31.2923257,5.4484375 31.6274165,6.35078125 C31.7734817,6.72890625 31.8508104,7.31328125 31.9796915,8.86015625 C32.0742043,9.96875 32.1343488,10.9570313 32.1257567,11.0601563 C32.0999805,11.2234375 31.9882835,11.171875 31.1118922,10.5617188 Z" id="Path"></path>
                <path d="M8.94434681,10.65625 C8.71236087,10.5875 7.69849639,9.625 4.57098223,6.5140625 C2.33704355,4.2796875 0.395235306,2.303125 0.257762156,2.12265625 C0.0515524312,1.84765625 0.00859207186,1.7015625 0.00859207186,1.30625 C0.00859207186,0.47265625 0.472563952,0.00859375 1.30599492,0.00859375 C1.70123023,0.00859375 1.84729545,0.0515625 2.12224175,0.2578125 C2.30267526,0.3953125 4.27885179,2.3375 6.51279047,4.571875 C10.0785003,8.1640625 10.5768405,8.68828125 10.6627612,9.01484375 C10.765866,9.41015625 10.6799453,9.87421875 10.4479594,10.2179687 C10.1730131,10.6046875 9.47705526,10.8109375 8.94434681,10.65625 Z" id="Path"></path>
                <path d="M12.7248584,6.74609375 C12.3897676,6.60859375 8.06795548,2.3546875 7.86174575,1.96796875 C7.68131224,1.6328125 7.70708846,0.9625 7.91329818,0.62734375 C8.25698106,0.06875 9.05604374,-0.16328125 9.61452841,0.12890625 C9.74340949,0.19765625 10.886155,1.29765625 12.1577817,2.56953125 C14.1855106,4.60625 14.469049,4.92421875 14.5206014,5.21640625 C14.6408905,5.90390625 14.3831283,6.4625 13.8160516,6.7203125 C13.386448,6.909375 13.1286858,6.91796875 12.7248584,6.74609375 Z" id="Path"></path>
            </g>
        </g>
    </g>
</svg>