<?xml version="1.0" encoding="UTF-8"?>
<svg width="18px" height="13px" viewBox="0 0 18 13" version="1.1" xmlns="http://www.w3.org/2000/svg" xmlns:xlink="http://www.w3.org/1999/xlink">
    <title>loyality_icon</title>
    <g id="Page-1" stroke="none" stroke-width="1" fill="none" fill-rule="evenodd">
        <g id="Artboard" transform="translate(-25.000000, -701.000000)" fill="#363636" fill-rule="nonzero">
            <g id="loyality_icon" transform="translate(25.000000, 701.000000)">
                <ellipse id="Oval" cx="12.1992188" cy="9.75" rx="1" ry="1"></ellipse>
                <ellipse id="Oval" cx="14.6601562" cy="9.75" rx="1" ry="1"></ellipse>
                <path d="M3.8671875,7.52631579 L7.03125,7.52631579 C7.41958594,7.52631579 7.734375,7.21999474 7.734375,6.84210526 L7.734375,3.76315789 C7.734375,3.38526842 7.41958594,3.07894737 7.03125,3.07894737 L3.8671875,3.07894737 C3.47885156,3.07894737 3.1640625,3.38526842 3.1640625,3.76315789 L3.1640625,6.84210526 C3.1640625,7.21999474 3.47885156,7.52631579 3.8671875,7.52631579 Z M4.5703125,4.44736842 L6.328125,4.44736842 L6.328125,6.15789474 L4.5703125,6.15789474 L4.5703125,4.44736842 Z" id="Shape"></path>
                <path d="M17.296875,0 L0.703125,0 C0.314789063,0 0,0.306321053 0,0.684210526 L0,12.3157895 C0,12.6936789 0.314789063,13 0.703125,13 L17.296875,13 C17.6852109,13 18,12.6936789 18,12.3157895 L18,0.684210526 C18,0.306321053 17.6852109,0 17.296875,0 Z M16.59375,11.6315789 L1.40625,11.6315789 L1.40625,1.36842105 L16.59375,1.36842105 L16.59375,11.6315789 Z" id="Shape"></path>
            </g>
        </g>
    </g>
</svg>