<?xml version="1.0" encoding="UTF-8"?>
<svg width="32px" height="32px" viewBox="0 0 32 32" version="1.1" xmlns="http://www.w3.org/2000/svg" xmlns:xlink="http://www.w3.org/1999/xlink">
    <title>order_icon</title>
    <g id="order_icon" stroke="none" stroke-width="1" fill="none" fill-rule="evenodd">
        <g id="shopping-bag" transform="translate(8.000000, 6.000000)" fill="#363636" fill-rule="nonzero">
            <path d="M15.9904445,16.4928906 L15.0892706,5.23835938 C15.0331073,4.51328125 14.414405,3.94527344 13.6806961,3.94527344 L11.9006953,3.94527344 L11.9006953,3.86597656 C11.9006953,1.73425781 10.1508847,0 8.0000488,0 C5.84921286,0 4.09940228,1.73425781 4.09940228,3.86597656 L4.09940228,3.94527344 L2.31944089,3.94527344 C1.58569258,3.94527344 0.966950857,4.51324219 0.910984665,5.23683594 L0.00953484448,16.4944141 C-0.0602258316,17.3957812 0.255273723,18.2931641 0.875079594,18.9563672 C1.49488546,19.6195703 2.37351527,20 3.28564596,20 L12.7144122,20 C13.6265035,20 14.5051727,19.6196094 15.125018,18.9563672 C15.7448239,18.293125 16.060284,17.3957812 15.9904445,16.4928906 Z M5.28139249,3.86597656 C5.28139249,2.38023437 6.50102193,1.17148437 8.0000488,1.17148437 C9.49907567,1.17148437 10.7187051,2.38027344 10.7187051,3.86597656 L10.7187051,3.94527344 L5.28139249,3.94527344 L5.28139249,3.86597656 Z M14.2578179,18.1603516 C13.8550978,18.5912109 13.3070233,18.8285156 12.7144122,18.8285156 L3.28568537,18.8285156 C2.69307434,18.8285156 2.14499979,18.5912109 1.74227968,18.1603516 C1.33959899,17.7294531 1.14277141,17.1696094 1.18801732,16.5855469 L2.08938831,5.32792969 C2.09853208,5.20949219 2.19958653,5.11675781 2.31944089,5.11675781 L4.09940228,5.11675781 L4.09940228,6.55953125 C4.09940228,6.88300781 4.36401989,7.14527344 4.69039738,7.14527344 C5.01677487,7.14527344 5.28139249,6.88300781 5.28139249,6.55953125 L5.28139249,5.11675781 L10.7187051,5.11675781 L10.7187051,6.55953125 C10.7187051,6.88300781 10.9833227,7.14527344 11.3097002,7.14527344 C11.6360777,7.14527344 11.9006953,6.88300781 11.9006953,6.55953125 L11.9006953,5.11675781 L13.6806961,5.11675781 C13.8005111,5.11675781 13.9015655,5.20953125 13.9108669,5.32949219 L14.8120409,16.5839844 C14.8573656,17.1696094 14.6604986,17.7294141 14.2578179,18.1603516 Z" id="Shape"></path>
            <path d="M10.6625813,9.93300781 C10.4318587,9.70425781 10.057634,9.70425781 9.82687202,9.93300781 L7.18794782,12.5484766 L6.17322558,11.5427734 C5.94246357,11.3140234 5.56823893,11.3140234 5.3374375,11.5427734 C5.10663608,11.7715234 5.10663608,12.1423828 5.3374375,12.3711328 L6.77005378,13.7910156 C6.8854545,13.9053906 7.03672087,13.9626172 7.18790841,13.9626172 C7.33909595,13.9626172 7.49040174,13.9054297 7.60576303,13.7910156 L10.6625419,10.7614063 C10.8933827,10.5326172 10.8933827,10.1617578 10.6625813,9.93300781 Z" id="Path"></path>
        </g>
    </g>
</svg>