<?xml version="1.0" encoding="UTF-8"?>
<svg width="14px" height="18px" viewBox="0 0 14 18" version="1.1" xmlns="http://www.w3.org/2000/svg" xmlns:xlink="http://www.w3.org/1999/xlink">
    <title>order_icon</title>
    <g id="Page-1" stroke="none" stroke-width="1" fill="none" fill-rule="evenodd">
        <g id="Artboard" transform="translate(-27.000000, -126.000000)" fill="#363636" fill-rule="nonzero">
            <g id="order_icon" transform="translate(27.000000, 126.000000)">
                <path d="M13.3115397,2.671875 L9.69530764,2.671875 L9.69530764,0.703125 C9.69530764,0.314789063 9.38709939,0 9.0068818,0 L4.99308378,0 C4.61286619,0 4.30465794,0.314789063 4.30465794,0.703125 L4.30465794,2.671875 L0.688425841,2.671875 C0.308208249,2.671875 0,2.98666406 0,3.375 L0,17.296875 C0,17.6852109 0.308208249,18 0.688425841,18 L13.3115742,18 C13.6917918,18 14,17.6852109 14,17.296875 L14,3.375 C14,2.98666406 13.6917573,2.671875 13.3115397,2.671875 Z M5.68150962,1.40625 L8.31842154,1.40625 L8.31842154,2.671875 L5.68150962,2.671875 L5.68150962,1.40625 Z M12.6231483,16.59375 L1.37685168,16.59375 L1.37685168,4.078125 L12.6231483,4.078125 L12.6231483,16.59375 L12.6231483,16.59375 Z M6.03928453,6.42891797 C6.30811482,6.70352344 6.30811482,7.14874219 6.03928453,7.4233125 L4.43277399,9.064125 C4.16390928,9.33866016 3.72786035,9.33851953 3.45916774,9.06408984 L2.72675149,8.316 C2.45788678,8.04139453 2.4579212,7.59621094 2.72678591,7.32164063 C2.99565062,7.04710547 3.43159629,7.04707031 3.70035774,7.32167578 L3.94598808,7.57258594 L5.06567828,6.42895313 C5.33450857,6.15434766 5.77041982,6.15434766 6.03928453,6.42891797 L6.03928453,6.42891797 Z M8.01262278,7.04341406 L10.7864282,7.04341406 C11.1666458,7.04341406 11.474854,7.35820313 11.474854,7.74653906 C11.474854,8.134875 11.1666458,8.44966406 10.7864282,8.44966406 L8.01262278,8.44966406 C7.63240519,8.44966406 7.32419694,8.134875 7.32419694,7.74653906 C7.32419694,7.35820313 7.63240519,7.04341406 8.01262278,7.04341406 Z M6.03928453,11.60775 C6.30811482,11.8823555 6.30811482,12.3275742 6.03928453,12.6021445 L4.43277399,14.242957 C4.16390928,14.5175625 3.72796361,14.5174922 3.45916774,14.242957 L2.72675149,13.4949023 C2.45788678,13.2202969 2.45788678,12.7750781 2.72675149,12.5005078 C2.9956162,12.2259375 3.43152744,12.2259023 3.70035774,12.5005078 L3.94598808,12.751418 L5.06567828,11.6077852 C5.33450857,11.3331445 5.77041982,11.3331445 6.03928453,11.60775 Z M11.474854,12.9253359 C11.474854,13.3136719 11.1666458,13.6284609 10.7864282,13.6284609 L8.01262278,13.6284609 C7.63240519,13.6284609 7.32419694,13.3136719 7.32419694,12.9253359 C7.32419694,12.537 7.63240519,12.2222109 8.01262278,12.2222109 L10.7864282,12.2222109 C11.1666458,12.2222109 11.474854,12.537 11.474854,12.9253359 Z" id="Shape"></path>
            </g>
        </g>
    </g>
</svg>