<?xml version="1.0" encoding="UTF-8"?>
<svg width="18px" height="16px" viewBox="0 0 18 16" version="1.1" xmlns="http://www.w3.org/2000/svg" xmlns:xlink="http://www.w3.org/1999/xlink">
    <title>payment_icon</title>
    <g id="Page-1" stroke="none" stroke-width="1" fill="none" fill-rule="evenodd">
        <g id="Artboard" transform="translate(-25.000000, -606.000000)" fill="#363636" fill-rule="nonzero">
            <g id="payment_icon" transform="translate(25.000000, 606.000000)">
                <path d="M17.5869635,14.6163445 C16.6241448,14.167246 15.6057076,13.7973337 14.5482687,13.5104254 C15.9357109,12.0369979 16.7342832,10.0509816 16.7342832,7.96372023 C16.7342832,3.56224435 13.2752222,0 9.00001071,0 C4.72548581,0 1.26573817,3.56167874 1.26573817,7.96372023 C1.26573817,10.0508402 2.0643105,12.0368565 3.45175268,13.5104254 C2.39431383,13.7973337 1.37587662,14.167246 0.413057944,14.6163445 C0.0592965835,14.7813627 -0.0973966189,15.2103818 0.0628671386,15.574638 C0.223130931,15.9387528 0.639651965,16.1002359 0.993413325,15.9352176 C5.85722006,13.666111 12.1428014,13.666111 17.0066081,15.9352176 C17.3609187,16.1006601 17.7773025,15.9380457 17.9371543,15.574638 C18.097418,15.2103818 17.9405875,14.7813627 17.5869635,14.6163445 L17.5869635,14.6163445 Z M5.1425562,13.1284938 C3.59073036,11.8972909 2.67199451,9.98862254 2.67199451,7.96372023 C2.67199451,4.37093265 5.51073717,1.44797484 9.00001071,1.44797484 C12.4892842,1.44797484 15.3280269,4.37093265 15.3280269,7.96372023 C15.3280269,9.98862254 14.4092911,11.8972909 12.8573279,13.1284938 C11.6026836,12.8998438 10.3084883,12.7826201 9.00001071,12.7826201 C7.69153313,12.7826201 6.39733785,12.8998438 5.1425562,13.1284938 Z M9.45347346,6.61260698 L9.45347346,5.1782069 C10.0736544,5.22727402 10.2549297,5.54175606 10.5698268,5.54175606 C10.9896437,5.54175606 11.1614432,5.00131075 11.1614432,4.73603723 C11.1614432,4.05814746 10.0449525,3.90090645 9.45347346,3.88125131 L9.45347346,3.63563293 C9.45347346,3.49804701 9.27206088,3.37035941 9.09078565,3.37035941 C8.88094583,3.37035941 8.72823518,3.49804701 8.72823518,3.63563293 L8.72823518,3.9106633 C7.7168018,4.05814746 6.81976407,4.65741672 6.81976407,5.90516379 C6.81976407,7.16280914 7.85042361,7.58532368 8.72823518,7.9292177 L8.72823518,9.52085879 C8.02208578,9.39317116 7.69771296,8.813557 7.29698485,8.813557 C6.93429707,8.813557 6.6481019,9.3047938 6.6481019,9.63878954 C6.6481019,10.2676122 7.58317999,10.8767798 8.72823518,10.91609 L8.72823518,11.1617084 C8.72823518,11.2992943 8.88094583,11.4269819 9.09078565,11.4269819 C9.27206088,11.4269819 9.45347346,11.2992943 9.45347346,11.1617084 L9.45347346,10.8767798 C10.5698268,10.6901268 11.3332427,9.95327158 11.3332427,8.7349365 C11.3332427,7.40856892 10.3216719,6.94674415 9.45347346,6.61260698 L9.45347346,6.61260698 Z M8.82367935,6.37688684 C8.46112889,6.21964583 8.21297407,6.04274971 8.21297407,5.75782106 C8.21297407,5.52210092 8.3942493,5.29613768 8.82367935,5.20761889 L8.82367935,6.37688684 Z M9.3580293,9.51110194 L9.3580293,8.19449122 C9.70149092,8.36148909 9.94003264,8.56793862 9.94003264,8.89217751 C9.94003264,9.24582839 9.68240208,9.4324814 9.3580293,9.51110194 Z" id="Shape"></path>
            </g>
        </g>
    </g>
</svg>