<?xml version="1.0" encoding="UTF-8"?>
<svg width="17px" height="17px" viewBox="0 0 17 17" version="1.1" xmlns="http://www.w3.org/2000/svg" xmlns:xlink="http://www.w3.org/1999/xlink">
    <title>profile_icon</title>
    <g id="Page-1" stroke="none" stroke-width="1" fill="none" fill-rule="evenodd">
        <g id="Artboard" transform="translate(-26.000000, -320.000000)" fill="#363636" fill-rule="nonzero">
            <g id="profile_icon" transform="translate(26.000000, 320.000000)">
                <path d="M17,8.50074157 C17,9.47253655 16.8372269,10.4259126 16.5162201,11.3342789 C16.3444977,11.8197872 15.7080612,11.9338032 15.3788834,11.5368875 L13.2127686,8.92463719 C12.9786606,8.64238601 13.0178299,8.22367883 13.3000564,7.98955044 C13.582283,7.75542205 14.0009537,7.79446506 14.2351914,8.07684595 L15.5736923,9.69109962 C15.639061,9.29989117 15.671875,8.9023269 15.671875,8.50074157 C15.671875,4.53612418 12.4637527,1.32824087 8.5,1.32824087 C4.53572846,1.32824087 1.328125,4.53664302 1.328125,8.50074157 C1.328125,8.9023269 1.36093902,9.29989117 1.42630767,9.69109962 L2.76493837,8.07684595 C2.99904633,7.79446506 3.4175873,7.75542205 3.69994355,7.98955044 C3.9822998,8.22367883 4.02133941,8.64238601 3.78723145,8.92463719 L1.62111665,11.5368875 C1.29245757,11.9334141 0.655502336,11.8199169 0.483779891,11.3342789 C0.162773141,10.4259126 0,9.47253655 0,8.50074157 C0,3.80195979 3.80227661,0 8.5,0 C13.1983719,0 17,3.80260834 17,8.50074157 Z M14.8351822,14.1684647 C11.4441833,17.9569346 5.53234101,17.9307329 2.16481782,14.1684647 C1.93641661,13.9131934 1.9395294,13.5257466 2.17221069,13.2743666 C3.24755097,12.0760962 4.63222504,11.2193549 6.15061952,10.7817099 C4.14740752,8.71865609 5.60224913,5.22437085 8.5,5.22437085 C11.396843,5.22437085 12.8529816,8.71813725 10.8493805,10.7817099 C12.367775,11.2193549 13.752449,12.0759665 14.8277893,13.2743666 C15.0604706,13.5257466 15.0635834,13.9131934 14.8351822,14.1684647 Z M8.49922179,10.4488714 C9.57845307,10.4483526 10.4479599,9.57137637 10.4479599,8.50074157 C10.4479599,7.4266046 9.57404327,6.55261172 8.5,6.55261172 C7.42595673,6.55261172 6.55204009,7.4266046 6.55204009,8.50074157 C6.55204009,9.57461914 7.42543794,10.4483526 8.49922179,10.4488714 L8.49922179,10.4488714 Z M13.4132843,13.7255016 C10.6501617,11.1288166 6.35230254,11.1264818 3.58684541,13.7255016 C6.35009766,16.3220568 10.6517182,16.3202409 13.4132843,13.7255016 Z" id="Shape"></path>
            </g>
        </g>
    </g>
</svg>