<?xml version="1.0" encoding="UTF-8"?>
<svg width="19px" height="12px" viewBox="0 0 19 12" version="1.1" xmlns="http://www.w3.org/2000/svg" xmlns:xlink="http://www.w3.org/1999/xlink">
    <title>promocode_icon</title>
    <g id="Page-1" stroke="none" stroke-width="1" fill="none" fill-rule="evenodd">
        <g id="Artboard" transform="translate(-24.000000, -656.000000)" fill="#363636" fill-rule="nonzero">
            <g id="promocode_icon" transform="translate(24.000000, 656.000000)">
                <path d="M18.2578125,2.25 C17.4393768,2.25 16.7734375,1.5770508 16.7734375,0.75 C16.7734375,0.335742187 16.4411926,0 16.03125,0 L2.96875,0 C2.55880737,0 2.2265625,0.335742187 2.2265625,0.75 C2.2265625,1.5770508 1.56062319,2.25 0.7421875,2.25 C0.332244873,2.25 0,2.58574219 0,3 L0,9 C0,9.41425781 0.332244873,9.75 0.7421875,9.75 C1.56062319,9.75 2.2265625,10.4229492 2.2265625,11.25 C2.2265625,11.6642578 2.55880737,12 2.96875,12 L16.03125,12 C16.4411926,12 16.7734375,11.6642578 16.7734375,11.25 C16.7734375,10.4229492 17.4393768,9.75 18.2578125,9.75 C18.6677551,9.75 19,9.41425781 19,9 L19,3 C19,2.58574219 18.6677551,2.25 18.2578125,2.25 Z M1.484375,8.34492187 L1.484375,3.65507812 C2.52604673,3.38320312 3.34796143,2.5526367 3.61700439,1.5 L5.31881714,1.5 L5.31881714,10.5 L3.61700439,10.5 C3.34796143,9.4473633 2.52604673,8.61679687 1.484375,8.34492187 Z M17.515625,8.34492187 C16.4739533,8.61679687 15.6520386,9.4473633 15.3829956,10.5 L6.80319214,10.5 L6.80319214,1.5 L15.3829956,1.5 C15.6520386,2.5526367 16.4739533,3.38320312 17.515625,3.65507812 L17.515625,8.34492187 Z M11.3554688,3.9375 C10.230011,3.9375 9.31445312,4.86269531 9.31445312,6 C9.31445312,7.13730469 10.230011,8.0625 11.3554688,8.0625 C12.4809265,8.0625 13.3964844,7.13730469 13.3964844,6 C13.3964844,4.86269531 12.4809265,3.9375 11.3554688,3.9375 Z M11.3554688,6.5625 C11.0485916,6.5625 10.7988281,6.31010741 10.7988281,6 C10.7988281,5.68989259 11.0485916,5.4375 11.3554688,5.4375 C11.6623459,5.4375 11.9121094,5.68989259 11.9121094,6 C11.9121094,6.31010741 11.6623459,6.5625 11.3554688,6.5625 Z" id="Shape"></path>
            </g>
        </g>
    </g>
</svg>