<?xml version="1.0" encoding="UTF-8"?>
<svg width="14px" height="18px" viewBox="0 0 14 18" version="1.1" xmlns="http://www.w3.org/2000/svg" xmlns:xlink="http://www.w3.org/1999/xlink">
    <title>tax_icon</title>
    <g id="Page-1" stroke="none" stroke-width="1" fill="none" fill-rule="evenodd">
        <g id="Artboard" transform="translate(-27.000000, -554.000000)" fill="#363636" fill-rule="nonzero">
            <g id="tax_icon" transform="translate(27.000000, 554.000000)">
                <path d="M12.25,0 L1.75,0 C0.78505,0 0,0.788554688 0,1.7578125 L0,16.2421875 C0,17.2114453 0.78505,18 1.75,18 L12.25,18 C13.21495,18 14,17.2114453 14,16.2421875 L14,1.7578125 C14,0.788554688 13.21495,0 12.25,0 Z M12.6,16.2421875 C12.6,16.4360391 12.44299,16.59375 12.25,16.59375 L1.75,16.59375 C1.55701,16.59375 1.4,16.4360391 1.4,16.2421875 L1.4,1.7578125 C1.4,1.56396094 1.55701,1.40625 1.75,1.40625 L12.25,1.40625 C12.44299,1.40625 12.6,1.56396094 12.6,1.7578125 L12.6,16.2421875 Z" id="Shape"></path>
                <path d="M4.2,8.578125 L3.15,8.578125 C2.76339,8.578125 2.45,8.89291406 2.45,9.28125 C2.45,9.66958594 2.76339,9.984375 3.15,9.984375 L4.2,9.984375 C4.58661,9.984375 4.9,9.66958594 4.9,9.28125 C4.9,8.89291406 4.58661,8.578125 4.2,8.578125 Z" id="Path"></path>
                <path d="M7.525,8.578125 L6.475,8.578125 C6.08839,8.578125 5.775,8.89291406 5.775,9.28125 C5.775,9.66958594 6.08839,9.984375 6.475,9.984375 L7.525,9.984375 C7.91161,9.984375 8.225,9.66958594 8.225,9.28125 C8.225,8.89291406 7.91161,8.578125 7.525,8.578125 Z" id="Path"></path>
                <path d="M10.85,8.578125 L9.8,8.578125 C9.41339,8.578125 9.1,8.89291406 9.1,9.28125 C9.1,9.66958594 9.41339,9.984375 9.8,9.984375 L10.85,9.984375 C11.23661,9.984375 11.55,9.66958594 11.55,9.28125 C11.55,8.89291406 11.23661,8.578125 10.85,8.578125 Z" id="Path"></path>
                <path d="M4.2,11.2148438 L3.15,11.2148438 C2.76339,11.2148438 2.45,11.5296328 2.45,11.9179688 C2.45,12.3063047 2.76339,12.6210938 3.15,12.6210938 L4.2,12.6210938 C4.58661,12.6210938 4.9,12.3063047 4.9,11.9179688 C4.9,11.5296328 4.58661,11.2148438 4.2,11.2148438 Z" id="Path"></path>
                <path d="M7.525,11.2148438 L6.475,11.2148438 C6.08839,11.2148438 5.775,11.5296328 5.775,11.9179688 C5.775,12.3063047 6.08839,12.6210938 6.475,12.6210938 L7.525,12.6210938 C7.91161,12.6210938 8.225,12.3063047 8.225,11.9179688 C8.225,11.5296328 7.91161,11.2148438 7.525,11.2148438 Z" id="Path"></path>
                <path d="M10.85,11.2148438 L9.8,11.2148438 C9.41339,11.2148438 9.1,11.5296328 9.1,11.9179688 C9.1,12.3063047 9.41339,12.6210938 9.8,12.6210938 L10.85,12.6210938 C11.23661,12.6210938 11.55,12.3063047 11.55,11.9179688 C11.55,11.5296328 11.23661,11.2148438 10.85,11.2148438 Z" id="Path"></path>
                <path d="M4.2,13.8515625 L3.15,13.8515625 C2.76339,13.8515625 2.45,14.1663516 2.45,14.5546875 C2.45,14.9430234 2.76339,15.2578125 3.15,15.2578125 L4.2,15.2578125 C4.58661,15.2578125 4.9,14.9430234 4.9,14.5546875 C4.9,14.1663516 4.58661,13.8515625 4.2,13.8515625 Z" id="Path"></path>
                <path d="M7.525,13.8515625 L6.475,13.8515625 C6.08839,13.8515625 5.775,14.1663516 5.775,14.5546875 C5.775,14.9430234 6.08839,15.2578125 6.475,15.2578125 L7.525,15.2578125 C7.91161,15.2578125 8.225,14.9430234 8.225,14.5546875 C8.225,14.1663516 7.91161,13.8515625 7.525,13.8515625 Z" id="Path"></path>
                <path d="M10.85,13.8515625 L9.8,13.8515625 C9.41339,13.8515625 9.1,14.1663516 9.1,14.5546875 C9.1,14.9430234 9.41339,15.2578125 9.8,15.2578125 L10.85,15.2578125 C11.23661,15.2578125 11.55,14.9430234 11.55,14.5546875 C11.55,14.1663516 11.23661,13.8515625 10.85,13.8515625 Z" id="Path"></path>
                <path d="M10.85,2.7421875 L3.15,2.7421875 C2.76339,2.7421875 2.45,3.05697656 2.45,3.4453125 L2.45,6.609375 C2.45,6.99771094 2.76339,7.3125 3.15,7.3125 L10.85,7.3125 C11.23661,7.3125 11.55,6.99771094 11.55,6.609375 L11.55,3.4453125 C11.55,3.05697656 11.23661,2.7421875 10.85,2.7421875 Z M10.15,5.90625 L3.85,5.90625 L3.85,4.1484375 L10.15,4.1484375 L10.15,5.90625 Z" id="Shape"></path>
            </g>
        </g>
    </g>
</svg>