<?xml version="1.0" encoding="UTF-8"?>
<svg width="18px" height="18px" viewBox="0 0 18 18" version="1.1" xmlns="http://www.w3.org/2000/svg" xmlns:xlink="http://www.w3.org/1999/xlink">
    <title>vendor_icon</title>
    <g id="Page-1" stroke="none" stroke-width="1" fill="none" fill-rule="evenodd">
        <g id="Artboard" transform="translate(-25.000000, -177.000000)" fill="#363636" fill-rule="nonzero" stroke="#363636" stroke-width="0.1">
            <g id="vendor_icon" transform="translate(26.000000, 178.000000)">
                <path d="M13.6568704,9.7133125 C12.7707749,8.82721875 11.7132104,8.17496875 10.5592081,7.7866875 C11.623429,7.000125 12.3149303,5.7368125 12.3149303,4.31490625 C12.3149616,1.93565625 10.3793015,0 8.00001563,0 C5.62072973,0 3.6850697,1.93565625 3.6850697,4.31490625 C3.6850697,5.73684375 4.37657105,7.00015625 5.44079188,7.7866875 C4.28678962,8.1749375 3.22928756,8.8271875 2.34312958,9.7133125 C0.832157875,11.2243125 0,13.2333125 0,15.3701875 C0,15.7180312 0.281969301,16 0.62981373,16 L15.3701863,16 C15.7180307,16 16,15.7180312 16,15.3701875 C16,13.2333125 15.1678734,11.2243125 13.6568704,9.7133125 Z M4.94475966,4.31490625 C4.94475966,2.63021875 6.31532483,1.25965625 8.00004688,1.25965625 C9.68476892,1.25965625 11.0553341,2.63021875 11.0553341,4.31490625 C11.0553341,5.99959375 9.68476892,7.37015625 8.00004688,7.37015625 C6.31532483,7.37015625 4.94475966,5.99959375 4.94475966,4.31490625 Z M1.28884627,14.7403437 C1.60740939,11.317875 4.49572753,8.6298125 8.00001563,8.6298125 C11.5043037,8.6298125 14.3926219,11.3178437 14.711185,14.7403437 L1.28884627,14.7403437 L1.28884627,14.7403437 Z" id="Shape"></path>
            </g>
        </g>
    </g>
</svg>