<?xml version="1.0" encoding="UTF-8"?>
<svg width="18px" height="13px" viewBox="0 0 18 13" version="1.1" xmlns="http://www.w3.org/2000/svg" xmlns:xlink="http://www.w3.org/1999/xlink">
    <title>waller_icon</title>
    <g id="Page-1" stroke="none" stroke-width="1" fill="none" fill-rule="evenodd">
        <g id="Artboard" transform="translate(-25.000000, -796.000000)" fill="#363636" fill-rule="nonzero">
            <g id="waller_icon" transform="translate(25.000000, 796.000000)">
                <path d="M17.296875,3.9 L16.171875,3.9 L16.171875,1.95 C16.171875,0.87477 15.2256094,0 14.0625,0 L2.109375,0 C0.946265625,0 0,0.87477 0,1.95 L0,11.05 C0,12.12523 0.946265625,13 2.109375,13 L14.0625,13 C15.2256094,13 16.171875,12.12523 16.171875,11.05 L16.171875,9.1 L17.296875,9.1 C17.6852109,9.1 18,8.808995 18,8.45 L18,4.55 C18,4.191005 17.6852109,3.9 17.296875,3.9 Z M14.765625,11.05 C14.765625,11.40841 14.4502031,11.7 14.0625,11.7 L2.109375,11.7 C1.72167187,11.7 1.40625,11.40841 1.40625,11.05 L1.40625,1.95 C1.40625,1.59159 1.72167187,1.3 2.109375,1.3 L14.0625,1.3 C14.4502031,1.3 14.765625,1.59159 14.765625,1.95 L14.765625,3.9 L11.953125,3.9 C11.5647891,3.9 11.25,4.191005 11.25,4.55 L11.25,8.45 C11.25,8.808995 11.5647891,9.1 11.953125,9.1 L14.765625,9.1 L14.765625,11.05 Z M16.59375,7.8 C16.1994375,7.8 13.0508086,7.8 12.65625,7.8 L12.65625,5.2 C13.0508086,5.2 16.1994375,5.2 16.59375,5.2 L16.59375,7.8 Z" id="Shape"></path>
                <ellipse id="Oval" cx="14.625" cy="6.5" rx="1" ry="1"></ellipse>
            </g>
        </g>
    </g>
</svg>