<?xml version="1.0" encoding="UTF-8"?>
<svg width="18px" height="18px" viewBox="0 0 18 18" version="1.1" xmlns="http://www.w3.org/2000/svg" xmlns:xlink="http://www.w3.org/1999/xlink">
    <title>domain_copy_icon</title>
    <g id="Page-1" stroke="none" stroke-width="1" fill="none" fill-rule="evenodd">
        <g id="Set-Profile" transform="translate(-1085.000000, -28.000000)" fill="#4097FF" fill-rule="nonzero">
            <g id="Group-4" transform="translate(859.000000, 18.000000)">
                <g id="domain_copy_icon" transform="translate(226.000000, 10.000000)">
                    <path d="M12.8571213,3.21427764 L1.92857008,3.21427764 C0.863449454,3.21427764 0,4.0777289 0,5.14285176 L0,16.0714259 C0,17.1365487 0.863449454,18 1.92857008,18 L12.8571213,18 C13.922242,18 14.7856914,17.1365487 14.7856914,16.0714259 L14.7856914,5.14285176 C14.7856914,4.0777289 13.922242,3.21427764 12.8571213,3.21427764 Z M13.4999906,16.0714635 C13.4999906,16.4265171 13.2121741,16.7143341 12.8571213,16.7143341 L1.92857008,16.7143341 C1.57351732,16.7143341 1.28570083,16.4265171 1.28570083,16.0714635 L1.28570083,5.14285176 C1.28570083,4.78779825 1.57351732,4.49998117 1.92857008,4.49998117 L12.8571213,4.49998117 C13.2121741,4.49998117 13.4999906,4.78779825 13.4999906,5.14285176 L13.4999906,16.0714635 Z" id="Shape"></path>
                    <path d="M16.0714393,0 L4.50000942,0 C3.43488879,0 2.57143933,0.86345126 2.57143933,1.92857412 C2.57143933,2.28362763 2.85925582,2.57144471 3.21430858,2.57144471 C3.56936135,2.57144471 3.85714017,2.28362763 3.85714017,1.92857412 C3.85714017,1.57352061 4.14495665,1.28570352 4.50000942,1.28570352 L16.0714393,1.28570352 C16.4264827,1.28570352 16.7142992,1.57352061 16.7142992,1.92857412 L16.7142992,13.5000188 C16.7142992,13.8550723 16.4264827,14.1428894 16.0714393,14.1428894 C15.7163772,14.1428894 15.4285607,14.4307065 15.4285607,14.78576 C15.4285607,15.1408135 15.7163772,15.4286306 16.0714393,15.4286306 C17.1365505,15.4286306 18,14.5651794 18,13.5000565 L18,1.92857412 C18,0.86345126 17.1365505,0 16.0714393,0 Z" id="Path"></path>
                </g>
            </g>
        </g>
    </g>
</svg>