<svg width="25" height="25" viewBox="0 0 25 25" fill="none" xmlns="http://www.w3.org/2000/svg">
<g clip-path="url(#clip0_110_223)">
<path d="M24.4236 12.2349C24.4236 5.60744 19.051 0.234863 12.4236 0.234863C5.79616 0.234863 0.423584 5.60744 0.423584 12.2349C0.423584 18.2243 4.81179 23.1888 10.5486 24.0891V15.7036H7.50171V12.2349H10.5486V9.59111C10.5486 6.58361 12.3401 4.92236 15.0812 4.92236C16.3937 4.92236 17.7673 5.15674 17.7673 5.15674V8.10986H16.2542C14.7636 8.10986 14.2986 9.03494 14.2986 9.98486V12.2349H17.6267L17.0947 15.7036H14.2986V24.0891C20.0354 23.1888 24.4236 18.2243 24.4236 12.2349Z" fill="#CAAE73"/>
</g>
<defs>
<clipPath id="clip0_110_223">
<rect width="24" height="24" fill="white" transform="translate(0.423584 0.234863)"/>
</clipPath>
</defs>
</svg>
