<svg width="25" height="25" viewBox="0 0 25 25" fill="none" xmlns="http://www.w3.org/2000/svg">
<g opacity="0.7">
<path d="M21.4682 15.6373L22.8982 14.2073L21.4682 12.7773L17.8982 16.3473L9.32819 7.77734L12.8982 4.20734L11.4682 2.77734L10.0382 4.20734L8.60819 2.77734L6.46819 4.91734L5.03819 3.48734L3.60819 4.91734L5.03819 6.34734L2.89819 8.48734L4.32819 9.91734L2.89819 11.3473L4.32819 12.7773L7.89819 9.20734L16.4682 17.7773L12.8982 21.3473L14.3282 22.7773L15.7582 21.3473L17.1882 22.7773L19.3282 20.6373L20.7582 22.0673L22.1882 20.6373L20.7582 19.2073L22.8982 17.0673L21.4682 15.6373Z" fill="#0C0C0C"/>
</g>
</svg>
