<svg width="25" height="25" viewBox="0 0 25 25" fill="none" xmlns="http://www.w3.org/2000/svg">
<g opacity="0.7">
<path d="M7.89819 8.77734C9.00276 8.77734 9.89819 7.88191 9.89819 6.77734C9.89819 5.67277 9.00276 4.77734 7.89819 4.77734C6.79362 4.77734 5.89819 5.67277 5.89819 6.77734C5.89819 7.88191 6.79362 8.77734 7.89819 8.77734Z" fill="#0C0C0C"/>
<path d="M12.0482 12.7773C11.7382 12.5573 11.4582 12.3173 11.2282 12.0573L9.82819 10.5073C9.63819 10.2973 9.39819 10.1273 9.13819 10.0073C8.84819 9.86734 8.51819 9.77734 8.17819 9.77734H8.14819C6.90819 9.77734 5.89819 10.7873 5.89819 12.0273V12.7773H2.89819V20.7773C2.89819 21.8773 3.79819 22.7773 4.89819 22.7773H20.8982C21.9982 22.7773 22.8982 21.8773 22.8982 20.7773V12.7773H12.0482ZM7.89819 20.7773H5.89819V14.7773H7.89819V20.7773ZM11.8982 20.7773H9.89819V14.7773H11.8982V20.7773ZM15.8982 20.7773H13.8982V14.7773H15.8982V20.7773ZM19.8982 20.7773H17.8982V14.7773H19.8982V20.7773ZM18.3182 7.98734C18.8882 8.60734 19.1382 9.39734 18.9882 10.1873L18.8782 10.7773H20.7882L20.8482 10.3473C21.0582 8.98734 20.5782 7.63734 19.5482 6.63734L19.4782 6.56734C18.9082 5.94734 18.6582 5.15734 18.8082 4.36734L18.8982 3.77734H17.0082L16.9482 4.20734C16.7482 5.56734 17.2182 6.91734 18.2482 7.92734L18.3182 7.98734ZM14.3182 7.98734C14.8882 8.60734 15.1382 9.39734 14.9882 10.1873L14.8782 10.7773H16.7882L16.8482 10.3473C17.0582 8.98734 16.5782 7.63734 15.5482 6.63734L15.4782 6.56734C14.9082 5.94734 14.6582 5.15734 14.8082 4.36734L14.8982 3.77734H13.0082L12.9482 4.20734C12.7482 5.56734 13.2182 6.91734 14.2482 7.92734L14.3182 7.98734Z" fill="#0C0C0C"/>
</g>
</svg>
