<svg width="25" height="25" viewBox="0 0 25 25" fill="none" xmlns="http://www.w3.org/2000/svg">
<g clip-path="url(#clip0_110_227)">
<path d="M12.4236 2.3958C15.6298 2.3958 16.0095 2.40986 17.2705 2.46611C18.4423 2.51768 19.0751 2.71455 19.497 2.87861C20.0548 3.09424 20.458 3.35674 20.8751 3.77393C21.297 4.1958 21.5548 4.59424 21.7705 5.15205C21.9345 5.57393 22.1314 6.21143 22.183 7.37861C22.2392 8.64424 22.2533 9.02393 22.2533 12.2255C22.2533 15.4317 22.2392 15.8114 22.183 17.0724C22.1314 18.2442 21.9345 18.8771 21.7705 19.2989C21.5548 19.8567 21.2923 20.2599 20.8751 20.6771C20.4533 21.0989 20.0548 21.3567 19.497 21.5724C19.0751 21.7364 18.4376 21.9333 17.2705 21.9849C16.0048 22.0411 15.6251 22.0552 12.4236 22.0552C9.21733 22.0552 8.83765 22.0411 7.57671 21.9849C6.40483 21.9333 5.77202 21.7364 5.35015 21.5724C4.79233 21.3567 4.38921 21.0942 3.97202 20.6771C3.55015 20.2552 3.29233 19.8567 3.07671 19.2989C2.91265 18.8771 2.71577 18.2396 2.66421 17.0724C2.60796 15.8067 2.5939 15.4271 2.5939 12.2255C2.5939 9.01924 2.60796 8.63955 2.66421 7.37861C2.71577 6.20674 2.91265 5.57393 3.07671 5.15205C3.29233 4.59424 3.55483 4.19111 3.97202 3.77393C4.3939 3.35205 4.79233 3.09424 5.35015 2.87861C5.77202 2.71455 6.40952 2.51768 7.57671 2.46611C8.83765 2.40986 9.21733 2.3958 12.4236 2.3958ZM12.4236 0.234863C9.16577 0.234863 8.75796 0.248926 7.47827 0.305176C6.20327 0.361426 5.32671 0.567676 4.56733 0.862988C3.77515 1.17236 3.10483 1.58018 2.43921 2.25049C1.7689 2.91611 1.36108 3.58643 1.05171 4.37393C0.756396 5.13799 0.550146 6.00986 0.493896 7.28486C0.437646 8.56924 0.423584 8.97705 0.423584 12.2349C0.423584 15.4927 0.437646 15.9005 0.493896 17.1802C0.550146 18.4552 0.756396 19.3317 1.05171 20.0911C1.36108 20.8833 1.7689 21.5536 2.43921 22.2192C3.10483 22.8849 3.77515 23.2974 4.56265 23.6021C5.32671 23.8974 6.19858 24.1036 7.47358 24.1599C8.75327 24.2161 9.16108 24.2302 12.4189 24.2302C15.6767 24.2302 16.0845 24.2161 17.3642 24.1599C18.6392 24.1036 19.5158 23.8974 20.2751 23.6021C21.0626 23.2974 21.733 22.8849 22.3986 22.2192C23.0642 21.5536 23.4767 20.8833 23.7814 20.0958C24.0767 19.3317 24.283 18.4599 24.3392 17.1849C24.3955 15.9052 24.4095 15.4974 24.4095 12.2396C24.4095 8.98174 24.3955 8.57393 24.3392 7.29424C24.283 6.01924 24.0767 5.14268 23.7814 4.3833C23.4861 3.58643 23.0783 2.91611 22.408 2.25049C21.7423 1.58486 21.072 1.17236 20.2845 0.867676C19.5205 0.572363 18.6486 0.366113 17.3736 0.309863C16.0892 0.248926 15.6814 0.234863 12.4236 0.234863Z" fill="#CAAE73"/>
<path d="M12.4236 6.0708C9.02046 6.0708 6.25952 8.83174 6.25952 12.2349C6.25952 15.638 9.02046 18.3989 12.4236 18.3989C15.8267 18.3989 18.5876 15.638 18.5876 12.2349C18.5876 8.83174 15.8267 6.0708 12.4236 6.0708ZM12.4236 16.2333C10.2158 16.2333 8.42515 14.4427 8.42515 12.2349C8.42515 10.0271 10.2158 8.23643 12.4236 8.23643C14.6314 8.23643 16.422 10.0271 16.422 12.2349C16.422 14.4427 14.6314 16.2333 12.4236 16.2333Z" fill="#CAAE73"/>
<path d="M20.2705 5.827C20.2705 6.62388 19.6236 7.26607 18.8314 7.26607C18.0345 7.26607 17.3923 6.61919 17.3923 5.827C17.3923 5.03013 18.0392 4.38794 18.8314 4.38794C19.6236 4.38794 20.2705 5.03482 20.2705 5.827Z" fill="#CAAE73"/>
</g>
<defs>
<clipPath id="clip0_110_227">
<rect width="24" height="24" fill="white" transform="translate(0.423584 0.234863)"/>
</clipPath>
</defs>
</svg>
