<svg width="25" height="25" viewBox="0 0 25 25" fill="none" xmlns="http://www.w3.org/2000/svg">
<g opacity="0.7">
<path d="M22.8982 12.7773C22.8982 11.6773 21.9982 10.7773 20.8982 10.7773V7.77734C20.8982 6.67734 19.9982 5.77734 18.8982 5.77734H6.89819C5.79819 5.77734 4.89819 6.67734 4.89819 7.77734V10.7773C3.79819 10.7773 2.89819 11.6773 2.89819 12.7773V17.7773H4.22819L4.89819 19.7773H5.89819L6.56819 17.7773H19.2382L19.8982 19.7773H20.8982L21.5682 17.7773H22.8982V12.7773ZM18.8982 10.7773H13.8982V7.77734H18.8982V10.7773ZM6.89819 7.77734H11.8982V10.7773H6.89819V7.77734ZM4.89819 12.7773H20.8982V15.7773H4.89819V12.7773Z" fill="#0C0C0C"/>
</g>
</svg>
