<svg width="34" height="16" viewBox="0 0 34 16" fill="none" xmlns="http://www.w3.org/2000/svg">
<path fill-rule="evenodd" clip-rule="evenodd" d="M34 1C34 1.55228 33.5523 2 33 2H1C0.447715 2 0 1.55228 0 1C0 0.447715 0.447716 0 1 0H33C33.5523 0 34 0.447715 34 1Z" fill="white"/>
<path fill-rule="evenodd" clip-rule="evenodd" d="M27.8109 8C27.8109 8.55228 27.3632 9 26.8109 9H7.18921C6.63692 9 6.18921 8.55228 6.18921 8C6.18921 7.44772 6.63692 7 7.18921 7H26.8109C27.3632 7 27.8109 7.44772 27.8109 8Z" fill="white"/>
<path fill-rule="evenodd" clip-rule="evenodd" d="M34 15C34 15.5523 33.5523 16 33 16H1C0.447715 16 0 15.5523 0 15C0 14.4477 0.447716 14 1 14H33C33.5523 14 34 14.4477 34 15Z" fill="white"/>
</svg>
