<svg width="25" height="25" viewBox="0 0 25 25" fill="none" xmlns="http://www.w3.org/2000/svg">
<g opacity="0.7">
<path d="M20.5 9.62287C20.46 5.23287 16.9 1.69287 12.5 1.69287C8.1 1.69287 4.54 5.23287 4.5 9.62287V15.6229C4.5 20.0429 8.08 23.6229 12.5 23.6229C16.92 23.6229 20.5 20.0429 20.5 15.6229V9.62287ZM18.5 9.62287H13.5V3.78287C16.31 4.25287 18.46 6.68287 18.5 9.62287ZM11.5 3.78287V9.62287H6.5C6.54 6.68287 8.69 4.25287 11.5 3.78287ZM18.5 15.6229C18.5 18.9329 15.81 21.6229 12.5 21.6229C9.19 21.6229 6.5 18.9329 6.5 15.6229V11.6229H18.5V15.6229Z" fill="white"/>
</g>
</svg>
