<svg width="25" height="25" viewBox="0 0 25 25" fill="none" xmlns="http://www.w3.org/2000/svg">
<g opacity="0.7">
<path d="M10.8982 8.7775L7.64819 12.0275C7.95819 12.1475 8.20819 12.2975 8.41819 12.4175C8.78819 12.6475 9.00819 12.7775 9.56819 12.7775C10.1282 12.7775 10.3482 12.6475 10.7182 12.4175C11.1782 12.1475 11.7982 11.7775 12.9082 11.7775C14.0182 11.7775 14.6382 12.1475 15.0882 12.4175C15.4582 12.6375 15.6882 12.7775 16.2382 12.7775C16.7882 12.7775 17.0182 12.6475 17.3882 12.4175C17.5082 12.3475 17.6482 12.2675 17.7982 12.1875L11.3782 5.7775C9.82819 4.2275 8.39819 3.7675 5.89819 3.7775V6.2775C7.71819 6.2675 8.78819 6.6675 9.89819 7.7775L10.8982 8.7775ZM22.8982 17.2775H22.8782H22.8982ZM6.24819 16.2775C6.79819 16.2775 7.02819 16.4175 7.39819 16.6375C7.84819 16.9075 8.46819 17.2775 9.57819 17.2775C10.6882 17.2775 11.3082 16.9075 11.7582 16.6375C12.1282 16.4075 12.3482 16.2775 12.9082 16.2775C13.4582 16.2775 13.6882 16.4175 14.0582 16.6375C14.5082 16.9075 15.1282 17.2775 16.2382 17.2775C17.3482 17.2775 17.9682 16.9075 18.4182 16.6375C18.7882 16.4075 19.0082 16.2775 19.5682 16.2775C20.1182 16.2775 20.3482 16.4175 20.7182 16.6375C21.1682 16.9075 21.7782 17.2675 22.8782 17.2775V15.2775C22.3282 15.2775 22.0982 15.1375 21.7282 14.9175C21.2782 14.6475 20.6582 14.2775 19.5482 14.2775C18.4382 14.2775 17.8182 14.6475 17.3682 14.9175C16.9982 15.1475 16.7682 15.2775 16.2182 15.2775C15.6682 15.2775 15.4382 15.1375 15.0682 14.9175C14.6182 14.6475 13.9982 14.2775 12.8882 14.2775C11.7782 14.2775 11.1582 14.6475 10.7082 14.9175C10.3382 15.1475 10.1182 15.2775 9.55819 15.2775C9.00819 15.2775 8.77819 15.1375 8.40819 14.9175C7.95819 14.6475 7.33819 14.2775 6.22819 14.2775C5.11819 14.2775 4.49819 14.6475 4.04819 14.9175C3.67819 15.1475 3.45819 15.2775 2.89819 15.2775V17.2775C4.00819 17.2775 4.62819 16.9075 5.09819 16.6375C5.46819 16.4075 5.69819 16.2775 6.24819 16.2775ZM19.5682 18.7775C18.4582 18.7775 17.8382 19.1475 17.3882 19.4175C17.0182 19.6475 16.7882 19.7775 16.2382 19.7775C15.6882 19.7775 15.4582 19.6375 15.0882 19.4175C14.6382 19.1475 14.0182 18.7775 12.9082 18.7775C11.7982 18.7775 11.1782 19.1475 10.7182 19.4175C10.3482 19.6475 10.1282 19.7775 9.56819 19.7775C9.00819 19.7775 8.78819 19.6475 8.41819 19.4175C7.96819 19.1475 7.34819 18.7775 6.23819 18.7775C5.12819 18.7775 4.50819 19.1475 4.04819 19.4175C3.67819 19.6475 3.45819 19.7775 2.89819 19.7775V21.7775C4.00819 21.7775 4.62819 21.4075 5.08819 21.1375C5.45819 20.9075 5.68819 20.7775 6.23819 20.7775C6.78819 20.7775 7.01819 20.9075 7.38819 21.1375C7.83819 21.4075 8.45819 21.7775 9.56819 21.7775C10.6782 21.7775 11.2982 21.4075 11.7582 21.1375C12.1282 20.9075 12.3482 20.7775 12.9082 20.7775C13.4582 20.7775 13.6882 20.9175 14.0582 21.1375C14.5082 21.4075 15.1282 21.7775 16.2382 21.7775C17.3482 21.7775 17.9582 21.4075 18.4182 21.1375C18.7882 20.9075 19.0082 20.7775 19.5682 20.7775C20.1182 20.7775 20.3482 20.9175 20.7182 21.1375C21.1682 21.4075 21.7882 21.7775 22.8982 21.7775V19.7775C22.3382 19.7775 22.1182 19.6475 21.7482 19.4175C21.2982 19.1475 20.6782 18.7775 19.5682 18.7775Z" fill="#0C0C0C"/>
<path d="M17.3982 8.77734C18.7789 8.77734 19.8982 7.65806 19.8982 6.27734C19.8982 4.89663 18.7789 3.77734 17.3982 3.77734C16.0175 3.77734 14.8982 4.89663 14.8982 6.27734C14.8982 7.65806 16.0175 8.77734 17.3982 8.77734Z" fill="#0C0C0C"/>
</g>
</svg>
