<svg width="16" height="16" viewBox="0 0 16 16" fill="none" xmlns="http://www.w3.org/2000/svg">
<mask id="path-1-inside-1_115_811" fill="white">
<path fill-rule="evenodd" clip-rule="evenodd" d="M5.89819 0C4.79362 0 3.89819 0.89543 3.89819 2V3H2.89819C1.79362 3 0.898193 3.89543 0.898193 5V14C0.898193 15.1046 1.79362 16 2.89819 16H10.8982C12.0028 16 12.8982 15.1046 12.8982 14V13H13.8982C15.0028 13 15.8982 12.1046 15.8982 11V2C15.8982 0.895431 15.0028 0 13.8982 0H5.89819ZM3.89819 4V11C3.89819 12.1046 4.79362 13 5.89819 13H11.8982V14C11.8982 14.5523 11.4505 15 10.8982 15H2.89819C2.34591 15 1.89819 14.5523 1.89819 14V5C1.89819 4.44772 2.34591 4 2.89819 4H3.89819Z"/>
</mask>
<path fill-rule="evenodd" clip-rule="evenodd" d="M5.89819 0C4.79362 0 3.89819 0.89543 3.89819 2V3H2.89819C1.79362 3 0.898193 3.89543 0.898193 5V14C0.898193 15.1046 1.79362 16 2.89819 16H10.8982C12.0028 16 12.8982 15.1046 12.8982 14V13H13.8982C15.0028 13 15.8982 12.1046 15.8982 11V2C15.8982 0.895431 15.0028 0 13.8982 0H5.89819ZM3.89819 4V11C3.89819 12.1046 4.79362 13 5.89819 13H11.8982V14C11.8982 14.5523 11.4505 15 10.8982 15H2.89819C2.34591 15 1.89819 14.5523 1.89819 14V5C1.89819 4.44772 2.34591 4 2.89819 4H3.89819Z" fill="white"/>
<path d="M3.89819 3V4H4.89819V3H3.89819ZM12.8982 13V12H11.8982V13H12.8982ZM3.89819 4H4.89819V3H3.89819V4ZM11.8982 13H12.8982V12H11.8982V13ZM4.89819 2C4.89819 1.44772 5.34591 1 5.89819 1V-1C4.24134 -1 2.89819 0.343146 2.89819 2H4.89819ZM4.89819 3V2H2.89819V3H4.89819ZM3.89819 2H2.89819V4H3.89819V2ZM2.89819 2C1.24134 2 -0.101807 3.34315 -0.101807 5H1.89819C1.89819 4.44772 2.34591 4 2.89819 4V2ZM-0.101807 5V14H1.89819V5H-0.101807ZM-0.101807 14C-0.101807 15.6569 1.24134 17 2.89819 17V15C2.34591 15 1.89819 14.5523 1.89819 14H-0.101807ZM2.89819 17H10.8982V15H2.89819V17ZM10.8982 17C12.555 17 13.8982 15.6569 13.8982 14H11.8982C11.8982 14.5523 11.4505 15 10.8982 15V17ZM13.8982 14V13H11.8982V14H13.8982ZM13.8982 12H12.8982V14H13.8982V12ZM14.8982 11C14.8982 11.5523 14.4505 12 13.8982 12V14C15.555 14 16.8982 12.6569 16.8982 11H14.8982ZM14.8982 2V11H16.8982V2H14.8982ZM13.8982 1C14.4505 1 14.8982 1.44772 14.8982 2H16.8982C16.8982 0.343146 15.555 -1 13.8982 -1V1ZM5.89819 1H13.8982V-1H5.89819V1ZM4.89819 11V4H2.89819V11H4.89819ZM5.89819 12C5.34591 12 4.89819 11.5523 4.89819 11H2.89819C2.89819 12.6569 4.24134 14 5.89819 14V12ZM11.8982 12H5.89819V14H11.8982V12ZM12.8982 14V13H10.8982V14H12.8982ZM10.8982 16C12.0028 16 12.8982 15.1046 12.8982 14H10.8982V16ZM2.89819 16H10.8982V14H2.89819V16ZM0.898193 14C0.898193 15.1046 1.79362 16 2.89819 16V14H2.89819H0.898193ZM0.898193 5V14H2.89819V5H0.898193ZM2.89819 3C1.79362 3 0.898193 3.89543 0.898193 5H2.89819V3ZM3.89819 3H2.89819V5H3.89819V3Z" fill="#CAAE73" mask="url(#path-1-inside-1_115_811)"/>
</svg>
