<svg width="25" height="25" viewBox="0 0 25 25" fill="none" xmlns="http://www.w3.org/2000/svg">
<g opacity="0.7">
<path d="M16.3882 10.4073C16.2082 7.61734 15.0782 4.89734 12.9582 2.77734C10.8182 4.91734 9.63819 7.63734 9.40819 10.4073C10.6882 11.0873 11.8682 11.9673 12.8982 13.0373C13.9282 11.9773 15.1082 11.0973 16.3882 10.4073ZM12.9482 5.96734C13.5782 6.99734 14.0182 8.14734 14.2482 9.34734C13.7782 9.64734 13.3382 9.97734 12.9082 10.3273C12.4882 9.98734 12.0382 9.65734 11.5782 9.35734C11.8282 8.15734 12.2882 7.00734 12.9482 5.96734ZM12.8982 16.2273C12.0782 14.9773 11.0382 13.8873 9.83819 13.0273C9.70819 12.9373 9.56819 12.8673 9.43819 12.7673C9.56819 12.8573 9.70819 12.9373 9.82819 13.0173C7.87819 11.6073 5.48819 10.7773 2.89819 10.7773C2.89819 16.0973 6.25819 20.5973 10.9282 22.2673C11.5582 22.4973 12.2182 22.6673 12.8982 22.7773C13.5782 22.6573 14.2282 22.4873 14.8682 22.2673C19.5382 20.5973 22.8982 16.0973 22.8982 10.7773C18.7182 10.7773 15.0482 12.9473 12.8982 16.2273ZM14.2182 20.3773C13.7782 20.5273 13.3382 20.6473 12.8882 20.7473C12.4482 20.6573 12.0182 20.5373 11.6082 20.3873C8.31819 19.2073 5.90819 16.3973 5.15819 13.0373C6.25819 13.2973 7.30819 13.7473 8.27819 14.3673L8.25819 14.3773C8.38819 14.4673 8.51819 14.5573 8.64819 14.6273L8.71819 14.6673C9.70819 15.3873 10.5582 16.2773 11.2282 17.3173L12.8982 19.8773L14.5682 17.3273C15.2582 16.2773 16.1182 15.3773 17.0982 14.6673L17.1682 14.6173C17.2582 14.5673 17.3482 14.5073 17.4382 14.4473L17.4282 14.4273C18.4082 13.7773 19.4982 13.2973 20.6382 13.0273C19.8882 16.3973 17.4882 19.2073 14.2182 20.3773ZM9.88819 13.0573C9.86819 13.0473 9.84819 13.0273 9.83819 13.0173C9.83819 13.0173 9.84819 13.0173 9.84819 13.0273C9.85819 13.0373 9.86819 13.0473 9.88819 13.0573Z" fill="#0C0C0C"/>
</g>
</svg>
