<svg width="25" height="25" viewBox="0 0 25 25" fill="none" xmlns="http://www.w3.org/2000/svg">
<g opacity="0.7">
<path d="M15.8982 13.7773V5.77734C15.8982 4.11734 14.5582 2.77734 12.8982 2.77734C11.2382 2.77734 9.89819 4.11734 9.89819 5.77734V13.7773C8.68819 14.6873 7.89819 16.1473 7.89819 17.7773C7.89819 20.5373 10.1382 22.7773 12.8982 22.7773C15.6582 22.7773 17.8982 20.5373 17.8982 17.7773C17.8982 16.1473 17.1082 14.6873 15.8982 13.7773ZM11.8982 5.77734C11.8982 5.22734 12.3482 4.77734 12.8982 4.77734C13.4482 4.77734 13.8982 5.22734 13.8982 5.77734H12.8982V6.77734H13.8982V8.77734H12.8982V9.77734H13.8982V11.7773H11.8982V5.77734Z" fill="#0C0C0C"/>
</g>
</svg>
