<svg width="25" height="25" viewBox="0 0 25 25" fill="none" xmlns="http://www.w3.org/2000/svg">
<g clip-path="url(#clip0_110_225)">
<path d="M7.97374 21.9848C17.0281 21.9848 21.9819 14.4816 21.9819 7.97672C21.9819 7.76579 21.9772 7.55016 21.9678 7.33922C22.9315 6.64232 23.7631 5.77912 24.4236 4.79016C23.5261 5.18946 22.5732 5.45025 21.5975 5.5636C22.6249 4.94777 23.3941 3.98034 23.7626 2.84063C22.7961 3.41342 21.7392 3.81748 20.637 4.03547C19.8944 3.24642 18.9126 2.72398 17.8433 2.54891C16.774 2.37385 15.6768 2.55591 14.7213 3.06696C13.7659 3.57801 13.0054 4.38957 12.5574 5.37617C12.1095 6.36278 11.999 7.46948 12.2431 8.52516C10.2861 8.42695 8.37152 7.91857 6.62357 7.03296C4.87561 6.14736 3.33328 4.9043 2.09655 3.38438C1.46798 4.46811 1.27564 5.75051 1.55861 6.97095C1.84159 8.1914 2.57865 9.25831 3.61999 9.95485C2.83821 9.93003 2.07356 9.71954 1.38921 9.34079V9.40172C1.38851 10.539 1.78168 11.6414 2.50189 12.5216C3.22211 13.4018 4.22491 14.0054 5.33983 14.2298C4.61564 14.428 3.85557 14.4569 3.11843 14.3142C3.43304 15.2923 4.04516 16.1478 4.86935 16.7612C5.69355 17.3746 6.6887 17.7155 7.71593 17.7361C5.97201 19.106 3.81776 19.849 1.60015 19.8455C1.20687 19.8449 0.813983 19.8208 0.423584 19.7733C2.67644 21.2186 5.29712 21.9862 7.97374 21.9848Z" fill="#CAAE73"/>
</g>
<defs>
<clipPath id="clip0_110_225">
<rect width="24" height="24" fill="white" transform="translate(0.423584 0.234863)"/>
</clipPath>
</defs>
</svg>
